<?xml version="1.0" encoding="utf-8" standalone="no"?>
<!DOCTYPE svg PUBLIC "-//W3C//DTD SVG 1.1//EN"
  "http://www.w3.org/Graphics/SVG/1.1/DTD/svg11.dtd">
<svg xmlns:xlink="http://www.w3.org/1999/xlink" width="720pt" height="576pt" viewBox="0 0 720 576" xmlns="http://www.w3.org/2000/svg" version="1.1">
 <metadata>
  <rdf:RDF xmlns:dc="http://purl.org/dc/elements/1.1/" xmlns:cc="http://creativecommons.org/ns#" xmlns:rdf="http://www.w3.org/1999/02/22-rdf-syntax-ns#">
   <cc:Work>
    <dc:type rdf:resource="http://purl.org/dc/dcmitype/StillImage"/>
    <dc:date>2025-12-04T11:29:17.371278</dc:date>
    <dc:format>image/svg+xml</dc:format>
    <dc:creator>
     <cc:Agent>
      <dc:title>Matplotlib v3.10.7, https://matplotlib.org/</dc:title>
     </cc:Agent>
    </dc:creator>
   </cc:Work>
  </rdf:RDF>
 </metadata>
 <defs>
  <style type="text/css">*{stroke-linejoin: round; stroke-linecap: butt}</style>
 </defs>
 <g id="figure_1">
  <g id="patch_1">
   <path d="M 0 576 
L 720 576 
L 720 0 
L 0 0 
z
" style="fill: #ffffff"/>
  </g>
  <g id="axes_1">
   <g id="patch_2">
    <path d="M 73.37 162.346353 
L 458.251291 162.346353 
L 458.251291 17.28 
L 73.37 17.28 
z
" style="fill: #ffffff"/>
   </g>
   <g id="matplotlib.axis_1">
    <g id="xtick_1">
     <g id="line2d_1">
      <defs>
       <path id="m78433a74a4" d="M 0 0 
L 0 3.5 
" style="stroke: #000000; stroke-width: 0.8"/>
      </defs>
      <g>
       <use xlink:href="#m78433a74a4" x="90.864604" y="162.346353" style="stroke: #000000; stroke-width: 0.8"/>
      </g>
     </g>
    </g>
    <g id="xtick_2">
     <g id="line2d_2">
      <g>
       <use xlink:href="#m78433a74a4" x="161.549873" y="162.346353" style="stroke: #000000; stroke-width: 0.8"/>
      </g>
     </g>
    </g>
    <g id="xtick_3">
     <g id="line2d_3">
      <g>
       <use xlink:href="#m78433a74a4" x="232.235143" y="162.346353" style="stroke: #000000; stroke-width: 0.8"/>
      </g>
     </g>
    </g>
    <g id="xtick_4">
     <g id="line2d_4">
      <g>
       <use xlink:href="#m78433a74a4" x="302.920412" y="162.346353" style="stroke: #000000; stroke-width: 0.8"/>
      </g>
     </g>
    </g>
    <g id="xtick_5">
     <g id="line2d_5">
      <g>
       <use xlink:href="#m78433a74a4" x="373.605681" y="162.346353" style="stroke: #000000; stroke-width: 0.8"/>
      </g>
     </g>
    </g>
    <g id="xtick_6">
     <g id="line2d_6">
      <g>
       <use xlink:href="#m78433a74a4" x="444.290951" y="162.346353" style="stroke: #000000; stroke-width: 0.8"/>
      </g>
     </g>
    </g>
   </g>
   <g id="matplotlib.axis_2">
    <g id="ytick_1">
     <g id="line2d_7">
      <defs>
       <path id="m61737dca02" d="M 0 0 
L -3.5 0 
" style="stroke: #000000; stroke-width: 0.8"/>
      </defs>
      <g>
       <use xlink:href="#m61737dca02" x="73.37" y="129.376727" style="stroke: #000000; stroke-width: 0.8"/>
      </g>
     </g>
     <g id="text_1">
      <!-- 200 -->
      <g transform="translate(35.83 135.455477) scale(0.16 -0.16)">
       <defs>
        <path id="DejaVuSans-32" d="M 1228 531 
L 3431 531 
L 3431 0 
L 469 0 
L 469 531 
Q 828 903 1448 1529 
Q 2069 2156 2228 2338 
Q 2531 2678 2651 2914 
Q 2772 3150 2772 3378 
Q 2772 3750 2511 3984 
Q 2250 4219 1831 4219 
Q 1534 4219 1204 4116 
Q 875 4013 500 3803 
L 500 4441 
Q 881 4594 1212 4672 
Q 1544 4750 1819 4750 
Q 2544 4750 2975 4387 
Q 3406 4025 3406 3419 
Q 3406 3131 3298 2873 
Q 3191 2616 2906 2266 
Q 2828 2175 2409 1742 
Q 1991 1309 1228 531 
z
" transform="scale(0.015625)"/>
        <path id="DejaVuSans-30" d="M 2034 4250 
Q 1547 4250 1301 3770 
Q 1056 3291 1056 2328 
Q 1056 1369 1301 889 
Q 1547 409 2034 409 
Q 2525 409 2770 889 
Q 3016 1369 3016 2328 
Q 3016 3291 2770 3770 
Q 2525 4250 2034 4250 
z
M 2034 4750 
Q 2819 4750 3233 4129 
Q 3647 3509 3647 2328 
Q 3647 1150 3233 529 
Q 2819 -91 2034 -91 
Q 1250 -91 836 529 
Q 422 1150 422 2328 
Q 422 3509 836 4129 
Q 1250 4750 2034 4750 
z
" transform="scale(0.015625)"/>
       </defs>
       <use xlink:href="#DejaVuSans-32"/>
       <use xlink:href="#DejaVuSans-30" transform="translate(63.623047 0)"/>
       <use xlink:href="#DejaVuSans-30" transform="translate(127.246094 0)"/>
      </g>
     </g>
    </g>
    <g id="ytick_2">
     <g id="line2d_8">
      <g>
       <use xlink:href="#m61737dca02" x="73.37" y="85.417226" style="stroke: #000000; stroke-width: 0.8"/>
      </g>
     </g>
     <g id="text_2">
      <!-- 400 -->
      <g transform="translate(35.83 91.495976) scale(0.16 -0.16)">
       <defs>
        <path id="DejaVuSans-34" d="M 2419 4116 
L 825 1625 
L 2419 1625 
L 2419 4116 
z
M 2253 4666 
L 3047 4666 
L 3047 1625 
L 3713 1625 
L 3713 1100 
L 3047 1100 
L 3047 0 
L 2419 0 
L 2419 1100 
L 313 1100 
L 313 1709 
L 2253 4666 
z
" transform="scale(0.015625)"/>
       </defs>
       <use xlink:href="#DejaVuSans-34"/>
       <use xlink:href="#DejaVuSans-30" transform="translate(63.623047 0)"/>
       <use xlink:href="#DejaVuSans-30" transform="translate(127.246094 0)"/>
      </g>
     </g>
    </g>
    <g id="ytick_3">
     <g id="line2d_9">
      <g>
       <use xlink:href="#m61737dca02" x="73.37" y="41.457725" style="stroke: #000000; stroke-width: 0.8"/>
      </g>
     </g>
     <g id="text_3">
      <!-- 600 -->
      <g transform="translate(35.83 47.536475) scale(0.16 -0.16)">
       <defs>
        <path id="DejaVuSans-36" d="M 2113 2584 
Q 1688 2584 1439 2293 
Q 1191 2003 1191 1497 
Q 1191 994 1439 701 
Q 1688 409 2113 409 
Q 2538 409 2786 701 
Q 3034 994 3034 1497 
Q 3034 2003 2786 2293 
Q 2538 2584 2113 2584 
z
M 3366 4563 
L 3366 3988 
Q 3128 4100 2886 4159 
Q 2644 4219 2406 4219 
Q 1781 4219 1451 3797 
Q 1122 3375 1075 2522 
Q 1259 2794 1537 2939 
Q 1816 3084 2150 3084 
Q 2853 3084 3261 2657 
Q 3669 2231 3669 1497 
Q 3669 778 3244 343 
Q 2819 -91 2113 -91 
Q 1303 -91 875 529 
Q 447 1150 447 2328 
Q 447 3434 972 4092 
Q 1497 4750 2381 4750 
Q 2619 4750 2861 4703 
Q 3103 4656 3366 4563 
z
" transform="scale(0.015625)"/>
       </defs>
       <use xlink:href="#DejaVuSans-36"/>
       <use xlink:href="#DejaVuSans-30" transform="translate(63.623047 0)"/>
       <use xlink:href="#DejaVuSans-30" transform="translate(127.246094 0)"/>
      </g>
     </g>
    </g>
    <g id="text_4">
     <!-- Duração da etapa (s) -->
     <g transform="translate(28.5025 174.391926) rotate(-90) scale(0.16 -0.16)">
      <defs>
       <path id="DejaVuSans-44" d="M 1259 4147 
L 1259 519 
L 2022 519 
Q 2988 519 3436 956 
Q 3884 1394 3884 2338 
Q 3884 3275 3436 3711 
Q 2988 4147 2022 4147 
L 1259 4147 
z
M 628 4666 
L 1925 4666 
Q 3281 4666 3915 4102 
Q 4550 3538 4550 2338 
Q 4550 1131 3912 565 
Q 3275 0 1925 0 
L 628 0 
L 628 4666 
z
" transform="scale(0.015625)"/>
       <path id="DejaVuSans-75" d="M 544 1381 
L 544 3500 
L 1119 3500 
L 1119 1403 
Q 1119 906 1312 657 
Q 1506 409 1894 409 
Q 2359 409 2629 706 
Q 2900 1003 2900 1516 
L 2900 3500 
L 3475 3500 
L 3475 0 
L 2900 0 
L 2900 538 
Q 2691 219 2414 64 
Q 2138 -91 1772 -91 
Q 1169 -91 856 284 
Q 544 659 544 1381 
z
M 1991 3584 
L 1991 3584 
z
" transform="scale(0.015625)"/>
       <path id="DejaVuSans-72" d="M 2631 2963 
Q 2534 3019 2420 3045 
Q 2306 3072 2169 3072 
Q 1681 3072 1420 2755 
Q 1159 2438 1159 1844 
L 1159 0 
L 581 0 
L 581 3500 
L 1159 3500 
L 1159 2956 
Q 1341 3275 1631 3429 
Q 1922 3584 2338 3584 
Q 2397 3584 2469 3576 
Q 2541 3569 2628 3553 
L 2631 2963 
z
" transform="scale(0.015625)"/>
       <path id="DejaVuSans-61" d="M 2194 1759 
Q 1497 1759 1228 1600 
Q 959 1441 959 1056 
Q 959 750 1161 570 
Q 1363 391 1709 391 
Q 2188 391 2477 730 
Q 2766 1069 2766 1631 
L 2766 1759 
L 2194 1759 
z
M 3341 1997 
L 3341 0 
L 2766 0 
L 2766 531 
Q 2569 213 2275 61 
Q 1981 -91 1556 -91 
Q 1019 -91 701 211 
Q 384 513 384 1019 
Q 384 1609 779 1909 
Q 1175 2209 1959 2209 
L 2766 2209 
L 2766 2266 
Q 2766 2663 2505 2880 
Q 2244 3097 1772 3097 
Q 1472 3097 1187 3025 
Q 903 2953 641 2809 
L 641 3341 
Q 956 3463 1253 3523 
Q 1550 3584 1831 3584 
Q 2591 3584 2966 3190 
Q 3341 2797 3341 1997 
z
" transform="scale(0.015625)"/>
       <path id="DejaVuSans-e7" d="M 3122 3366 
L 3122 2828 
Q 2878 2963 2633 3030 
Q 2388 3097 2138 3097 
Q 1578 3097 1268 2742 
Q 959 2388 959 1747 
Q 959 1106 1268 751 
Q 1578 397 2138 397 
Q 2388 397 2633 464 
Q 2878 531 3122 666 
L 3122 134 
Q 2881 22 2623 -34 
Q 2366 -91 2075 -91 
Q 1284 -91 818 406 
Q 353 903 353 1747 
Q 353 2603 823 3093 
Q 1294 3584 2113 3584 
Q 2378 3584 2631 3529 
Q 2884 3475 3122 3366 
z
M 2311 0 
Q 2482 -194 2566 -358 
Q 2651 -522 2651 -672 
Q 2651 -950 2463 -1092 
Q 2276 -1234 1907 -1234 
Q 1764 -1234 1628 -1215 
Q 1492 -1197 1357 -1159 
L 1357 -750 
Q 1464 -803 1579 -826 
Q 1695 -850 1842 -850 
Q 2026 -850 2120 -775 
Q 2214 -700 2214 -556 
Q 2214 -463 2146 -327 
Q 2079 -191 1939 0 
L 2311 0 
z
" transform="scale(0.015625)"/>
       <path id="DejaVuSans-e3" d="M 2194 1759 
Q 1497 1759 1228 1600 
Q 959 1441 959 1056 
Q 959 750 1161 570 
Q 1363 391 1709 391 
Q 2188 391 2477 730 
Q 2766 1069 2766 1631 
L 2766 1759 
L 2194 1759 
z
M 3341 1997 
L 3341 0 
L 2766 0 
L 2766 531 
Q 2569 213 2275 61 
Q 1981 -91 1556 -91 
Q 1019 -91 701 211 
Q 384 513 384 1019 
Q 384 1609 779 1909 
Q 1175 2209 1959 2209 
L 2766 2209 
L 2766 2266 
Q 2766 2663 2505 2880 
Q 2244 3097 1772 3097 
Q 1472 3097 1187 3025 
Q 903 2953 641 2809 
L 641 3341 
Q 956 3463 1253 3523 
Q 1550 3584 1831 3584 
Q 2591 3584 2966 3190 
Q 3341 2797 3341 1997 
z
M 1844 4281 
L 1665 4453 
Q 1597 4516 1545 4545 
Q 1494 4575 1453 4575 
Q 1334 4575 1278 4461 
Q 1222 4347 1215 4091 
L 825 4091 
Q 831 4513 990 4742 
Q 1150 4972 1434 4972 
Q 1553 4972 1653 4928 
Q 1753 4884 1869 4781 
L 2047 4609 
Q 2115 4547 2167 4517 
Q 2219 4488 2259 4488 
Q 2378 4488 2434 4602 
Q 2490 4716 2497 4972 
L 2887 4972 
Q 2881 4550 2721 4320 
Q 2562 4091 2278 4091 
Q 2159 4091 2059 4134 
Q 1959 4178 1844 4281 
z
" transform="scale(0.015625)"/>
       <path id="DejaVuSans-6f" d="M 1959 3097 
Q 1497 3097 1228 2736 
Q 959 2375 959 1747 
Q 959 1119 1226 758 
Q 1494 397 1959 397 
Q 2419 397 2687 759 
Q 2956 1122 2956 1747 
Q 2956 2369 2687 2733 
Q 2419 3097 1959 3097 
z
M 1959 3584 
Q 2709 3584 3137 3096 
Q 3566 2609 3566 1747 
Q 3566 888 3137 398 
Q 2709 -91 1959 -91 
Q 1206 -91 779 398 
Q 353 888 353 1747 
Q 353 2609 779 3096 
Q 1206 3584 1959 3584 
z
" transform="scale(0.015625)"/>
       <path id="DejaVuSans-20" transform="scale(0.015625)"/>
       <path id="DejaVuSans-64" d="M 2906 2969 
L 2906 4863 
L 3481 4863 
L 3481 0 
L 2906 0 
L 2906 525 
Q 2725 213 2448 61 
Q 2172 -91 1784 -91 
Q 1150 -91 751 415 
Q 353 922 353 1747 
Q 353 2572 751 3078 
Q 1150 3584 1784 3584 
Q 2172 3584 2448 3432 
Q 2725 3281 2906 2969 
z
M 947 1747 
Q 947 1113 1208 752 
Q 1469 391 1925 391 
Q 2381 391 2643 752 
Q 2906 1113 2906 1747 
Q 2906 2381 2643 2742 
Q 2381 3103 1925 3103 
Q 1469 3103 1208 2742 
Q 947 2381 947 1747 
z
" transform="scale(0.015625)"/>
       <path id="DejaVuSans-65" d="M 3597 1894 
L 3597 1613 
L 953 1613 
Q 991 1019 1311 708 
Q 1631 397 2203 397 
Q 2534 397 2845 478 
Q 3156 559 3463 722 
L 3463 178 
Q 3153 47 2828 -22 
Q 2503 -91 2169 -91 
Q 1331 -91 842 396 
Q 353 884 353 1716 
Q 353 2575 817 3079 
Q 1281 3584 2069 3584 
Q 2775 3584 3186 3129 
Q 3597 2675 3597 1894 
z
M 3022 2063 
Q 3016 2534 2758 2815 
Q 2500 3097 2075 3097 
Q 1594 3097 1305 2825 
Q 1016 2553 972 2059 
L 3022 2063 
z
" transform="scale(0.015625)"/>
       <path id="DejaVuSans-74" d="M 1172 4494 
L 1172 3500 
L 2356 3500 
L 2356 3053 
L 1172 3053 
L 1172 1153 
Q 1172 725 1289 603 
Q 1406 481 1766 481 
L 2356 481 
L 2356 0 
L 1766 0 
Q 1100 0 847 248 
Q 594 497 594 1153 
L 594 3053 
L 172 3053 
L 172 3500 
L 594 3500 
L 594 4494 
L 1172 4494 
z
" transform="scale(0.015625)"/>
       <path id="DejaVuSans-70" d="M 1159 525 
L 1159 -1331 
L 581 -1331 
L 581 3500 
L 1159 3500 
L 1159 2969 
Q 1341 3281 1617 3432 
Q 1894 3584 2278 3584 
Q 2916 3584 3314 3078 
Q 3713 2572 3713 1747 
Q 3713 922 3314 415 
Q 2916 -91 2278 -91 
Q 1894 -91 1617 61 
Q 1341 213 1159 525 
z
M 3116 1747 
Q 3116 2381 2855 2742 
Q 2594 3103 2138 3103 
Q 1681 3103 1420 2742 
Q 1159 2381 1159 1747 
Q 1159 1113 1420 752 
Q 1681 391 2138 391 
Q 2594 391 2855 752 
Q 3116 1113 3116 1747 
z
" transform="scale(0.015625)"/>
       <path id="DejaVuSans-28" d="M 1984 4856 
Q 1566 4138 1362 3434 
Q 1159 2731 1159 2009 
Q 1159 1288 1364 580 
Q 1569 -128 1984 -844 
L 1484 -844 
Q 1016 -109 783 600 
Q 550 1309 550 2009 
Q 550 2706 781 3412 
Q 1013 4119 1484 4856 
L 1984 4856 
z
" transform="scale(0.015625)"/>
       <path id="DejaVuSans-73" d="M 2834 3397 
L 2834 2853 
Q 2591 2978 2328 3040 
Q 2066 3103 1784 3103 
Q 1356 3103 1142 2972 
Q 928 2841 928 2578 
Q 928 2378 1081 2264 
Q 1234 2150 1697 2047 
L 1894 2003 
Q 2506 1872 2764 1633 
Q 3022 1394 3022 966 
Q 3022 478 2636 193 
Q 2250 -91 1575 -91 
Q 1294 -91 989 -36 
Q 684 19 347 128 
L 347 722 
Q 666 556 975 473 
Q 1284 391 1588 391 
Q 1994 391 2212 530 
Q 2431 669 2431 922 
Q 2431 1156 2273 1281 
Q 2116 1406 1581 1522 
L 1381 1569 
Q 847 1681 609 1914 
Q 372 2147 372 2553 
Q 372 3047 722 3315 
Q 1072 3584 1716 3584 
Q 2034 3584 2315 3537 
Q 2597 3491 2834 3397 
z
" transform="scale(0.015625)"/>
       <path id="DejaVuSans-29" d="M 513 4856 
L 1013 4856 
Q 1481 4119 1714 3412 
Q 1947 2706 1947 2009 
Q 1947 1309 1714 600 
Q 1481 -109 1013 -844 
L 513 -844 
Q 928 -128 1133 580 
Q 1338 1288 1338 2009 
Q 1338 2731 1133 3434 
Q 928 4138 513 4856 
z
" transform="scale(0.015625)"/>
      </defs>
      <use xlink:href="#DejaVuSans-44"/>
      <use xlink:href="#DejaVuSans-75" transform="translate(77.001953 0)"/>
      <use xlink:href="#DejaVuSans-72" transform="translate(140.380859 0)"/>
      <use xlink:href="#DejaVuSans-61" transform="translate(181.494141 0)"/>
      <use xlink:href="#DejaVuSans-e7" transform="translate(242.773438 0)"/>
      <use xlink:href="#DejaVuSans-e3" transform="translate(297.753906 0)"/>
      <use xlink:href="#DejaVuSans-6f" transform="translate(359.033203 0)"/>
      <use xlink:href="#DejaVuSans-20" transform="translate(420.214844 0)"/>
      <use xlink:href="#DejaVuSans-64" transform="translate(452.001953 0)"/>
      <use xlink:href="#DejaVuSans-61" transform="translate(515.478516 0)"/>
      <use xlink:href="#DejaVuSans-20" transform="translate(576.757812 0)"/>
      <use xlink:href="#DejaVuSans-65" transform="translate(608.544922 0)"/>
      <use xlink:href="#DejaVuSans-74" transform="translate(670.068359 0)"/>
      <use xlink:href="#DejaVuSans-61" transform="translate(709.277344 0)"/>
      <use xlink:href="#DejaVuSans-70" transform="translate(770.556641 0)"/>
      <use xlink:href="#DejaVuSans-61" transform="translate(834.033203 0)"/>
      <use xlink:href="#DejaVuSans-20" transform="translate(895.3125 0)"/>
      <use xlink:href="#DejaVuSans-28" transform="translate(927.099609 0)"/>
      <use xlink:href="#DejaVuSans-73" transform="translate(966.113281 0)"/>
      <use xlink:href="#DejaVuSans-29" transform="translate(1018.212891 0)"/>
     </g>
    </g>
   </g>
   <g id="line2d_10">
    <path d="M 90.864604 23.873925 
L 94.398868 25.079023 
L 97.933131 26.057109 
L 101.467395 27.070543 
L 105.001658 28.051573 
L 108.535921 28.956721 
L 112.070185 29.67509 
L 115.604448 30.254196 
L 119.138712 30.73577 
L 122.672975 31.151833 
L 126.207239 31.512997 
L 129.741502 31.818253 
L 133.275766 32.11234 
L 136.810029 32.392033 
L 140.344293 32.655805 
L 143.878556 32.902757 
L 147.41282 33.133027 
L 150.947083 33.347122 
L 154.481346 33.545893 
L 158.01561 33.730418 
L 161.549873 33.901864 
L 165.084137 34.061331 
L 168.6184 34.21003 
L 172.152664 34.348089 
L 175.686927 34.476281 
L 179.221191 34.595179 
L 182.755454 34.706377 
L 186.289718 34.810852 
L 189.823981 34.90909 
L 193.358245 35.003344 
L 196.892508 35.094133 
L 200.426772 35.181852 
L 203.961035 35.266788 
L 207.495298 35.349124 
L 211.029562 35.429413 
L 214.563825 35.507543 
L 218.098089 35.583587 
L 221.632352 35.657508 
L 225.166616 35.729418 
L 228.700879 35.799406 
L 232.235143 35.867326 
L 235.769406 35.933341 
L 239.30367 35.99749 
L 242.837933 36.059833 
L 246.372197 36.120415 
L 249.90646 36.179031 
L 253.440723 36.236069 
L 256.974987 36.291365 
L 260.50925 36.344909 
L 264.043514 36.396739 
L 267.577777 36.446887 
L 271.112041 36.495372 
L 274.646304 36.542197 
L 278.180568 36.587445 
L 281.714831 36.630989 
L 285.249095 36.67299 
L 288.783358 36.713436 
L 292.317622 36.752477 
L 295.851885 36.79018 
L 299.386149 36.826583 
L 302.920412 36.86172 
L 306.454675 36.895628 
L 309.988939 36.92835 
L 313.523202 36.959925 
L 317.057466 36.990396 
L 320.591729 37.019805 
L 324.125993 37.048192 
L 327.660256 37.075598 
L 331.19452 37.102064 
L 334.728783 37.127629 
L 338.263047 37.15233 
L 341.79731 37.176101 
L 345.331574 37.199077 
L 348.865837 37.221294 
L 352.4001 37.242781 
L 355.934364 37.263572 
L 359.468627 37.283696 
L 363.002891 37.303181 
L 366.537154 37.322055 
L 370.071418 37.340345 
L 373.605681 37.358076 
L 377.139945 37.375272 
L 380.674208 37.391958 
L 384.208472 37.408154 
L 387.742735 37.423884 
L 391.276999 37.439166 
L 394.811262 37.454021 
L 398.345525 37.468466 
L 401.879789 37.482521 
L 405.414052 37.496201 
L 408.948316 37.509524 
L 412.482579 37.522504 
L 416.016843 37.535157 
L 419.551106 37.547496 
L 423.08537 37.559535 
L 426.619633 37.571287 
L 430.153897 37.582764 
L 433.68816 37.593979 
L 437.222424 37.604941 
L 440.756687 37.615663 
" clip-path="url(#pf92c8f544d)" style="fill: none; stroke: #1f77b4; stroke-width: 1.5; stroke-linecap: square"/>
   </g>
   <g id="line2d_11">
    <path d="M 90.864604 115.089889 
L 94.398868 118.403341 
L 97.933131 120.311947 
L 101.467395 121.779086 
L 105.001658 122.908304 
L 108.535921 123.750647 
L 112.070185 124.161707 
L 115.604448 124.298768 
L 119.138712 124.281165 
L 122.672975 124.193548 
L 126.207239 124.067715 
L 129.741502 123.917275 
L 133.275766 123.812317 
L 136.810029 123.743005 
L 140.344293 123.701637 
L 143.878556 123.681442 
L 147.41282 123.677197 
L 150.947083 123.684385 
L 154.481346 123.699279 
L 158.01561 123.718857 
L 161.549873 123.740688 
L 165.084137 123.762595 
L 168.6184 123.783385 
L 172.152664 123.802362 
L 175.686927 123.818798 
L 179.221191 123.832591 
L 182.755454 123.84391 
L 186.289718 123.85229 
L 189.823981 123.858245 
L 193.358245 123.863816 
L 196.892508 123.869721 
L 200.426772 123.875448 
L 203.961035 123.880547 
L 207.495298 123.884657 
L 211.029562 123.887462 
L 214.563825 123.889334 
L 218.098089 123.890147 
L 221.632352 123.889771 
L 225.166616 123.888159 
L 228.700879 123.885236 
L 232.235143 123.881019 
L 235.769406 123.875487 
L 239.30367 123.868747 
L 242.837933 123.860867 
L 246.372197 123.852012 
L 249.90646 123.842235 
L 253.440723 123.831655 
L 256.974987 123.820486 
L 260.50925 123.808893 
L 264.043514 123.797068 
L 267.577777 123.785175 
L 271.112041 123.773363 
L 274.646304 123.761767 
L 278.180568 123.750387 
L 281.714831 123.739495 
L 285.249095 123.729013 
L 288.783358 123.718957 
L 292.317622 123.709389 
L 295.851885 123.700338 
L 299.386149 123.691813 
L 302.920412 123.683812 
L 306.454675 123.676334 
L 309.988939 123.669377 
L 313.523202 123.662934 
L 317.057466 123.656994 
L 320.591729 123.651549 
L 324.125993 123.646586 
L 327.660256 123.64209 
L 331.19452 123.638048 
L 334.728783 123.634444 
L 338.263047 123.631263 
L 341.79731 123.628078 
L 345.331574 123.625381 
L 348.865837 123.623138 
L 352.4001 123.621316 
L 355.934364 123.619887 
L 359.468627 123.618824 
L 363.002891 123.618104 
L 366.537154 123.617707 
L 370.071418 123.617613 
L 373.605681 123.617805 
L 377.139945 123.618265 
L 380.674208 123.618979 
L 384.208472 123.619931 
L 387.742735 123.621108 
L 391.276999 123.622498 
L 394.811262 123.624088 
L 398.345525 123.625866 
L 401.879789 123.627822 
L 405.414052 123.629946 
L 408.948316 123.632228 
L 412.482579 123.634658 
L 416.016843 123.637228 
L 419.551106 123.63993 
L 423.08537 123.642756 
L 426.619633 123.645699 
L 430.153897 123.648751 
L 433.68816 123.651907 
L 437.222424 123.655159 
L 440.756687 123.658502 
" clip-path="url(#pf92c8f544d)" style="fill: none; stroke: #ff7f0e; stroke-width: 1.5; stroke-linecap: square"/>
   </g>
   <g id="line2d_12">
    <path d="M 90.864604 144.762553 
L 94.398868 144.58959 
L 97.933131 144.074192 
L 101.467395 143.400508 
L 105.001658 142.845989 
L 108.535921 142.61467 
L 112.070185 142.645898 
L 115.604448 142.82707 
L 119.138712 143.082997 
L 122.672975 143.367879 
L 126.207239 143.651921 
L 129.741502 143.867018 
L 133.275766 144.020741 
L 136.810029 144.138667 
L 140.344293 144.23581 
L 143.878556 144.3209 
L 147.41282 144.398182 
L 150.947083 144.46964 
L 154.481346 144.53592 
L 158.01561 144.597042 
L 161.549873 144.652716 
L 165.084137 144.702803 
L 168.6184 144.746565 
L 172.152664 144.762553 
L 175.686927 144.762553 
L 179.221191 144.762553 
L 182.755454 144.762553 
L 186.289718 144.762553 
L 189.823981 144.762553 
L 193.358245 144.762553 
L 196.892508 144.762553 
L 200.426772 144.762553 
L 203.961035 144.762553 
L 207.495298 144.762553 
L 211.029562 144.762553 
L 214.563825 144.762553 
L 218.098089 144.762553 
L 221.632352 144.762553 
L 225.166616 144.762553 
L 228.700879 144.762553 
L 232.235143 144.762553 
L 235.769406 144.762553 
L 239.30367 144.762553 
L 242.837933 144.762553 
L 246.372197 144.762553 
L 249.90646 144.762553 
L 253.440723 144.762553 
L 256.974987 144.76077 
L 260.50925 144.757741 
L 264.043514 144.753993 
L 267.577777 144.749885 
L 271.112041 144.745652 
L 274.646304 144.741439 
L 278.180568 144.737268 
L 281.714831 144.733282 
L 285.249095 144.729465 
L 288.783358 144.725753 
L 292.317622 144.722237 
L 295.851885 144.718913 
L 299.386149 144.715744 
L 302.920412 144.712691 
L 306.454675 144.709725 
L 309.988939 144.706822 
L 313.523202 144.70396 
L 317.057466 144.701123 
L 320.591729 144.698297 
L 324.125993 144.695469 
L 327.660256 144.692631 
L 331.19452 144.689774 
L 334.728783 144.686892 
L 338.263047 144.683982 
L 341.79731 144.680853 
L 345.331574 144.677804 
L 348.865837 144.674797 
L 352.4001 144.671803 
L 355.934364 144.668805 
L 359.468627 144.665787 
L 363.002891 144.662742 
L 366.537154 144.659664 
L 370.071418 144.65655 
L 373.605681 144.653399 
L 377.139945 144.650211 
L 380.674208 144.646988 
L 384.208472 144.64373 
L 387.742735 144.64044 
L 391.276999 144.637121 
L 394.811262 144.633775 
L 398.345525 144.630403 
L 401.879789 144.62701 
L 405.414052 144.623597 
L 408.948316 144.620167 
L 412.482579 144.616721 
L 416.016843 144.613263 
L 419.551106 144.609793 
L 423.08537 144.606314 
L 426.619633 144.602828 
L 430.153897 144.599335 
L 433.68816 144.595838 
L 437.222424 144.592338 
L 440.756687 144.588835 
" clip-path="url(#pf92c8f544d)" style="fill: none; stroke: #2ca02c; stroke-width: 1.5; stroke-linecap: square"/>
   </g>
   <g id="line2d_13">
    <path d="M 90.864604 155.752428 
L 94.398868 150.032543 
L 97.933131 148.844679 
L 101.467395 148.269411 
L 105.001658 148.059515 
L 108.535921 148.059515 
L 112.070185 148.059515 
L 115.604448 148.059515 
L 119.138712 148.059515 
L 122.672975 148.06741 
L 126.207239 148.078187 
L 129.741502 148.096023 
L 133.275766 148.142574 
L 136.810029 148.210496 
L 140.344293 148.293128 
L 143.878556 148.384301 
L 147.41282 148.478769 
L 150.947083 148.572384 
L 154.481346 148.662007 
L 158.01561 148.745422 
L 161.549873 148.821222 
L 165.084137 148.888403 
L 168.6184 148.946851 
L 172.152664 148.99812 
L 175.686927 149.043513 
L 179.221191 149.082933 
L 182.755454 149.116517 
L 186.289718 149.144459 
L 189.823981 149.167264 
L 193.358245 149.186741 
L 196.892508 149.203521 
L 200.426772 149.217681 
L 203.961035 149.229373 
L 207.495298 149.238761 
L 211.029562 149.246005 
L 214.563825 149.2515 
L 218.098089 149.255376 
L 221.632352 149.25774 
L 225.166616 149.258719 
L 228.700879 149.258426 
L 232.235143 149.256985 
L 235.769406 149.254509 
L 239.30367 149.251141 
L 242.837933 149.246985 
L 246.372197 149.242183 
L 249.90646 149.236762 
L 253.440723 149.230938 
L 256.974987 149.224946 
L 260.50925 149.218998 
L 264.043514 149.213235 
L 267.577777 149.207747 
L 271.112041 149.202593 
L 274.646304 149.197815 
L 278.180568 149.193397 
L 281.714831 149.189423 
L 285.249095 149.185826 
L 288.783358 149.182606 
L 292.317622 149.179752 
L 295.851885 149.177259 
L 299.386149 149.175113 
L 302.920412 149.173298 
L 306.454675 149.171797 
L 309.988939 149.170595 
L 313.523202 149.169676 
L 317.057466 149.169027 
L 320.591729 149.168633 
L 324.125993 149.168481 
L 327.660256 149.168558 
L 331.19452 149.168851 
L 334.728783 149.16935 
L 338.263047 149.170043 
L 341.79731 149.170784 
L 345.331574 149.171725 
L 348.865837 149.172847 
L 352.4001 149.174136 
L 355.934364 149.17558 
L 359.468627 149.177172 
L 363.002891 149.1789 
L 366.537154 149.180756 
L 370.071418 149.182734 
L 373.605681 149.184824 
L 377.139945 149.187021 
L 380.674208 149.189318 
L 384.208472 149.191709 
L 387.742735 149.194188 
L 391.276999 149.19675 
L 394.811262 149.19939 
L 398.345525 149.202102 
L 401.879789 149.204883 
L 405.414052 149.207728 
L 408.948316 149.210632 
L 412.482579 149.213593 
L 416.016843 149.216605 
L 419.551106 149.219667 
L 423.08537 149.222774 
L 426.619633 149.225923 
L 430.153897 149.229112 
L 433.68816 149.232337 
L 437.222424 149.235596 
L 440.756687 149.238886 
" clip-path="url(#pf92c8f544d)" style="fill: none; stroke: #d62728; stroke-width: 1.5; stroke-linecap: square"/>
   </g>
   <g id="patch_3">
    <path d="M 73.37 162.346353 
L 73.37 17.28 
" style="fill: none; stroke: #000000; stroke-width: 0.8; stroke-linejoin: miter; stroke-linecap: square"/>
   </g>
   <g id="patch_4">
    <path d="M 458.251291 162.346353 
L 458.251291 17.28 
" style="fill: none; stroke: #000000; stroke-width: 0.8; stroke-linejoin: miter; stroke-linecap: square"/>
   </g>
   <g id="patch_5">
    <path d="M 73.37 162.346353 
L 458.251291 162.346353 
" style="fill: none; stroke: #000000; stroke-width: 0.8; stroke-linejoin: miter; stroke-linecap: square"/>
   </g>
   <g id="patch_6">
    <path d="M 73.37 17.28 
L 458.251291 17.28 
" style="fill: none; stroke: #000000; stroke-width: 0.8; stroke-linejoin: miter; stroke-linecap: square"/>
   </g>
   <g id="legend_1">
    <g id="line2d_14">
     <path d="M 472.651291 52.584426 
L 488.651291 52.584426 
L 504.651291 52.584426 
" style="fill: none; stroke: #1f77b4; stroke-width: 1.5; stroke-linecap: square"/>
    </g>
    <g id="text_5">
     <!-- $t_{feed}$ -->
     <g transform="translate(517.451291 58.184426) scale(0.16 -0.16)">
      <defs>
       <path id="DejaVuSans-Oblique-74" d="M 2706 3500 
L 2619 3053 
L 1472 3053 
L 1100 1153 
Q 1081 1047 1072 975 
Q 1063 903 1063 863 
Q 1063 663 1183 572 
Q 1303 481 1569 481 
L 2150 481 
L 2053 0 
L 1503 0 
Q 991 0 739 200 
Q 488 400 488 806 
Q 488 878 497 964 
Q 506 1050 525 1153 
L 897 3053 
L 409 3053 
L 500 3500 
L 978 3500 
L 1172 4494 
L 1747 4494 
L 1556 3500 
L 2706 3500 
z
" transform="scale(0.015625)"/>
       <path id="DejaVuSans-Oblique-66" d="M 3059 4863 
L 2969 4384 
L 2419 4384 
Q 2106 4384 1964 4261 
Q 1822 4138 1753 3809 
L 1691 3500 
L 2638 3500 
L 2553 3053 
L 1606 3053 
L 1013 0 
L 434 0 
L 1031 3053 
L 481 3053 
L 563 3500 
L 1113 3500 
L 1159 3744 
Q 1278 4363 1576 4613 
Q 1875 4863 2516 4863 
L 3059 4863 
z
" transform="scale(0.015625)"/>
       <path id="DejaVuSans-Oblique-65" d="M 3078 2063 
Q 3088 2113 3092 2166 
Q 3097 2219 3097 2272 
Q 3097 2653 2873 2875 
Q 2650 3097 2266 3097 
Q 1838 3097 1509 2826 
Q 1181 2556 1013 2059 
L 3078 2063 
z
M 3578 1613 
L 903 1613 
Q 884 1494 878 1425 
Q 872 1356 872 1306 
Q 872 872 1139 634 
Q 1406 397 1894 397 
Q 2269 397 2603 481 
Q 2938 566 3225 728 
L 3116 159 
Q 2806 34 2476 -28 
Q 2147 -91 1806 -91 
Q 1078 -91 686 257 
Q 294 606 294 1247 
Q 294 1794 489 2264 
Q 684 2734 1063 3103 
Q 1306 3334 1642 3459 
Q 1978 3584 2356 3584 
Q 2950 3584 3301 3228 
Q 3653 2872 3653 2272 
Q 3653 2128 3634 1964 
Q 3616 1800 3578 1613 
z
" transform="scale(0.015625)"/>
       <path id="DejaVuSans-Oblique-64" d="M 2675 525 
Q 2444 222 2128 65 
Q 1813 -91 1428 -91 
Q 903 -91 598 267 
Q 294 625 294 1247 
Q 294 1766 478 2236 
Q 663 2706 1013 3078 
Q 1244 3325 1534 3454 
Q 1825 3584 2144 3584 
Q 2481 3584 2739 3421 
Q 2997 3259 3138 2956 
L 3513 4863 
L 4091 4863 
L 3144 0 
L 2566 0 
L 2675 525 
z
M 891 1350 
Q 891 897 1095 644 
Q 1300 391 1663 391 
Q 1931 391 2161 520 
Q 2391 650 2566 903 
Q 2750 1166 2856 1509 
Q 2963 1853 2963 2188 
Q 2963 2622 2758 2865 
Q 2553 3109 2194 3109 
Q 1922 3109 1687 2981 
Q 1453 2853 1288 2613 
Q 1106 2353 998 2009 
Q 891 1666 891 1350 
z
" transform="scale(0.015625)"/>
      </defs>
      <use xlink:href="#DejaVuSans-Oblique-74" transform="translate(0 0.78125)"/>
      <use xlink:href="#DejaVuSans-Oblique-66" transform="translate(39.208984 -15.625) scale(0.7)"/>
      <use xlink:href="#DejaVuSans-Oblique-65" transform="translate(63.852539 -15.625) scale(0.7)"/>
      <use xlink:href="#DejaVuSans-Oblique-65" transform="translate(106.918945 -15.625) scale(0.7)"/>
      <use xlink:href="#DejaVuSans-Oblique-64" transform="translate(149.985352 -15.625) scale(0.7)"/>
     </g>
    </g>
    <g id="line2d_15">
     <path d="M 472.651291 76.069426 
L 488.651291 76.069426 
L 504.651291 76.069426 
" style="fill: none; stroke: #ff7f0e; stroke-width: 1.5; stroke-linecap: square"/>
    </g>
    <g id="text_6">
     <!-- $t_{rinse}$ -->
     <g transform="translate(517.451291 81.669426) scale(0.16 -0.16)">
      <defs>
       <path id="DejaVuSans-Oblique-72" d="M 2853 2969 
Q 2766 3016 2653 3041 
Q 2541 3066 2413 3066 
Q 1953 3066 1609 2717 
Q 1266 2369 1153 1784 
L 800 0 
L 225 0 
L 909 3500 
L 1484 3500 
L 1375 2956 
Q 1603 3259 1920 3421 
Q 2238 3584 2597 3584 
Q 2691 3584 2781 3573 
Q 2872 3563 2963 3538 
L 2853 2969 
z
" transform="scale(0.015625)"/>
       <path id="DejaVuSans-Oblique-69" d="M 1172 4863 
L 1747 4863 
L 1606 4134 
L 1031 4134 
L 1172 4863 
z
M 909 3500 
L 1484 3500 
L 800 0 
L 225 0 
L 909 3500 
z
" transform="scale(0.015625)"/>
       <path id="DejaVuSans-Oblique-6e" d="M 3566 2113 
L 3156 0 
L 2578 0 
L 2988 2091 
Q 3016 2238 3031 2350 
Q 3047 2463 3047 2528 
Q 3047 2791 2881 2937 
Q 2716 3084 2419 3084 
Q 1956 3084 1622 2776 
Q 1288 2469 1184 1941 
L 800 0 
L 225 0 
L 903 3500 
L 1478 3500 
L 1363 2950 
Q 1603 3253 1940 3418 
Q 2278 3584 2650 3584 
Q 3113 3584 3367 3334 
Q 3622 3084 3622 2631 
Q 3622 2519 3608 2391 
Q 3594 2263 3566 2113 
z
" transform="scale(0.015625)"/>
       <path id="DejaVuSans-Oblique-73" d="M 3200 3397 
L 3091 2853 
Q 2863 2978 2609 3040 
Q 2356 3103 2088 3103 
Q 1634 3103 1373 2948 
Q 1113 2794 1113 2528 
Q 1113 2219 1719 2053 
Q 1766 2041 1788 2034 
L 1972 1978 
Q 2547 1819 2739 1644 
Q 2931 1469 2931 1166 
Q 2931 609 2489 259 
Q 2047 -91 1331 -91 
Q 1053 -91 747 -37 
Q 441 16 72 128 
L 184 722 
Q 500 559 806 475 
Q 1113 391 1394 391 
Q 1816 391 2080 572 
Q 2344 753 2344 1031 
Q 2344 1331 1650 1516 
L 1591 1531 
L 1394 1581 
Q 956 1697 753 1886 
Q 550 2075 550 2369 
Q 550 2928 970 3256 
Q 1391 3584 2113 3584 
Q 2397 3584 2667 3537 
Q 2938 3491 3200 3397 
z
" transform="scale(0.015625)"/>
      </defs>
      <use xlink:href="#DejaVuSans-Oblique-74" transform="translate(0 0.78125)"/>
      <use xlink:href="#DejaVuSans-Oblique-72" transform="translate(39.208984 -15.625) scale(0.7)"/>
      <use xlink:href="#DejaVuSans-Oblique-69" transform="translate(67.988281 -15.625) scale(0.7)"/>
      <use xlink:href="#DejaVuSans-Oblique-6e" transform="translate(87.436523 -15.625) scale(0.7)"/>
      <use xlink:href="#DejaVuSans-Oblique-73" transform="translate(131.801758 -15.625) scale(0.7)"/>
      <use xlink:href="#DejaVuSans-Oblique-65" transform="translate(168.271484 -15.625) scale(0.7)"/>
     </g>
    </g>
    <g id="line2d_16">
     <path d="M 472.651291 99.554426 
L 488.651291 99.554426 
L 504.651291 99.554426 
" style="fill: none; stroke: #2ca02c; stroke-width: 1.5; stroke-linecap: square"/>
    </g>
    <g id="text_7">
     <!-- $t_{blow}$ -->
     <g transform="translate(517.451291 105.154426) scale(0.16 -0.16)">
      <defs>
       <path id="DejaVuSans-Oblique-62" d="M 3169 2138 
Q 3169 2591 2961 2847 
Q 2753 3103 2388 3103 
Q 2122 3103 1889 2973 
Q 1656 2844 1484 2597 
Q 1303 2338 1198 1995 
Q 1094 1653 1094 1313 
Q 1094 881 1298 636 
Q 1503 391 1863 391 
Q 2134 391 2365 517 
Q 2597 644 2772 891 
Q 2950 1147 3059 1487 
Q 3169 1828 3169 2138 
z
M 1381 2969 
Q 1594 3256 1914 3420 
Q 2234 3584 2584 3584 
Q 3122 3584 3439 3221 
Q 3756 2859 3756 2241 
Q 3756 1734 3570 1259 
Q 3384 784 3041 416 
Q 2816 172 2522 40 
Q 2228 -91 1906 -91 
Q 1566 -91 1316 65 
Q 1066 222 909 531 
L 806 0 
L 231 0 
L 1178 4863 
L 1753 4863 
L 1381 2969 
z
" transform="scale(0.015625)"/>
       <path id="DejaVuSans-Oblique-6c" d="M 1172 4863 
L 1747 4863 
L 800 0 
L 225 0 
L 1172 4863 
z
" transform="scale(0.015625)"/>
       <path id="DejaVuSans-Oblique-6f" d="M 1625 -91 
Q 1009 -91 651 289 
Q 294 669 294 1325 
Q 294 1706 417 2101 
Q 541 2497 738 2766 
Q 1047 3184 1428 3384 
Q 1809 3584 2291 3584 
Q 2888 3584 3255 3212 
Q 3622 2841 3622 2241 
Q 3622 1825 3500 1412 
Q 3378 1000 3181 728 
Q 2875 309 2494 109 
Q 2113 -91 1625 -91 
z
M 891 1344 
Q 891 869 1089 633 
Q 1288 397 1691 397 
Q 2269 397 2648 901 
Q 3028 1406 3028 2181 
Q 3028 2634 2825 2865 
Q 2622 3097 2228 3097 
Q 1903 3097 1650 2945 
Q 1397 2794 1197 2484 
Q 1050 2253 970 1956 
Q 891 1659 891 1344 
z
" transform="scale(0.015625)"/>
       <path id="DejaVuSans-Oblique-77" d="M 544 3500 
L 1113 3500 
L 1259 684 
L 2566 3500 
L 3231 3500 
L 3425 684 
L 4666 3500 
L 5241 3500 
L 3641 0 
L 2969 0 
L 2797 2900 
L 1459 0 
L 781 0 
L 544 3500 
z
" transform="scale(0.015625)"/>
      </defs>
      <use xlink:href="#DejaVuSans-Oblique-74" transform="translate(0 0.78125)"/>
      <use xlink:href="#DejaVuSans-Oblique-62" transform="translate(39.208984 -15.625) scale(0.7)"/>
      <use xlink:href="#DejaVuSans-Oblique-6c" transform="translate(83.642578 -15.625) scale(0.7)"/>
      <use xlink:href="#DejaVuSans-Oblique-6f" transform="translate(103.09082 -15.625) scale(0.7)"/>
      <use xlink:href="#DejaVuSans-Oblique-77" transform="translate(145.917969 -15.625) scale(0.7)"/>
     </g>
    </g>
    <g id="line2d_17">
     <path d="M 472.651291 123.039426 
L 488.651291 123.039426 
L 504.651291 123.039426 
" style="fill: none; stroke: #d62728; stroke-width: 1.5; stroke-linecap: square"/>
    </g>
    <g id="text_8">
     <!-- $t_{purge}$ -->
     <g transform="translate(517.451291 128.639426) scale(0.16 -0.16)">
      <defs>
       <path id="DejaVuSans-Oblique-70" d="M 3175 2156 
Q 3175 2616 2975 2859 
Q 2775 3103 2400 3103 
Q 2144 3103 1911 2972 
Q 1678 2841 1497 2591 
Q 1319 2344 1212 1994 
Q 1106 1644 1106 1300 
Q 1106 863 1306 627 
Q 1506 391 1875 391 
Q 2147 391 2380 519 
Q 2613 647 2778 891 
Q 2956 1147 3065 1494 
Q 3175 1841 3175 2156 
z
M 1394 2969 
Q 1625 3272 1939 3428 
Q 2253 3584 2638 3584 
Q 3175 3584 3472 3232 
Q 3769 2881 3769 2247 
Q 3769 1728 3584 1258 
Q 3400 788 3053 416 
Q 2822 169 2531 39 
Q 2241 -91 1919 -91 
Q 1547 -91 1294 64 
Q 1041 219 916 525 
L 556 -1331 
L -19 -1331 
L 922 3500 
L 1497 3500 
L 1394 2969 
z
" transform="scale(0.015625)"/>
       <path id="DejaVuSans-Oblique-75" d="M 428 1388 
L 838 3500 
L 1416 3500 
L 1006 1409 
Q 975 1256 961 1147 
Q 947 1038 947 966 
Q 947 700 1109 554 
Q 1272 409 1569 409 
Q 2031 409 2368 721 
Q 2706 1034 2809 1563 
L 3194 3500 
L 3769 3500 
L 3091 0 
L 2516 0 
L 2631 550 
Q 2388 244 2052 76 
Q 1716 -91 1338 -91 
Q 878 -91 622 161 
Q 366 413 366 863 
Q 366 956 381 1097 
Q 397 1238 428 1388 
z
" transform="scale(0.015625)"/>
       <path id="DejaVuSans-Oblique-67" d="M 3816 3500 
L 3219 434 
Q 3047 -456 2561 -893 
Q 2075 -1331 1253 -1331 
Q 950 -1331 690 -1286 
Q 431 -1241 206 -1147 
L 313 -588 
Q 525 -725 762 -790 
Q 1000 -856 1269 -856 
Q 1816 -856 2167 -557 
Q 2519 -259 2631 300 
L 2681 563 
Q 2441 288 2122 144 
Q 1803 0 1434 0 
Q 903 0 598 351 
Q 294 703 294 1319 
Q 294 1803 478 2267 
Q 663 2731 997 3091 
Q 1219 3328 1514 3456 
Q 1809 3584 2131 3584 
Q 2484 3584 2746 3420 
Q 3009 3256 3138 2956 
L 3238 3500 
L 3816 3500 
z
M 2950 2216 
Q 2950 2641 2750 2872 
Q 2550 3103 2181 3103 
Q 1953 3103 1747 3012 
Q 1541 2922 1394 2759 
Q 1156 2491 1023 2127 
Q 891 1763 891 1375 
Q 891 944 1092 712 
Q 1294 481 1672 481 
Q 2219 481 2584 976 
Q 2950 1472 2950 2216 
z
" transform="scale(0.015625)"/>
      </defs>
      <use xlink:href="#DejaVuSans-Oblique-74" transform="translate(0 0.78125)"/>
      <use xlink:href="#DejaVuSans-Oblique-70" transform="translate(39.208984 -15.625) scale(0.7)"/>
      <use xlink:href="#DejaVuSans-Oblique-75" transform="translate(83.642578 -15.625) scale(0.7)"/>
      <use xlink:href="#DejaVuSans-Oblique-72" transform="translate(128.007812 -15.625) scale(0.7)"/>
      <use xlink:href="#DejaVuSans-Oblique-67" transform="translate(156.787109 -15.625) scale(0.7)"/>
      <use xlink:href="#DejaVuSans-Oblique-65" transform="translate(201.220703 -15.625) scale(0.7)"/>
     </g>
    </g>
   </g>
  </g>
  <g id="axes_2">
   <g id="patch_7">
    <path d="M 73.37 340.633176 
L 458.251291 340.633176 
L 458.251291 195.566824 
L 73.37 195.566824 
z
" style="fill: #ffffff"/>
   </g>
   <g id="matplotlib.axis_3">
    <g id="xtick_7">
     <g id="line2d_18">
      <g>
       <use xlink:href="#m78433a74a4" x="90.864604" y="340.633176" style="stroke: #000000; stroke-width: 0.8"/>
      </g>
     </g>
    </g>
    <g id="xtick_8">
     <g id="line2d_19">
      <g>
       <use xlink:href="#m78433a74a4" x="161.549873" y="340.633176" style="stroke: #000000; stroke-width: 0.8"/>
      </g>
     </g>
    </g>
    <g id="xtick_9">
     <g id="line2d_20">
      <g>
       <use xlink:href="#m78433a74a4" x="232.235143" y="340.633176" style="stroke: #000000; stroke-width: 0.8"/>
      </g>
     </g>
    </g>
    <g id="xtick_10">
     <g id="line2d_21">
      <g>
       <use xlink:href="#m78433a74a4" x="302.920412" y="340.633176" style="stroke: #000000; stroke-width: 0.8"/>
      </g>
     </g>
    </g>
    <g id="xtick_11">
     <g id="line2d_22">
      <g>
       <use xlink:href="#m78433a74a4" x="373.605681" y="340.633176" style="stroke: #000000; stroke-width: 0.8"/>
      </g>
     </g>
    </g>
    <g id="xtick_12">
     <g id="line2d_23">
      <g>
       <use xlink:href="#m78433a74a4" x="444.290951" y="340.633176" style="stroke: #000000; stroke-width: 0.8"/>
      </g>
     </g>
    </g>
   </g>
   <g id="matplotlib.axis_4">
    <g id="ytick_4">
     <g id="line2d_24">
      <g>
       <use xlink:href="#m61737dca02" x="73.37" y="322.667483" style="stroke: #000000; stroke-width: 0.8"/>
      </g>
     </g>
     <g id="text_9">
      <!-- 70 -->
      <g transform="translate(46.01 328.746233) scale(0.16 -0.16)">
       <defs>
        <path id="DejaVuSans-37" d="M 525 4666 
L 3525 4666 
L 3525 4397 
L 1831 0 
L 1172 0 
L 2766 4134 
L 525 4134 
L 525 4666 
z
" transform="scale(0.015625)"/>
       </defs>
       <use xlink:href="#DejaVuSans-37"/>
       <use xlink:href="#DejaVuSans-30" transform="translate(63.623047 0)"/>
      </g>
     </g>
    </g>
    <g id="ytick_5">
     <g id="line2d_25">
      <g>
       <use xlink:href="#m61737dca02" x="73.37" y="284.404163" style="stroke: #000000; stroke-width: 0.8"/>
      </g>
     </g>
     <g id="text_10">
      <!-- 80 -->
      <g transform="translate(46.01 290.482913) scale(0.16 -0.16)">
       <defs>
        <path id="DejaVuSans-38" d="M 2034 2216 
Q 1584 2216 1326 1975 
Q 1069 1734 1069 1313 
Q 1069 891 1326 650 
Q 1584 409 2034 409 
Q 2484 409 2743 651 
Q 3003 894 3003 1313 
Q 3003 1734 2745 1975 
Q 2488 2216 2034 2216 
z
M 1403 2484 
Q 997 2584 770 2862 
Q 544 3141 544 3541 
Q 544 4100 942 4425 
Q 1341 4750 2034 4750 
Q 2731 4750 3128 4425 
Q 3525 4100 3525 3541 
Q 3525 3141 3298 2862 
Q 3072 2584 2669 2484 
Q 3125 2378 3379 2068 
Q 3634 1759 3634 1313 
Q 3634 634 3220 271 
Q 2806 -91 2034 -91 
Q 1263 -91 848 271 
Q 434 634 434 1313 
Q 434 1759 690 2068 
Q 947 2378 1403 2484 
z
M 1172 3481 
Q 1172 3119 1398 2916 
Q 1625 2713 2034 2713 
Q 2441 2713 2670 2916 
Q 2900 3119 2900 3481 
Q 2900 3844 2670 4047 
Q 2441 4250 2034 4250 
Q 1625 4250 1398 4047 
Q 1172 3844 1172 3481 
z
" transform="scale(0.015625)"/>
       </defs>
       <use xlink:href="#DejaVuSans-38"/>
       <use xlink:href="#DejaVuSans-30" transform="translate(63.623047 0)"/>
      </g>
     </g>
    </g>
    <g id="ytick_6">
     <g id="line2d_26">
      <g>
       <use xlink:href="#m61737dca02" x="73.37" y="246.140842" style="stroke: #000000; stroke-width: 0.8"/>
      </g>
     </g>
     <g id="text_11">
      <!-- 90 -->
      <g transform="translate(46.01 252.219592) scale(0.16 -0.16)">
       <defs>
        <path id="DejaVuSans-39" d="M 703 97 
L 703 672 
Q 941 559 1184 500 
Q 1428 441 1663 441 
Q 2288 441 2617 861 
Q 2947 1281 2994 2138 
Q 2813 1869 2534 1725 
Q 2256 1581 1919 1581 
Q 1219 1581 811 2004 
Q 403 2428 403 3163 
Q 403 3881 828 4315 
Q 1253 4750 1959 4750 
Q 2769 4750 3195 4129 
Q 3622 3509 3622 2328 
Q 3622 1225 3098 567 
Q 2575 -91 1691 -91 
Q 1453 -91 1209 -44 
Q 966 3 703 97 
z
M 1959 2075 
Q 2384 2075 2632 2365 
Q 2881 2656 2881 3163 
Q 2881 3666 2632 3958 
Q 2384 4250 1959 4250 
Q 1534 4250 1286 3958 
Q 1038 3666 1038 3163 
Q 1038 2656 1286 2365 
Q 1534 2075 1959 2075 
z
" transform="scale(0.015625)"/>
       </defs>
       <use xlink:href="#DejaVuSans-39"/>
       <use xlink:href="#DejaVuSans-30" transform="translate(63.623047 0)"/>
      </g>
     </g>
    </g>
    <g id="ytick_7">
     <g id="line2d_27">
      <g>
       <use xlink:href="#m61737dca02" x="73.37" y="207.877522" style="stroke: #000000; stroke-width: 0.8"/>
      </g>
     </g>
     <g id="text_12">
      <!-- 100 -->
      <g transform="translate(35.83 213.956272) scale(0.16 -0.16)">
       <defs>
        <path id="DejaVuSans-31" d="M 794 531 
L 1825 531 
L 1825 4091 
L 703 3866 
L 703 4441 
L 1819 4666 
L 2450 4666 
L 2450 531 
L 3481 531 
L 3481 0 
L 794 0 
L 794 531 
z
" transform="scale(0.015625)"/>
       </defs>
       <use xlink:href="#DejaVuSans-31"/>
       <use xlink:href="#DejaVuSans-30" transform="translate(63.623047 0)"/>
       <use xlink:href="#DejaVuSans-30" transform="translate(127.246094 0)"/>
      </g>
     </g>
    </g>
    <g id="text_13">
     <!-- KPIs -->
     <g transform="translate(28.5025 284.6975) rotate(-90) scale(0.16 -0.16)">
      <defs>
       <path id="DejaVuSans-4b" d="M 628 4666 
L 1259 4666 
L 1259 2694 
L 3353 4666 
L 4166 4666 
L 1850 2491 
L 4331 0 
L 3500 0 
L 1259 2247 
L 1259 0 
L 628 0 
L 628 4666 
z
" transform="scale(0.015625)"/>
       <path id="DejaVuSans-50" d="M 1259 4147 
L 1259 2394 
L 2053 2394 
Q 2494 2394 2734 2622 
Q 2975 2850 2975 3272 
Q 2975 3691 2734 3919 
Q 2494 4147 2053 4147 
L 1259 4147 
z
M 628 4666 
L 2053 4666 
Q 2838 4666 3239 4311 
Q 3641 3956 3641 3272 
Q 3641 2581 3239 2228 
Q 2838 1875 2053 1875 
L 1259 1875 
L 1259 0 
L 628 0 
L 628 4666 
z
" transform="scale(0.015625)"/>
       <path id="DejaVuSans-49" d="M 628 4666 
L 1259 4666 
L 1259 0 
L 628 0 
L 628 4666 
z
" transform="scale(0.015625)"/>
      </defs>
      <use xlink:href="#DejaVuSans-4b"/>
      <use xlink:href="#DejaVuSans-50" transform="translate(65.576172 0)"/>
      <use xlink:href="#DejaVuSans-49" transform="translate(125.878906 0)"/>
      <use xlink:href="#DejaVuSans-73" transform="translate(155.371094 0)"/>
     </g>
    </g>
   </g>
   <g id="line2d_28">
    <path d="M 90.864604 334.039251 
L 94.398868 333.405018 
L 97.933131 330.986371 
L 101.467395 329.317132 
L 105.001658 328.147955 
L 108.535921 327.344645 
L 112.070185 326.884937 
L 115.604448 326.619126 
L 119.138712 326.465003 
L 122.672975 326.371699 
L 126.207239 326.318851 
L 129.741502 326.294204 
L 133.275766 326.266223 
L 136.810029 326.241969 
L 140.344293 326.223175 
L 143.878556 326.20997 
L 147.41282 326.201502 
L 150.947083 326.196691 
L 154.481346 326.194446 
L 158.01561 326.193785 
L 161.549873 326.193903 
L 165.084137 326.194294 
L 168.6184 326.194362 
L 172.152664 326.193472 
L 175.686927 326.191742 
L 179.221191 326.189808 
L 182.755454 326.187677 
L 186.289718 326.185364 
L 189.823981 326.182607 
L 193.358245 326.178527 
L 196.892508 326.173289 
L 200.426772 326.167307 
L 203.961035 326.160789 
L 207.495298 326.153897 
L 211.029562 326.146726 
L 214.563825 326.139217 
L 218.098089 326.13153 
L 221.632352 326.123787 
L 225.166616 326.116045 
L 228.700879 326.108368 
L 232.235143 326.100813 
L 235.769406 326.09342 
L 239.30367 326.086195 
L 242.837933 326.079161 
L 246.372197 326.072304 
L 249.90646 326.065687 
L 253.440723 326.059249 
L 256.974987 326.052978 
L 260.50925 326.046888 
L 264.043514 326.041015 
L 267.577777 326.035386 
L 271.112041 326.030011 
L 274.646304 326.024887 
L 278.180568 326.020035 
L 281.714831 326.015387 
L 285.249095 326.010986 
L 288.783358 326.006815 
L 292.317622 326.002836 
L 295.851885 325.999029 
L 299.386149 325.995383 
L 302.920412 325.991889 
L 306.454675 325.988539 
L 309.988939 325.985321 
L 313.523202 325.982227 
L 317.057466 325.979249 
L 320.591729 325.976377 
L 324.125993 325.973606 
L 327.660256 325.970929 
L 331.19452 325.968339 
L 334.728783 325.96583 
L 338.263047 325.963397 
L 341.79731 325.961181 
L 345.331574 325.958965 
L 348.865837 325.956785 
L 352.4001 325.954648 
L 355.934364 325.952556 
L 359.468627 325.950509 
L 363.002891 325.948506 
L 366.537154 325.946546 
L 370.071418 325.944629 
L 373.605681 325.942752 
L 377.139945 325.940914 
L 380.674208 325.939115 
L 384.208472 325.937352 
L 387.742735 325.935625 
L 391.276999 325.933933 
L 394.811262 325.932273 
L 398.345525 325.930645 
L 401.879789 325.929048 
L 405.414052 325.92748 
L 408.948316 325.925941 
L 412.482579 325.924429 
L 416.016843 325.922943 
L 419.551106 325.921483 
L 423.08537 325.920047 
L 426.619633 325.918635 
L 430.153897 325.917245 
L 433.68816 325.915878 
L 437.222424 325.914531 
L 440.756687 325.913204 
" clip-path="url(#p81f3e1a6fc)" style="fill: none; stroke: #1f77b4; stroke-width: 1.5; stroke-linecap: square"/>
   </g>
   <g id="line2d_29">
    <path d="M 73.37 325.662397 
L 458.251291 325.662397 
" clip-path="url(#p81f3e1a6fc)" style="fill: none; stroke-dasharray: 5.55,2.4; stroke-dashoffset: 0; stroke: #1f77b4; stroke-width: 1.5"/>
   </g>
   <g id="line2d_30">
    <path d="M 90.864604 257.793323 
L 94.398868 261.905058 
L 97.933131 268.161626 
L 101.467395 273.152705 
L 105.001658 276.548595 
L 108.535921 278.674356 
L 112.070185 279.88918 
L 115.604448 280.512191 
L 119.138712 280.777111 
L 122.672975 280.836579 
L 126.207239 280.77923 
L 129.741502 280.642868 
L 133.275766 280.469168 
L 136.810029 280.273644 
L 140.344293 280.067883 
L 143.878556 279.861508 
L 147.41282 279.663005 
L 150.947083 279.478813 
L 154.481346 279.31343 
L 158.01561 279.169577 
L 161.549873 279.048411 
L 165.084137 278.94989 
L 168.6184 278.873136 
L 172.152664 278.815588 
L 175.686927 278.767981 
L 179.221191 278.728293 
L 182.755454 278.698781 
L 186.289718 278.679102 
L 189.823981 278.66866 
L 193.358245 278.666743 
L 196.892508 278.672574 
L 200.426772 278.685078 
L 203.961035 278.703132 
L 207.495298 278.725691 
L 211.029562 278.751872 
L 214.563825 278.781032 
L 218.098089 278.812531 
L 221.632352 278.845762 
L 225.166616 278.880229 
L 228.700879 278.915479 
L 232.235143 278.951103 
L 235.769406 278.986745 
L 239.30367 279.022131 
L 242.837933 279.057043 
L 246.372197 279.091324 
L 249.90646 279.124841 
L 253.440723 279.157404 
L 256.974987 279.188827 
L 260.50925 279.218428 
L 264.043514 279.245994 
L 267.577777 279.271522 
L 271.112041 279.295096 
L 274.646304 279.316836 
L 278.180568 279.33685 
L 281.714831 279.355288 
L 285.249095 279.372296 
L 288.783358 279.387963 
L 292.317622 279.402423 
L 295.851885 279.415822 
L 299.386149 279.428268 
L 302.920412 279.439846 
L 306.454675 279.45063 
L 309.988939 279.460689 
L 313.523202 279.470085 
L 317.057466 279.478874 
L 320.591729 279.487109 
L 324.125993 279.494835 
L 327.660256 279.502094 
L 331.19452 279.508924 
L 334.728783 279.515358 
L 338.263047 279.521427 
L 341.79731 279.526958 
L 345.331574 279.532118 
L 348.865837 279.537041 
L 352.4001 279.541757 
L 355.934364 279.546273 
L 359.468627 279.550596 
L 363.002891 279.55473 
L 366.537154 279.558681 
L 370.071418 279.562454 
L 373.605681 279.566055 
L 377.139945 279.56949 
L 380.674208 279.572767 
L 384.208472 279.57589 
L 387.742735 279.578867 
L 391.276999 279.581703 
L 394.811262 279.584403 
L 398.345525 279.586974 
L 401.879789 279.58942 
L 405.414052 279.591747 
L 408.948316 279.593961 
L 412.482579 279.596066 
L 416.016843 279.598066 
L 419.551106 279.599967 
L 423.08537 279.601772 
L 426.619633 279.603486 
L 430.153897 279.605114 
L 433.68816 279.606658 
L 437.222424 279.608123 
L 440.756687 279.609512 
" clip-path="url(#p81f3e1a6fc)" style="fill: none; stroke: #2ca02c; stroke-width: 1.5; stroke-linecap: square"/>
   </g>
   <g id="line2d_31">
    <path d="M 73.37 279.603486 
L 458.251291 279.603486 
" clip-path="url(#p81f3e1a6fc)" style="fill: none; stroke-dasharray: 5.55,2.4; stroke-dashoffset: 0; stroke: #2ca02c; stroke-width: 1.5"/>
   </g>
   <g id="line2d_32">
    <path d="M 90.864604 244.394109 
L 94.398868 202.160749 
L 97.933131 202.3084 
L 101.467395 202.852367 
L 105.001658 203.182887 
L 108.535921 203.357383 
L 112.070185 203.278662 
L 115.604448 203.197882 
L 119.138712 203.133051 
L 122.672975 203.095378 
L 126.207239 203.065838 
L 129.741502 203.066112 
L 133.275766 203.067209 
L 136.810029 203.057859 
L 140.344293 203.040809 
L 143.878556 203.01941 
L 147.41282 202.995187 
L 150.947083 202.970048 
L 154.481346 202.94528 
L 158.01561 202.921825 
L 161.549873 202.90046 
L 165.084137 202.88104 
L 168.6184 202.864278 
L 172.152664 202.848316 
L 175.686927 202.833666 
L 179.221191 202.820846 
L 182.755454 202.809992 
L 186.289718 202.801127 
L 189.823981 202.794054 
L 193.358245 202.79111 
L 196.892508 202.79039 
L 200.426772 202.790344 
L 203.961035 202.79075 
L 207.495298 202.791603 
L 211.029562 202.792659 
L 214.563825 202.794388 
L 218.098089 202.796407 
L 221.632352 202.798588 
L 225.166616 202.800826 
L 228.700879 202.803081 
L 232.235143 202.805456 
L 235.769406 202.807876 
L 239.30367 202.810348 
L 242.837933 202.812762 
L 246.372197 202.815143 
L 249.90646 202.817314 
L 253.440723 202.81964 
L 256.974987 202.821901 
L 260.50925 202.824048 
L 264.043514 202.826066 
L 267.577777 202.82795 
L 271.112041 202.829709 
L 274.646304 202.831368 
L 278.180568 202.832835 
L 281.714831 202.834363 
L 285.249095 202.835678 
L 288.783358 202.836915 
L 292.317622 202.837986 
L 295.851885 202.838954 
L 299.386149 202.839847 
L 302.920412 202.840675 
L 306.454675 202.841443 
L 309.988939 202.842159 
L 313.523202 202.842824 
L 317.057466 202.843445 
L 320.591729 202.844025 
L 324.125993 202.844567 
L 327.660256 202.845075 
L 331.19452 202.845552 
L 334.728783 202.846 
L 338.263047 202.846422 
L 341.79731 202.846773 
L 345.331574 202.847151 
L 348.865837 202.84751 
L 352.4001 202.84785 
L 355.934364 202.848173 
L 359.468627 202.84848 
L 363.002891 202.848773 
L 366.537154 202.849053 
L 370.071418 202.84932 
L 373.605681 202.849575 
L 377.139945 202.849819 
L 380.674208 202.850053 
L 384.208472 202.850276 
L 387.742735 202.850489 
L 391.276999 202.850694 
L 394.811262 202.850889 
L 398.345525 202.851076 
L 401.879789 202.851255 
L 405.414052 202.851426 
L 408.948316 202.85159 
L 412.482579 202.851746 
L 416.016843 202.851896 
L 419.551106 202.852039 
L 423.08537 202.852176 
L 426.619633 202.852307 
L 430.153897 202.852432 
L 433.68816 202.852552 
L 437.222424 202.852667 
L 440.756687 202.852776 
" clip-path="url(#p81f3e1a6fc)" style="fill: none; stroke: #d62728; stroke-width: 1.5; stroke-linecap: square"/>
   </g>
   <g id="line2d_33">
    <path d="M 73.37 202.855255 
L 458.251291 202.855255 
" clip-path="url(#p81f3e1a6fc)" style="fill: none; stroke-dasharray: 5.55,2.4; stroke-dashoffset: 0; stroke: #d62728; stroke-width: 1.5"/>
   </g>
   <g id="patch_8">
    <path d="M 73.37 340.633176 
L 73.37 195.566824 
" style="fill: none; stroke: #000000; stroke-width: 0.8; stroke-linejoin: miter; stroke-linecap: square"/>
   </g>
   <g id="patch_9">
    <path d="M 458.251291 340.633176 
L 458.251291 195.566824 
" style="fill: none; stroke: #000000; stroke-width: 0.8; stroke-linejoin: miter; stroke-linecap: square"/>
   </g>
   <g id="patch_10">
    <path d="M 73.37 340.633176 
L 458.251291 340.633176 
" style="fill: none; stroke: #000000; stroke-width: 0.8; stroke-linejoin: miter; stroke-linecap: square"/>
   </g>
   <g id="patch_11">
    <path d="M 73.37 195.566824 
L 458.251291 195.566824 
" style="fill: none; stroke: #000000; stroke-width: 0.8; stroke-linejoin: miter; stroke-linecap: square"/>
   </g>
   <g id="legend_2">
    <g id="line2d_34">
     <path d="M 472.651291 207.8475 
L 488.651291 207.8475 
L 504.651291 207.8475 
" style="fill: none; stroke: #1f77b4; stroke-width: 1.5; stroke-linecap: square"/>
    </g>
    <g id="text_14">
     <!-- Pureza do H$_2$ -->
     <g transform="translate(517.451291 213.4475) scale(0.16 -0.16)">
      <defs>
       <path id="DejaVuSans-7a" d="M 353 3500 
L 3084 3500 
L 3084 2975 
L 922 459 
L 3084 459 
L 3084 0 
L 275 0 
L 275 525 
L 2438 3041 
L 353 3041 
L 353 3500 
z
" transform="scale(0.015625)"/>
       <path id="DejaVuSans-48" d="M 628 4666 
L 1259 4666 
L 1259 2753 
L 3553 2753 
L 3553 4666 
L 4184 4666 
L 4184 0 
L 3553 0 
L 3553 2222 
L 1259 2222 
L 1259 0 
L 628 0 
L 628 4666 
z
" transform="scale(0.015625)"/>
      </defs>
      <use xlink:href="#DejaVuSans-50" transform="translate(0 0.015625)"/>
      <use xlink:href="#DejaVuSans-75" transform="translate(60.302734 0.015625)"/>
      <use xlink:href="#DejaVuSans-72" transform="translate(123.681641 0.015625)"/>
      <use xlink:href="#DejaVuSans-65" transform="translate(164.794922 0.015625)"/>
      <use xlink:href="#DejaVuSans-7a" transform="translate(226.318359 0.015625)"/>
      <use xlink:href="#DejaVuSans-61" transform="translate(278.808594 0.015625)"/>
      <use xlink:href="#DejaVuSans-20" transform="translate(340.087891 0.015625)"/>
      <use xlink:href="#DejaVuSans-64" transform="translate(371.875 0.015625)"/>
      <use xlink:href="#DejaVuSans-6f" transform="translate(435.351562 0.015625)"/>
      <use xlink:href="#DejaVuSans-20" transform="translate(496.533203 0.015625)"/>
      <use xlink:href="#DejaVuSans-48" transform="translate(528.320312 0.015625)"/>
      <use xlink:href="#DejaVuSans-32" transform="translate(604.472656 -16.390625) scale(0.7)"/>
     </g>
    </g>
    <g id="line2d_35">
     <path d="M 472.651291 231.3325 
L 488.651291 231.3325 
L 504.651291 231.3325 
" style="fill: none; stroke-dasharray: 5.55,2.4; stroke-dashoffset: 0; stroke: #1f77b4; stroke-width: 1.5"/>
    </g>
    <g id="text_15">
     <!-- Pureza do H$_2$ (SP) -->
     <g transform="translate(517.451291 236.9325) scale(0.16 -0.16)">
      <defs>
       <path id="DejaVuSans-53" d="M 3425 4513 
L 3425 3897 
Q 3066 4069 2747 4153 
Q 2428 4238 2131 4238 
Q 1616 4238 1336 4038 
Q 1056 3838 1056 3469 
Q 1056 3159 1242 3001 
Q 1428 2844 1947 2747 
L 2328 2669 
Q 3034 2534 3370 2195 
Q 3706 1856 3706 1288 
Q 3706 609 3251 259 
Q 2797 -91 1919 -91 
Q 1588 -91 1214 -16 
Q 841 59 441 206 
L 441 856 
Q 825 641 1194 531 
Q 1563 422 1919 422 
Q 2459 422 2753 634 
Q 3047 847 3047 1241 
Q 3047 1584 2836 1778 
Q 2625 1972 2144 2069 
L 1759 2144 
Q 1053 2284 737 2584 
Q 422 2884 422 3419 
Q 422 4038 858 4394 
Q 1294 4750 2059 4750 
Q 2388 4750 2728 4690 
Q 3069 4631 3425 4513 
z
" transform="scale(0.015625)"/>
      </defs>
      <use xlink:href="#DejaVuSans-50" transform="translate(0 0.015625)"/>
      <use xlink:href="#DejaVuSans-75" transform="translate(60.302734 0.015625)"/>
      <use xlink:href="#DejaVuSans-72" transform="translate(123.681641 0.015625)"/>
      <use xlink:href="#DejaVuSans-65" transform="translate(164.794922 0.015625)"/>
      <use xlink:href="#DejaVuSans-7a" transform="translate(226.318359 0.015625)"/>
      <use xlink:href="#DejaVuSans-61" transform="translate(278.808594 0.015625)"/>
      <use xlink:href="#DejaVuSans-20" transform="translate(340.087891 0.015625)"/>
      <use xlink:href="#DejaVuSans-64" transform="translate(371.875 0.015625)"/>
      <use xlink:href="#DejaVuSans-6f" transform="translate(435.351562 0.015625)"/>
      <use xlink:href="#DejaVuSans-20" transform="translate(496.533203 0.015625)"/>
      <use xlink:href="#DejaVuSans-48" transform="translate(528.320312 0.015625)"/>
      <use xlink:href="#DejaVuSans-32" transform="translate(604.472656 -16.390625) scale(0.7)"/>
      <use xlink:href="#DejaVuSans-20" transform="translate(651.743164 0.015625)"/>
      <use xlink:href="#DejaVuSans-28" transform="translate(683.530273 0.015625)"/>
      <use xlink:href="#DejaVuSans-53" transform="translate(722.543945 0.015625)"/>
      <use xlink:href="#DejaVuSans-50" transform="translate(786.020508 0.015625)"/>
      <use xlink:href="#DejaVuSans-29" transform="translate(846.323242 0.015625)"/>
     </g>
    </g>
    <g id="line2d_36">
     <path d="M 472.651291 254.8175 
L 488.651291 254.8175 
L 504.651291 254.8175 
" style="fill: none; stroke: #2ca02c; stroke-width: 1.5; stroke-linecap: square"/>
    </g>
    <g id="text_16">
     <!-- Pureza do CO$_2$ -->
     <g transform="translate(517.451291 260.4175) scale(0.16 -0.16)">
      <defs>
       <path id="DejaVuSans-43" d="M 4122 4306 
L 4122 3641 
Q 3803 3938 3442 4084 
Q 3081 4231 2675 4231 
Q 1875 4231 1450 3742 
Q 1025 3253 1025 2328 
Q 1025 1406 1450 917 
Q 1875 428 2675 428 
Q 3081 428 3442 575 
Q 3803 722 4122 1019 
L 4122 359 
Q 3791 134 3420 21 
Q 3050 -91 2638 -91 
Q 1578 -91 968 557 
Q 359 1206 359 2328 
Q 359 3453 968 4101 
Q 1578 4750 2638 4750 
Q 3056 4750 3426 4639 
Q 3797 4528 4122 4306 
z
" transform="scale(0.015625)"/>
       <path id="DejaVuSans-4f" d="M 2522 4238 
Q 1834 4238 1429 3725 
Q 1025 3213 1025 2328 
Q 1025 1447 1429 934 
Q 1834 422 2522 422 
Q 3209 422 3611 934 
Q 4013 1447 4013 2328 
Q 4013 3213 3611 3725 
Q 3209 4238 2522 4238 
z
M 2522 4750 
Q 3503 4750 4090 4092 
Q 4678 3434 4678 2328 
Q 4678 1225 4090 567 
Q 3503 -91 2522 -91 
Q 1538 -91 948 565 
Q 359 1222 359 2328 
Q 359 3434 948 4092 
Q 1538 4750 2522 4750 
z
" transform="scale(0.015625)"/>
      </defs>
      <use xlink:href="#DejaVuSans-50" transform="translate(0 0.015625)"/>
      <use xlink:href="#DejaVuSans-75" transform="translate(60.302734 0.015625)"/>
      <use xlink:href="#DejaVuSans-72" transform="translate(123.681641 0.015625)"/>
      <use xlink:href="#DejaVuSans-65" transform="translate(164.794922 0.015625)"/>
      <use xlink:href="#DejaVuSans-7a" transform="translate(226.318359 0.015625)"/>
      <use xlink:href="#DejaVuSans-61" transform="translate(278.808594 0.015625)"/>
      <use xlink:href="#DejaVuSans-20" transform="translate(340.087891 0.015625)"/>
      <use xlink:href="#DejaVuSans-64" transform="translate(371.875 0.015625)"/>
      <use xlink:href="#DejaVuSans-6f" transform="translate(435.351562 0.015625)"/>
      <use xlink:href="#DejaVuSans-20" transform="translate(496.533203 0.015625)"/>
      <use xlink:href="#DejaVuSans-43" transform="translate(528.320312 0.015625)"/>
      <use xlink:href="#DejaVuSans-4f" transform="translate(598.144531 0.015625)"/>
      <use xlink:href="#DejaVuSans-32" transform="translate(677.8125 -16.390625) scale(0.7)"/>
     </g>
    </g>
    <g id="line2d_37">
     <path d="M 472.651291 278.3025 
L 488.651291 278.3025 
L 504.651291 278.3025 
" style="fill: none; stroke-dasharray: 5.55,2.4; stroke-dashoffset: 0; stroke: #2ca02c; stroke-width: 1.5"/>
    </g>
    <g id="text_17">
     <!-- Pureza do CO$_2$ (SP) -->
     <g transform="translate(517.451291 283.9025) scale(0.16 -0.16)">
      <use xlink:href="#DejaVuSans-50" transform="translate(0 0.015625)"/>
      <use xlink:href="#DejaVuSans-75" transform="translate(60.302734 0.015625)"/>
      <use xlink:href="#DejaVuSans-72" transform="translate(123.681641 0.015625)"/>
      <use xlink:href="#DejaVuSans-65" transform="translate(164.794922 0.015625)"/>
      <use xlink:href="#DejaVuSans-7a" transform="translate(226.318359 0.015625)"/>
      <use xlink:href="#DejaVuSans-61" transform="translate(278.808594 0.015625)"/>
      <use xlink:href="#DejaVuSans-20" transform="translate(340.087891 0.015625)"/>
      <use xlink:href="#DejaVuSans-64" transform="translate(371.875 0.015625)"/>
      <use xlink:href="#DejaVuSans-6f" transform="translate(435.351562 0.015625)"/>
      <use xlink:href="#DejaVuSans-20" transform="translate(496.533203 0.015625)"/>
      <use xlink:href="#DejaVuSans-43" transform="translate(528.320312 0.015625)"/>
      <use xlink:href="#DejaVuSans-4f" transform="translate(598.144531 0.015625)"/>
      <use xlink:href="#DejaVuSans-32" transform="translate(677.8125 -16.390625) scale(0.7)"/>
      <use xlink:href="#DejaVuSans-20" transform="translate(725.083008 0.015625)"/>
      <use xlink:href="#DejaVuSans-28" transform="translate(756.870117 0.015625)"/>
      <use xlink:href="#DejaVuSans-53" transform="translate(795.883789 0.015625)"/>
      <use xlink:href="#DejaVuSans-50" transform="translate(859.360352 0.015625)"/>
      <use xlink:href="#DejaVuSans-29" transform="translate(919.663086 0.015625)"/>
     </g>
    </g>
    <g id="line2d_38">
     <path d="M 472.651291 302.11 
L 488.651291 302.11 
L 504.651291 302.11 
" style="fill: none; stroke: #d62728; stroke-width: 1.5; stroke-linecap: square"/>
    </g>
    <g id="text_18">
     <!-- Recuperação CO$_2$ -->
     <g transform="translate(517.451291 307.71) scale(0.16 -0.16)">
      <defs>
       <path id="DejaVuSans-52" d="M 2841 2188 
Q 3044 2119 3236 1894 
Q 3428 1669 3622 1275 
L 4263 0 
L 3584 0 
L 2988 1197 
Q 2756 1666 2539 1819 
Q 2322 1972 1947 1972 
L 1259 1972 
L 1259 0 
L 628 0 
L 628 4666 
L 2053 4666 
Q 2853 4666 3247 4331 
Q 3641 3997 3641 3322 
Q 3641 2881 3436 2590 
Q 3231 2300 2841 2188 
z
M 1259 4147 
L 1259 2491 
L 2053 2491 
Q 2509 2491 2742 2702 
Q 2975 2913 2975 3322 
Q 2975 3731 2742 3939 
Q 2509 4147 2053 4147 
L 1259 4147 
z
" transform="scale(0.015625)"/>
       <path id="DejaVuSans-63" d="M 3122 3366 
L 3122 2828 
Q 2878 2963 2633 3030 
Q 2388 3097 2138 3097 
Q 1578 3097 1268 2742 
Q 959 2388 959 1747 
Q 959 1106 1268 751 
Q 1578 397 2138 397 
Q 2388 397 2633 464 
Q 2878 531 3122 666 
L 3122 134 
Q 2881 22 2623 -34 
Q 2366 -91 2075 -91 
Q 1284 -91 818 406 
Q 353 903 353 1747 
Q 353 2603 823 3093 
Q 1294 3584 2113 3584 
Q 2378 3584 2631 3529 
Q 2884 3475 3122 3366 
z
" transform="scale(0.015625)"/>
      </defs>
      <use xlink:href="#DejaVuSans-52" transform="translate(0 0.3125)"/>
      <use xlink:href="#DejaVuSans-65" transform="translate(69.482422 0.3125)"/>
      <use xlink:href="#DejaVuSans-63" transform="translate(131.005859 0.3125)"/>
      <use xlink:href="#DejaVuSans-75" transform="translate(185.986328 0.3125)"/>
      <use xlink:href="#DejaVuSans-70" transform="translate(249.365234 0.3125)"/>
      <use xlink:href="#DejaVuSans-65" transform="translate(312.841797 0.3125)"/>
      <use xlink:href="#DejaVuSans-72" transform="translate(374.365234 0.3125)"/>
      <use xlink:href="#DejaVuSans-61" transform="translate(415.478516 0.3125)"/>
      <use xlink:href="#DejaVuSans-e7" transform="translate(476.757812 0.3125)"/>
      <use xlink:href="#DejaVuSans-e3" transform="translate(531.738281 0.3125)"/>
      <use xlink:href="#DejaVuSans-6f" transform="translate(593.017578 0.3125)"/>
      <use xlink:href="#DejaVuSans-20" transform="translate(654.199219 0.3125)"/>
      <use xlink:href="#DejaVuSans-43" transform="translate(685.986328 0.3125)"/>
      <use xlink:href="#DejaVuSans-4f" transform="translate(755.810547 0.3125)"/>
      <use xlink:href="#DejaVuSans-32" transform="translate(835.478516 -16.09375) scale(0.7)"/>
     </g>
    </g>
    <g id="line2d_39">
     <path d="M 472.651291 325.95 
L 488.651291 325.95 
L 504.651291 325.95 
" style="fill: none; stroke-dasharray: 5.55,2.4; stroke-dashoffset: 0; stroke: #d62728; stroke-width: 1.5"/>
    </g>
    <g id="text_19">
     <!-- Recuperação CO$_2$ (SP) -->
     <g transform="translate(517.451291 331.55) scale(0.16 -0.16)">
      <use xlink:href="#DejaVuSans-52" transform="translate(0 0.3125)"/>
      <use xlink:href="#DejaVuSans-65" transform="translate(69.482422 0.3125)"/>
      <use xlink:href="#DejaVuSans-63" transform="translate(131.005859 0.3125)"/>
      <use xlink:href="#DejaVuSans-75" transform="translate(185.986328 0.3125)"/>
      <use xlink:href="#DejaVuSans-70" transform="translate(249.365234 0.3125)"/>
      <use xlink:href="#DejaVuSans-65" transform="translate(312.841797 0.3125)"/>
      <use xlink:href="#DejaVuSans-72" transform="translate(374.365234 0.3125)"/>
      <use xlink:href="#DejaVuSans-61" transform="translate(415.478516 0.3125)"/>
      <use xlink:href="#DejaVuSans-e7" transform="translate(476.757812 0.3125)"/>
      <use xlink:href="#DejaVuSans-e3" transform="translate(531.738281 0.3125)"/>
      <use xlink:href="#DejaVuSans-6f" transform="translate(593.017578 0.3125)"/>
      <use xlink:href="#DejaVuSans-20" transform="translate(654.199219 0.3125)"/>
      <use xlink:href="#DejaVuSans-43" transform="translate(685.986328 0.3125)"/>
      <use xlink:href="#DejaVuSans-4f" transform="translate(755.810547 0.3125)"/>
      <use xlink:href="#DejaVuSans-32" transform="translate(835.478516 -16.09375) scale(0.7)"/>
      <use xlink:href="#DejaVuSans-20" transform="translate(882.749023 0.3125)"/>
      <use xlink:href="#DejaVuSans-28" transform="translate(914.536133 0.3125)"/>
      <use xlink:href="#DejaVuSans-53" transform="translate(953.549805 0.3125)"/>
      <use xlink:href="#DejaVuSans-50" transform="translate(1017.026367 0.3125)"/>
      <use xlink:href="#DejaVuSans-29" transform="translate(1077.329102 0.3125)"/>
     </g>
    </g>
   </g>
  </g>
  <g id="axes_3">
   <g id="patch_12">
    <path d="M 73.37 518.92 
L 458.251291 518.92 
L 458.251291 373.853647 
L 73.37 373.853647 
z
" style="fill: #ffffff"/>
   </g>
   <g id="matplotlib.axis_5">
    <g id="xtick_13">
     <g id="line2d_40">
      <g>
       <use xlink:href="#m78433a74a4" x="90.864604" y="518.92" style="stroke: #000000; stroke-width: 0.8"/>
      </g>
     </g>
     <g id="text_20">
      <!-- 0 -->
      <g transform="translate(85.774604 538.0775) scale(0.16 -0.16)">
       <use xlink:href="#DejaVuSans-30"/>
      </g>
     </g>
    </g>
    <g id="xtick_14">
     <g id="line2d_41">
      <g>
       <use xlink:href="#m78433a74a4" x="161.549873" y="518.92" style="stroke: #000000; stroke-width: 0.8"/>
      </g>
     </g>
     <g id="text_21">
      <!-- 20 -->
      <g transform="translate(151.369873 538.0775) scale(0.16 -0.16)">
       <use xlink:href="#DejaVuSans-32"/>
       <use xlink:href="#DejaVuSans-30" transform="translate(63.623047 0)"/>
      </g>
     </g>
    </g>
    <g id="xtick_15">
     <g id="line2d_42">
      <g>
       <use xlink:href="#m78433a74a4" x="232.235143" y="518.92" style="stroke: #000000; stroke-width: 0.8"/>
      </g>
     </g>
     <g id="text_22">
      <!-- 40 -->
      <g transform="translate(222.055143 538.0775) scale(0.16 -0.16)">
       <use xlink:href="#DejaVuSans-34"/>
       <use xlink:href="#DejaVuSans-30" transform="translate(63.623047 0)"/>
      </g>
     </g>
    </g>
    <g id="xtick_16">
     <g id="line2d_43">
      <g>
       <use xlink:href="#m78433a74a4" x="302.920412" y="518.92" style="stroke: #000000; stroke-width: 0.8"/>
      </g>
     </g>
     <g id="text_23">
      <!-- 60 -->
      <g transform="translate(292.740412 538.0775) scale(0.16 -0.16)">
       <use xlink:href="#DejaVuSans-36"/>
       <use xlink:href="#DejaVuSans-30" transform="translate(63.623047 0)"/>
      </g>
     </g>
    </g>
    <g id="xtick_17">
     <g id="line2d_44">
      <g>
       <use xlink:href="#m78433a74a4" x="373.605681" y="518.92" style="stroke: #000000; stroke-width: 0.8"/>
      </g>
     </g>
     <g id="text_24">
      <!-- 80 -->
      <g transform="translate(363.425681 538.0775) scale(0.16 -0.16)">
       <use xlink:href="#DejaVuSans-38"/>
       <use xlink:href="#DejaVuSans-30" transform="translate(63.623047 0)"/>
      </g>
     </g>
    </g>
    <g id="xtick_18">
     <g id="line2d_45">
      <g>
       <use xlink:href="#m78433a74a4" x="444.290951" y="518.92" style="stroke: #000000; stroke-width: 0.8"/>
      </g>
     </g>
     <g id="text_25">
      <!-- 100 -->
      <g transform="translate(429.020951 538.0775) scale(0.16 -0.16)">
       <use xlink:href="#DejaVuSans-31"/>
       <use xlink:href="#DejaVuSans-30" transform="translate(63.623047 0)"/>
       <use xlink:href="#DejaVuSans-30" transform="translate(127.246094 0)"/>
      </g>
     </g>
    </g>
    <g id="text_26">
     <!-- Ciclo -->
     <g transform="translate(246.485646 557.5625) scale(0.16 -0.16)">
      <defs>
       <path id="DejaVuSans-69" d="M 603 3500 
L 1178 3500 
L 1178 0 
L 603 0 
L 603 3500 
z
M 603 4863 
L 1178 4863 
L 1178 4134 
L 603 4134 
L 603 4863 
z
" transform="scale(0.015625)"/>
       <path id="DejaVuSans-6c" d="M 603 4863 
L 1178 4863 
L 1178 0 
L 603 0 
L 603 4863 
z
" transform="scale(0.015625)"/>
      </defs>
      <use xlink:href="#DejaVuSans-43"/>
      <use xlink:href="#DejaVuSans-69" transform="translate(69.824219 0)"/>
      <use xlink:href="#DejaVuSans-63" transform="translate(97.607422 0)"/>
      <use xlink:href="#DejaVuSans-6c" transform="translate(152.587891 0)"/>
      <use xlink:href="#DejaVuSans-6f" transform="translate(180.371094 0)"/>
     </g>
    </g>
   </g>
   <g id="matplotlib.axis_6">
    <g id="ytick_8">
     <g id="line2d_46">
      <g>
       <use xlink:href="#m61737dca02" x="73.37" y="461.29988" style="stroke: #000000; stroke-width: 0.8"/>
      </g>
     </g>
     <g id="text_27">
      <!-- 3 -->
      <g transform="translate(56.19 467.37863) scale(0.16 -0.16)">
       <defs>
        <path id="DejaVuSans-33" d="M 2597 2516 
Q 3050 2419 3304 2112 
Q 3559 1806 3559 1356 
Q 3559 666 3084 287 
Q 2609 -91 1734 -91 
Q 1441 -91 1130 -33 
Q 819 25 488 141 
L 488 750 
Q 750 597 1062 519 
Q 1375 441 1716 441 
Q 2309 441 2620 675 
Q 2931 909 2931 1356 
Q 2931 1769 2642 2001 
Q 2353 2234 1838 2234 
L 1294 2234 
L 1294 2753 
L 1863 2753 
Q 2328 2753 2575 2939 
Q 2822 3125 2822 3475 
Q 2822 3834 2567 4026 
Q 2313 4219 1838 4219 
Q 1578 4219 1281 4162 
Q 984 4106 628 3988 
L 628 4550 
Q 988 4650 1302 4700 
Q 1616 4750 1894 4750 
Q 2613 4750 3031 4423 
Q 3450 4097 3450 3541 
Q 3450 3153 3228 2886 
Q 3006 2619 2597 2516 
z
" transform="scale(0.015625)"/>
       </defs>
       <use xlink:href="#DejaVuSans-33"/>
      </g>
     </g>
    </g>
    <g id="ytick_9">
     <g id="line2d_47">
      <g>
       <use xlink:href="#m61737dca02" x="73.37" y="403.240213" style="stroke: #000000; stroke-width: 0.8"/>
      </g>
     </g>
     <g id="text_28">
      <!-- 4 -->
      <g transform="translate(56.19 409.318963) scale(0.16 -0.16)">
       <use xlink:href="#DejaVuSans-34"/>
      </g>
     </g>
    </g>
    <g id="text_29">
     <!-- KPIs -->
     <g transform="translate(48.8625 462.984324) rotate(-90) scale(0.16 -0.16)">
      <use xlink:href="#DejaVuSans-4b"/>
      <use xlink:href="#DejaVuSans-50" transform="translate(65.576172 0)"/>
      <use xlink:href="#DejaVuSans-49" transform="translate(125.878906 0)"/>
      <use xlink:href="#DejaVuSans-73" transform="translate(155.371094 0)"/>
     </g>
    </g>
   </g>
   <g id="line2d_48">
    <path d="M 90.864604 512.326075 
L 94.398868 509.181694 
L 97.933131 507.20473 
L 101.467395 506.004931 
L 105.001658 505.172221 
L 108.535921 504.599574 
L 112.070185 504.332389 
L 115.604448 504.227581 
L 119.138712 504.205492 
L 122.672975 504.217791 
L 126.207239 504.249739 
L 129.741502 504.290116 
L 133.275766 504.29867 
L 136.810029 504.291345 
L 140.344293 504.275796 
L 143.878556 504.256566 
L 147.41282 504.236051 
L 150.947083 504.215722 
L 154.481346 504.196404 
L 158.01561 504.178517 
L 161.549873 504.16225 
L 165.084137 504.147816 
L 168.6184 504.13496 
L 172.152664 504.121518 
L 175.686927 504.107781 
L 179.221191 504.095468 
L 182.755454 504.084849 
L 186.289718 504.07603 
L 189.823981 504.068567 
L 193.358245 504.061121 
L 196.892508 504.05355 
L 200.426772 504.0462 
L 203.961035 504.039229 
L 207.495298 504.032742 
L 211.029562 504.026774 
L 214.563825 504.021121 
L 218.098089 504.015876 
L 221.632352 504.011106 
L 225.166616 504.006807 
L 228.700879 504.002998 
L 232.235143 503.999686 
L 235.769406 503.996862 
L 239.30367 503.994473 
L 242.837933 503.992496 
L 246.372197 503.99086 
L 249.90646 503.989598 
L 253.440723 503.988606 
L 256.974987 503.98767 
L 260.50925 503.986736 
L 264.043514 503.98581 
L 267.577777 503.984911 
L 271.112041 503.984043 
L 274.646304 503.983198 
L 278.180568 503.982403 
L 281.714831 503.981568 
L 285.249095 503.980752 
L 288.783358 503.979945 
L 292.317622 503.979111 
L 295.851885 503.978241 
L 299.386149 503.977332 
L 302.920412 503.976384 
L 306.454675 503.97539 
L 309.988939 503.974347 
L 313.523202 503.973254 
L 317.057466 503.97211 
L 320.591729 503.970911 
L 324.125993 503.96966 
L 327.660256 503.968357 
L 331.19452 503.967001 
L 334.728783 503.965595 
L 338.263047 503.964139 
L 341.79731 503.962833 
L 345.331574 503.96139 
L 348.865837 503.959872 
L 352.4001 503.958295 
L 355.934364 503.956666 
L 359.468627 503.954989 
L 363.002891 503.953269 
L 366.537154 503.951508 
L 370.071418 503.94971 
L 373.605681 503.947877 
L 377.139945 503.946013 
L 380.674208 503.94412 
L 384.208472 503.9422 
L 387.742735 503.940256 
L 391.276999 503.93829 
L 394.811262 503.936303 
L 398.345525 503.934298 
L 401.879789 503.932277 
L 405.414052 503.93024 
L 408.948316 503.928189 
L 412.482579 503.926126 
L 416.016843 503.924052 
L 419.551106 503.921968 
L 423.08537 503.919876 
L 426.619633 503.917775 
L 430.153897 503.915668 
L 433.68816 503.913555 
L 437.222424 503.911437 
L 440.756687 503.909315 
" clip-path="url(#pcfc8a3dffc)" style="fill: none; stroke: #ff7f0e; stroke-width: 1.5; stroke-linecap: square"/>
   </g>
   <g id="line2d_49">
    <path d="M 73.37 503.329426 
L 458.251291 503.329426 
" clip-path="url(#pcfc8a3dffc)" style="fill: none; stroke-dasharray: 5.55,2.4; stroke-dashoffset: 0; stroke: #ff7f0e; stroke-width: 1.5"/>
   </g>
   <g id="line2d_50">
    <path d="M 90.864604 404.925979 
L 94.398868 380.447572 
L 97.933131 381.239355 
L 101.467395 382.128378 
L 105.001658 382.799425 
L 108.535921 383.16732 
L 112.070185 383.375864 
L 115.604448 383.584435 
L 119.138712 383.793017 
L 122.672975 383.990549 
L 126.207239 384.172766 
L 129.741502 384.390624 
L 133.275766 384.586633 
L 136.810029 384.743969 
L 140.344293 384.861223 
L 143.878556 384.942609 
L 147.41282 384.994312 
L 150.947083 385.024048 
L 154.481346 385.039286 
L 158.01561 385.046719 
L 161.549873 385.052065 
L 165.084137 385.059672 
L 168.6184 385.073259 
L 172.152664 385.107002 
L 175.686927 385.157044 
L 179.221191 385.211557 
L 182.755454 385.268533 
L 186.289718 385.328551 
L 189.823981 385.391025 
L 193.358245 385.455953 
L 196.892508 385.521206 
L 200.426772 385.586407 
L 203.961035 385.652013 
L 207.495298 385.71845 
L 211.029562 385.786229 
L 214.563825 385.854999 
L 218.098089 385.924515 
L 221.632352 385.994694 
L 225.166616 386.0655 
L 228.700879 386.136967 
L 232.235143 386.208938 
L 235.769406 386.281397 
L 239.30367 386.354176 
L 242.837933 386.427089 
L 246.372197 386.499915 
L 249.90646 386.572274 
L 253.440723 386.644407 
L 256.974987 386.716938 
L 260.50925 386.789398 
L 264.043514 386.861065 
L 267.577777 386.931345 
L 271.112041 386.999798 
L 274.646304 387.066097 
L 278.180568 387.130191 
L 281.714831 387.191714 
L 285.249095 387.250681 
L 288.783358 387.307223 
L 292.317622 387.361303 
L 295.851885 387.412993 
L 299.386149 387.462379 
L 302.920412 387.509547 
L 306.454675 387.554586 
L 309.988939 387.597576 
L 313.523202 387.638601 
L 317.057466 387.677745 
L 320.591729 387.715086 
L 324.125993 387.750703 
L 327.660256 387.784673 
L 331.19452 387.817071 
L 334.728783 387.847966 
L 338.263047 387.877429 
L 341.79731 387.906027 
L 345.331574 387.933237 
L 348.865837 387.959041 
L 352.4001 387.983526 
L 355.934364 388.00678 
L 359.468627 388.028882 
L 363.002891 388.049905 
L 366.537154 388.069911 
L 370.071418 388.088956 
L 373.605681 388.107094 
L 377.139945 388.124372 
L 380.674208 388.140833 
L 384.208472 388.156519 
L 387.742735 388.171468 
L 391.276999 388.185716 
L 394.811262 388.199297 
L 398.345525 388.212243 
L 401.879789 388.224584 
L 405.414052 388.23635 
L 408.948316 388.247566 
L 412.482579 388.25826 
L 416.016843 388.268455 
L 419.551106 388.278177 
L 423.08537 388.287446 
L 426.619633 388.296284 
L 430.153897 388.304712 
L 433.68816 388.312749 
L 437.222424 388.320414 
L 440.756687 388.327724 
" clip-path="url(#pcfc8a3dffc)" style="fill: none; stroke: #9467bd; stroke-width: 1.5; stroke-linecap: square"/>
   </g>
   <g id="line2d_51">
    <path d="M 73.37 388.511946 
L 458.251291 388.511946 
" clip-path="url(#pcfc8a3dffc)" style="fill: none; stroke-dasharray: 5.55,2.4; stroke-dashoffset: 0; stroke: #9467bd; stroke-width: 1.5"/>
   </g>
   <g id="patch_13">
    <path d="M 73.37 518.92 
L 73.37 373.853647 
" style="fill: none; stroke: #000000; stroke-width: 0.8; stroke-linejoin: miter; stroke-linecap: square"/>
   </g>
   <g id="patch_14">
    <path d="M 458.251291 518.92 
L 458.251291 373.853647 
" style="fill: none; stroke: #000000; stroke-width: 0.8; stroke-linejoin: miter; stroke-linecap: square"/>
   </g>
   <g id="patch_15">
    <path d="M 73.37 518.92 
L 458.251291 518.92 
" style="fill: none; stroke: #000000; stroke-width: 0.8; stroke-linejoin: miter; stroke-linecap: square"/>
   </g>
   <g id="patch_16">
    <path d="M 73.37 373.853647 
L 458.251291 373.853647 
" style="fill: none; stroke: #000000; stroke-width: 0.8; stroke-linejoin: miter; stroke-linecap: square"/>
   </g>
   <g id="legend_3">
    <g id="line2d_52">
     <path d="M 472.651291 409.974324 
L 488.651291 409.974324 
L 504.651291 409.974324 
" style="fill: none; stroke: #ff7f0e; stroke-width: 1.5; stroke-linecap: square"/>
    </g>
    <g id="text_30">
     <!-- Razão H2/CO -->
     <g transform="translate(517.451291 415.574324) scale(0.16 -0.16)">
      <defs>
       <path id="DejaVuSans-2f" d="M 1625 4666 
L 2156 4666 
L 531 -594 
L 0 -594 
L 1625 4666 
z
" transform="scale(0.015625)"/>
      </defs>
      <use xlink:href="#DejaVuSans-52"/>
      <use xlink:href="#DejaVuSans-61" transform="translate(67.232422 0)"/>
      <use xlink:href="#DejaVuSans-7a" transform="translate(128.511719 0)"/>
      <use xlink:href="#DejaVuSans-e3" transform="translate(181.001953 0)"/>
      <use xlink:href="#DejaVuSans-6f" transform="translate(242.28125 0)"/>
      <use xlink:href="#DejaVuSans-20" transform="translate(303.462891 0)"/>
      <use xlink:href="#DejaVuSans-48" transform="translate(335.25 0)"/>
      <use xlink:href="#DejaVuSans-32" transform="translate(410.445312 0)"/>
      <use xlink:href="#DejaVuSans-2f" transform="translate(474.068359 0)"/>
      <use xlink:href="#DejaVuSans-43" transform="translate(507.759766 0)"/>
      <use xlink:href="#DejaVuSans-4f" transform="translate(577.583984 0)"/>
     </g>
    </g>
    <g id="line2d_53">
     <path d="M 472.651291 433.459324 
L 488.651291 433.459324 
L 504.651291 433.459324 
" style="fill: none; stroke-dasharray: 5.55,2.4; stroke-dashoffset: 0; stroke: #ff7f0e; stroke-width: 1.5"/>
    </g>
    <g id="text_31">
     <!-- Razão H2/CO (SP) -->
     <g transform="translate(517.451291 439.059324) scale(0.16 -0.16)">
      <use xlink:href="#DejaVuSans-52"/>
      <use xlink:href="#DejaVuSans-61" transform="translate(67.232422 0)"/>
      <use xlink:href="#DejaVuSans-7a" transform="translate(128.511719 0)"/>
      <use xlink:href="#DejaVuSans-e3" transform="translate(181.001953 0)"/>
      <use xlink:href="#DejaVuSans-6f" transform="translate(242.28125 0)"/>
      <use xlink:href="#DejaVuSans-20" transform="translate(303.462891 0)"/>
      <use xlink:href="#DejaVuSans-48" transform="translate(335.25 0)"/>
      <use xlink:href="#DejaVuSans-32" transform="translate(410.445312 0)"/>
      <use xlink:href="#DejaVuSans-2f" transform="translate(474.068359 0)"/>
      <use xlink:href="#DejaVuSans-43" transform="translate(507.759766 0)"/>
      <use xlink:href="#DejaVuSans-4f" transform="translate(577.583984 0)"/>
      <use xlink:href="#DejaVuSans-20" transform="translate(656.294922 0)"/>
      <use xlink:href="#DejaVuSans-28" transform="translate(688.082031 0)"/>
      <use xlink:href="#DejaVuSans-53" transform="translate(727.095703 0)"/>
      <use xlink:href="#DejaVuSans-50" transform="translate(790.572266 0)"/>
      <use xlink:href="#DejaVuSans-29" transform="translate(850.875 0)"/>
     </g>
    </g>
    <g id="line2d_54">
     <path d="M 472.651291 456.944324 
L 488.651291 456.944324 
L 504.651291 456.944324 
" style="fill: none; stroke: #9467bd; stroke-width: 1.5; stroke-linecap: square"/>
    </g>
    <g id="text_32">
     <!-- Produtividade -->
     <g transform="translate(517.451291 462.544324) scale(0.16 -0.16)">
      <defs>
       <path id="DejaVuSans-76" d="M 191 3500 
L 800 3500 
L 1894 563 
L 2988 3500 
L 3597 3500 
L 2284 0 
L 1503 0 
L 191 3500 
z
" transform="scale(0.015625)"/>
      </defs>
      <use xlink:href="#DejaVuSans-50"/>
      <use xlink:href="#DejaVuSans-72" transform="translate(58.552734 0)"/>
      <use xlink:href="#DejaVuSans-6f" transform="translate(97.416016 0)"/>
      <use xlink:href="#DejaVuSans-64" transform="translate(158.597656 0)"/>
      <use xlink:href="#DejaVuSans-75" transform="translate(222.074219 0)"/>
      <use xlink:href="#DejaVuSans-74" transform="translate(285.453125 0)"/>
      <use xlink:href="#DejaVuSans-69" transform="translate(324.662109 0)"/>
      <use xlink:href="#DejaVuSans-76" transform="translate(352.445312 0)"/>
      <use xlink:href="#DejaVuSans-69" transform="translate(411.625 0)"/>
      <use xlink:href="#DejaVuSans-64" transform="translate(439.408203 0)"/>
      <use xlink:href="#DejaVuSans-61" transform="translate(502.884766 0)"/>
      <use xlink:href="#DejaVuSans-64" transform="translate(564.164062 0)"/>
      <use xlink:href="#DejaVuSans-65" transform="translate(627.640625 0)"/>
     </g>
    </g>
    <g id="line2d_55">
     <path d="M 472.651291 480.429324 
L 488.651291 480.429324 
L 504.651291 480.429324 
" style="fill: none; stroke-dasharray: 5.55,2.4; stroke-dashoffset: 0; stroke: #9467bd; stroke-width: 1.5"/>
    </g>
    <g id="text_33">
     <!-- Produtividade (SP) -->
     <g transform="translate(517.451291 486.029324) scale(0.16 -0.16)">
      <use xlink:href="#DejaVuSans-50"/>
      <use xlink:href="#DejaVuSans-72" transform="translate(58.552734 0)"/>
      <use xlink:href="#DejaVuSans-6f" transform="translate(97.416016 0)"/>
      <use xlink:href="#DejaVuSans-64" transform="translate(158.597656 0)"/>
      <use xlink:href="#DejaVuSans-75" transform="translate(222.074219 0)"/>
      <use xlink:href="#DejaVuSans-74" transform="translate(285.453125 0)"/>
      <use xlink:href="#DejaVuSans-69" transform="translate(324.662109 0)"/>
      <use xlink:href="#DejaVuSans-76" transform="translate(352.445312 0)"/>
      <use xlink:href="#DejaVuSans-69" transform="translate(411.625 0)"/>
      <use xlink:href="#DejaVuSans-64" transform="translate(439.408203 0)"/>
      <use xlink:href="#DejaVuSans-61" transform="translate(502.884766 0)"/>
      <use xlink:href="#DejaVuSans-64" transform="translate(564.164062 0)"/>
      <use xlink:href="#DejaVuSans-65" transform="translate(627.640625 0)"/>
      <use xlink:href="#DejaVuSans-20" transform="translate(689.164062 0)"/>
      <use xlink:href="#DejaVuSans-28" transform="translate(720.951172 0)"/>
      <use xlink:href="#DejaVuSans-53" transform="translate(759.964844 0)"/>
      <use xlink:href="#DejaVuSans-50" transform="translate(823.441406 0)"/>
      <use xlink:href="#DejaVuSans-29" transform="translate(883.744141 0)"/>
     </g>
    </g>
   </g>
  </g>
 </g>
 <defs>
  <clipPath id="pf92c8f544d">
   <rect x="73.37" y="17.28" width="384.881291" height="145.066353"/>
  </clipPath>
  <clipPath id="p81f3e1a6fc">
   <rect x="73.37" y="195.566824" width="384.881291" height="145.066353"/>
  </clipPath>
  <clipPath id="pcfc8a3dffc">
   <rect x="73.37" y="373.853647" width="384.881291" height="145.066353"/>
  </clipPath>
 </defs>
</svg>
