<?xml version="1.0" encoding="utf-8" standalone="no"?>
<!DOCTYPE svg PUBLIC "-//W3C//DTD SVG 1.1//EN"
  "http://www.w3.org/Graphics/SVG/1.1/DTD/svg11.dtd">
<svg xmlns:xlink="http://www.w3.org/1999/xlink" width="720pt" height="504pt" viewBox="0 0 720 504" xmlns="http://www.w3.org/2000/svg" version="1.1">
 <metadata>
  <rdf:RDF xmlns:dc="http://purl.org/dc/elements/1.1/" xmlns:cc="http://creativecommons.org/ns#" xmlns:rdf="http://www.w3.org/1999/02/22-rdf-syntax-ns#">
   <cc:Work>
    <dc:type rdf:resource="http://purl.org/dc/dcmitype/StillImage"/>
    <dc:date>2025-12-05T03:30:57.102830</dc:date>
    <dc:format>image/svg+xml</dc:format>
    <dc:creator>
     <cc:Agent>
      <dc:title>Matplotlib v3.10.7, https://matplotlib.org/</dc:title>
     </cc:Agent>
    </dc:creator>
   </cc:Work>
  </rdf:RDF>
 </metadata>
 <defs>
  <style type="text/css">*{stroke-linejoin: round; stroke-linecap: butt}</style>
 </defs>
 <g id="figure_1">
  <g id="patch_1">
   <path d="M 0 504 
L 720 504 
L 720 0 
L 0 0 
z
" style="fill: #ffffff"/>
  </g>
  <g id="axes_1">
   <g id="patch_2">
    <path d="M 73.37 221.71 
L 458.251291 221.71 
L 458.251291 17.28 
L 73.37 17.28 
z
" style="fill: #ffffff"/>
   </g>
   <g id="matplotlib.axis_1">
    <g id="xtick_1">
     <g id="line2d_1">
      <path d="M 90.864604 221.71 
L 90.864604 17.28 
" clip-path="url(#p0e0a48ed7b)" style="fill: none; stroke: #b0b0b0; stroke-width: 0.8; stroke-linecap: square"/>
     </g>
     <g id="line2d_2">
      <defs>
       <path id="m23487ee815" d="M 0 0 
L 0 3.5 
" style="stroke: #000000; stroke-width: 0.8"/>
      </defs>
      <g>
       <use xlink:href="#m23487ee815" x="90.864604" y="221.71" style="stroke: #000000; stroke-width: 0.8"/>
      </g>
     </g>
    </g>
    <g id="xtick_2">
     <g id="line2d_3">
      <path d="M 149.571329 221.71 
L 149.571329 17.28 
" clip-path="url(#p0e0a48ed7b)" style="fill: none; stroke: #b0b0b0; stroke-width: 0.8; stroke-linecap: square"/>
     </g>
     <g id="line2d_4">
      <g>
       <use xlink:href="#m23487ee815" x="149.571329" y="221.71" style="stroke: #000000; stroke-width: 0.8"/>
      </g>
     </g>
    </g>
    <g id="xtick_3">
     <g id="line2d_5">
      <path d="M 208.278055 221.71 
L 208.278055 17.28 
" clip-path="url(#p0e0a48ed7b)" style="fill: none; stroke: #b0b0b0; stroke-width: 0.8; stroke-linecap: square"/>
     </g>
     <g id="line2d_6">
      <g>
       <use xlink:href="#m23487ee815" x="208.278055" y="221.71" style="stroke: #000000; stroke-width: 0.8"/>
      </g>
     </g>
    </g>
    <g id="xtick_4">
     <g id="line2d_7">
      <path d="M 266.98478 221.71 
L 266.98478 17.28 
" clip-path="url(#p0e0a48ed7b)" style="fill: none; stroke: #b0b0b0; stroke-width: 0.8; stroke-linecap: square"/>
     </g>
     <g id="line2d_8">
      <g>
       <use xlink:href="#m23487ee815" x="266.98478" y="221.71" style="stroke: #000000; stroke-width: 0.8"/>
      </g>
     </g>
    </g>
    <g id="xtick_5">
     <g id="line2d_9">
      <path d="M 325.691505 221.71 
L 325.691505 17.28 
" clip-path="url(#p0e0a48ed7b)" style="fill: none; stroke: #b0b0b0; stroke-width: 0.8; stroke-linecap: square"/>
     </g>
     <g id="line2d_10">
      <g>
       <use xlink:href="#m23487ee815" x="325.691505" y="221.71" style="stroke: #000000; stroke-width: 0.8"/>
      </g>
     </g>
    </g>
    <g id="xtick_6">
     <g id="line2d_11">
      <path d="M 384.398231 221.71 
L 384.398231 17.28 
" clip-path="url(#p0e0a48ed7b)" style="fill: none; stroke: #b0b0b0; stroke-width: 0.8; stroke-linecap: square"/>
     </g>
     <g id="line2d_12">
      <g>
       <use xlink:href="#m23487ee815" x="384.398231" y="221.71" style="stroke: #000000; stroke-width: 0.8"/>
      </g>
     </g>
    </g>
    <g id="xtick_7">
     <g id="line2d_13">
      <path d="M 443.104956 221.71 
L 443.104956 17.28 
" clip-path="url(#p0e0a48ed7b)" style="fill: none; stroke: #b0b0b0; stroke-width: 0.8; stroke-linecap: square"/>
     </g>
     <g id="line2d_14">
      <g>
       <use xlink:href="#m23487ee815" x="443.104956" y="221.71" style="stroke: #000000; stroke-width: 0.8"/>
      </g>
     </g>
    </g>
   </g>
   <g id="matplotlib.axis_2">
    <g id="ytick_1">
     <g id="line2d_15">
      <path d="M 73.37 176.085626 
L 458.251291 176.085626 
" clip-path="url(#p0e0a48ed7b)" style="fill: none; stroke: #b0b0b0; stroke-width: 0.8; stroke-linecap: square"/>
     </g>
     <g id="line2d_16">
      <defs>
       <path id="m4f303590bf" d="M 0 0 
L -3.5 0 
" style="stroke: #000000; stroke-width: 0.8"/>
      </defs>
      <g>
       <use xlink:href="#m4f303590bf" x="73.37" y="176.085626" style="stroke: #000000; stroke-width: 0.8"/>
      </g>
     </g>
     <g id="text_1">
      <!-- 200 -->
      <g transform="translate(35.83 182.164376) scale(0.16 -0.16)">
       <defs>
        <path id="DejaVuSans-32" d="M 1228 531 
L 3431 531 
L 3431 0 
L 469 0 
L 469 531 
Q 828 903 1448 1529 
Q 2069 2156 2228 2338 
Q 2531 2678 2651 2914 
Q 2772 3150 2772 3378 
Q 2772 3750 2511 3984 
Q 2250 4219 1831 4219 
Q 1534 4219 1204 4116 
Q 875 4013 500 3803 
L 500 4441 
Q 881 4594 1212 4672 
Q 1544 4750 1819 4750 
Q 2544 4750 2975 4387 
Q 3406 4025 3406 3419 
Q 3406 3131 3298 2873 
Q 3191 2616 2906 2266 
Q 2828 2175 2409 1742 
Q 1991 1309 1228 531 
z
" transform="scale(0.015625)"/>
        <path id="DejaVuSans-30" d="M 2034 4250 
Q 1547 4250 1301 3770 
Q 1056 3291 1056 2328 
Q 1056 1369 1301 889 
Q 1547 409 2034 409 
Q 2525 409 2770 889 
Q 3016 1369 3016 2328 
Q 3016 3291 2770 3770 
Q 2525 4250 2034 4250 
z
M 2034 4750 
Q 2819 4750 3233 4129 
Q 3647 3509 3647 2328 
Q 3647 1150 3233 529 
Q 2819 -91 2034 -91 
Q 1250 -91 836 529 
Q 422 1150 422 2328 
Q 422 3509 836 4129 
Q 1250 4750 2034 4750 
z
" transform="scale(0.015625)"/>
       </defs>
       <use xlink:href="#DejaVuSans-32"/>
       <use xlink:href="#DejaVuSans-30" transform="translate(63.623047 0)"/>
       <use xlink:href="#DejaVuSans-30" transform="translate(127.246094 0)"/>
      </g>
     </g>
    </g>
    <g id="ytick_2">
     <g id="line2d_17">
      <path d="M 73.37 115.532124 
L 458.251291 115.532124 
" clip-path="url(#p0e0a48ed7b)" style="fill: none; stroke: #b0b0b0; stroke-width: 0.8; stroke-linecap: square"/>
     </g>
     <g id="line2d_18">
      <g>
       <use xlink:href="#m4f303590bf" x="73.37" y="115.532124" style="stroke: #000000; stroke-width: 0.8"/>
      </g>
     </g>
     <g id="text_2">
      <!-- 400 -->
      <g transform="translate(35.83 121.610874) scale(0.16 -0.16)">
       <defs>
        <path id="DejaVuSans-34" d="M 2419 4116 
L 825 1625 
L 2419 1625 
L 2419 4116 
z
M 2253 4666 
L 3047 4666 
L 3047 1625 
L 3713 1625 
L 3713 1100 
L 3047 1100 
L 3047 0 
L 2419 0 
L 2419 1100 
L 313 1100 
L 313 1709 
L 2253 4666 
z
" transform="scale(0.015625)"/>
       </defs>
       <use xlink:href="#DejaVuSans-34"/>
       <use xlink:href="#DejaVuSans-30" transform="translate(63.623047 0)"/>
       <use xlink:href="#DejaVuSans-30" transform="translate(127.246094 0)"/>
      </g>
     </g>
    </g>
    <g id="ytick_3">
     <g id="line2d_19">
      <path d="M 73.37 54.978622 
L 458.251291 54.978622 
" clip-path="url(#p0e0a48ed7b)" style="fill: none; stroke: #b0b0b0; stroke-width: 0.8; stroke-linecap: square"/>
     </g>
     <g id="line2d_20">
      <g>
       <use xlink:href="#m4f303590bf" x="73.37" y="54.978622" style="stroke: #000000; stroke-width: 0.8"/>
      </g>
     </g>
     <g id="text_3">
      <!-- 600 -->
      <g transform="translate(35.83 61.057372) scale(0.16 -0.16)">
       <defs>
        <path id="DejaVuSans-36" d="M 2113 2584 
Q 1688 2584 1439 2293 
Q 1191 2003 1191 1497 
Q 1191 994 1439 701 
Q 1688 409 2113 409 
Q 2538 409 2786 701 
Q 3034 994 3034 1497 
Q 3034 2003 2786 2293 
Q 2538 2584 2113 2584 
z
M 3366 4563 
L 3366 3988 
Q 3128 4100 2886 4159 
Q 2644 4219 2406 4219 
Q 1781 4219 1451 3797 
Q 1122 3375 1075 2522 
Q 1259 2794 1537 2939 
Q 1816 3084 2150 3084 
Q 2853 3084 3261 2657 
Q 3669 2231 3669 1497 
Q 3669 778 3244 343 
Q 2819 -91 2113 -91 
Q 1303 -91 875 529 
Q 447 1150 447 2328 
Q 447 3434 972 4092 
Q 1497 4750 2381 4750 
Q 2619 4750 2861 4703 
Q 3103 4656 3366 4563 
z
" transform="scale(0.015625)"/>
       </defs>
       <use xlink:href="#DejaVuSans-36"/>
       <use xlink:href="#DejaVuSans-30" transform="translate(63.623047 0)"/>
       <use xlink:href="#DejaVuSans-30" transform="translate(127.246094 0)"/>
      </g>
     </g>
    </g>
    <g id="text_4">
     <!-- Duração da etapa / s -->
     <g transform="translate(28.5025 203.06875) rotate(-90) scale(0.16 -0.16)">
      <defs>
       <path id="DejaVuSans-44" d="M 1259 4147 
L 1259 519 
L 2022 519 
Q 2988 519 3436 956 
Q 3884 1394 3884 2338 
Q 3884 3275 3436 3711 
Q 2988 4147 2022 4147 
L 1259 4147 
z
M 628 4666 
L 1925 4666 
Q 3281 4666 3915 4102 
Q 4550 3538 4550 2338 
Q 4550 1131 3912 565 
Q 3275 0 1925 0 
L 628 0 
L 628 4666 
z
" transform="scale(0.015625)"/>
       <path id="DejaVuSans-75" d="M 544 1381 
L 544 3500 
L 1119 3500 
L 1119 1403 
Q 1119 906 1312 657 
Q 1506 409 1894 409 
Q 2359 409 2629 706 
Q 2900 1003 2900 1516 
L 2900 3500 
L 3475 3500 
L 3475 0 
L 2900 0 
L 2900 538 
Q 2691 219 2414 64 
Q 2138 -91 1772 -91 
Q 1169 -91 856 284 
Q 544 659 544 1381 
z
M 1991 3584 
L 1991 3584 
z
" transform="scale(0.015625)"/>
       <path id="DejaVuSans-72" d="M 2631 2963 
Q 2534 3019 2420 3045 
Q 2306 3072 2169 3072 
Q 1681 3072 1420 2755 
Q 1159 2438 1159 1844 
L 1159 0 
L 581 0 
L 581 3500 
L 1159 3500 
L 1159 2956 
Q 1341 3275 1631 3429 
Q 1922 3584 2338 3584 
Q 2397 3584 2469 3576 
Q 2541 3569 2628 3553 
L 2631 2963 
z
" transform="scale(0.015625)"/>
       <path id="DejaVuSans-61" d="M 2194 1759 
Q 1497 1759 1228 1600 
Q 959 1441 959 1056 
Q 959 750 1161 570 
Q 1363 391 1709 391 
Q 2188 391 2477 730 
Q 2766 1069 2766 1631 
L 2766 1759 
L 2194 1759 
z
M 3341 1997 
L 3341 0 
L 2766 0 
L 2766 531 
Q 2569 213 2275 61 
Q 1981 -91 1556 -91 
Q 1019 -91 701 211 
Q 384 513 384 1019 
Q 384 1609 779 1909 
Q 1175 2209 1959 2209 
L 2766 2209 
L 2766 2266 
Q 2766 2663 2505 2880 
Q 2244 3097 1772 3097 
Q 1472 3097 1187 3025 
Q 903 2953 641 2809 
L 641 3341 
Q 956 3463 1253 3523 
Q 1550 3584 1831 3584 
Q 2591 3584 2966 3190 
Q 3341 2797 3341 1997 
z
" transform="scale(0.015625)"/>
       <path id="DejaVuSans-e7" d="M 3122 3366 
L 3122 2828 
Q 2878 2963 2633 3030 
Q 2388 3097 2138 3097 
Q 1578 3097 1268 2742 
Q 959 2388 959 1747 
Q 959 1106 1268 751 
Q 1578 397 2138 397 
Q 2388 397 2633 464 
Q 2878 531 3122 666 
L 3122 134 
Q 2881 22 2623 -34 
Q 2366 -91 2075 -91 
Q 1284 -91 818 406 
Q 353 903 353 1747 
Q 353 2603 823 3093 
Q 1294 3584 2113 3584 
Q 2378 3584 2631 3529 
Q 2884 3475 3122 3366 
z
M 2311 0 
Q 2482 -194 2566 -358 
Q 2651 -522 2651 -672 
Q 2651 -950 2463 -1092 
Q 2276 -1234 1907 -1234 
Q 1764 -1234 1628 -1215 
Q 1492 -1197 1357 -1159 
L 1357 -750 
Q 1464 -803 1579 -826 
Q 1695 -850 1842 -850 
Q 2026 -850 2120 -775 
Q 2214 -700 2214 -556 
Q 2214 -463 2146 -327 
Q 2079 -191 1939 0 
L 2311 0 
z
" transform="scale(0.015625)"/>
       <path id="DejaVuSans-e3" d="M 2194 1759 
Q 1497 1759 1228 1600 
Q 959 1441 959 1056 
Q 959 750 1161 570 
Q 1363 391 1709 391 
Q 2188 391 2477 730 
Q 2766 1069 2766 1631 
L 2766 1759 
L 2194 1759 
z
M 3341 1997 
L 3341 0 
L 2766 0 
L 2766 531 
Q 2569 213 2275 61 
Q 1981 -91 1556 -91 
Q 1019 -91 701 211 
Q 384 513 384 1019 
Q 384 1609 779 1909 
Q 1175 2209 1959 2209 
L 2766 2209 
L 2766 2266 
Q 2766 2663 2505 2880 
Q 2244 3097 1772 3097 
Q 1472 3097 1187 3025 
Q 903 2953 641 2809 
L 641 3341 
Q 956 3463 1253 3523 
Q 1550 3584 1831 3584 
Q 2591 3584 2966 3190 
Q 3341 2797 3341 1997 
z
M 1844 4281 
L 1665 4453 
Q 1597 4516 1545 4545 
Q 1494 4575 1453 4575 
Q 1334 4575 1278 4461 
Q 1222 4347 1215 4091 
L 825 4091 
Q 831 4513 990 4742 
Q 1150 4972 1434 4972 
Q 1553 4972 1653 4928 
Q 1753 4884 1869 4781 
L 2047 4609 
Q 2115 4547 2167 4517 
Q 2219 4488 2259 4488 
Q 2378 4488 2434 4602 
Q 2490 4716 2497 4972 
L 2887 4972 
Q 2881 4550 2721 4320 
Q 2562 4091 2278 4091 
Q 2159 4091 2059 4134 
Q 1959 4178 1844 4281 
z
" transform="scale(0.015625)"/>
       <path id="DejaVuSans-6f" d="M 1959 3097 
Q 1497 3097 1228 2736 
Q 959 2375 959 1747 
Q 959 1119 1226 758 
Q 1494 397 1959 397 
Q 2419 397 2687 759 
Q 2956 1122 2956 1747 
Q 2956 2369 2687 2733 
Q 2419 3097 1959 3097 
z
M 1959 3584 
Q 2709 3584 3137 3096 
Q 3566 2609 3566 1747 
Q 3566 888 3137 398 
Q 2709 -91 1959 -91 
Q 1206 -91 779 398 
Q 353 888 353 1747 
Q 353 2609 779 3096 
Q 1206 3584 1959 3584 
z
" transform="scale(0.015625)"/>
       <path id="DejaVuSans-20" transform="scale(0.015625)"/>
       <path id="DejaVuSans-64" d="M 2906 2969 
L 2906 4863 
L 3481 4863 
L 3481 0 
L 2906 0 
L 2906 525 
Q 2725 213 2448 61 
Q 2172 -91 1784 -91 
Q 1150 -91 751 415 
Q 353 922 353 1747 
Q 353 2572 751 3078 
Q 1150 3584 1784 3584 
Q 2172 3584 2448 3432 
Q 2725 3281 2906 2969 
z
M 947 1747 
Q 947 1113 1208 752 
Q 1469 391 1925 391 
Q 2381 391 2643 752 
Q 2906 1113 2906 1747 
Q 2906 2381 2643 2742 
Q 2381 3103 1925 3103 
Q 1469 3103 1208 2742 
Q 947 2381 947 1747 
z
" transform="scale(0.015625)"/>
       <path id="DejaVuSans-65" d="M 3597 1894 
L 3597 1613 
L 953 1613 
Q 991 1019 1311 708 
Q 1631 397 2203 397 
Q 2534 397 2845 478 
Q 3156 559 3463 722 
L 3463 178 
Q 3153 47 2828 -22 
Q 2503 -91 2169 -91 
Q 1331 -91 842 396 
Q 353 884 353 1716 
Q 353 2575 817 3079 
Q 1281 3584 2069 3584 
Q 2775 3584 3186 3129 
Q 3597 2675 3597 1894 
z
M 3022 2063 
Q 3016 2534 2758 2815 
Q 2500 3097 2075 3097 
Q 1594 3097 1305 2825 
Q 1016 2553 972 2059 
L 3022 2063 
z
" transform="scale(0.015625)"/>
       <path id="DejaVuSans-74" d="M 1172 4494 
L 1172 3500 
L 2356 3500 
L 2356 3053 
L 1172 3053 
L 1172 1153 
Q 1172 725 1289 603 
Q 1406 481 1766 481 
L 2356 481 
L 2356 0 
L 1766 0 
Q 1100 0 847 248 
Q 594 497 594 1153 
L 594 3053 
L 172 3053 
L 172 3500 
L 594 3500 
L 594 4494 
L 1172 4494 
z
" transform="scale(0.015625)"/>
       <path id="DejaVuSans-70" d="M 1159 525 
L 1159 -1331 
L 581 -1331 
L 581 3500 
L 1159 3500 
L 1159 2969 
Q 1341 3281 1617 3432 
Q 1894 3584 2278 3584 
Q 2916 3584 3314 3078 
Q 3713 2572 3713 1747 
Q 3713 922 3314 415 
Q 2916 -91 2278 -91 
Q 1894 -91 1617 61 
Q 1341 213 1159 525 
z
M 3116 1747 
Q 3116 2381 2855 2742 
Q 2594 3103 2138 3103 
Q 1681 3103 1420 2742 
Q 1159 2381 1159 1747 
Q 1159 1113 1420 752 
Q 1681 391 2138 391 
Q 2594 391 2855 752 
Q 3116 1113 3116 1747 
z
" transform="scale(0.015625)"/>
       <path id="DejaVuSans-2f" d="M 1625 4666 
L 2156 4666 
L 531 -594 
L 0 -594 
L 1625 4666 
z
" transform="scale(0.015625)"/>
       <path id="DejaVuSans-73" d="M 2834 3397 
L 2834 2853 
Q 2591 2978 2328 3040 
Q 2066 3103 1784 3103 
Q 1356 3103 1142 2972 
Q 928 2841 928 2578 
Q 928 2378 1081 2264 
Q 1234 2150 1697 2047 
L 1894 2003 
Q 2506 1872 2764 1633 
Q 3022 1394 3022 966 
Q 3022 478 2636 193 
Q 2250 -91 1575 -91 
Q 1294 -91 989 -36 
Q 684 19 347 128 
L 347 722 
Q 666 556 975 473 
Q 1284 391 1588 391 
Q 1994 391 2212 530 
Q 2431 669 2431 922 
Q 2431 1156 2273 1281 
Q 2116 1406 1581 1522 
L 1381 1569 
Q 847 1681 609 1914 
Q 372 2147 372 2553 
Q 372 3047 722 3315 
Q 1072 3584 1716 3584 
Q 2034 3584 2315 3537 
Q 2597 3491 2834 3397 
z
" transform="scale(0.015625)"/>
      </defs>
      <use xlink:href="#DejaVuSans-44"/>
      <use xlink:href="#DejaVuSans-75" transform="translate(77.001953 0)"/>
      <use xlink:href="#DejaVuSans-72" transform="translate(140.380859 0)"/>
      <use xlink:href="#DejaVuSans-61" transform="translate(181.494141 0)"/>
      <use xlink:href="#DejaVuSans-e7" transform="translate(242.773438 0)"/>
      <use xlink:href="#DejaVuSans-e3" transform="translate(297.753906 0)"/>
      <use xlink:href="#DejaVuSans-6f" transform="translate(359.033203 0)"/>
      <use xlink:href="#DejaVuSans-20" transform="translate(420.214844 0)"/>
      <use xlink:href="#DejaVuSans-64" transform="translate(452.001953 0)"/>
      <use xlink:href="#DejaVuSans-61" transform="translate(515.478516 0)"/>
      <use xlink:href="#DejaVuSans-20" transform="translate(576.757812 0)"/>
      <use xlink:href="#DejaVuSans-65" transform="translate(608.544922 0)"/>
      <use xlink:href="#DejaVuSans-74" transform="translate(670.068359 0)"/>
      <use xlink:href="#DejaVuSans-61" transform="translate(709.277344 0)"/>
      <use xlink:href="#DejaVuSans-70" transform="translate(770.556641 0)"/>
      <use xlink:href="#DejaVuSans-61" transform="translate(834.033203 0)"/>
      <use xlink:href="#DejaVuSans-20" transform="translate(895.3125 0)"/>
      <use xlink:href="#DejaVuSans-2f" transform="translate(927.099609 0)"/>
      <use xlink:href="#DejaVuSans-20" transform="translate(960.791016 0)"/>
      <use xlink:href="#DejaVuSans-73" transform="translate(992.578125 0)"/>
     </g>
    </g>
   </g>
   <g id="line2d_21">
    <path d="M 90.864604 30.757221 
L 93.212873 28.431624 
L 95.561142 27.15653 
L 97.909411 26.763875 
L 100.25768 26.608941 
L 104.954218 26.601517 
L 111.999025 26.947553 
L 119.043832 27.452578 
L 128.436908 28.355752 
L 140.178253 29.700278 
L 151.919598 31.125626 
L 158.964406 31.81948 
L 166.009213 32.324672 
L 173.05402 32.597705 
L 180.098827 32.619286 
L 187.143634 32.40722 
L 196.53671 31.876776 
L 212.974593 30.880154 
L 222.367669 30.586205 
L 231.760745 30.571004 
L 241.153821 30.80899 
L 274.029587 31.981494 
L 283.422663 32.00212 
L 295.164008 31.805165 
L 320.994967 31.252311 
L 332.736312 31.245574 
L 349.174196 31.506496 
L 372.656886 31.907335 
L 389.094769 31.918988 
L 436.060149 31.676097 
L 440.756687 31.710728 
L 440.756687 31.710728 
" clip-path="url(#p0e0a48ed7b)" style="fill: none; stroke: #1f77b4; stroke-width: 1.5; stroke-linecap: square"/>
   </g>
   <g id="line2d_22">
    <path d="M 90.864604 156.405738 
L 93.212873 156.47321 
L 95.561142 156.716959 
L 97.909411 157.467324 
L 102.605949 159.761451 
L 109.650756 163.267271 
L 114.347294 165.355537 
L 121.392101 168.1685 
L 126.088639 169.842096 
L 130.785177 171.320847 
L 142.526522 174.517573 
L 149.571329 176.217791 
L 154.267867 177.1822 
L 158.964406 177.98727 
L 163.660944 178.611887 
L 168.357482 179.036136 
L 173.05402 179.245512 
L 177.750558 179.229941 
L 182.447096 178.996565 
L 187.143634 178.579085 
L 194.188441 177.716081 
L 208.278055 175.864137 
L 215.322862 175.223244 
L 222.367669 174.89672 
L 229.412476 174.892586 
L 236.457283 175.187525 
L 245.850359 175.906311 
L 262.288242 177.282659 
L 269.333049 177.645886 
L 276.377856 177.78941 
L 283.422663 177.713674 
L 292.815739 177.345744 
L 316.298429 176.19808 
L 325.691505 176.051838 
L 335.084581 176.166515 
L 346.825927 176.570485 
L 365.612079 177.266499 
L 377.353424 177.430912 
L 389.094769 177.332576 
L 426.667073 176.711575 
L 440.756687 176.851542 
L 440.756687 176.851542 
" clip-path="url(#p0e0a48ed7b)" style="fill: none; stroke: #ff7f0e; stroke-width: 1.5; stroke-linecap: square"/>
   </g>
   <g id="line2d_23">
    <path d="M 90.864604 197.279352 
L 93.212873 196.096829 
L 95.561142 195.40292 
L 97.909411 194.970982 
L 102.605949 194.503502 
L 107.302487 194.303456 
L 114.347294 194.251677 
L 126.088639 194.290366 
L 130.785177 194.531525 
L 135.481715 195.069916 
L 142.526522 196.196072 
L 144.874791 196.595089 
L 149.571329 197.038847 
L 154.267867 197.226257 
L 163.660944 197.279352 
L 182.447096 197.204108 
L 189.491903 196.835012 
L 198.884979 196.006373 
L 212.974593 194.685541 
L 217.671131 194.425031 
L 224.715938 194.29325 
L 234.109014 194.299724 
L 241.153821 194.504726 
L 252.895166 195.117609 
L 266.98478 195.837674 
L 276.377856 196.065462 
L 285.770932 196.022671 
L 295.164008 195.754404 
L 323.343236 194.748751 
L 332.736312 194.680768 
L 344.477658 194.826784 
L 377.353424 195.431145 
L 391.443038 195.335605 
L 433.71188 194.748678 
L 440.756687 194.772084 
L 440.756687 194.772084 
" clip-path="url(#p0e0a48ed7b)" style="fill: none; stroke: #2ca02c; stroke-width: 1.5; stroke-linecap: square"/>
   </g>
   <g id="line2d_24">
    <path d="M 90.864604 212.417727 
L 95.561142 206.464383 
L 97.909411 204.50969 
L 100.25768 203.275242 
L 102.605949 202.512907 
L 104.954218 202.051773 
L 107.302487 201.821729 
L 135.481715 201.831091 
L 140.178253 202.113739 
L 147.22306 202.921498 
L 163.660944 205.074688 
L 170.705751 205.767762 
L 177.750558 206.21526 
L 184.795365 206.378465 
L 191.840172 206.260383 
L 198.884979 205.91387 
L 227.064207 204.142041 
L 234.109014 204.00071 
L 241.153821 204.039258 
L 250.546897 204.32638 
L 281.074394 205.551308 
L 290.46747 205.593994 
L 302.208815 205.388056 
L 330.388043 204.708743 
L 342.129389 204.714316 
L 356.219003 204.956962 
L 379.701693 205.405442 
L 393.791307 205.439347 
L 414.925728 205.218626 
L 436.060149 205.081692 
L 440.756687 205.092858 
L 440.756687 205.092858 
" clip-path="url(#p0e0a48ed7b)" style="fill: none; stroke: #d62728; stroke-width: 1.5; stroke-linecap: square"/>
   </g>
   <g id="patch_3">
    <path d="M 73.37 221.71 
L 73.37 17.28 
" style="fill: none; stroke: #000000; stroke-width: 0.8; stroke-linejoin: miter; stroke-linecap: square"/>
   </g>
   <g id="patch_4">
    <path d="M 458.251291 221.71 
L 458.251291 17.28 
" style="fill: none; stroke: #000000; stroke-width: 0.8; stroke-linejoin: miter; stroke-linecap: square"/>
   </g>
   <g id="patch_5">
    <path d="M 73.37 221.71 
L 458.251291 221.71 
" style="fill: none; stroke: #000000; stroke-width: 0.8; stroke-linejoin: miter; stroke-linecap: square"/>
   </g>
   <g id="patch_6">
    <path d="M 73.37 17.28 
L 458.251291 17.28 
" style="fill: none; stroke: #000000; stroke-width: 0.8; stroke-linejoin: miter; stroke-linecap: square"/>
   </g>
   <g id="legend_1">
    <g id="line2d_25">
     <path d="M 472.651291 82.26625 
L 488.651291 82.26625 
L 504.651291 82.26625 
" style="fill: none; stroke: #1f77b4; stroke-width: 1.5; stroke-linecap: square"/>
    </g>
    <g id="text_5">
     <!-- $t_{feed}$ -->
     <g transform="translate(517.451291 87.86625) scale(0.16 -0.16)">
      <defs>
       <path id="DejaVuSans-Oblique-74" d="M 2706 3500 
L 2619 3053 
L 1472 3053 
L 1100 1153 
Q 1081 1047 1072 975 
Q 1063 903 1063 863 
Q 1063 663 1183 572 
Q 1303 481 1569 481 
L 2150 481 
L 2053 0 
L 1503 0 
Q 991 0 739 200 
Q 488 400 488 806 
Q 488 878 497 964 
Q 506 1050 525 1153 
L 897 3053 
L 409 3053 
L 500 3500 
L 978 3500 
L 1172 4494 
L 1747 4494 
L 1556 3500 
L 2706 3500 
z
" transform="scale(0.015625)"/>
       <path id="DejaVuSans-Oblique-66" d="M 3059 4863 
L 2969 4384 
L 2419 4384 
Q 2106 4384 1964 4261 
Q 1822 4138 1753 3809 
L 1691 3500 
L 2638 3500 
L 2553 3053 
L 1606 3053 
L 1013 0 
L 434 0 
L 1031 3053 
L 481 3053 
L 563 3500 
L 1113 3500 
L 1159 3744 
Q 1278 4363 1576 4613 
Q 1875 4863 2516 4863 
L 3059 4863 
z
" transform="scale(0.015625)"/>
       <path id="DejaVuSans-Oblique-65" d="M 3078 2063 
Q 3088 2113 3092 2166 
Q 3097 2219 3097 2272 
Q 3097 2653 2873 2875 
Q 2650 3097 2266 3097 
Q 1838 3097 1509 2826 
Q 1181 2556 1013 2059 
L 3078 2063 
z
M 3578 1613 
L 903 1613 
Q 884 1494 878 1425 
Q 872 1356 872 1306 
Q 872 872 1139 634 
Q 1406 397 1894 397 
Q 2269 397 2603 481 
Q 2938 566 3225 728 
L 3116 159 
Q 2806 34 2476 -28 
Q 2147 -91 1806 -91 
Q 1078 -91 686 257 
Q 294 606 294 1247 
Q 294 1794 489 2264 
Q 684 2734 1063 3103 
Q 1306 3334 1642 3459 
Q 1978 3584 2356 3584 
Q 2950 3584 3301 3228 
Q 3653 2872 3653 2272 
Q 3653 2128 3634 1964 
Q 3616 1800 3578 1613 
z
" transform="scale(0.015625)"/>
       <path id="DejaVuSans-Oblique-64" d="M 2675 525 
Q 2444 222 2128 65 
Q 1813 -91 1428 -91 
Q 903 -91 598 267 
Q 294 625 294 1247 
Q 294 1766 478 2236 
Q 663 2706 1013 3078 
Q 1244 3325 1534 3454 
Q 1825 3584 2144 3584 
Q 2481 3584 2739 3421 
Q 2997 3259 3138 2956 
L 3513 4863 
L 4091 4863 
L 3144 0 
L 2566 0 
L 2675 525 
z
M 891 1350 
Q 891 897 1095 644 
Q 1300 391 1663 391 
Q 1931 391 2161 520 
Q 2391 650 2566 903 
Q 2750 1166 2856 1509 
Q 2963 1853 2963 2188 
Q 2963 2622 2758 2865 
Q 2553 3109 2194 3109 
Q 1922 3109 1687 2981 
Q 1453 2853 1288 2613 
Q 1106 2353 998 2009 
Q 891 1666 891 1350 
z
" transform="scale(0.015625)"/>
      </defs>
      <use xlink:href="#DejaVuSans-Oblique-74" transform="translate(0 0.78125)"/>
      <use xlink:href="#DejaVuSans-Oblique-66" transform="translate(39.208984 -15.625) scale(0.7)"/>
      <use xlink:href="#DejaVuSans-Oblique-65" transform="translate(63.852539 -15.625) scale(0.7)"/>
      <use xlink:href="#DejaVuSans-Oblique-65" transform="translate(106.918945 -15.625) scale(0.7)"/>
      <use xlink:href="#DejaVuSans-Oblique-64" transform="translate(149.985352 -15.625) scale(0.7)"/>
     </g>
    </g>
    <g id="line2d_26">
     <path d="M 472.651291 105.75125 
L 488.651291 105.75125 
L 504.651291 105.75125 
" style="fill: none; stroke: #ff7f0e; stroke-width: 1.5; stroke-linecap: square"/>
    </g>
    <g id="text_6">
     <!-- $t_{rinse}$ -->
     <g transform="translate(517.451291 111.35125) scale(0.16 -0.16)">
      <defs>
       <path id="DejaVuSans-Oblique-72" d="M 2853 2969 
Q 2766 3016 2653 3041 
Q 2541 3066 2413 3066 
Q 1953 3066 1609 2717 
Q 1266 2369 1153 1784 
L 800 0 
L 225 0 
L 909 3500 
L 1484 3500 
L 1375 2956 
Q 1603 3259 1920 3421 
Q 2238 3584 2597 3584 
Q 2691 3584 2781 3573 
Q 2872 3563 2963 3538 
L 2853 2969 
z
" transform="scale(0.015625)"/>
       <path id="DejaVuSans-Oblique-69" d="M 1172 4863 
L 1747 4863 
L 1606 4134 
L 1031 4134 
L 1172 4863 
z
M 909 3500 
L 1484 3500 
L 800 0 
L 225 0 
L 909 3500 
z
" transform="scale(0.015625)"/>
       <path id="DejaVuSans-Oblique-6e" d="M 3566 2113 
L 3156 0 
L 2578 0 
L 2988 2091 
Q 3016 2238 3031 2350 
Q 3047 2463 3047 2528 
Q 3047 2791 2881 2937 
Q 2716 3084 2419 3084 
Q 1956 3084 1622 2776 
Q 1288 2469 1184 1941 
L 800 0 
L 225 0 
L 903 3500 
L 1478 3500 
L 1363 2950 
Q 1603 3253 1940 3418 
Q 2278 3584 2650 3584 
Q 3113 3584 3367 3334 
Q 3622 3084 3622 2631 
Q 3622 2519 3608 2391 
Q 3594 2263 3566 2113 
z
" transform="scale(0.015625)"/>
       <path id="DejaVuSans-Oblique-73" d="M 3200 3397 
L 3091 2853 
Q 2863 2978 2609 3040 
Q 2356 3103 2088 3103 
Q 1634 3103 1373 2948 
Q 1113 2794 1113 2528 
Q 1113 2219 1719 2053 
Q 1766 2041 1788 2034 
L 1972 1978 
Q 2547 1819 2739 1644 
Q 2931 1469 2931 1166 
Q 2931 609 2489 259 
Q 2047 -91 1331 -91 
Q 1053 -91 747 -37 
Q 441 16 72 128 
L 184 722 
Q 500 559 806 475 
Q 1113 391 1394 391 
Q 1816 391 2080 572 
Q 2344 753 2344 1031 
Q 2344 1331 1650 1516 
L 1591 1531 
L 1394 1581 
Q 956 1697 753 1886 
Q 550 2075 550 2369 
Q 550 2928 970 3256 
Q 1391 3584 2113 3584 
Q 2397 3584 2667 3537 
Q 2938 3491 3200 3397 
z
" transform="scale(0.015625)"/>
      </defs>
      <use xlink:href="#DejaVuSans-Oblique-74" transform="translate(0 0.78125)"/>
      <use xlink:href="#DejaVuSans-Oblique-72" transform="translate(39.208984 -15.625) scale(0.7)"/>
      <use xlink:href="#DejaVuSans-Oblique-69" transform="translate(67.988281 -15.625) scale(0.7)"/>
      <use xlink:href="#DejaVuSans-Oblique-6e" transform="translate(87.436523 -15.625) scale(0.7)"/>
      <use xlink:href="#DejaVuSans-Oblique-73" transform="translate(131.801758 -15.625) scale(0.7)"/>
      <use xlink:href="#DejaVuSans-Oblique-65" transform="translate(168.271484 -15.625) scale(0.7)"/>
     </g>
    </g>
    <g id="line2d_27">
     <path d="M 472.651291 129.23625 
L 488.651291 129.23625 
L 504.651291 129.23625 
" style="fill: none; stroke: #2ca02c; stroke-width: 1.5; stroke-linecap: square"/>
    </g>
    <g id="text_7">
     <!-- $t_{blow}$ -->
     <g transform="translate(517.451291 134.83625) scale(0.16 -0.16)">
      <defs>
       <path id="DejaVuSans-Oblique-62" d="M 3169 2138 
Q 3169 2591 2961 2847 
Q 2753 3103 2388 3103 
Q 2122 3103 1889 2973 
Q 1656 2844 1484 2597 
Q 1303 2338 1198 1995 
Q 1094 1653 1094 1313 
Q 1094 881 1298 636 
Q 1503 391 1863 391 
Q 2134 391 2365 517 
Q 2597 644 2772 891 
Q 2950 1147 3059 1487 
Q 3169 1828 3169 2138 
z
M 1381 2969 
Q 1594 3256 1914 3420 
Q 2234 3584 2584 3584 
Q 3122 3584 3439 3221 
Q 3756 2859 3756 2241 
Q 3756 1734 3570 1259 
Q 3384 784 3041 416 
Q 2816 172 2522 40 
Q 2228 -91 1906 -91 
Q 1566 -91 1316 65 
Q 1066 222 909 531 
L 806 0 
L 231 0 
L 1178 4863 
L 1753 4863 
L 1381 2969 
z
" transform="scale(0.015625)"/>
       <path id="DejaVuSans-Oblique-6c" d="M 1172 4863 
L 1747 4863 
L 800 0 
L 225 0 
L 1172 4863 
z
" transform="scale(0.015625)"/>
       <path id="DejaVuSans-Oblique-6f" d="M 1625 -91 
Q 1009 -91 651 289 
Q 294 669 294 1325 
Q 294 1706 417 2101 
Q 541 2497 738 2766 
Q 1047 3184 1428 3384 
Q 1809 3584 2291 3584 
Q 2888 3584 3255 3212 
Q 3622 2841 3622 2241 
Q 3622 1825 3500 1412 
Q 3378 1000 3181 728 
Q 2875 309 2494 109 
Q 2113 -91 1625 -91 
z
M 891 1344 
Q 891 869 1089 633 
Q 1288 397 1691 397 
Q 2269 397 2648 901 
Q 3028 1406 3028 2181 
Q 3028 2634 2825 2865 
Q 2622 3097 2228 3097 
Q 1903 3097 1650 2945 
Q 1397 2794 1197 2484 
Q 1050 2253 970 1956 
Q 891 1659 891 1344 
z
" transform="scale(0.015625)"/>
       <path id="DejaVuSans-Oblique-77" d="M 544 3500 
L 1113 3500 
L 1259 684 
L 2566 3500 
L 3231 3500 
L 3425 684 
L 4666 3500 
L 5241 3500 
L 3641 0 
L 2969 0 
L 2797 2900 
L 1459 0 
L 781 0 
L 544 3500 
z
" transform="scale(0.015625)"/>
      </defs>
      <use xlink:href="#DejaVuSans-Oblique-74" transform="translate(0 0.78125)"/>
      <use xlink:href="#DejaVuSans-Oblique-62" transform="translate(39.208984 -15.625) scale(0.7)"/>
      <use xlink:href="#DejaVuSans-Oblique-6c" transform="translate(83.642578 -15.625) scale(0.7)"/>
      <use xlink:href="#DejaVuSans-Oblique-6f" transform="translate(103.09082 -15.625) scale(0.7)"/>
      <use xlink:href="#DejaVuSans-Oblique-77" transform="translate(145.917969 -15.625) scale(0.7)"/>
     </g>
    </g>
    <g id="line2d_28">
     <path d="M 472.651291 152.72125 
L 488.651291 152.72125 
L 504.651291 152.72125 
" style="fill: none; stroke: #d62728; stroke-width: 1.5; stroke-linecap: square"/>
    </g>
    <g id="text_8">
     <!-- $t_{purge}$ -->
     <g transform="translate(517.451291 158.32125) scale(0.16 -0.16)">
      <defs>
       <path id="DejaVuSans-Oblique-70" d="M 3175 2156 
Q 3175 2616 2975 2859 
Q 2775 3103 2400 3103 
Q 2144 3103 1911 2972 
Q 1678 2841 1497 2591 
Q 1319 2344 1212 1994 
Q 1106 1644 1106 1300 
Q 1106 863 1306 627 
Q 1506 391 1875 391 
Q 2147 391 2380 519 
Q 2613 647 2778 891 
Q 2956 1147 3065 1494 
Q 3175 1841 3175 2156 
z
M 1394 2969 
Q 1625 3272 1939 3428 
Q 2253 3584 2638 3584 
Q 3175 3584 3472 3232 
Q 3769 2881 3769 2247 
Q 3769 1728 3584 1258 
Q 3400 788 3053 416 
Q 2822 169 2531 39 
Q 2241 -91 1919 -91 
Q 1547 -91 1294 64 
Q 1041 219 916 525 
L 556 -1331 
L -19 -1331 
L 922 3500 
L 1497 3500 
L 1394 2969 
z
" transform="scale(0.015625)"/>
       <path id="DejaVuSans-Oblique-75" d="M 428 1388 
L 838 3500 
L 1416 3500 
L 1006 1409 
Q 975 1256 961 1147 
Q 947 1038 947 966 
Q 947 700 1109 554 
Q 1272 409 1569 409 
Q 2031 409 2368 721 
Q 2706 1034 2809 1563 
L 3194 3500 
L 3769 3500 
L 3091 0 
L 2516 0 
L 2631 550 
Q 2388 244 2052 76 
Q 1716 -91 1338 -91 
Q 878 -91 622 161 
Q 366 413 366 863 
Q 366 956 381 1097 
Q 397 1238 428 1388 
z
" transform="scale(0.015625)"/>
       <path id="DejaVuSans-Oblique-67" d="M 3816 3500 
L 3219 434 
Q 3047 -456 2561 -893 
Q 2075 -1331 1253 -1331 
Q 950 -1331 690 -1286 
Q 431 -1241 206 -1147 
L 313 -588 
Q 525 -725 762 -790 
Q 1000 -856 1269 -856 
Q 1816 -856 2167 -557 
Q 2519 -259 2631 300 
L 2681 563 
Q 2441 288 2122 144 
Q 1803 0 1434 0 
Q 903 0 598 351 
Q 294 703 294 1319 
Q 294 1803 478 2267 
Q 663 2731 997 3091 
Q 1219 3328 1514 3456 
Q 1809 3584 2131 3584 
Q 2484 3584 2746 3420 
Q 3009 3256 3138 2956 
L 3238 3500 
L 3816 3500 
z
M 2950 2216 
Q 2950 2641 2750 2872 
Q 2550 3103 2181 3103 
Q 1953 3103 1747 3012 
Q 1541 2922 1394 2759 
Q 1156 2491 1023 2127 
Q 891 1763 891 1375 
Q 891 944 1092 712 
Q 1294 481 1672 481 
Q 2219 481 2584 976 
Q 2950 1472 2950 2216 
z
" transform="scale(0.015625)"/>
      </defs>
      <use xlink:href="#DejaVuSans-Oblique-74" transform="translate(0 0.78125)"/>
      <use xlink:href="#DejaVuSans-Oblique-70" transform="translate(39.208984 -15.625) scale(0.7)"/>
      <use xlink:href="#DejaVuSans-Oblique-75" transform="translate(83.642578 -15.625) scale(0.7)"/>
      <use xlink:href="#DejaVuSans-Oblique-72" transform="translate(128.007812 -15.625) scale(0.7)"/>
      <use xlink:href="#DejaVuSans-Oblique-67" transform="translate(156.787109 -15.625) scale(0.7)"/>
      <use xlink:href="#DejaVuSans-Oblique-65" transform="translate(201.220703 -15.625) scale(0.7)"/>
     </g>
    </g>
   </g>
  </g>
  <g id="axes_2">
   <g id="patch_7">
    <path d="M 73.37 446.92 
L 458.251291 446.92 
L 458.251291 242.49 
L 73.37 242.49 
z
" style="fill: #ffffff"/>
   </g>
   <g id="matplotlib.axis_3">
    <g id="xtick_8">
     <g id="line2d_29">
      <path d="M 90.864604 446.92 
L 90.864604 242.49 
" clip-path="url(#pc2ce939b55)" style="fill: none; stroke: #b0b0b0; stroke-width: 0.8; stroke-linecap: square"/>
     </g>
     <g id="line2d_30">
      <g>
       <use xlink:href="#m23487ee815" x="90.864604" y="446.92" style="stroke: #000000; stroke-width: 0.8"/>
      </g>
     </g>
     <g id="text_9">
      <!-- 0 -->
      <g transform="translate(85.774604 466.0775) scale(0.16 -0.16)">
       <use xlink:href="#DejaVuSans-30"/>
      </g>
     </g>
    </g>
    <g id="xtick_9">
     <g id="line2d_31">
      <path d="M 149.571329 446.92 
L 149.571329 242.49 
" clip-path="url(#pc2ce939b55)" style="fill: none; stroke: #b0b0b0; stroke-width: 0.8; stroke-linecap: square"/>
     </g>
     <g id="line2d_32">
      <g>
       <use xlink:href="#m23487ee815" x="149.571329" y="446.92" style="stroke: #000000; stroke-width: 0.8"/>
      </g>
     </g>
     <g id="text_10">
      <!-- 25 -->
      <g transform="translate(139.391329 466.0775) scale(0.16 -0.16)">
       <defs>
        <path id="DejaVuSans-35" d="M 691 4666 
L 3169 4666 
L 3169 4134 
L 1269 4134 
L 1269 2991 
Q 1406 3038 1543 3061 
Q 1681 3084 1819 3084 
Q 2600 3084 3056 2656 
Q 3513 2228 3513 1497 
Q 3513 744 3044 326 
Q 2575 -91 1722 -91 
Q 1428 -91 1123 -41 
Q 819 9 494 109 
L 494 744 
Q 775 591 1075 516 
Q 1375 441 1709 441 
Q 2250 441 2565 725 
Q 2881 1009 2881 1497 
Q 2881 1984 2565 2268 
Q 2250 2553 1709 2553 
Q 1456 2553 1204 2497 
Q 953 2441 691 2322 
L 691 4666 
z
" transform="scale(0.015625)"/>
       </defs>
       <use xlink:href="#DejaVuSans-32"/>
       <use xlink:href="#DejaVuSans-35" transform="translate(63.623047 0)"/>
      </g>
     </g>
    </g>
    <g id="xtick_10">
     <g id="line2d_33">
      <path d="M 208.278055 446.92 
L 208.278055 242.49 
" clip-path="url(#pc2ce939b55)" style="fill: none; stroke: #b0b0b0; stroke-width: 0.8; stroke-linecap: square"/>
     </g>
     <g id="line2d_34">
      <g>
       <use xlink:href="#m23487ee815" x="208.278055" y="446.92" style="stroke: #000000; stroke-width: 0.8"/>
      </g>
     </g>
     <g id="text_11">
      <!-- 50 -->
      <g transform="translate(198.098055 466.0775) scale(0.16 -0.16)">
       <use xlink:href="#DejaVuSans-35"/>
       <use xlink:href="#DejaVuSans-30" transform="translate(63.623047 0)"/>
      </g>
     </g>
    </g>
    <g id="xtick_11">
     <g id="line2d_35">
      <path d="M 266.98478 446.92 
L 266.98478 242.49 
" clip-path="url(#pc2ce939b55)" style="fill: none; stroke: #b0b0b0; stroke-width: 0.8; stroke-linecap: square"/>
     </g>
     <g id="line2d_36">
      <g>
       <use xlink:href="#m23487ee815" x="266.98478" y="446.92" style="stroke: #000000; stroke-width: 0.8"/>
      </g>
     </g>
     <g id="text_12">
      <!-- 75 -->
      <g transform="translate(256.80478 466.0775) scale(0.16 -0.16)">
       <defs>
        <path id="DejaVuSans-37" d="M 525 4666 
L 3525 4666 
L 3525 4397 
L 1831 0 
L 1172 0 
L 2766 4134 
L 525 4134 
L 525 4666 
z
" transform="scale(0.015625)"/>
       </defs>
       <use xlink:href="#DejaVuSans-37"/>
       <use xlink:href="#DejaVuSans-35" transform="translate(63.623047 0)"/>
      </g>
     </g>
    </g>
    <g id="xtick_12">
     <g id="line2d_37">
      <path d="M 325.691505 446.92 
L 325.691505 242.49 
" clip-path="url(#pc2ce939b55)" style="fill: none; stroke: #b0b0b0; stroke-width: 0.8; stroke-linecap: square"/>
     </g>
     <g id="line2d_38">
      <g>
       <use xlink:href="#m23487ee815" x="325.691505" y="446.92" style="stroke: #000000; stroke-width: 0.8"/>
      </g>
     </g>
     <g id="text_13">
      <!-- 100 -->
      <g transform="translate(310.421505 466.0775) scale(0.16 -0.16)">
       <defs>
        <path id="DejaVuSans-31" d="M 794 531 
L 1825 531 
L 1825 4091 
L 703 3866 
L 703 4441 
L 1819 4666 
L 2450 4666 
L 2450 531 
L 3481 531 
L 3481 0 
L 794 0 
L 794 531 
z
" transform="scale(0.015625)"/>
       </defs>
       <use xlink:href="#DejaVuSans-31"/>
       <use xlink:href="#DejaVuSans-30" transform="translate(63.623047 0)"/>
       <use xlink:href="#DejaVuSans-30" transform="translate(127.246094 0)"/>
      </g>
     </g>
    </g>
    <g id="xtick_13">
     <g id="line2d_39">
      <path d="M 384.398231 446.92 
L 384.398231 242.49 
" clip-path="url(#pc2ce939b55)" style="fill: none; stroke: #b0b0b0; stroke-width: 0.8; stroke-linecap: square"/>
     </g>
     <g id="line2d_40">
      <g>
       <use xlink:href="#m23487ee815" x="384.398231" y="446.92" style="stroke: #000000; stroke-width: 0.8"/>
      </g>
     </g>
     <g id="text_14">
      <!-- 125 -->
      <g transform="translate(369.128231 466.0775) scale(0.16 -0.16)">
       <use xlink:href="#DejaVuSans-31"/>
       <use xlink:href="#DejaVuSans-32" transform="translate(63.623047 0)"/>
       <use xlink:href="#DejaVuSans-35" transform="translate(127.246094 0)"/>
      </g>
     </g>
    </g>
    <g id="xtick_14">
     <g id="line2d_41">
      <path d="M 443.104956 446.92 
L 443.104956 242.49 
" clip-path="url(#pc2ce939b55)" style="fill: none; stroke: #b0b0b0; stroke-width: 0.8; stroke-linecap: square"/>
     </g>
     <g id="line2d_42">
      <g>
       <use xlink:href="#m23487ee815" x="443.104956" y="446.92" style="stroke: #000000; stroke-width: 0.8"/>
      </g>
     </g>
     <g id="text_15">
      <!-- 150 -->
      <g transform="translate(427.834956 466.0775) scale(0.16 -0.16)">
       <use xlink:href="#DejaVuSans-31"/>
       <use xlink:href="#DejaVuSans-35" transform="translate(63.623047 0)"/>
       <use xlink:href="#DejaVuSans-30" transform="translate(127.246094 0)"/>
      </g>
     </g>
    </g>
    <g id="text_16">
     <!-- Ciclo -->
     <g transform="translate(246.485646 485.5625) scale(0.16 -0.16)">
      <defs>
       <path id="DejaVuSans-43" d="M 4122 4306 
L 4122 3641 
Q 3803 3938 3442 4084 
Q 3081 4231 2675 4231 
Q 1875 4231 1450 3742 
Q 1025 3253 1025 2328 
Q 1025 1406 1450 917 
Q 1875 428 2675 428 
Q 3081 428 3442 575 
Q 3803 722 4122 1019 
L 4122 359 
Q 3791 134 3420 21 
Q 3050 -91 2638 -91 
Q 1578 -91 968 557 
Q 359 1206 359 2328 
Q 359 3453 968 4101 
Q 1578 4750 2638 4750 
Q 3056 4750 3426 4639 
Q 3797 4528 4122 4306 
z
" transform="scale(0.015625)"/>
       <path id="DejaVuSans-69" d="M 603 3500 
L 1178 3500 
L 1178 0 
L 603 0 
L 603 3500 
z
M 603 4863 
L 1178 4863 
L 1178 4134 
L 603 4134 
L 603 4863 
z
" transform="scale(0.015625)"/>
       <path id="DejaVuSans-63" d="M 3122 3366 
L 3122 2828 
Q 2878 2963 2633 3030 
Q 2388 3097 2138 3097 
Q 1578 3097 1268 2742 
Q 959 2388 959 1747 
Q 959 1106 1268 751 
Q 1578 397 2138 397 
Q 2388 397 2633 464 
Q 2878 531 3122 666 
L 3122 134 
Q 2881 22 2623 -34 
Q 2366 -91 2075 -91 
Q 1284 -91 818 406 
Q 353 903 353 1747 
Q 353 2603 823 3093 
Q 1294 3584 2113 3584 
Q 2378 3584 2631 3529 
Q 2884 3475 3122 3366 
z
" transform="scale(0.015625)"/>
       <path id="DejaVuSans-6c" d="M 603 4863 
L 1178 4863 
L 1178 0 
L 603 0 
L 603 4863 
z
" transform="scale(0.015625)"/>
      </defs>
      <use xlink:href="#DejaVuSans-43"/>
      <use xlink:href="#DejaVuSans-69" transform="translate(69.824219 0)"/>
      <use xlink:href="#DejaVuSans-63" transform="translate(97.607422 0)"/>
      <use xlink:href="#DejaVuSans-6c" transform="translate(152.587891 0)"/>
      <use xlink:href="#DejaVuSans-6f" transform="translate(180.371094 0)"/>
     </g>
    </g>
   </g>
   <g id="matplotlib.axis_4">
    <g id="ytick_4">
     <g id="line2d_43">
      <path d="M 73.37 421.122582 
L 458.251291 421.122582 
" clip-path="url(#pc2ce939b55)" style="fill: none; stroke: #b0b0b0; stroke-width: 0.8; stroke-linecap: square"/>
     </g>
     <g id="line2d_44">
      <g>
       <use xlink:href="#m4f303590bf" x="73.37" y="421.122582" style="stroke: #000000; stroke-width: 0.8"/>
      </g>
     </g>
     <g id="text_17">
      <!-- 70 -->
      <g transform="translate(46.01 427.201332) scale(0.16 -0.16)">
       <use xlink:href="#DejaVuSans-37"/>
       <use xlink:href="#DejaVuSans-30" transform="translate(63.623047 0)"/>
      </g>
     </g>
    </g>
    <g id="ytick_5">
     <g id="line2d_45">
      <path d="M 73.37 369.11713 
L 458.251291 369.11713 
" clip-path="url(#pc2ce939b55)" style="fill: none; stroke: #b0b0b0; stroke-width: 0.8; stroke-linecap: square"/>
     </g>
     <g id="line2d_46">
      <g>
       <use xlink:href="#m4f303590bf" x="73.37" y="369.11713" style="stroke: #000000; stroke-width: 0.8"/>
      </g>
     </g>
     <g id="text_18">
      <!-- 80 -->
      <g transform="translate(46.01 375.19588) scale(0.16 -0.16)">
       <defs>
        <path id="DejaVuSans-38" d="M 2034 2216 
Q 1584 2216 1326 1975 
Q 1069 1734 1069 1313 
Q 1069 891 1326 650 
Q 1584 409 2034 409 
Q 2484 409 2743 651 
Q 3003 894 3003 1313 
Q 3003 1734 2745 1975 
Q 2488 2216 2034 2216 
z
M 1403 2484 
Q 997 2584 770 2862 
Q 544 3141 544 3541 
Q 544 4100 942 4425 
Q 1341 4750 2034 4750 
Q 2731 4750 3128 4425 
Q 3525 4100 3525 3541 
Q 3525 3141 3298 2862 
Q 3072 2584 2669 2484 
Q 3125 2378 3379 2068 
Q 3634 1759 3634 1313 
Q 3634 634 3220 271 
Q 2806 -91 2034 -91 
Q 1263 -91 848 271 
Q 434 634 434 1313 
Q 434 1759 690 2068 
Q 947 2378 1403 2484 
z
M 1172 3481 
Q 1172 3119 1398 2916 
Q 1625 2713 2034 2713 
Q 2441 2713 2670 2916 
Q 2900 3119 2900 3481 
Q 2900 3844 2670 4047 
Q 2441 4250 2034 4250 
Q 1625 4250 1398 4047 
Q 1172 3844 1172 3481 
z
" transform="scale(0.015625)"/>
       </defs>
       <use xlink:href="#DejaVuSans-38"/>
       <use xlink:href="#DejaVuSans-30" transform="translate(63.623047 0)"/>
      </g>
     </g>
    </g>
    <g id="ytick_6">
     <g id="line2d_47">
      <path d="M 73.37 317.111679 
L 458.251291 317.111679 
" clip-path="url(#pc2ce939b55)" style="fill: none; stroke: #b0b0b0; stroke-width: 0.8; stroke-linecap: square"/>
     </g>
     <g id="line2d_48">
      <g>
       <use xlink:href="#m4f303590bf" x="73.37" y="317.111679" style="stroke: #000000; stroke-width: 0.8"/>
      </g>
     </g>
     <g id="text_19">
      <!-- 90 -->
      <g transform="translate(46.01 323.190429) scale(0.16 -0.16)">
       <defs>
        <path id="DejaVuSans-39" d="M 703 97 
L 703 672 
Q 941 559 1184 500 
Q 1428 441 1663 441 
Q 2288 441 2617 861 
Q 2947 1281 2994 2138 
Q 2813 1869 2534 1725 
Q 2256 1581 1919 1581 
Q 1219 1581 811 2004 
Q 403 2428 403 3163 
Q 403 3881 828 4315 
Q 1253 4750 1959 4750 
Q 2769 4750 3195 4129 
Q 3622 3509 3622 2328 
Q 3622 1225 3098 567 
Q 2575 -91 1691 -91 
Q 1453 -91 1209 -44 
Q 966 3 703 97 
z
M 1959 2075 
Q 2384 2075 2632 2365 
Q 2881 2656 2881 3163 
Q 2881 3666 2632 3958 
Q 2384 4250 1959 4250 
Q 1534 4250 1286 3958 
Q 1038 3666 1038 3163 
Q 1038 2656 1286 2365 
Q 1534 2075 1959 2075 
z
" transform="scale(0.015625)"/>
       </defs>
       <use xlink:href="#DejaVuSans-39"/>
       <use xlink:href="#DejaVuSans-30" transform="translate(63.623047 0)"/>
      </g>
     </g>
    </g>
    <g id="ytick_7">
     <g id="line2d_49">
      <path d="M 73.37 265.106228 
L 458.251291 265.106228 
" clip-path="url(#pc2ce939b55)" style="fill: none; stroke: #b0b0b0; stroke-width: 0.8; stroke-linecap: square"/>
     </g>
     <g id="line2d_50">
      <g>
       <use xlink:href="#m4f303590bf" x="73.37" y="265.106228" style="stroke: #000000; stroke-width: 0.8"/>
      </g>
     </g>
     <g id="text_20">
      <!-- 100 -->
      <g transform="translate(35.83 271.184978) scale(0.16 -0.16)">
       <use xlink:href="#DejaVuSans-31"/>
       <use xlink:href="#DejaVuSans-30" transform="translate(63.623047 0)"/>
       <use xlink:href="#DejaVuSans-30" transform="translate(127.246094 0)"/>
      </g>
     </g>
    </g>
    <g id="text_21">
     <!-- KPIs / % -->
     <g transform="translate(28.5025 376.68375) rotate(-90) scale(0.16 -0.16)">
      <defs>
       <path id="DejaVuSans-4b" d="M 628 4666 
L 1259 4666 
L 1259 2694 
L 3353 4666 
L 4166 4666 
L 1850 2491 
L 4331 0 
L 3500 0 
L 1259 2247 
L 1259 0 
L 628 0 
L 628 4666 
z
" transform="scale(0.015625)"/>
       <path id="DejaVuSans-50" d="M 1259 4147 
L 1259 2394 
L 2053 2394 
Q 2494 2394 2734 2622 
Q 2975 2850 2975 3272 
Q 2975 3691 2734 3919 
Q 2494 4147 2053 4147 
L 1259 4147 
z
M 628 4666 
L 2053 4666 
Q 2838 4666 3239 4311 
Q 3641 3956 3641 3272 
Q 3641 2581 3239 2228 
Q 2838 1875 2053 1875 
L 1259 1875 
L 1259 0 
L 628 0 
L 628 4666 
z
" transform="scale(0.015625)"/>
       <path id="DejaVuSans-49" d="M 628 4666 
L 1259 4666 
L 1259 0 
L 628 0 
L 628 4666 
z
" transform="scale(0.015625)"/>
       <path id="DejaVuSans-25" d="M 4653 2053 
Q 4381 2053 4226 1822 
Q 4072 1591 4072 1178 
Q 4072 772 4226 539 
Q 4381 306 4653 306 
Q 4919 306 5073 539 
Q 5228 772 5228 1178 
Q 5228 1588 5073 1820 
Q 4919 2053 4653 2053 
z
M 4653 2450 
Q 5147 2450 5437 2106 
Q 5728 1763 5728 1178 
Q 5728 594 5436 251 
Q 5144 -91 4653 -91 
Q 4153 -91 3862 251 
Q 3572 594 3572 1178 
Q 3572 1766 3864 2108 
Q 4156 2450 4653 2450 
z
M 1428 4353 
Q 1159 4353 1004 4120 
Q 850 3888 850 3481 
Q 850 3069 1003 2837 
Q 1156 2606 1428 2606 
Q 1700 2606 1854 2837 
Q 2009 3069 2009 3481 
Q 2009 3884 1853 4118 
Q 1697 4353 1428 4353 
z
M 4250 4750 
L 4750 4750 
L 1831 -91 
L 1331 -91 
L 4250 4750 
z
M 1428 4750 
Q 1922 4750 2215 4408 
Q 2509 4066 2509 3481 
Q 2509 2891 2217 2550 
Q 1925 2209 1428 2209 
Q 931 2209 642 2551 
Q 353 2894 353 3481 
Q 353 4063 643 4406 
Q 934 4750 1428 4750 
z
" transform="scale(0.015625)"/>
      </defs>
      <use xlink:href="#DejaVuSans-4b"/>
      <use xlink:href="#DejaVuSans-50" transform="translate(65.576172 0)"/>
      <use xlink:href="#DejaVuSans-49" transform="translate(125.878906 0)"/>
      <use xlink:href="#DejaVuSans-73" transform="translate(155.371094 0)"/>
      <use xlink:href="#DejaVuSans-20" transform="translate(207.470703 0)"/>
      <use xlink:href="#DejaVuSans-2f" transform="translate(239.257812 0)"/>
      <use xlink:href="#DejaVuSans-20" transform="translate(272.949219 0)"/>
      <use xlink:href="#DejaVuSans-25" transform="translate(304.736328 0)"/>
     </g>
    </g>
   </g>
   <g id="line2d_51">
    <path d="M 90.864604 436.578479 
L 93.212873 437.627727 
L 95.561142 437.275715 
L 97.909411 436.061014 
L 100.25768 434.704276 
L 102.605949 433.487792 
L 104.954218 432.462468 
L 107.302487 431.5961 
L 109.650756 430.853694 
L 114.347294 429.739123 
L 121.392101 428.341843 
L 128.436908 427.12753 
L 135.481715 426.13 
L 140.178253 425.549553 
L 144.874791 425.149167 
L 151.919598 424.842412 
L 158.964406 424.77927 
L 168.357482 424.971386 
L 177.750558 425.412326 
L 201.233248 426.744453 
L 210.626324 426.934455 
L 220.0194 426.842962 
L 231.760745 426.472752 
L 252.895166 425.719109 
L 262.288242 425.595532 
L 274.029587 425.688766 
L 295.164008 426.203559 
L 309.253622 426.419602 
L 323.343236 426.372694 
L 370.308617 425.854431 
L 396.139576 426.112068 
L 417.273997 426.202372 
L 440.756687 426.048118 
L 440.756687 426.048118 
" clip-path="url(#pc2ce939b55)" style="fill: none; stroke: #1f77b4; stroke-width: 1.5; stroke-linecap: square"/>
   </g>
   <g id="line2d_52">
    <path d="M 90.864604 425.193108 
L 440.756687 425.193108 
L 440.756687 425.193108 
" clip-path="url(#pc2ce939b55)" style="fill: none; stroke-dasharray: 5.55,2.4; stroke-dashoffset: 0; stroke: #1f77b4; stroke-width: 1.5"/>
   </g>
   <g id="line2d_53">
    <path d="M 90.864604 332.949106 
L 93.212873 327.008189 
L 95.561142 329.26986 
L 100.25768 338.458611 
L 102.605949 342.373922 
L 104.954218 345.484036 
L 107.302487 347.890365 
L 109.650756 349.67599 
L 111.999025 351.109658 
L 116.695563 353.555097 
L 123.74037 356.869785 
L 128.436908 358.911175 
L 135.481715 361.65959 
L 137.829984 362.445677 
L 140.178253 363.099623 
L 142.526522 363.617286 
L 147.22306 364.310627 
L 151.919598 364.646223 
L 156.616137 364.730597 
L 163.660944 364.568438 
L 170.705751 364.190013 
L 180.098827 363.458929 
L 198.884979 361.845995 
L 205.929786 361.486084 
L 212.974593 361.362733 
L 220.0194 361.466623 
L 229.412476 361.875884 
L 255.243435 363.178379 
L 264.636511 363.312968 
L 274.029587 363.1931 
L 288.119201 362.711081 
L 304.557084 362.176477 
L 313.95016 362.068757 
L 325.691505 362.175294 
L 367.960348 362.895961 
L 384.398231 362.704571 
L 410.22919 362.357493 
L 426.667073 362.397179 
L 440.756687 362.549057 
L 440.756687 362.549057 
" clip-path="url(#pc2ce939b55)" style="fill: none; stroke: #ff7f0e; stroke-width: 1.5; stroke-linecap: square"/>
   </g>
   <g id="line2d_54">
    <path d="M 90.864604 362.592308 
L 440.756687 362.592308 
L 440.756687 362.592308 
" clip-path="url(#pc2ce939b55)" style="fill: none; stroke-dasharray: 5.55,2.4; stroke-dashoffset: 0; stroke: #ff7f0e; stroke-width: 1.5"/>
   </g>
   <g id="line2d_55">
    <path d="M 90.864604 314.737613 
L 93.212873 289.826334 
L 95.561142 276.532109 
L 97.909411 271.614638 
L 100.25768 269.748387 
L 107.302487 266.84721 
L 109.650756 266.096576 
L 111.999025 264.741328 
L 121.392101 258.575711 
L 126.088639 255.886015 
L 128.436908 254.708973 
L 130.785177 253.678662 
L 133.133446 252.805315 
L 135.481715 252.07738 
L 137.829984 251.80586 
L 140.178253 251.782273 
L 142.526522 251.918912 
L 149.571329 252.786443 
L 156.616137 253.903505 
L 163.660944 255.277989 
L 170.705751 256.903553 
L 184.795365 260.280132 
L 189.491903 261.089736 
L 194.188441 261.612061 
L 198.884979 261.819989 
L 203.581517 261.720929 
L 208.278055 261.34521 
L 212.974593 260.745527 
L 238.805552 256.881977 
L 243.50209 256.469971 
L 248.198628 256.245642 
L 252.895166 256.21436 
L 257.591704 256.365001 
L 264.636511 256.872092 
L 274.029587 257.859877 
L 285.770932 259.078355 
L 292.815739 259.569417 
L 299.860546 259.783522 
L 306.905353 259.711037 
L 313.95016 259.395617 
L 325.691505 258.567996 
L 337.43285 257.783278 
L 344.477658 257.491782 
L 351.522465 257.389408 
L 358.567272 257.47537 
L 367.960348 257.814557 
L 391.443038 258.847991 
L 400.836114 258.990393 
L 410.22919 258.909846 
L 424.318804 258.508255 
L 440.756687 258.029865 
L 440.756687 258.029865 
" clip-path="url(#pc2ce939b55)" style="fill: none; stroke: #2ca02c; stroke-width: 1.5; stroke-linecap: square"/>
   </g>
   <g id="line2d_56">
    <path d="M 90.864604 258.280232 
L 440.756687 258.280232 
L 440.756687 258.280232 
" clip-path="url(#pc2ce939b55)" style="fill: none; stroke-dasharray: 5.55,2.4; stroke-dashoffset: 0; stroke: #2ca02c; stroke-width: 1.5"/>
   </g>
   <g id="patch_8">
    <path d="M 73.37 446.92 
L 73.37 242.49 
" style="fill: none; stroke: #000000; stroke-width: 0.8; stroke-linejoin: miter; stroke-linecap: square"/>
   </g>
   <g id="patch_9">
    <path d="M 458.251291 446.92 
L 458.251291 242.49 
" style="fill: none; stroke: #000000; stroke-width: 0.8; stroke-linejoin: miter; stroke-linecap: square"/>
   </g>
   <g id="patch_10">
    <path d="M 73.37 446.92 
L 458.251291 446.92 
" style="fill: none; stroke: #000000; stroke-width: 0.8; stroke-linejoin: miter; stroke-linecap: square"/>
   </g>
   <g id="patch_11">
    <path d="M 73.37 242.49 
L 458.251291 242.49 
" style="fill: none; stroke: #000000; stroke-width: 0.8; stroke-linejoin: miter; stroke-linecap: square"/>
   </g>
   <g id="legend_2">
    <g id="line2d_57">
     <path d="M 472.651291 284.4525 
L 488.651291 284.4525 
L 504.651291 284.4525 
" style="fill: none; stroke: #1f77b4; stroke-width: 1.5; stroke-linecap: square"/>
    </g>
    <g id="text_22">
     <!-- Pureza do H$_2$ -->
     <g transform="translate(517.451291 290.0525) scale(0.16 -0.16)">
      <defs>
       <path id="DejaVuSans-7a" d="M 353 3500 
L 3084 3500 
L 3084 2975 
L 922 459 
L 3084 459 
L 3084 0 
L 275 0 
L 275 525 
L 2438 3041 
L 353 3041 
L 353 3500 
z
" transform="scale(0.015625)"/>
       <path id="DejaVuSans-48" d="M 628 4666 
L 1259 4666 
L 1259 2753 
L 3553 2753 
L 3553 4666 
L 4184 4666 
L 4184 0 
L 3553 0 
L 3553 2222 
L 1259 2222 
L 1259 0 
L 628 0 
L 628 4666 
z
" transform="scale(0.015625)"/>
      </defs>
      <use xlink:href="#DejaVuSans-50" transform="translate(0 0.015625)"/>
      <use xlink:href="#DejaVuSans-75" transform="translate(60.302734 0.015625)"/>
      <use xlink:href="#DejaVuSans-72" transform="translate(123.681641 0.015625)"/>
      <use xlink:href="#DejaVuSans-65" transform="translate(164.794922 0.015625)"/>
      <use xlink:href="#DejaVuSans-7a" transform="translate(226.318359 0.015625)"/>
      <use xlink:href="#DejaVuSans-61" transform="translate(278.808594 0.015625)"/>
      <use xlink:href="#DejaVuSans-20" transform="translate(340.087891 0.015625)"/>
      <use xlink:href="#DejaVuSans-64" transform="translate(371.875 0.015625)"/>
      <use xlink:href="#DejaVuSans-6f" transform="translate(435.351562 0.015625)"/>
      <use xlink:href="#DejaVuSans-20" transform="translate(496.533203 0.015625)"/>
      <use xlink:href="#DejaVuSans-48" transform="translate(528.320312 0.015625)"/>
      <use xlink:href="#DejaVuSans-32" transform="translate(604.472656 -16.390625) scale(0.7)"/>
     </g>
    </g>
    <g id="line2d_58">
     <path d="M 472.651291 307.9375 
L 488.651291 307.9375 
L 504.651291 307.9375 
" style="fill: none; stroke-dasharray: 5.55,2.4; stroke-dashoffset: 0; stroke: #1f77b4; stroke-width: 1.5"/>
    </g>
    <g id="text_23">
     <!-- Pureza do H$_2$ (SP) -->
     <g transform="translate(517.451291 313.5375) scale(0.16 -0.16)">
      <defs>
       <path id="DejaVuSans-28" d="M 1984 4856 
Q 1566 4138 1362 3434 
Q 1159 2731 1159 2009 
Q 1159 1288 1364 580 
Q 1569 -128 1984 -844 
L 1484 -844 
Q 1016 -109 783 600 
Q 550 1309 550 2009 
Q 550 2706 781 3412 
Q 1013 4119 1484 4856 
L 1984 4856 
z
" transform="scale(0.015625)"/>
       <path id="DejaVuSans-53" d="M 3425 4513 
L 3425 3897 
Q 3066 4069 2747 4153 
Q 2428 4238 2131 4238 
Q 1616 4238 1336 4038 
Q 1056 3838 1056 3469 
Q 1056 3159 1242 3001 
Q 1428 2844 1947 2747 
L 2328 2669 
Q 3034 2534 3370 2195 
Q 3706 1856 3706 1288 
Q 3706 609 3251 259 
Q 2797 -91 1919 -91 
Q 1588 -91 1214 -16 
Q 841 59 441 206 
L 441 856 
Q 825 641 1194 531 
Q 1563 422 1919 422 
Q 2459 422 2753 634 
Q 3047 847 3047 1241 
Q 3047 1584 2836 1778 
Q 2625 1972 2144 2069 
L 1759 2144 
Q 1053 2284 737 2584 
Q 422 2884 422 3419 
Q 422 4038 858 4394 
Q 1294 4750 2059 4750 
Q 2388 4750 2728 4690 
Q 3069 4631 3425 4513 
z
" transform="scale(0.015625)"/>
       <path id="DejaVuSans-29" d="M 513 4856 
L 1013 4856 
Q 1481 4119 1714 3412 
Q 1947 2706 1947 2009 
Q 1947 1309 1714 600 
Q 1481 -109 1013 -844 
L 513 -844 
Q 928 -128 1133 580 
Q 1338 1288 1338 2009 
Q 1338 2731 1133 3434 
Q 928 4138 513 4856 
z
" transform="scale(0.015625)"/>
      </defs>
      <use xlink:href="#DejaVuSans-50" transform="translate(0 0.015625)"/>
      <use xlink:href="#DejaVuSans-75" transform="translate(60.302734 0.015625)"/>
      <use xlink:href="#DejaVuSans-72" transform="translate(123.681641 0.015625)"/>
      <use xlink:href="#DejaVuSans-65" transform="translate(164.794922 0.015625)"/>
      <use xlink:href="#DejaVuSans-7a" transform="translate(226.318359 0.015625)"/>
      <use xlink:href="#DejaVuSans-61" transform="translate(278.808594 0.015625)"/>
      <use xlink:href="#DejaVuSans-20" transform="translate(340.087891 0.015625)"/>
      <use xlink:href="#DejaVuSans-64" transform="translate(371.875 0.015625)"/>
      <use xlink:href="#DejaVuSans-6f" transform="translate(435.351562 0.015625)"/>
      <use xlink:href="#DejaVuSans-20" transform="translate(496.533203 0.015625)"/>
      <use xlink:href="#DejaVuSans-48" transform="translate(528.320312 0.015625)"/>
      <use xlink:href="#DejaVuSans-32" transform="translate(604.472656 -16.390625) scale(0.7)"/>
      <use xlink:href="#DejaVuSans-20" transform="translate(651.743164 0.015625)"/>
      <use xlink:href="#DejaVuSans-28" transform="translate(683.530273 0.015625)"/>
      <use xlink:href="#DejaVuSans-53" transform="translate(722.543945 0.015625)"/>
      <use xlink:href="#DejaVuSans-50" transform="translate(786.020508 0.015625)"/>
      <use xlink:href="#DejaVuSans-29" transform="translate(846.323242 0.015625)"/>
     </g>
    </g>
    <g id="line2d_59">
     <path d="M 472.651291 331.4225 
L 488.651291 331.4225 
L 504.651291 331.4225 
" style="fill: none; stroke: #ff7f0e; stroke-width: 1.5; stroke-linecap: square"/>
    </g>
    <g id="text_24">
     <!-- Pureza do CO$_2$ -->
     <g transform="translate(517.451291 337.0225) scale(0.16 -0.16)">
      <defs>
       <path id="DejaVuSans-4f" d="M 2522 4238 
Q 1834 4238 1429 3725 
Q 1025 3213 1025 2328 
Q 1025 1447 1429 934 
Q 1834 422 2522 422 
Q 3209 422 3611 934 
Q 4013 1447 4013 2328 
Q 4013 3213 3611 3725 
Q 3209 4238 2522 4238 
z
M 2522 4750 
Q 3503 4750 4090 4092 
Q 4678 3434 4678 2328 
Q 4678 1225 4090 567 
Q 3503 -91 2522 -91 
Q 1538 -91 948 565 
Q 359 1222 359 2328 
Q 359 3434 948 4092 
Q 1538 4750 2522 4750 
z
" transform="scale(0.015625)"/>
      </defs>
      <use xlink:href="#DejaVuSans-50" transform="translate(0 0.015625)"/>
      <use xlink:href="#DejaVuSans-75" transform="translate(60.302734 0.015625)"/>
      <use xlink:href="#DejaVuSans-72" transform="translate(123.681641 0.015625)"/>
      <use xlink:href="#DejaVuSans-65" transform="translate(164.794922 0.015625)"/>
      <use xlink:href="#DejaVuSans-7a" transform="translate(226.318359 0.015625)"/>
      <use xlink:href="#DejaVuSans-61" transform="translate(278.808594 0.015625)"/>
      <use xlink:href="#DejaVuSans-20" transform="translate(340.087891 0.015625)"/>
      <use xlink:href="#DejaVuSans-64" transform="translate(371.875 0.015625)"/>
      <use xlink:href="#DejaVuSans-6f" transform="translate(435.351562 0.015625)"/>
      <use xlink:href="#DejaVuSans-20" transform="translate(496.533203 0.015625)"/>
      <use xlink:href="#DejaVuSans-43" transform="translate(528.320312 0.015625)"/>
      <use xlink:href="#DejaVuSans-4f" transform="translate(598.144531 0.015625)"/>
      <use xlink:href="#DejaVuSans-32" transform="translate(677.8125 -16.390625) scale(0.7)"/>
     </g>
    </g>
    <g id="line2d_60">
     <path d="M 472.651291 354.9075 
L 488.651291 354.9075 
L 504.651291 354.9075 
" style="fill: none; stroke-dasharray: 5.55,2.4; stroke-dashoffset: 0; stroke: #ff7f0e; stroke-width: 1.5"/>
    </g>
    <g id="text_25">
     <!-- Pureza do CO$_2$ (SP) -->
     <g transform="translate(517.451291 360.5075) scale(0.16 -0.16)">
      <use xlink:href="#DejaVuSans-50" transform="translate(0 0.015625)"/>
      <use xlink:href="#DejaVuSans-75" transform="translate(60.302734 0.015625)"/>
      <use xlink:href="#DejaVuSans-72" transform="translate(123.681641 0.015625)"/>
      <use xlink:href="#DejaVuSans-65" transform="translate(164.794922 0.015625)"/>
      <use xlink:href="#DejaVuSans-7a" transform="translate(226.318359 0.015625)"/>
      <use xlink:href="#DejaVuSans-61" transform="translate(278.808594 0.015625)"/>
      <use xlink:href="#DejaVuSans-20" transform="translate(340.087891 0.015625)"/>
      <use xlink:href="#DejaVuSans-64" transform="translate(371.875 0.015625)"/>
      <use xlink:href="#DejaVuSans-6f" transform="translate(435.351562 0.015625)"/>
      <use xlink:href="#DejaVuSans-20" transform="translate(496.533203 0.015625)"/>
      <use xlink:href="#DejaVuSans-43" transform="translate(528.320312 0.015625)"/>
      <use xlink:href="#DejaVuSans-4f" transform="translate(598.144531 0.015625)"/>
      <use xlink:href="#DejaVuSans-32" transform="translate(677.8125 -16.390625) scale(0.7)"/>
      <use xlink:href="#DejaVuSans-20" transform="translate(725.083008 0.015625)"/>
      <use xlink:href="#DejaVuSans-28" transform="translate(756.870117 0.015625)"/>
      <use xlink:href="#DejaVuSans-53" transform="translate(795.883789 0.015625)"/>
      <use xlink:href="#DejaVuSans-50" transform="translate(859.360352 0.015625)"/>
      <use xlink:href="#DejaVuSans-29" transform="translate(919.663086 0.015625)"/>
     </g>
    </g>
    <g id="line2d_61">
     <path d="M 472.651291 378.715 
L 488.651291 378.715 
L 504.651291 378.715 
" style="fill: none; stroke: #2ca02c; stroke-width: 1.5; stroke-linecap: square"/>
    </g>
    <g id="text_26">
     <!-- Recuperação CO$_2$ -->
     <g transform="translate(517.451291 384.315) scale(0.16 -0.16)">
      <defs>
       <path id="DejaVuSans-52" d="M 2841 2188 
Q 3044 2119 3236 1894 
Q 3428 1669 3622 1275 
L 4263 0 
L 3584 0 
L 2988 1197 
Q 2756 1666 2539 1819 
Q 2322 1972 1947 1972 
L 1259 1972 
L 1259 0 
L 628 0 
L 628 4666 
L 2053 4666 
Q 2853 4666 3247 4331 
Q 3641 3997 3641 3322 
Q 3641 2881 3436 2590 
Q 3231 2300 2841 2188 
z
M 1259 4147 
L 1259 2491 
L 2053 2491 
Q 2509 2491 2742 2702 
Q 2975 2913 2975 3322 
Q 2975 3731 2742 3939 
Q 2509 4147 2053 4147 
L 1259 4147 
z
" transform="scale(0.015625)"/>
      </defs>
      <use xlink:href="#DejaVuSans-52" transform="translate(0 0.3125)"/>
      <use xlink:href="#DejaVuSans-65" transform="translate(69.482422 0.3125)"/>
      <use xlink:href="#DejaVuSans-63" transform="translate(131.005859 0.3125)"/>
      <use xlink:href="#DejaVuSans-75" transform="translate(185.986328 0.3125)"/>
      <use xlink:href="#DejaVuSans-70" transform="translate(249.365234 0.3125)"/>
      <use xlink:href="#DejaVuSans-65" transform="translate(312.841797 0.3125)"/>
      <use xlink:href="#DejaVuSans-72" transform="translate(374.365234 0.3125)"/>
      <use xlink:href="#DejaVuSans-61" transform="translate(415.478516 0.3125)"/>
      <use xlink:href="#DejaVuSans-e7" transform="translate(476.757812 0.3125)"/>
      <use xlink:href="#DejaVuSans-e3" transform="translate(531.738281 0.3125)"/>
      <use xlink:href="#DejaVuSans-6f" transform="translate(593.017578 0.3125)"/>
      <use xlink:href="#DejaVuSans-20" transform="translate(654.199219 0.3125)"/>
      <use xlink:href="#DejaVuSans-43" transform="translate(685.986328 0.3125)"/>
      <use xlink:href="#DejaVuSans-4f" transform="translate(755.810547 0.3125)"/>
      <use xlink:href="#DejaVuSans-32" transform="translate(835.478516 -16.09375) scale(0.7)"/>
     </g>
    </g>
    <g id="line2d_62">
     <path d="M 472.651291 402.555 
L 488.651291 402.555 
L 504.651291 402.555 
" style="fill: none; stroke-dasharray: 5.55,2.4; stroke-dashoffset: 0; stroke: #2ca02c; stroke-width: 1.5"/>
    </g>
    <g id="text_27">
     <!-- Recuperação CO$_2$ (SP) -->
     <g transform="translate(517.451291 408.155) scale(0.16 -0.16)">
      <use xlink:href="#DejaVuSans-52" transform="translate(0 0.3125)"/>
      <use xlink:href="#DejaVuSans-65" transform="translate(69.482422 0.3125)"/>
      <use xlink:href="#DejaVuSans-63" transform="translate(131.005859 0.3125)"/>
      <use xlink:href="#DejaVuSans-75" transform="translate(185.986328 0.3125)"/>
      <use xlink:href="#DejaVuSans-70" transform="translate(249.365234 0.3125)"/>
      <use xlink:href="#DejaVuSans-65" transform="translate(312.841797 0.3125)"/>
      <use xlink:href="#DejaVuSans-72" transform="translate(374.365234 0.3125)"/>
      <use xlink:href="#DejaVuSans-61" transform="translate(415.478516 0.3125)"/>
      <use xlink:href="#DejaVuSans-e7" transform="translate(476.757812 0.3125)"/>
      <use xlink:href="#DejaVuSans-e3" transform="translate(531.738281 0.3125)"/>
      <use xlink:href="#DejaVuSans-6f" transform="translate(593.017578 0.3125)"/>
      <use xlink:href="#DejaVuSans-20" transform="translate(654.199219 0.3125)"/>
      <use xlink:href="#DejaVuSans-43" transform="translate(685.986328 0.3125)"/>
      <use xlink:href="#DejaVuSans-4f" transform="translate(755.810547 0.3125)"/>
      <use xlink:href="#DejaVuSans-32" transform="translate(835.478516 -16.09375) scale(0.7)"/>
      <use xlink:href="#DejaVuSans-20" transform="translate(882.749023 0.3125)"/>
      <use xlink:href="#DejaVuSans-28" transform="translate(914.536133 0.3125)"/>
      <use xlink:href="#DejaVuSans-53" transform="translate(953.549805 0.3125)"/>
      <use xlink:href="#DejaVuSans-50" transform="translate(1017.026367 0.3125)"/>
      <use xlink:href="#DejaVuSans-29" transform="translate(1077.329102 0.3125)"/>
     </g>
    </g>
   </g>
  </g>
 </g>
 <defs>
  <clipPath id="p0e0a48ed7b">
   <rect x="73.37" y="17.28" width="384.881291" height="204.43"/>
  </clipPath>
  <clipPath id="pc2ce939b55">
   <rect x="73.37" y="242.49" width="384.881291" height="204.43"/>
  </clipPath>
 </defs>
</svg>
