<?xml version="1.0" encoding="utf-8" standalone="no"?>
<!DOCTYPE svg PUBLIC "-//W3C//DTD SVG 1.1//EN"
  "http://www.w3.org/Graphics/SVG/1.1/DTD/svg11.dtd">
<svg xmlns:xlink="http://www.w3.org/1999/xlink" width="720pt" height="576pt" viewBox="0 0 720 576" xmlns="http://www.w3.org/2000/svg" version="1.1">
 <metadata>
  <rdf:RDF xmlns:dc="http://purl.org/dc/elements/1.1/" xmlns:cc="http://creativecommons.org/ns#" xmlns:rdf="http://www.w3.org/1999/02/22-rdf-syntax-ns#">
   <cc:Work>
    <dc:type rdf:resource="http://purl.org/dc/dcmitype/StillImage"/>
    <dc:date>2025-12-04T23:58:39.032313</dc:date>
    <dc:format>image/svg+xml</dc:format>
    <dc:creator>
     <cc:Agent>
      <dc:title>Matplotlib v3.10.7, https://matplotlib.org/</dc:title>
     </cc:Agent>
    </dc:creator>
   </cc:Work>
  </rdf:RDF>
 </metadata>
 <defs>
  <style type="text/css">*{stroke-linejoin: round; stroke-linecap: butt}</style>
 </defs>
 <g id="figure_1">
  <g id="patch_1">
   <path d="M 0 576 
L 720 576 
L 720 0 
L 0 0 
z
" style="fill: #ffffff"/>
  </g>
  <g id="axes_1">
   <g id="patch_2">
    <path d="M 73.37 257.71 
L 458.251291 257.71 
L 458.251291 17.28 
L 73.37 17.28 
z
" style="fill: #ffffff"/>
   </g>
   <g id="matplotlib.axis_1">
    <g id="xtick_1">
     <g id="line2d_1">
      <path d="M 90.864604 257.71 
L 90.864604 17.28 
" clip-path="url(#p4aadb6bb50)" style="fill: none; stroke: #b0b0b0; stroke-width: 0.8; stroke-linecap: square"/>
     </g>
     <g id="line2d_2">
      <defs>
       <path id="m1b3650419e" d="M 0 0 
L 0 3.5 
" style="stroke: #000000; stroke-width: 0.8"/>
      </defs>
      <g>
       <use xlink:href="#m1b3650419e" x="90.864604" y="257.71" style="stroke: #000000; stroke-width: 0.8"/>
      </g>
     </g>
    </g>
    <g id="xtick_2">
     <g id="line2d_3">
      <path d="M 161.549873 257.71 
L 161.549873 17.28 
" clip-path="url(#p4aadb6bb50)" style="fill: none; stroke: #b0b0b0; stroke-width: 0.8; stroke-linecap: square"/>
     </g>
     <g id="line2d_4">
      <g>
       <use xlink:href="#m1b3650419e" x="161.549873" y="257.71" style="stroke: #000000; stroke-width: 0.8"/>
      </g>
     </g>
    </g>
    <g id="xtick_3">
     <g id="line2d_5">
      <path d="M 232.235143 257.71 
L 232.235143 17.28 
" clip-path="url(#p4aadb6bb50)" style="fill: none; stroke: #b0b0b0; stroke-width: 0.8; stroke-linecap: square"/>
     </g>
     <g id="line2d_6">
      <g>
       <use xlink:href="#m1b3650419e" x="232.235143" y="257.71" style="stroke: #000000; stroke-width: 0.8"/>
      </g>
     </g>
    </g>
    <g id="xtick_4">
     <g id="line2d_7">
      <path d="M 302.920412 257.71 
L 302.920412 17.28 
" clip-path="url(#p4aadb6bb50)" style="fill: none; stroke: #b0b0b0; stroke-width: 0.8; stroke-linecap: square"/>
     </g>
     <g id="line2d_8">
      <g>
       <use xlink:href="#m1b3650419e" x="302.920412" y="257.71" style="stroke: #000000; stroke-width: 0.8"/>
      </g>
     </g>
    </g>
    <g id="xtick_5">
     <g id="line2d_9">
      <path d="M 373.605681 257.71 
L 373.605681 17.28 
" clip-path="url(#p4aadb6bb50)" style="fill: none; stroke: #b0b0b0; stroke-width: 0.8; stroke-linecap: square"/>
     </g>
     <g id="line2d_10">
      <g>
       <use xlink:href="#m1b3650419e" x="373.605681" y="257.71" style="stroke: #000000; stroke-width: 0.8"/>
      </g>
     </g>
    </g>
    <g id="xtick_6">
     <g id="line2d_11">
      <path d="M 444.290951 257.71 
L 444.290951 17.28 
" clip-path="url(#p4aadb6bb50)" style="fill: none; stroke: #b0b0b0; stroke-width: 0.8; stroke-linecap: square"/>
     </g>
     <g id="line2d_12">
      <g>
       <use xlink:href="#m1b3650419e" x="444.290951" y="257.71" style="stroke: #000000; stroke-width: 0.8"/>
      </g>
     </g>
    </g>
   </g>
   <g id="matplotlib.axis_2">
    <g id="ytick_1">
     <g id="line2d_13">
      <path d="M 73.37 239.502756 
L 458.251291 239.502756 
" clip-path="url(#p4aadb6bb50)" style="fill: none; stroke: #b0b0b0; stroke-width: 0.8; stroke-linecap: square"/>
     </g>
     <g id="line2d_14">
      <defs>
       <path id="m123b055c14" d="M 0 0 
L -3.5 0 
" style="stroke: #000000; stroke-width: 0.8"/>
      </defs>
      <g>
       <use xlink:href="#m123b055c14" x="73.37" y="239.502756" style="stroke: #000000; stroke-width: 0.8"/>
      </g>
     </g>
     <g id="text_1">
      <!-- 100 -->
      <g transform="translate(35.83 245.581506) scale(0.16 -0.16)">
       <defs>
        <path id="DejaVuSans-31" d="M 794 531 
L 1825 531 
L 1825 4091 
L 703 3866 
L 703 4441 
L 1819 4666 
L 2450 4666 
L 2450 531 
L 3481 531 
L 3481 0 
L 794 0 
L 794 531 
z
" transform="scale(0.015625)"/>
        <path id="DejaVuSans-30" d="M 2034 4250 
Q 1547 4250 1301 3770 
Q 1056 3291 1056 2328 
Q 1056 1369 1301 889 
Q 1547 409 2034 409 
Q 2525 409 2770 889 
Q 3016 1369 3016 2328 
Q 3016 3291 2770 3770 
Q 2525 4250 2034 4250 
z
M 2034 4750 
Q 2819 4750 3233 4129 
Q 3647 3509 3647 2328 
Q 3647 1150 3233 529 
Q 2819 -91 2034 -91 
Q 1250 -91 836 529 
Q 422 1150 422 2328 
Q 422 3509 836 4129 
Q 1250 4750 2034 4750 
z
" transform="scale(0.015625)"/>
       </defs>
       <use xlink:href="#DejaVuSans-31"/>
       <use xlink:href="#DejaVuSans-30" transform="translate(63.623047 0)"/>
       <use xlink:href="#DejaVuSans-30" transform="translate(127.246094 0)"/>
      </g>
     </g>
    </g>
    <g id="ytick_2">
     <g id="line2d_15">
      <path d="M 73.37 203.10972 
L 458.251291 203.10972 
" clip-path="url(#p4aadb6bb50)" style="fill: none; stroke: #b0b0b0; stroke-width: 0.8; stroke-linecap: square"/>
     </g>
     <g id="line2d_16">
      <g>
       <use xlink:href="#m123b055c14" x="73.37" y="203.10972" style="stroke: #000000; stroke-width: 0.8"/>
      </g>
     </g>
     <g id="text_2">
      <!-- 200 -->
      <g transform="translate(35.83 209.18847) scale(0.16 -0.16)">
       <defs>
        <path id="DejaVuSans-32" d="M 1228 531 
L 3431 531 
L 3431 0 
L 469 0 
L 469 531 
Q 828 903 1448 1529 
Q 2069 2156 2228 2338 
Q 2531 2678 2651 2914 
Q 2772 3150 2772 3378 
Q 2772 3750 2511 3984 
Q 2250 4219 1831 4219 
Q 1534 4219 1204 4116 
Q 875 4013 500 3803 
L 500 4441 
Q 881 4594 1212 4672 
Q 1544 4750 1819 4750 
Q 2544 4750 2975 4387 
Q 3406 4025 3406 3419 
Q 3406 3131 3298 2873 
Q 3191 2616 2906 2266 
Q 2828 2175 2409 1742 
Q 1991 1309 1228 531 
z
" transform="scale(0.015625)"/>
       </defs>
       <use xlink:href="#DejaVuSans-32"/>
       <use xlink:href="#DejaVuSans-30" transform="translate(63.623047 0)"/>
       <use xlink:href="#DejaVuSans-30" transform="translate(127.246094 0)"/>
      </g>
     </g>
    </g>
    <g id="ytick_3">
     <g id="line2d_17">
      <path d="M 73.37 166.716684 
L 458.251291 166.716684 
" clip-path="url(#p4aadb6bb50)" style="fill: none; stroke: #b0b0b0; stroke-width: 0.8; stroke-linecap: square"/>
     </g>
     <g id="line2d_18">
      <g>
       <use xlink:href="#m123b055c14" x="73.37" y="166.716684" style="stroke: #000000; stroke-width: 0.8"/>
      </g>
     </g>
     <g id="text_3">
      <!-- 300 -->
      <g transform="translate(35.83 172.795434) scale(0.16 -0.16)">
       <defs>
        <path id="DejaVuSans-33" d="M 2597 2516 
Q 3050 2419 3304 2112 
Q 3559 1806 3559 1356 
Q 3559 666 3084 287 
Q 2609 -91 1734 -91 
Q 1441 -91 1130 -33 
Q 819 25 488 141 
L 488 750 
Q 750 597 1062 519 
Q 1375 441 1716 441 
Q 2309 441 2620 675 
Q 2931 909 2931 1356 
Q 2931 1769 2642 2001 
Q 2353 2234 1838 2234 
L 1294 2234 
L 1294 2753 
L 1863 2753 
Q 2328 2753 2575 2939 
Q 2822 3125 2822 3475 
Q 2822 3834 2567 4026 
Q 2313 4219 1838 4219 
Q 1578 4219 1281 4162 
Q 984 4106 628 3988 
L 628 4550 
Q 988 4650 1302 4700 
Q 1616 4750 1894 4750 
Q 2613 4750 3031 4423 
Q 3450 4097 3450 3541 
Q 3450 3153 3228 2886 
Q 3006 2619 2597 2516 
z
" transform="scale(0.015625)"/>
       </defs>
       <use xlink:href="#DejaVuSans-33"/>
       <use xlink:href="#DejaVuSans-30" transform="translate(63.623047 0)"/>
       <use xlink:href="#DejaVuSans-30" transform="translate(127.246094 0)"/>
      </g>
     </g>
    </g>
    <g id="ytick_4">
     <g id="line2d_19">
      <path d="M 73.37 130.323648 
L 458.251291 130.323648 
" clip-path="url(#p4aadb6bb50)" style="fill: none; stroke: #b0b0b0; stroke-width: 0.8; stroke-linecap: square"/>
     </g>
     <g id="line2d_20">
      <g>
       <use xlink:href="#m123b055c14" x="73.37" y="130.323648" style="stroke: #000000; stroke-width: 0.8"/>
      </g>
     </g>
     <g id="text_4">
      <!-- 400 -->
      <g transform="translate(35.83 136.402398) scale(0.16 -0.16)">
       <defs>
        <path id="DejaVuSans-34" d="M 2419 4116 
L 825 1625 
L 2419 1625 
L 2419 4116 
z
M 2253 4666 
L 3047 4666 
L 3047 1625 
L 3713 1625 
L 3713 1100 
L 3047 1100 
L 3047 0 
L 2419 0 
L 2419 1100 
L 313 1100 
L 313 1709 
L 2253 4666 
z
" transform="scale(0.015625)"/>
       </defs>
       <use xlink:href="#DejaVuSans-34"/>
       <use xlink:href="#DejaVuSans-30" transform="translate(63.623047 0)"/>
       <use xlink:href="#DejaVuSans-30" transform="translate(127.246094 0)"/>
      </g>
     </g>
    </g>
    <g id="ytick_5">
     <g id="line2d_21">
      <path d="M 73.37 93.930612 
L 458.251291 93.930612 
" clip-path="url(#p4aadb6bb50)" style="fill: none; stroke: #b0b0b0; stroke-width: 0.8; stroke-linecap: square"/>
     </g>
     <g id="line2d_22">
      <g>
       <use xlink:href="#m123b055c14" x="73.37" y="93.930612" style="stroke: #000000; stroke-width: 0.8"/>
      </g>
     </g>
     <g id="text_5">
      <!-- 500 -->
      <g transform="translate(35.83 100.009362) scale(0.16 -0.16)">
       <defs>
        <path id="DejaVuSans-35" d="M 691 4666 
L 3169 4666 
L 3169 4134 
L 1269 4134 
L 1269 2991 
Q 1406 3038 1543 3061 
Q 1681 3084 1819 3084 
Q 2600 3084 3056 2656 
Q 3513 2228 3513 1497 
Q 3513 744 3044 326 
Q 2575 -91 1722 -91 
Q 1428 -91 1123 -41 
Q 819 9 494 109 
L 494 744 
Q 775 591 1075 516 
Q 1375 441 1709 441 
Q 2250 441 2565 725 
Q 2881 1009 2881 1497 
Q 2881 1984 2565 2268 
Q 2250 2553 1709 2553 
Q 1456 2553 1204 2497 
Q 953 2441 691 2322 
L 691 4666 
z
" transform="scale(0.015625)"/>
       </defs>
       <use xlink:href="#DejaVuSans-35"/>
       <use xlink:href="#DejaVuSans-30" transform="translate(63.623047 0)"/>
       <use xlink:href="#DejaVuSans-30" transform="translate(127.246094 0)"/>
      </g>
     </g>
    </g>
    <g id="ytick_6">
     <g id="line2d_23">
      <path d="M 73.37 57.537575 
L 458.251291 57.537575 
" clip-path="url(#p4aadb6bb50)" style="fill: none; stroke: #b0b0b0; stroke-width: 0.8; stroke-linecap: square"/>
     </g>
     <g id="line2d_24">
      <g>
       <use xlink:href="#m123b055c14" x="73.37" y="57.537575" style="stroke: #000000; stroke-width: 0.8"/>
      </g>
     </g>
     <g id="text_6">
      <!-- 600 -->
      <g transform="translate(35.83 63.616325) scale(0.16 -0.16)">
       <defs>
        <path id="DejaVuSans-36" d="M 2113 2584 
Q 1688 2584 1439 2293 
Q 1191 2003 1191 1497 
Q 1191 994 1439 701 
Q 1688 409 2113 409 
Q 2538 409 2786 701 
Q 3034 994 3034 1497 
Q 3034 2003 2786 2293 
Q 2538 2584 2113 2584 
z
M 3366 4563 
L 3366 3988 
Q 3128 4100 2886 4159 
Q 2644 4219 2406 4219 
Q 1781 4219 1451 3797 
Q 1122 3375 1075 2522 
Q 1259 2794 1537 2939 
Q 1816 3084 2150 3084 
Q 2853 3084 3261 2657 
Q 3669 2231 3669 1497 
Q 3669 778 3244 343 
Q 2819 -91 2113 -91 
Q 1303 -91 875 529 
Q 447 1150 447 2328 
Q 447 3434 972 4092 
Q 1497 4750 2381 4750 
Q 2619 4750 2861 4703 
Q 3103 4656 3366 4563 
z
" transform="scale(0.015625)"/>
       </defs>
       <use xlink:href="#DejaVuSans-36"/>
       <use xlink:href="#DejaVuSans-30" transform="translate(63.623047 0)"/>
       <use xlink:href="#DejaVuSans-30" transform="translate(127.246094 0)"/>
      </g>
     </g>
    </g>
    <g id="ytick_7">
     <g id="line2d_25">
      <path d="M 73.37 21.144539 
L 458.251291 21.144539 
" clip-path="url(#p4aadb6bb50)" style="fill: none; stroke: #b0b0b0; stroke-width: 0.8; stroke-linecap: square"/>
     </g>
     <g id="line2d_26">
      <g>
       <use xlink:href="#m123b055c14" x="73.37" y="21.144539" style="stroke: #000000; stroke-width: 0.8"/>
      </g>
     </g>
     <g id="text_7">
      <!-- 700 -->
      <g transform="translate(35.83 27.223289) scale(0.16 -0.16)">
       <defs>
        <path id="DejaVuSans-37" d="M 525 4666 
L 3525 4666 
L 3525 4397 
L 1831 0 
L 1172 0 
L 2766 4134 
L 525 4134 
L 525 4666 
z
" transform="scale(0.015625)"/>
       </defs>
       <use xlink:href="#DejaVuSans-37"/>
       <use xlink:href="#DejaVuSans-30" transform="translate(63.623047 0)"/>
       <use xlink:href="#DejaVuSans-30" transform="translate(127.246094 0)"/>
      </g>
     </g>
    </g>
    <g id="text_8">
     <!-- Duração da etapa (s) -->
     <g transform="translate(28.5025 222.07375) rotate(-90) scale(0.16 -0.16)">
      <defs>
       <path id="DejaVuSans-44" d="M 1259 4147 
L 1259 519 
L 2022 519 
Q 2988 519 3436 956 
Q 3884 1394 3884 2338 
Q 3884 3275 3436 3711 
Q 2988 4147 2022 4147 
L 1259 4147 
z
M 628 4666 
L 1925 4666 
Q 3281 4666 3915 4102 
Q 4550 3538 4550 2338 
Q 4550 1131 3912 565 
Q 3275 0 1925 0 
L 628 0 
L 628 4666 
z
" transform="scale(0.015625)"/>
       <path id="DejaVuSans-75" d="M 544 1381 
L 544 3500 
L 1119 3500 
L 1119 1403 
Q 1119 906 1312 657 
Q 1506 409 1894 409 
Q 2359 409 2629 706 
Q 2900 1003 2900 1516 
L 2900 3500 
L 3475 3500 
L 3475 0 
L 2900 0 
L 2900 538 
Q 2691 219 2414 64 
Q 2138 -91 1772 -91 
Q 1169 -91 856 284 
Q 544 659 544 1381 
z
M 1991 3584 
L 1991 3584 
z
" transform="scale(0.015625)"/>
       <path id="DejaVuSans-72" d="M 2631 2963 
Q 2534 3019 2420 3045 
Q 2306 3072 2169 3072 
Q 1681 3072 1420 2755 
Q 1159 2438 1159 1844 
L 1159 0 
L 581 0 
L 581 3500 
L 1159 3500 
L 1159 2956 
Q 1341 3275 1631 3429 
Q 1922 3584 2338 3584 
Q 2397 3584 2469 3576 
Q 2541 3569 2628 3553 
L 2631 2963 
z
" transform="scale(0.015625)"/>
       <path id="DejaVuSans-61" d="M 2194 1759 
Q 1497 1759 1228 1600 
Q 959 1441 959 1056 
Q 959 750 1161 570 
Q 1363 391 1709 391 
Q 2188 391 2477 730 
Q 2766 1069 2766 1631 
L 2766 1759 
L 2194 1759 
z
M 3341 1997 
L 3341 0 
L 2766 0 
L 2766 531 
Q 2569 213 2275 61 
Q 1981 -91 1556 -91 
Q 1019 -91 701 211 
Q 384 513 384 1019 
Q 384 1609 779 1909 
Q 1175 2209 1959 2209 
L 2766 2209 
L 2766 2266 
Q 2766 2663 2505 2880 
Q 2244 3097 1772 3097 
Q 1472 3097 1187 3025 
Q 903 2953 641 2809 
L 641 3341 
Q 956 3463 1253 3523 
Q 1550 3584 1831 3584 
Q 2591 3584 2966 3190 
Q 3341 2797 3341 1997 
z
" transform="scale(0.015625)"/>
       <path id="DejaVuSans-e7" d="M 3122 3366 
L 3122 2828 
Q 2878 2963 2633 3030 
Q 2388 3097 2138 3097 
Q 1578 3097 1268 2742 
Q 959 2388 959 1747 
Q 959 1106 1268 751 
Q 1578 397 2138 397 
Q 2388 397 2633 464 
Q 2878 531 3122 666 
L 3122 134 
Q 2881 22 2623 -34 
Q 2366 -91 2075 -91 
Q 1284 -91 818 406 
Q 353 903 353 1747 
Q 353 2603 823 3093 
Q 1294 3584 2113 3584 
Q 2378 3584 2631 3529 
Q 2884 3475 3122 3366 
z
M 2311 0 
Q 2482 -194 2566 -358 
Q 2651 -522 2651 -672 
Q 2651 -950 2463 -1092 
Q 2276 -1234 1907 -1234 
Q 1764 -1234 1628 -1215 
Q 1492 -1197 1357 -1159 
L 1357 -750 
Q 1464 -803 1579 -826 
Q 1695 -850 1842 -850 
Q 2026 -850 2120 -775 
Q 2214 -700 2214 -556 
Q 2214 -463 2146 -327 
Q 2079 -191 1939 0 
L 2311 0 
z
" transform="scale(0.015625)"/>
       <path id="DejaVuSans-e3" d="M 2194 1759 
Q 1497 1759 1228 1600 
Q 959 1441 959 1056 
Q 959 750 1161 570 
Q 1363 391 1709 391 
Q 2188 391 2477 730 
Q 2766 1069 2766 1631 
L 2766 1759 
L 2194 1759 
z
M 3341 1997 
L 3341 0 
L 2766 0 
L 2766 531 
Q 2569 213 2275 61 
Q 1981 -91 1556 -91 
Q 1019 -91 701 211 
Q 384 513 384 1019 
Q 384 1609 779 1909 
Q 1175 2209 1959 2209 
L 2766 2209 
L 2766 2266 
Q 2766 2663 2505 2880 
Q 2244 3097 1772 3097 
Q 1472 3097 1187 3025 
Q 903 2953 641 2809 
L 641 3341 
Q 956 3463 1253 3523 
Q 1550 3584 1831 3584 
Q 2591 3584 2966 3190 
Q 3341 2797 3341 1997 
z
M 1844 4281 
L 1665 4453 
Q 1597 4516 1545 4545 
Q 1494 4575 1453 4575 
Q 1334 4575 1278 4461 
Q 1222 4347 1215 4091 
L 825 4091 
Q 831 4513 990 4742 
Q 1150 4972 1434 4972 
Q 1553 4972 1653 4928 
Q 1753 4884 1869 4781 
L 2047 4609 
Q 2115 4547 2167 4517 
Q 2219 4488 2259 4488 
Q 2378 4488 2434 4602 
Q 2490 4716 2497 4972 
L 2887 4972 
Q 2881 4550 2721 4320 
Q 2562 4091 2278 4091 
Q 2159 4091 2059 4134 
Q 1959 4178 1844 4281 
z
" transform="scale(0.015625)"/>
       <path id="DejaVuSans-6f" d="M 1959 3097 
Q 1497 3097 1228 2736 
Q 959 2375 959 1747 
Q 959 1119 1226 758 
Q 1494 397 1959 397 
Q 2419 397 2687 759 
Q 2956 1122 2956 1747 
Q 2956 2369 2687 2733 
Q 2419 3097 1959 3097 
z
M 1959 3584 
Q 2709 3584 3137 3096 
Q 3566 2609 3566 1747 
Q 3566 888 3137 398 
Q 2709 -91 1959 -91 
Q 1206 -91 779 398 
Q 353 888 353 1747 
Q 353 2609 779 3096 
Q 1206 3584 1959 3584 
z
" transform="scale(0.015625)"/>
       <path id="DejaVuSans-20" transform="scale(0.015625)"/>
       <path id="DejaVuSans-64" d="M 2906 2969 
L 2906 4863 
L 3481 4863 
L 3481 0 
L 2906 0 
L 2906 525 
Q 2725 213 2448 61 
Q 2172 -91 1784 -91 
Q 1150 -91 751 415 
Q 353 922 353 1747 
Q 353 2572 751 3078 
Q 1150 3584 1784 3584 
Q 2172 3584 2448 3432 
Q 2725 3281 2906 2969 
z
M 947 1747 
Q 947 1113 1208 752 
Q 1469 391 1925 391 
Q 2381 391 2643 752 
Q 2906 1113 2906 1747 
Q 2906 2381 2643 2742 
Q 2381 3103 1925 3103 
Q 1469 3103 1208 2742 
Q 947 2381 947 1747 
z
" transform="scale(0.015625)"/>
       <path id="DejaVuSans-65" d="M 3597 1894 
L 3597 1613 
L 953 1613 
Q 991 1019 1311 708 
Q 1631 397 2203 397 
Q 2534 397 2845 478 
Q 3156 559 3463 722 
L 3463 178 
Q 3153 47 2828 -22 
Q 2503 -91 2169 -91 
Q 1331 -91 842 396 
Q 353 884 353 1716 
Q 353 2575 817 3079 
Q 1281 3584 2069 3584 
Q 2775 3584 3186 3129 
Q 3597 2675 3597 1894 
z
M 3022 2063 
Q 3016 2534 2758 2815 
Q 2500 3097 2075 3097 
Q 1594 3097 1305 2825 
Q 1016 2553 972 2059 
L 3022 2063 
z
" transform="scale(0.015625)"/>
       <path id="DejaVuSans-74" d="M 1172 4494 
L 1172 3500 
L 2356 3500 
L 2356 3053 
L 1172 3053 
L 1172 1153 
Q 1172 725 1289 603 
Q 1406 481 1766 481 
L 2356 481 
L 2356 0 
L 1766 0 
Q 1100 0 847 248 
Q 594 497 594 1153 
L 594 3053 
L 172 3053 
L 172 3500 
L 594 3500 
L 594 4494 
L 1172 4494 
z
" transform="scale(0.015625)"/>
       <path id="DejaVuSans-70" d="M 1159 525 
L 1159 -1331 
L 581 -1331 
L 581 3500 
L 1159 3500 
L 1159 2969 
Q 1341 3281 1617 3432 
Q 1894 3584 2278 3584 
Q 2916 3584 3314 3078 
Q 3713 2572 3713 1747 
Q 3713 922 3314 415 
Q 2916 -91 2278 -91 
Q 1894 -91 1617 61 
Q 1341 213 1159 525 
z
M 3116 1747 
Q 3116 2381 2855 2742 
Q 2594 3103 2138 3103 
Q 1681 3103 1420 2742 
Q 1159 2381 1159 1747 
Q 1159 1113 1420 752 
Q 1681 391 2138 391 
Q 2594 391 2855 752 
Q 3116 1113 3116 1747 
z
" transform="scale(0.015625)"/>
       <path id="DejaVuSans-28" d="M 1984 4856 
Q 1566 4138 1362 3434 
Q 1159 2731 1159 2009 
Q 1159 1288 1364 580 
Q 1569 -128 1984 -844 
L 1484 -844 
Q 1016 -109 783 600 
Q 550 1309 550 2009 
Q 550 2706 781 3412 
Q 1013 4119 1484 4856 
L 1984 4856 
z
" transform="scale(0.015625)"/>
       <path id="DejaVuSans-73" d="M 2834 3397 
L 2834 2853 
Q 2591 2978 2328 3040 
Q 2066 3103 1784 3103 
Q 1356 3103 1142 2972 
Q 928 2841 928 2578 
Q 928 2378 1081 2264 
Q 1234 2150 1697 2047 
L 1894 2003 
Q 2506 1872 2764 1633 
Q 3022 1394 3022 966 
Q 3022 478 2636 193 
Q 2250 -91 1575 -91 
Q 1294 -91 989 -36 
Q 684 19 347 128 
L 347 722 
Q 666 556 975 473 
Q 1284 391 1588 391 
Q 1994 391 2212 530 
Q 2431 669 2431 922 
Q 2431 1156 2273 1281 
Q 2116 1406 1581 1522 
L 1381 1569 
Q 847 1681 609 1914 
Q 372 2147 372 2553 
Q 372 3047 722 3315 
Q 1072 3584 1716 3584 
Q 2034 3584 2315 3537 
Q 2597 3491 2834 3397 
z
" transform="scale(0.015625)"/>
       <path id="DejaVuSans-29" d="M 513 4856 
L 1013 4856 
Q 1481 4119 1714 3412 
Q 1947 2706 1947 2009 
Q 1947 1309 1714 600 
Q 1481 -109 1013 -844 
L 513 -844 
Q 928 -128 1133 580 
Q 1338 1288 1338 2009 
Q 1338 2731 1133 3434 
Q 928 4138 513 4856 
z
" transform="scale(0.015625)"/>
      </defs>
      <use xlink:href="#DejaVuSans-44"/>
      <use xlink:href="#DejaVuSans-75" transform="translate(77.001953 0)"/>
      <use xlink:href="#DejaVuSans-72" transform="translate(140.380859 0)"/>
      <use xlink:href="#DejaVuSans-61" transform="translate(181.494141 0)"/>
      <use xlink:href="#DejaVuSans-e7" transform="translate(242.773438 0)"/>
      <use xlink:href="#DejaVuSans-e3" transform="translate(297.753906 0)"/>
      <use xlink:href="#DejaVuSans-6f" transform="translate(359.033203 0)"/>
      <use xlink:href="#DejaVuSans-20" transform="translate(420.214844 0)"/>
      <use xlink:href="#DejaVuSans-64" transform="translate(452.001953 0)"/>
      <use xlink:href="#DejaVuSans-61" transform="translate(515.478516 0)"/>
      <use xlink:href="#DejaVuSans-20" transform="translate(576.757812 0)"/>
      <use xlink:href="#DejaVuSans-65" transform="translate(608.544922 0)"/>
      <use xlink:href="#DejaVuSans-74" transform="translate(670.068359 0)"/>
      <use xlink:href="#DejaVuSans-61" transform="translate(709.277344 0)"/>
      <use xlink:href="#DejaVuSans-70" transform="translate(770.556641 0)"/>
      <use xlink:href="#DejaVuSans-61" transform="translate(834.033203 0)"/>
      <use xlink:href="#DejaVuSans-20" transform="translate(895.3125 0)"/>
      <use xlink:href="#DejaVuSans-28" transform="translate(927.099609 0)"/>
      <use xlink:href="#DejaVuSans-73" transform="translate(966.113281 0)"/>
      <use xlink:href="#DejaVuSans-29" transform="translate(1018.212891 0)"/>
     </g>
    </g>
   </g>
   <g id="line2d_27">
    <path d="M 90.864604 28.423146 
L 94.398868 31.105513 
L 97.933131 33.397588 
L 101.467395 37.420584 
L 105.001658 42.257613 
L 108.535921 47.084243 
L 112.070185 50.914658 
L 115.604448 53.356746 
L 119.138712 54.968699 
L 122.672975 56.148682 
L 126.207239 57.043845 
L 129.741502 57.277012 
L 133.275766 57.505833 
L 136.810029 57.20106 
L 140.344293 57.357697 
L 143.878556 57.41121 
L 147.41282 57.459952 
L 150.947083 57.490253 
L 154.481346 57.509602 
L 158.01561 57.521884 
L 161.549873 57.513411 
L 165.084137 57.490163 
L 168.6184 57.450973 
L 172.152664 57.439903 
L 175.686927 57.432059 
L 179.221191 57.424834 
L 182.755454 57.418079 
L 186.289718 57.411761 
L 189.823981 57.405857 
L 193.358245 57.400337 
L 196.892508 57.395165 
L 200.426772 57.390299 
L 203.961035 57.38569 
L 207.495298 57.381285 
L 211.029562 57.377016 
L 214.563825 57.372799 
L 218.098089 57.373036 
L 221.632352 57.368577 
L 225.166616 57.368653 
L 228.700879 57.3686 
L 232.235143 57.363627 
L 235.769406 57.363547 
L 239.30367 57.363368 
L 242.837933 57.357406 
L 246.372197 57.357386 
L 249.90646 57.357386 
L 253.440723 57.357386 
L 256.974987 57.357386 
L 260.50925 57.357386 
L 264.043514 57.357386 
L 267.577777 47.503111 
L 271.112041 41.499655 
L 274.646304 37.563912 
L 278.180568 34.904948 
L 281.714831 33.312051 
L 285.249095 32.371716 
L 288.783358 31.611801 
L 292.317622 31.400409 
L 295.851885 31.130894 
L 299.386149 30.745572 
L 302.920412 30.618969 
L 306.454675 30.472566 
L 309.988939 30.457734 
L 313.523202 30.486767 
L 317.057466 30.506581 
L 320.591729 30.512448 
L 324.125993 30.511057 
L 327.660256 30.116257 
L 331.19452 30.091767 
L 334.728783 30.057892 
L 338.263047 30.012497 
L 341.79731 29.950623 
L 345.331574 29.948804 
L 348.865837 29.338349 
L 352.4001 29.336959 
L 355.934364 29.335254 
L 359.468627 29.335254 
L 363.002891 28.800962 
L 366.537154 28.705359 
L 370.071418 28.704909 
L 373.605681 28.70441 
L 377.139945 28.619204 
L 380.674208 28.618696 
L 384.208472 28.618114 
L 387.742735 28.21065 
L 391.276999 28.209647 
L 394.811262 28.209502 
L 398.345525 28.209358 
L 401.879789 28.209358 
L 405.414052 28.209214 
L 408.948316 28.209214 
L 412.482579 28.209069 
L 416.016843 28.208925 
L 419.551106 28.208925 
L 423.08537 28.208925 
L 426.619633 28.20878 
L 430.153897 28.20878 
L 433.68816 28.208636 
L 437.222424 28.208636 
L 440.756687 28.208636 
" clip-path="url(#p4aadb6bb50)" style="fill: none; stroke: #1f77b4; stroke-width: 1.5; stroke-linecap: square"/>
   </g>
   <g id="line2d_28">
    <path d="M 90.864604 179.454247 
L 94.398868 204.066511 
L 97.933131 204.528922 
L 101.467395 200.692867 
L 105.001658 196.864905 
L 108.535921 193.803966 
L 112.070185 191.673029 
L 115.604448 190.11916 
L 119.138712 189.32581 
L 122.672975 188.918552 
L 126.207239 188.537699 
L 129.741502 188.630462 
L 133.275766 189.319128 
L 136.810029 190.36117 
L 140.344293 191.1472 
L 143.878556 191.872338 
L 147.41282 192.48576 
L 150.947083 192.976218 
L 154.481346 193.350566 
L 158.01561 193.628437 
L 161.549873 193.834881 
L 165.084137 193.967127 
L 168.6184 194.046154 
L 172.152664 194.043157 
L 175.686927 194.03799 
L 179.221191 194.030196 
L 182.755454 194.020844 
L 186.289718 194.010711 
L 189.823981 194.000364 
L 193.358245 193.990193 
L 196.892508 193.980443 
L 200.426772 193.971243 
L 203.961035 193.962641 
L 207.495298 193.954619 
L 211.029562 193.947112 
L 214.563825 193.940007 
L 218.098089 193.941087 
L 221.632352 193.932475 
L 225.166616 193.933055 
L 228.700879 193.933233 
L 232.235143 193.922997 
L 235.769406 193.923126 
L 239.30367 193.922969 
L 242.837933 193.911795 
L 246.372197 193.911806 
L 249.90646 193.911806 
L 253.440723 193.911806 
L 256.974987 193.911806 
L 260.50925 193.911806 
L 264.043514 193.911806 
L 267.577777 179.454247 
L 271.112041 179.454247 
L 274.646304 179.454247 
L 278.180568 179.454247 
L 281.714831 179.454247 
L 285.249095 179.454247 
L 288.783358 179.454247 
L 292.317622 179.454247 
L 295.851885 179.454247 
L 299.386149 179.454247 
L 302.920412 179.454247 
L 306.454675 179.454247 
L 309.988939 179.628751 
L 313.523202 179.87747 
L 317.057466 180.231571 
L 320.591729 180.553518 
L 324.125993 180.825959 
L 327.660256 181.191859 
L 331.19452 181.358462 
L 334.728783 181.510731 
L 338.263047 181.643859 
L 341.79731 181.75854 
L 345.331574 181.756295 
L 348.865837 181.984367 
L 352.4001 181.982834 
L 355.934364 181.981727 
L 359.468627 181.981727 
L 363.002891 182.09151 
L 366.537154 182.03343 
L 370.071418 182.034067 
L 373.605681 182.034494 
L 377.139945 181.981248 
L 380.674208 181.981668 
L 384.208472 181.981908 
L 387.742735 182.062712 
L 391.276999 182.061445 
L 394.811262 182.061291 
L 398.345525 182.061142 
L 401.879789 182.061142 
L 405.414052 182.060994 
L 408.948316 182.060994 
L 412.482579 182.060849 
L 416.016843 182.060709 
L 419.551106 182.060709 
L 423.08537 182.060709 
L 426.619633 182.06057 
L 430.153897 182.06057 
L 433.68816 182.060435 
L 437.222424 182.060435 
L 440.756687 182.060435 
" clip-path="url(#p4aadb6bb50)" style="fill: none; stroke: #ff7f0e; stroke-width: 1.5; stroke-linecap: square"/>
   </g>
   <g id="line2d_29">
    <path d="M 90.864604 228.584846 
L 94.398868 228.584846 
L 97.933131 226.177216 
L 101.467395 224.945542 
L 105.001658 224.945542 
L 108.535921 224.945542 
L 112.070185 224.945542 
L 115.604448 224.945542 
L 119.138712 224.945542 
L 122.672975 224.945542 
L 126.207239 224.945542 
L 129.741502 224.945542 
L 133.275766 224.945542 
L 136.810029 225.311729 
L 140.344293 226.577095 
L 143.878556 227.437534 
L 147.41282 228.004789 
L 150.947083 228.365971 
L 154.481346 228.546624 
L 158.01561 228.576025 
L 161.549873 228.584846 
L 165.084137 228.584846 
L 168.6184 228.584846 
L 172.152664 228.584846 
L 175.686927 228.565934 
L 179.221191 228.534835 
L 182.755454 228.497607 
L 186.289718 228.458568 
L 189.823981 228.420555 
L 193.358245 228.385288 
L 196.892508 228.353681 
L 200.426772 228.326102 
L 203.961035 228.302555 
L 207.495298 228.282827 
L 211.029562 228.266581 
L 214.563825 228.253424 
L 218.098089 228.2521 
L 221.632352 228.239612 
L 225.166616 228.23858 
L 228.700879 228.237428 
L 232.235143 228.225904 
L 235.769406 228.225226 
L 239.30367 228.224525 
L 242.837933 228.216394 
L 246.372197 228.216354 
L 249.90646 228.216354 
L 253.440723 228.216354 
L 256.974987 228.216354 
L 260.50925 228.216354 
L 264.043514 228.216354 
L 267.577777 224.945542 
L 271.112041 224.945542 
L 274.646304 224.945542 
L 278.180568 224.945542 
L 281.714831 224.945542 
L 285.249095 224.945542 
L 288.783358 224.945542 
L 292.317622 224.945542 
L 295.851885 224.945542 
L 299.386149 224.945542 
L 302.920412 224.945542 
L 306.454675 225.316184 
L 309.988939 226.371115 
L 313.523202 227.180418 
L 317.057466 227.751283 
L 320.591729 228.138101 
L 324.125993 228.392492 
L 327.660256 228.584846 
L 331.19452 228.584846 
L 334.728783 228.584846 
L 338.263047 228.584846 
L 341.79731 228.584846 
L 345.331574 228.584846 
L 348.865837 228.584846 
L 352.4001 228.584846 
L 355.934364 228.584846 
L 359.468627 228.584846 
L 363.002891 228.584846 
L 366.537154 228.584846 
L 370.071418 228.584846 
L 373.605681 228.584846 
L 377.139945 228.584846 
L 380.674208 228.584846 
L 384.208472 228.584846 
L 387.742735 228.584846 
L 391.276999 228.584846 
L 394.811262 228.584846 
L 398.345525 228.584846 
L 401.879789 228.584846 
L 405.414052 228.584846 
L 408.948316 228.584846 
L 412.482579 228.584846 
L 416.016843 228.584846 
L 419.551106 228.584846 
L 423.08537 228.584846 
L 426.619633 228.584846 
L 430.153897 228.584846 
L 433.68816 228.584846 
L 437.222424 228.584846 
L 440.756687 228.584846 
" clip-path="url(#p4aadb6bb50)" style="fill: none; stroke: #2ca02c; stroke-width: 1.5; stroke-linecap: square"/>
   </g>
   <g id="line2d_30">
    <path d="M 90.864604 246.781364 
L 94.398868 241.40692 
L 97.933131 239.94363 
L 101.467395 238.05639 
L 105.001658 236.517118 
L 108.535921 235.455265 
L 112.070185 234.780531 
L 115.604448 234.278273 
L 119.138712 234.043801 
L 122.672975 234.043801 
L 126.207239 234.043801 
L 129.741502 234.132897 
L 133.275766 234.554811 
L 136.810029 235.067587 
L 140.344293 235.531092 
L 143.878556 235.9535 
L 147.41282 236.315357 
L 150.947083 236.609699 
L 154.481346 236.851575 
L 158.01561 237.034802 
L 161.549873 237.161448 
L 165.084137 237.250817 
L 168.6184 237.30089 
L 172.152664 237.318604 
L 175.686927 237.32082 
L 179.221191 237.317587 
L 182.755454 237.310763 
L 186.289718 237.30196 
L 189.823981 237.292305 
L 193.358245 237.282527 
L 196.892508 237.273067 
L 200.426772 237.264166 
L 203.961035 237.255935 
L 207.495298 237.248395 
L 211.029562 237.241508 
L 214.563825 237.235187 
L 218.098089 237.231429 
L 221.632352 237.226651 
L 225.166616 237.223924 
L 228.700879 237.221724 
L 232.235143 237.217497 
L 235.769406 237.215731 
L 239.30367 237.214372 
L 242.837933 237.2095 
L 246.372197 237.209274 
L 249.90646 237.209274 
L 253.440723 237.209274 
L 256.974987 237.209274 
L 260.50925 237.209274 
L 264.043514 237.209274 
L 267.577777 235.109718 
L 271.112041 234.524762 
L 274.646304 234.215379 
L 278.180568 234.048995 
L 281.714831 234.043801 
L 285.249095 234.043801 
L 288.783358 234.043801 
L 292.317622 234.104524 
L 295.851885 234.175002 
L 299.386149 234.223343 
L 302.920412 234.330489 
L 306.454675 234.402409 
L 309.988939 234.527354 
L 313.523202 234.682847 
L 317.057466 234.867859 
L 320.591729 235.041381 
L 324.125993 235.201634 
L 327.660256 235.314227 
L 331.19452 235.422532 
L 334.728783 235.517823 
L 338.263047 235.598783 
L 341.79731 235.66437 
L 345.331574 235.671116 
L 348.865837 235.683108 
L 352.4001 235.686555 
L 355.934364 235.688774 
L 359.468627 235.688774 
L 363.002891 235.652769 
L 366.537154 235.60881 
L 370.071418 235.606559 
L 373.605681 235.604267 
L 377.139945 235.562126 
L 380.674208 235.560372 
L 384.208472 235.558664 
L 387.742735 235.523327 
L 391.276999 235.524605 
L 394.811262 235.524712 
L 398.345525 235.524817 
L 401.879789 235.524817 
L 405.414052 235.524931 
L 408.948316 235.524931 
L 412.482579 235.525052 
L 416.016843 235.525167 
L 419.551106 235.525167 
L 423.08537 235.525167 
L 426.619633 235.525294 
L 430.153897 235.525294 
L 433.68816 235.525422 
L 437.222424 235.525422 
L 440.756687 235.525422 
" clip-path="url(#p4aadb6bb50)" style="fill: none; stroke: #d62728; stroke-width: 1.5; stroke-linecap: square"/>
   </g>
   <g id="patch_3">
    <path d="M 73.37 257.71 
L 73.37 17.28 
" style="fill: none; stroke: #000000; stroke-width: 0.8; stroke-linejoin: miter; stroke-linecap: square"/>
   </g>
   <g id="patch_4">
    <path d="M 458.251291 257.71 
L 458.251291 17.28 
" style="fill: none; stroke: #000000; stroke-width: 0.8; stroke-linejoin: miter; stroke-linecap: square"/>
   </g>
   <g id="patch_5">
    <path d="M 73.37 257.71 
L 458.251291 257.71 
" style="fill: none; stroke: #000000; stroke-width: 0.8; stroke-linejoin: miter; stroke-linecap: square"/>
   </g>
   <g id="patch_6">
    <path d="M 73.37 17.28 
L 458.251291 17.28 
" style="fill: none; stroke: #000000; stroke-width: 0.8; stroke-linejoin: miter; stroke-linecap: square"/>
   </g>
   <g id="legend_1">
    <g id="line2d_31">
     <path d="M 472.651291 100.26625 
L 488.651291 100.26625 
L 504.651291 100.26625 
" style="fill: none; stroke: #1f77b4; stroke-width: 1.5; stroke-linecap: square"/>
    </g>
    <g id="text_9">
     <!-- $t_{feed}$ -->
     <g transform="translate(517.451291 105.86625) scale(0.16 -0.16)">
      <defs>
       <path id="DejaVuSans-Oblique-74" d="M 2706 3500 
L 2619 3053 
L 1472 3053 
L 1100 1153 
Q 1081 1047 1072 975 
Q 1063 903 1063 863 
Q 1063 663 1183 572 
Q 1303 481 1569 481 
L 2150 481 
L 2053 0 
L 1503 0 
Q 991 0 739 200 
Q 488 400 488 806 
Q 488 878 497 964 
Q 506 1050 525 1153 
L 897 3053 
L 409 3053 
L 500 3500 
L 978 3500 
L 1172 4494 
L 1747 4494 
L 1556 3500 
L 2706 3500 
z
" transform="scale(0.015625)"/>
       <path id="DejaVuSans-Oblique-66" d="M 3059 4863 
L 2969 4384 
L 2419 4384 
Q 2106 4384 1964 4261 
Q 1822 4138 1753 3809 
L 1691 3500 
L 2638 3500 
L 2553 3053 
L 1606 3053 
L 1013 0 
L 434 0 
L 1031 3053 
L 481 3053 
L 563 3500 
L 1113 3500 
L 1159 3744 
Q 1278 4363 1576 4613 
Q 1875 4863 2516 4863 
L 3059 4863 
z
" transform="scale(0.015625)"/>
       <path id="DejaVuSans-Oblique-65" d="M 3078 2063 
Q 3088 2113 3092 2166 
Q 3097 2219 3097 2272 
Q 3097 2653 2873 2875 
Q 2650 3097 2266 3097 
Q 1838 3097 1509 2826 
Q 1181 2556 1013 2059 
L 3078 2063 
z
M 3578 1613 
L 903 1613 
Q 884 1494 878 1425 
Q 872 1356 872 1306 
Q 872 872 1139 634 
Q 1406 397 1894 397 
Q 2269 397 2603 481 
Q 2938 566 3225 728 
L 3116 159 
Q 2806 34 2476 -28 
Q 2147 -91 1806 -91 
Q 1078 -91 686 257 
Q 294 606 294 1247 
Q 294 1794 489 2264 
Q 684 2734 1063 3103 
Q 1306 3334 1642 3459 
Q 1978 3584 2356 3584 
Q 2950 3584 3301 3228 
Q 3653 2872 3653 2272 
Q 3653 2128 3634 1964 
Q 3616 1800 3578 1613 
z
" transform="scale(0.015625)"/>
       <path id="DejaVuSans-Oblique-64" d="M 2675 525 
Q 2444 222 2128 65 
Q 1813 -91 1428 -91 
Q 903 -91 598 267 
Q 294 625 294 1247 
Q 294 1766 478 2236 
Q 663 2706 1013 3078 
Q 1244 3325 1534 3454 
Q 1825 3584 2144 3584 
Q 2481 3584 2739 3421 
Q 2997 3259 3138 2956 
L 3513 4863 
L 4091 4863 
L 3144 0 
L 2566 0 
L 2675 525 
z
M 891 1350 
Q 891 897 1095 644 
Q 1300 391 1663 391 
Q 1931 391 2161 520 
Q 2391 650 2566 903 
Q 2750 1166 2856 1509 
Q 2963 1853 2963 2188 
Q 2963 2622 2758 2865 
Q 2553 3109 2194 3109 
Q 1922 3109 1687 2981 
Q 1453 2853 1288 2613 
Q 1106 2353 998 2009 
Q 891 1666 891 1350 
z
" transform="scale(0.015625)"/>
      </defs>
      <use xlink:href="#DejaVuSans-Oblique-74" transform="translate(0 0.78125)"/>
      <use xlink:href="#DejaVuSans-Oblique-66" transform="translate(39.208984 -15.625) scale(0.7)"/>
      <use xlink:href="#DejaVuSans-Oblique-65" transform="translate(63.852539 -15.625) scale(0.7)"/>
      <use xlink:href="#DejaVuSans-Oblique-65" transform="translate(106.918945 -15.625) scale(0.7)"/>
      <use xlink:href="#DejaVuSans-Oblique-64" transform="translate(149.985352 -15.625) scale(0.7)"/>
     </g>
    </g>
    <g id="line2d_32">
     <path d="M 472.651291 123.75125 
L 488.651291 123.75125 
L 504.651291 123.75125 
" style="fill: none; stroke: #ff7f0e; stroke-width: 1.5; stroke-linecap: square"/>
    </g>
    <g id="text_10">
     <!-- $t_{rinse}$ -->
     <g transform="translate(517.451291 129.35125) scale(0.16 -0.16)">
      <defs>
       <path id="DejaVuSans-Oblique-72" d="M 2853 2969 
Q 2766 3016 2653 3041 
Q 2541 3066 2413 3066 
Q 1953 3066 1609 2717 
Q 1266 2369 1153 1784 
L 800 0 
L 225 0 
L 909 3500 
L 1484 3500 
L 1375 2956 
Q 1603 3259 1920 3421 
Q 2238 3584 2597 3584 
Q 2691 3584 2781 3573 
Q 2872 3563 2963 3538 
L 2853 2969 
z
" transform="scale(0.015625)"/>
       <path id="DejaVuSans-Oblique-69" d="M 1172 4863 
L 1747 4863 
L 1606 4134 
L 1031 4134 
L 1172 4863 
z
M 909 3500 
L 1484 3500 
L 800 0 
L 225 0 
L 909 3500 
z
" transform="scale(0.015625)"/>
       <path id="DejaVuSans-Oblique-6e" d="M 3566 2113 
L 3156 0 
L 2578 0 
L 2988 2091 
Q 3016 2238 3031 2350 
Q 3047 2463 3047 2528 
Q 3047 2791 2881 2937 
Q 2716 3084 2419 3084 
Q 1956 3084 1622 2776 
Q 1288 2469 1184 1941 
L 800 0 
L 225 0 
L 903 3500 
L 1478 3500 
L 1363 2950 
Q 1603 3253 1940 3418 
Q 2278 3584 2650 3584 
Q 3113 3584 3367 3334 
Q 3622 3084 3622 2631 
Q 3622 2519 3608 2391 
Q 3594 2263 3566 2113 
z
" transform="scale(0.015625)"/>
       <path id="DejaVuSans-Oblique-73" d="M 3200 3397 
L 3091 2853 
Q 2863 2978 2609 3040 
Q 2356 3103 2088 3103 
Q 1634 3103 1373 2948 
Q 1113 2794 1113 2528 
Q 1113 2219 1719 2053 
Q 1766 2041 1788 2034 
L 1972 1978 
Q 2547 1819 2739 1644 
Q 2931 1469 2931 1166 
Q 2931 609 2489 259 
Q 2047 -91 1331 -91 
Q 1053 -91 747 -37 
Q 441 16 72 128 
L 184 722 
Q 500 559 806 475 
Q 1113 391 1394 391 
Q 1816 391 2080 572 
Q 2344 753 2344 1031 
Q 2344 1331 1650 1516 
L 1591 1531 
L 1394 1581 
Q 956 1697 753 1886 
Q 550 2075 550 2369 
Q 550 2928 970 3256 
Q 1391 3584 2113 3584 
Q 2397 3584 2667 3537 
Q 2938 3491 3200 3397 
z
" transform="scale(0.015625)"/>
      </defs>
      <use xlink:href="#DejaVuSans-Oblique-74" transform="translate(0 0.78125)"/>
      <use xlink:href="#DejaVuSans-Oblique-72" transform="translate(39.208984 -15.625) scale(0.7)"/>
      <use xlink:href="#DejaVuSans-Oblique-69" transform="translate(67.988281 -15.625) scale(0.7)"/>
      <use xlink:href="#DejaVuSans-Oblique-6e" transform="translate(87.436523 -15.625) scale(0.7)"/>
      <use xlink:href="#DejaVuSans-Oblique-73" transform="translate(131.801758 -15.625) scale(0.7)"/>
      <use xlink:href="#DejaVuSans-Oblique-65" transform="translate(168.271484 -15.625) scale(0.7)"/>
     </g>
    </g>
    <g id="line2d_33">
     <path d="M 472.651291 147.23625 
L 488.651291 147.23625 
L 504.651291 147.23625 
" style="fill: none; stroke: #2ca02c; stroke-width: 1.5; stroke-linecap: square"/>
    </g>
    <g id="text_11">
     <!-- $t_{blow}$ -->
     <g transform="translate(517.451291 152.83625) scale(0.16 -0.16)">
      <defs>
       <path id="DejaVuSans-Oblique-62" d="M 3169 2138 
Q 3169 2591 2961 2847 
Q 2753 3103 2388 3103 
Q 2122 3103 1889 2973 
Q 1656 2844 1484 2597 
Q 1303 2338 1198 1995 
Q 1094 1653 1094 1313 
Q 1094 881 1298 636 
Q 1503 391 1863 391 
Q 2134 391 2365 517 
Q 2597 644 2772 891 
Q 2950 1147 3059 1487 
Q 3169 1828 3169 2138 
z
M 1381 2969 
Q 1594 3256 1914 3420 
Q 2234 3584 2584 3584 
Q 3122 3584 3439 3221 
Q 3756 2859 3756 2241 
Q 3756 1734 3570 1259 
Q 3384 784 3041 416 
Q 2816 172 2522 40 
Q 2228 -91 1906 -91 
Q 1566 -91 1316 65 
Q 1066 222 909 531 
L 806 0 
L 231 0 
L 1178 4863 
L 1753 4863 
L 1381 2969 
z
" transform="scale(0.015625)"/>
       <path id="DejaVuSans-Oblique-6c" d="M 1172 4863 
L 1747 4863 
L 800 0 
L 225 0 
L 1172 4863 
z
" transform="scale(0.015625)"/>
       <path id="DejaVuSans-Oblique-6f" d="M 1625 -91 
Q 1009 -91 651 289 
Q 294 669 294 1325 
Q 294 1706 417 2101 
Q 541 2497 738 2766 
Q 1047 3184 1428 3384 
Q 1809 3584 2291 3584 
Q 2888 3584 3255 3212 
Q 3622 2841 3622 2241 
Q 3622 1825 3500 1412 
Q 3378 1000 3181 728 
Q 2875 309 2494 109 
Q 2113 -91 1625 -91 
z
M 891 1344 
Q 891 869 1089 633 
Q 1288 397 1691 397 
Q 2269 397 2648 901 
Q 3028 1406 3028 2181 
Q 3028 2634 2825 2865 
Q 2622 3097 2228 3097 
Q 1903 3097 1650 2945 
Q 1397 2794 1197 2484 
Q 1050 2253 970 1956 
Q 891 1659 891 1344 
z
" transform="scale(0.015625)"/>
       <path id="DejaVuSans-Oblique-77" d="M 544 3500 
L 1113 3500 
L 1259 684 
L 2566 3500 
L 3231 3500 
L 3425 684 
L 4666 3500 
L 5241 3500 
L 3641 0 
L 2969 0 
L 2797 2900 
L 1459 0 
L 781 0 
L 544 3500 
z
" transform="scale(0.015625)"/>
      </defs>
      <use xlink:href="#DejaVuSans-Oblique-74" transform="translate(0 0.78125)"/>
      <use xlink:href="#DejaVuSans-Oblique-62" transform="translate(39.208984 -15.625) scale(0.7)"/>
      <use xlink:href="#DejaVuSans-Oblique-6c" transform="translate(83.642578 -15.625) scale(0.7)"/>
      <use xlink:href="#DejaVuSans-Oblique-6f" transform="translate(103.09082 -15.625) scale(0.7)"/>
      <use xlink:href="#DejaVuSans-Oblique-77" transform="translate(145.917969 -15.625) scale(0.7)"/>
     </g>
    </g>
    <g id="line2d_34">
     <path d="M 472.651291 170.72125 
L 488.651291 170.72125 
L 504.651291 170.72125 
" style="fill: none; stroke: #d62728; stroke-width: 1.5; stroke-linecap: square"/>
    </g>
    <g id="text_12">
     <!-- $t_{purge}$ -->
     <g transform="translate(517.451291 176.32125) scale(0.16 -0.16)">
      <defs>
       <path id="DejaVuSans-Oblique-70" d="M 3175 2156 
Q 3175 2616 2975 2859 
Q 2775 3103 2400 3103 
Q 2144 3103 1911 2972 
Q 1678 2841 1497 2591 
Q 1319 2344 1212 1994 
Q 1106 1644 1106 1300 
Q 1106 863 1306 627 
Q 1506 391 1875 391 
Q 2147 391 2380 519 
Q 2613 647 2778 891 
Q 2956 1147 3065 1494 
Q 3175 1841 3175 2156 
z
M 1394 2969 
Q 1625 3272 1939 3428 
Q 2253 3584 2638 3584 
Q 3175 3584 3472 3232 
Q 3769 2881 3769 2247 
Q 3769 1728 3584 1258 
Q 3400 788 3053 416 
Q 2822 169 2531 39 
Q 2241 -91 1919 -91 
Q 1547 -91 1294 64 
Q 1041 219 916 525 
L 556 -1331 
L -19 -1331 
L 922 3500 
L 1497 3500 
L 1394 2969 
z
" transform="scale(0.015625)"/>
       <path id="DejaVuSans-Oblique-75" d="M 428 1388 
L 838 3500 
L 1416 3500 
L 1006 1409 
Q 975 1256 961 1147 
Q 947 1038 947 966 
Q 947 700 1109 554 
Q 1272 409 1569 409 
Q 2031 409 2368 721 
Q 2706 1034 2809 1563 
L 3194 3500 
L 3769 3500 
L 3091 0 
L 2516 0 
L 2631 550 
Q 2388 244 2052 76 
Q 1716 -91 1338 -91 
Q 878 -91 622 161 
Q 366 413 366 863 
Q 366 956 381 1097 
Q 397 1238 428 1388 
z
" transform="scale(0.015625)"/>
       <path id="DejaVuSans-Oblique-67" d="M 3816 3500 
L 3219 434 
Q 3047 -456 2561 -893 
Q 2075 -1331 1253 -1331 
Q 950 -1331 690 -1286 
Q 431 -1241 206 -1147 
L 313 -588 
Q 525 -725 762 -790 
Q 1000 -856 1269 -856 
Q 1816 -856 2167 -557 
Q 2519 -259 2631 300 
L 2681 563 
Q 2441 288 2122 144 
Q 1803 0 1434 0 
Q 903 0 598 351 
Q 294 703 294 1319 
Q 294 1803 478 2267 
Q 663 2731 997 3091 
Q 1219 3328 1514 3456 
Q 1809 3584 2131 3584 
Q 2484 3584 2746 3420 
Q 3009 3256 3138 2956 
L 3238 3500 
L 3816 3500 
z
M 2950 2216 
Q 2950 2641 2750 2872 
Q 2550 3103 2181 3103 
Q 1953 3103 1747 3012 
Q 1541 2922 1394 2759 
Q 1156 2491 1023 2127 
Q 891 1763 891 1375 
Q 891 944 1092 712 
Q 1294 481 1672 481 
Q 2219 481 2584 976 
Q 2950 1472 2950 2216 
z
" transform="scale(0.015625)"/>
      </defs>
      <use xlink:href="#DejaVuSans-Oblique-74" transform="translate(0 0.78125)"/>
      <use xlink:href="#DejaVuSans-Oblique-70" transform="translate(39.208984 -15.625) scale(0.7)"/>
      <use xlink:href="#DejaVuSans-Oblique-75" transform="translate(83.642578 -15.625) scale(0.7)"/>
      <use xlink:href="#DejaVuSans-Oblique-72" transform="translate(128.007812 -15.625) scale(0.7)"/>
      <use xlink:href="#DejaVuSans-Oblique-67" transform="translate(156.787109 -15.625) scale(0.7)"/>
      <use xlink:href="#DejaVuSans-Oblique-65" transform="translate(201.220703 -15.625) scale(0.7)"/>
     </g>
    </g>
   </g>
  </g>
  <g id="axes_2">
   <g id="patch_7">
    <path d="M 73.37 518.92 
L 458.251291 518.92 
L 458.251291 278.49 
L 73.37 278.49 
z
" style="fill: #ffffff"/>
   </g>
   <g id="matplotlib.axis_3">
    <g id="xtick_7">
     <g id="line2d_35">
      <path d="M 90.864604 518.92 
L 90.864604 278.49 
" clip-path="url(#p3d17228227)" style="fill: none; stroke: #b0b0b0; stroke-width: 0.8; stroke-linecap: square"/>
     </g>
     <g id="line2d_36">
      <g>
       <use xlink:href="#m1b3650419e" x="90.864604" y="518.92" style="stroke: #000000; stroke-width: 0.8"/>
      </g>
     </g>
     <g id="text_13">
      <!-- 0 -->
      <g transform="translate(85.774604 538.0775) scale(0.16 -0.16)">
       <use xlink:href="#DejaVuSans-30"/>
      </g>
     </g>
    </g>
    <g id="xtick_8">
     <g id="line2d_37">
      <path d="M 161.549873 518.92 
L 161.549873 278.49 
" clip-path="url(#p3d17228227)" style="fill: none; stroke: #b0b0b0; stroke-width: 0.8; stroke-linecap: square"/>
     </g>
     <g id="line2d_38">
      <g>
       <use xlink:href="#m1b3650419e" x="161.549873" y="518.92" style="stroke: #000000; stroke-width: 0.8"/>
      </g>
     </g>
     <g id="text_14">
      <!-- 20 -->
      <g transform="translate(151.369873 538.0775) scale(0.16 -0.16)">
       <use xlink:href="#DejaVuSans-32"/>
       <use xlink:href="#DejaVuSans-30" transform="translate(63.623047 0)"/>
      </g>
     </g>
    </g>
    <g id="xtick_9">
     <g id="line2d_39">
      <path d="M 232.235143 518.92 
L 232.235143 278.49 
" clip-path="url(#p3d17228227)" style="fill: none; stroke: #b0b0b0; stroke-width: 0.8; stroke-linecap: square"/>
     </g>
     <g id="line2d_40">
      <g>
       <use xlink:href="#m1b3650419e" x="232.235143" y="518.92" style="stroke: #000000; stroke-width: 0.8"/>
      </g>
     </g>
     <g id="text_15">
      <!-- 40 -->
      <g transform="translate(222.055143 538.0775) scale(0.16 -0.16)">
       <use xlink:href="#DejaVuSans-34"/>
       <use xlink:href="#DejaVuSans-30" transform="translate(63.623047 0)"/>
      </g>
     </g>
    </g>
    <g id="xtick_10">
     <g id="line2d_41">
      <path d="M 302.920412 518.92 
L 302.920412 278.49 
" clip-path="url(#p3d17228227)" style="fill: none; stroke: #b0b0b0; stroke-width: 0.8; stroke-linecap: square"/>
     </g>
     <g id="line2d_42">
      <g>
       <use xlink:href="#m1b3650419e" x="302.920412" y="518.92" style="stroke: #000000; stroke-width: 0.8"/>
      </g>
     </g>
     <g id="text_16">
      <!-- 60 -->
      <g transform="translate(292.740412 538.0775) scale(0.16 -0.16)">
       <use xlink:href="#DejaVuSans-36"/>
       <use xlink:href="#DejaVuSans-30" transform="translate(63.623047 0)"/>
      </g>
     </g>
    </g>
    <g id="xtick_11">
     <g id="line2d_43">
      <path d="M 373.605681 518.92 
L 373.605681 278.49 
" clip-path="url(#p3d17228227)" style="fill: none; stroke: #b0b0b0; stroke-width: 0.8; stroke-linecap: square"/>
     </g>
     <g id="line2d_44">
      <g>
       <use xlink:href="#m1b3650419e" x="373.605681" y="518.92" style="stroke: #000000; stroke-width: 0.8"/>
      </g>
     </g>
     <g id="text_17">
      <!-- 80 -->
      <g transform="translate(363.425681 538.0775) scale(0.16 -0.16)">
       <defs>
        <path id="DejaVuSans-38" d="M 2034 2216 
Q 1584 2216 1326 1975 
Q 1069 1734 1069 1313 
Q 1069 891 1326 650 
Q 1584 409 2034 409 
Q 2484 409 2743 651 
Q 3003 894 3003 1313 
Q 3003 1734 2745 1975 
Q 2488 2216 2034 2216 
z
M 1403 2484 
Q 997 2584 770 2862 
Q 544 3141 544 3541 
Q 544 4100 942 4425 
Q 1341 4750 2034 4750 
Q 2731 4750 3128 4425 
Q 3525 4100 3525 3541 
Q 3525 3141 3298 2862 
Q 3072 2584 2669 2484 
Q 3125 2378 3379 2068 
Q 3634 1759 3634 1313 
Q 3634 634 3220 271 
Q 2806 -91 2034 -91 
Q 1263 -91 848 271 
Q 434 634 434 1313 
Q 434 1759 690 2068 
Q 947 2378 1403 2484 
z
M 1172 3481 
Q 1172 3119 1398 2916 
Q 1625 2713 2034 2713 
Q 2441 2713 2670 2916 
Q 2900 3119 2900 3481 
Q 2900 3844 2670 4047 
Q 2441 4250 2034 4250 
Q 1625 4250 1398 4047 
Q 1172 3844 1172 3481 
z
" transform="scale(0.015625)"/>
       </defs>
       <use xlink:href="#DejaVuSans-38"/>
       <use xlink:href="#DejaVuSans-30" transform="translate(63.623047 0)"/>
      </g>
     </g>
    </g>
    <g id="xtick_12">
     <g id="line2d_45">
      <path d="M 444.290951 518.92 
L 444.290951 278.49 
" clip-path="url(#p3d17228227)" style="fill: none; stroke: #b0b0b0; stroke-width: 0.8; stroke-linecap: square"/>
     </g>
     <g id="line2d_46">
      <g>
       <use xlink:href="#m1b3650419e" x="444.290951" y="518.92" style="stroke: #000000; stroke-width: 0.8"/>
      </g>
     </g>
     <g id="text_18">
      <!-- 100 -->
      <g transform="translate(429.020951 538.0775) scale(0.16 -0.16)">
       <use xlink:href="#DejaVuSans-31"/>
       <use xlink:href="#DejaVuSans-30" transform="translate(63.623047 0)"/>
       <use xlink:href="#DejaVuSans-30" transform="translate(127.246094 0)"/>
      </g>
     </g>
    </g>
    <g id="text_19">
     <!-- Ciclo -->
     <g transform="translate(246.485646 557.5625) scale(0.16 -0.16)">
      <defs>
       <path id="DejaVuSans-43" d="M 4122 4306 
L 4122 3641 
Q 3803 3938 3442 4084 
Q 3081 4231 2675 4231 
Q 1875 4231 1450 3742 
Q 1025 3253 1025 2328 
Q 1025 1406 1450 917 
Q 1875 428 2675 428 
Q 3081 428 3442 575 
Q 3803 722 4122 1019 
L 4122 359 
Q 3791 134 3420 21 
Q 3050 -91 2638 -91 
Q 1578 -91 968 557 
Q 359 1206 359 2328 
Q 359 3453 968 4101 
Q 1578 4750 2638 4750 
Q 3056 4750 3426 4639 
Q 3797 4528 4122 4306 
z
" transform="scale(0.015625)"/>
       <path id="DejaVuSans-69" d="M 603 3500 
L 1178 3500 
L 1178 0 
L 603 0 
L 603 3500 
z
M 603 4863 
L 1178 4863 
L 1178 4134 
L 603 4134 
L 603 4863 
z
" transform="scale(0.015625)"/>
       <path id="DejaVuSans-63" d="M 3122 3366 
L 3122 2828 
Q 2878 2963 2633 3030 
Q 2388 3097 2138 3097 
Q 1578 3097 1268 2742 
Q 959 2388 959 1747 
Q 959 1106 1268 751 
Q 1578 397 2138 397 
Q 2388 397 2633 464 
Q 2878 531 3122 666 
L 3122 134 
Q 2881 22 2623 -34 
Q 2366 -91 2075 -91 
Q 1284 -91 818 406 
Q 353 903 353 1747 
Q 353 2603 823 3093 
Q 1294 3584 2113 3584 
Q 2378 3584 2631 3529 
Q 2884 3475 3122 3366 
z
" transform="scale(0.015625)"/>
       <path id="DejaVuSans-6c" d="M 603 4863 
L 1178 4863 
L 1178 0 
L 603 0 
L 603 4863 
z
" transform="scale(0.015625)"/>
      </defs>
      <use xlink:href="#DejaVuSans-43"/>
      <use xlink:href="#DejaVuSans-69" transform="translate(69.824219 0)"/>
      <use xlink:href="#DejaVuSans-63" transform="translate(97.607422 0)"/>
      <use xlink:href="#DejaVuSans-6c" transform="translate(152.587891 0)"/>
      <use xlink:href="#DejaVuSans-6f" transform="translate(180.371094 0)"/>
     </g>
    </g>
   </g>
   <g id="matplotlib.axis_4">
    <g id="ytick_8">
     <g id="line2d_47">
      <path d="M 73.37 489.870702 
L 458.251291 489.870702 
" clip-path="url(#p3d17228227)" style="fill: none; stroke: #b0b0b0; stroke-width: 0.8; stroke-linecap: square"/>
     </g>
     <g id="line2d_48">
      <g>
       <use xlink:href="#m123b055c14" x="73.37" y="489.870702" style="stroke: #000000; stroke-width: 0.8"/>
      </g>
     </g>
     <g id="text_20">
      <!-- 70 -->
      <g transform="translate(46.01 495.949452) scale(0.16 -0.16)">
       <use xlink:href="#DejaVuSans-37"/>
       <use xlink:href="#DejaVuSans-30" transform="translate(63.623047 0)"/>
      </g>
     </g>
    </g>
    <g id="ytick_9">
     <g id="line2d_49">
      <path d="M 73.37 428.898946 
L 458.251291 428.898946 
" clip-path="url(#p3d17228227)" style="fill: none; stroke: #b0b0b0; stroke-width: 0.8; stroke-linecap: square"/>
     </g>
     <g id="line2d_50">
      <g>
       <use xlink:href="#m123b055c14" x="73.37" y="428.898946" style="stroke: #000000; stroke-width: 0.8"/>
      </g>
     </g>
     <g id="text_21">
      <!-- 80 -->
      <g transform="translate(46.01 434.977696) scale(0.16 -0.16)">
       <use xlink:href="#DejaVuSans-38"/>
       <use xlink:href="#DejaVuSans-30" transform="translate(63.623047 0)"/>
      </g>
     </g>
    </g>
    <g id="ytick_10">
     <g id="line2d_51">
      <path d="M 73.37 367.927191 
L 458.251291 367.927191 
" clip-path="url(#p3d17228227)" style="fill: none; stroke: #b0b0b0; stroke-width: 0.8; stroke-linecap: square"/>
     </g>
     <g id="line2d_52">
      <g>
       <use xlink:href="#m123b055c14" x="73.37" y="367.927191" style="stroke: #000000; stroke-width: 0.8"/>
      </g>
     </g>
     <g id="text_22">
      <!-- 90 -->
      <g transform="translate(46.01 374.005941) scale(0.16 -0.16)">
       <defs>
        <path id="DejaVuSans-39" d="M 703 97 
L 703 672 
Q 941 559 1184 500 
Q 1428 441 1663 441 
Q 2288 441 2617 861 
Q 2947 1281 2994 2138 
Q 2813 1869 2534 1725 
Q 2256 1581 1919 1581 
Q 1219 1581 811 2004 
Q 403 2428 403 3163 
Q 403 3881 828 4315 
Q 1253 4750 1959 4750 
Q 2769 4750 3195 4129 
Q 3622 3509 3622 2328 
Q 3622 1225 3098 567 
Q 2575 -91 1691 -91 
Q 1453 -91 1209 -44 
Q 966 3 703 97 
z
M 1959 2075 
Q 2384 2075 2632 2365 
Q 2881 2656 2881 3163 
Q 2881 3666 2632 3958 
Q 2384 4250 1959 4250 
Q 1534 4250 1286 3958 
Q 1038 3666 1038 3163 
Q 1038 2656 1286 2365 
Q 1534 2075 1959 2075 
z
" transform="scale(0.015625)"/>
       </defs>
       <use xlink:href="#DejaVuSans-39"/>
       <use xlink:href="#DejaVuSans-30" transform="translate(63.623047 0)"/>
      </g>
     </g>
    </g>
    <g id="ytick_11">
     <g id="line2d_53">
      <path d="M 73.37 306.955435 
L 458.251291 306.955435 
" clip-path="url(#p3d17228227)" style="fill: none; stroke: #b0b0b0; stroke-width: 0.8; stroke-linecap: square"/>
     </g>
     <g id="line2d_54">
      <g>
       <use xlink:href="#m123b055c14" x="73.37" y="306.955435" style="stroke: #000000; stroke-width: 0.8"/>
      </g>
     </g>
     <g id="text_23">
      <!-- 100 -->
      <g transform="translate(35.83 313.034185) scale(0.16 -0.16)">
       <use xlink:href="#DejaVuSans-31"/>
       <use xlink:href="#DejaVuSans-30" transform="translate(63.623047 0)"/>
       <use xlink:href="#DejaVuSans-30" transform="translate(127.246094 0)"/>
      </g>
     </g>
    </g>
    <g id="text_24">
     <!-- KPIs -->
     <g transform="translate(28.5025 415.3025) rotate(-90) scale(0.16 -0.16)">
      <defs>
       <path id="DejaVuSans-4b" d="M 628 4666 
L 1259 4666 
L 1259 2694 
L 3353 4666 
L 4166 4666 
L 1850 2491 
L 4331 0 
L 3500 0 
L 1259 2247 
L 1259 0 
L 628 0 
L 628 4666 
z
" transform="scale(0.015625)"/>
       <path id="DejaVuSans-50" d="M 1259 4147 
L 1259 2394 
L 2053 2394 
Q 2494 2394 2734 2622 
Q 2975 2850 2975 3272 
Q 2975 3691 2734 3919 
Q 2494 4147 2053 4147 
L 1259 4147 
z
M 628 4666 
L 2053 4666 
Q 2838 4666 3239 4311 
Q 3641 3956 3641 3272 
Q 3641 2581 3239 2228 
Q 2838 1875 2053 1875 
L 1259 1875 
L 1259 0 
L 628 0 
L 628 4666 
z
" transform="scale(0.015625)"/>
       <path id="DejaVuSans-49" d="M 628 4666 
L 1259 4666 
L 1259 0 
L 628 0 
L 628 4666 
z
" transform="scale(0.015625)"/>
      </defs>
      <use xlink:href="#DejaVuSans-4b"/>
      <use xlink:href="#DejaVuSans-50" transform="translate(65.576172 0)"/>
      <use xlink:href="#DejaVuSans-49" transform="translate(125.878906 0)"/>
      <use xlink:href="#DejaVuSans-73" transform="translate(155.371094 0)"/>
     </g>
    </g>
   </g>
   <g id="line2d_55">
    <path d="M 90.864604 507.991364 
L 94.398868 500.915439 
L 97.933131 498.747279 
L 101.467395 498.225301 
L 105.001658 497.766307 
L 108.535921 497.236244 
L 112.070185 496.712692 
L 115.604448 496.347678 
L 119.138712 495.968296 
L 122.672975 495.644781 
L 126.207239 495.464348 
L 129.741502 495.262016 
L 133.275766 494.923643 
L 136.810029 494.654006 
L 140.344293 494.506489 
L 143.878556 494.415574 
L 147.41282 494.362637 
L 150.947083 494.34046 
L 154.481346 494.339177 
L 158.01561 494.35265 
L 161.549873 494.372673 
L 165.084137 494.398797 
L 168.6184 494.429305 
L 172.152664 494.46797 
L 175.686927 494.493464 
L 179.221191 494.510049 
L 182.755454 494.521572 
L 186.289718 494.529765 
L 189.823981 494.535655 
L 193.358245 494.539924 
L 196.892508 494.543045 
L 200.426772 494.545356 
L 203.961035 494.547099 
L 207.495298 494.548451 
L 211.029562 494.549547 
L 214.563825 494.550494 
L 218.098089 494.548489 
L 221.632352 494.550427 
L 225.166616 494.548954 
L 228.700879 494.548013 
L 232.235143 494.550967 
L 235.769406 494.5498 
L 239.30367 494.549149 
L 242.837933 494.552729 
L 246.372197 494.551381 
L 249.90646 494.550927 
L 253.440723 494.55078 
L 256.974987 494.550724 
L 260.50925 494.550696 
L 264.043514 494.550679 
L 267.577777 500.216045 
L 271.112041 500.783286 
L 274.646304 501.216564 
L 278.180568 501.49998 
L 281.714831 501.64765 
L 285.249095 501.732336 
L 288.783358 501.784839 
L 292.317622 501.763866 
L 295.851885 501.75412 
L 299.386149 501.765643 
L 302.920412 501.747042 
L 306.454675 501.752108 
L 309.988939 501.701016 
L 313.523202 501.643492 
L 317.057466 501.567228 
L 320.591729 501.51572 
L 324.125993 501.484668 
L 327.660256 501.47275 
L 331.19452 501.47303 
L 334.728783 501.472242 
L 338.263047 501.475359 
L 341.79731 501.482664 
L 345.331574 501.515718 
L 348.865837 501.53073 
L 352.4001 501.550721 
L 355.934364 501.560782 
L 359.468627 501.56655 
L 363.002891 501.599249 
L 366.537154 501.630753 
L 370.071418 501.622684 
L 373.605681 501.620449 
L 377.139945 501.646862 
L 380.674208 501.637288 
L 384.208472 501.634032 
L 387.742735 501.655746 
L 391.276999 501.652635 
L 394.811262 501.652089 
L 398.345525 501.651977 
L 401.879789 501.651901 
L 405.414052 501.651872 
L 408.948316 501.651816 
L 412.482579 501.651796 
L 416.016843 501.651811 
L 419.551106 501.651782 
L 423.08537 501.651719 
L 426.619633 501.651706 
L 430.153897 501.651677 
L 433.68816 501.651681 
L 437.222424 501.651664 
L 440.756687 501.651619 
" clip-path="url(#p3d17228227)" style="fill: none; stroke: #1f77b4; stroke-width: 1.5; stroke-linecap: square"/>
   </g>
   <g id="line2d_56">
    <path d="M 90.864604 494.643031 
L 94.398868 494.643031 
L 97.933131 494.643031 
L 101.467395 494.643031 
L 105.001658 494.643031 
L 108.535921 494.643031 
L 112.070185 494.643031 
L 115.604448 494.643031 
L 119.138712 494.643031 
L 122.672975 494.643031 
L 126.207239 494.643031 
L 129.741502 494.643031 
L 133.275766 494.643031 
L 136.810029 494.643031 
L 140.344293 494.643031 
L 143.878556 494.643031 
L 147.41282 494.643031 
L 150.947083 494.643031 
L 154.481346 494.643031 
L 158.01561 494.643031 
L 161.549873 494.643031 
L 165.084137 494.643031 
L 168.6184 494.643031 
L 172.152664 494.643031 
L 175.686927 494.643031 
L 179.221191 494.643031 
L 182.755454 494.643031 
L 186.289718 494.643031 
L 189.823981 494.643031 
L 193.358245 494.643031 
L 196.892508 494.643031 
L 200.426772 494.643031 
L 203.961035 494.643031 
L 207.495298 494.643031 
L 211.029562 494.643031 
L 214.563825 494.643031 
L 218.098089 494.643031 
L 221.632352 494.643031 
L 225.166616 494.643031 
L 228.700879 494.643031 
L 232.235143 494.643031 
L 235.769406 494.643031 
L 239.30367 494.643031 
L 242.837933 494.643031 
L 246.372197 494.643031 
L 249.90646 494.643031 
L 253.440723 494.643031 
L 256.974987 494.643031 
L 260.50925 494.643031 
L 264.043514 494.643031 
L 267.577777 501.906168 
L 271.112041 501.906168 
L 274.646304 501.906168 
L 278.180568 501.906168 
L 281.714831 501.906168 
L 285.249095 501.906168 
L 288.783358 501.906168 
L 292.317622 501.906168 
L 295.851885 501.906168 
L 299.386149 501.906168 
L 302.920412 501.906168 
L 306.454675 501.906168 
L 309.988939 501.906168 
L 313.523202 501.906168 
L 317.057466 501.906168 
L 320.591729 501.906168 
L 324.125993 501.906168 
L 327.660256 501.906168 
L 331.19452 501.906168 
L 334.728783 501.906168 
L 338.263047 501.906168 
L 341.79731 501.906168 
L 345.331574 501.906168 
L 348.865837 501.906168 
L 352.4001 501.906168 
L 355.934364 501.906168 
L 359.468627 501.906168 
L 363.002891 501.906168 
L 366.537154 501.906168 
L 370.071418 501.906168 
L 373.605681 501.906168 
L 377.139945 501.906168 
L 380.674208 501.906168 
L 384.208472 501.906168 
L 387.742735 501.906168 
L 391.276999 501.906168 
L 394.811262 501.906168 
L 398.345525 501.906168 
L 401.879789 501.906168 
L 405.414052 501.906168 
L 408.948316 501.906168 
L 412.482579 501.906168 
L 416.016843 501.906168 
L 419.551106 501.906168 
L 423.08537 501.906168 
L 426.619633 501.906168 
L 430.153897 501.906168 
L 433.68816 501.906168 
L 437.222424 501.906168 
L 440.756687 501.906168 
" clip-path="url(#p3d17228227)" style="fill: none; stroke-dasharray: 5.55,2.4; stroke-dashoffset: 0; stroke: #1f77b4; stroke-width: 1.5"/>
   </g>
   <g id="line2d_57">
    <path d="M 90.864604 386.495162 
L 94.398868 404.700037 
L 97.933131 415.392279 
L 101.467395 419.533165 
L 105.001658 421.236543 
L 108.535921 422.193913 
L 112.070185 422.811513 
L 115.604448 423.097382 
L 119.138712 423.229756 
L 122.672975 423.105113 
L 126.207239 422.760394 
L 129.741502 422.473711 
L 133.275766 422.223662 
L 136.810029 422.000686 
L 140.344293 421.698265 
L 143.878556 421.576702 
L 147.41282 421.49802 
L 150.947083 421.428343 
L 154.481346 421.347441 
L 158.01561 421.267218 
L 161.549873 421.201774 
L 165.084137 421.141929 
L 168.6184 421.100526 
L 172.152664 421.054582 
L 175.686927 421.039465 
L 179.221191 421.043312 
L 182.755454 421.057208 
L 186.289718 421.075705 
L 189.823981 421.095568 
L 193.358245 421.114948 
L 196.892508 421.132857 
L 200.426772 421.148829 
L 203.961035 421.162715 
L 207.495298 421.174543 
L 211.029562 421.184441 
L 214.563825 421.192575 
L 218.098089 421.20384 
L 221.632352 421.209541 
L 225.166616 421.216692 
L 228.700879 421.224561 
L 232.235143 421.225168 
L 235.769406 421.227721 
L 239.30367 421.231439 
L 242.837933 421.229372 
L 246.372197 421.228616 
L 249.90646 421.228689 
L 253.440723 421.228781 
L 256.974987 421.228809 
L 260.50925 421.228797 
L 264.043514 421.228766 
L 267.577777 409.421457 
L 271.112041 403.992043 
L 274.646304 401.279789 
L 278.180568 399.589521 
L 281.714831 398.295409 
L 285.249095 397.307127 
L 288.783358 396.511013 
L 292.317622 395.832614 
L 295.851885 395.20849 
L 299.386149 394.615001 
L 302.920412 394.010202 
L 306.454675 393.449008 
L 309.988939 393.061727 
L 313.523202 392.908668 
L 317.057466 392.887255 
L 320.591729 392.887153 
L 324.125993 392.866438 
L 327.660256 392.909614 
L 331.19452 392.872116 
L 334.728783 392.815914 
L 338.263047 392.76207 
L 341.79731 392.717188 
L 345.331574 392.669586 
L 348.865837 392.715299 
L 352.4001 392.684549 
L 355.934364 392.671796 
L 359.468627 392.671714 
L 363.002891 392.717098 
L 366.537154 392.69799 
L 370.071418 392.701226 
L 373.605681 392.711127 
L 377.139945 392.711425 
L 380.674208 392.718724 
L 384.208472 392.726931 
L 387.742735 392.770073 
L 391.276999 392.761761 
L 394.811262 392.758747 
L 398.345525 392.757188 
L 401.879789 392.756337 
L 405.414052 392.755439 
L 408.948316 392.75482 
L 412.482579 392.754019 
L 416.016843 392.753151 
L 419.551106 392.752578 
L 423.08537 392.752153 
L 426.619633 392.75147 
L 430.153897 392.751001 
L 433.68816 392.750324 
L 437.222424 392.749876 
L 440.756687 392.749547 
" clip-path="url(#p3d17228227)" style="fill: none; stroke: #ff7f0e; stroke-width: 1.5; stroke-linecap: square"/>
   </g>
   <g id="line2d_58">
    <path d="M 90.864604 421.249174 
L 94.398868 421.249174 
L 97.933131 421.249174 
L 101.467395 421.249174 
L 105.001658 421.249174 
L 108.535921 421.249174 
L 112.070185 421.249174 
L 115.604448 421.249174 
L 119.138712 421.249174 
L 122.672975 421.249174 
L 126.207239 421.249174 
L 129.741502 421.249174 
L 133.275766 421.249174 
L 136.810029 421.249174 
L 140.344293 421.249174 
L 143.878556 421.249174 
L 147.41282 421.249174 
L 150.947083 421.249174 
L 154.481346 421.249174 
L 158.01561 421.249174 
L 161.549873 421.249174 
L 165.084137 421.249174 
L 168.6184 421.249174 
L 172.152664 421.249174 
L 175.686927 421.249174 
L 179.221191 421.249174 
L 182.755454 421.249174 
L 186.289718 421.249174 
L 189.823981 421.249174 
L 193.358245 421.249174 
L 196.892508 421.249174 
L 200.426772 421.249174 
L 203.961035 421.249174 
L 207.495298 421.249174 
L 211.029562 421.249174 
L 214.563825 421.249174 
L 218.098089 421.249174 
L 221.632352 421.249174 
L 225.166616 421.249174 
L 228.700879 421.249174 
L 232.235143 421.249174 
L 235.769406 421.249174 
L 239.30367 421.249174 
L 242.837933 421.249174 
L 246.372197 421.249174 
L 249.90646 421.249174 
L 253.440723 421.249174 
L 256.974987 421.249174 
L 260.50925 421.249174 
L 264.043514 421.249174 
L 267.577777 392.810757 
L 271.112041 392.810757 
L 274.646304 392.810757 
L 278.180568 392.810757 
L 281.714831 392.810757 
L 285.249095 392.810757 
L 288.783358 392.810757 
L 292.317622 392.810757 
L 295.851885 392.810757 
L 299.386149 392.810757 
L 302.920412 392.810757 
L 306.454675 392.810757 
L 309.988939 392.810757 
L 313.523202 392.810757 
L 317.057466 392.810757 
L 320.591729 392.810757 
L 324.125993 392.810757 
L 327.660256 392.810757 
L 331.19452 392.810757 
L 334.728783 392.810757 
L 338.263047 392.810757 
L 341.79731 392.810757 
L 345.331574 392.810757 
L 348.865837 392.810757 
L 352.4001 392.810757 
L 355.934364 392.810757 
L 359.468627 392.810757 
L 363.002891 392.810757 
L 366.537154 392.810757 
L 370.071418 392.810757 
L 373.605681 392.810757 
L 377.139945 392.810757 
L 380.674208 392.810757 
L 384.208472 392.810757 
L 387.742735 392.810757 
L 391.276999 392.810757 
L 394.811262 392.810757 
L 398.345525 392.810757 
L 401.879789 392.810757 
L 405.414052 392.810757 
L 408.948316 392.810757 
L 412.482579 392.810757 
L 416.016843 392.810757 
L 419.551106 392.810757 
L 423.08537 392.810757 
L 426.619633 392.810757 
L 430.153897 392.810757 
L 433.68816 392.810757 
L 437.222424 392.810757 
L 440.756687 392.810757 
" clip-path="url(#p3d17228227)" style="fill: none; stroke-dasharray: 5.55,2.4; stroke-dashoffset: 0; stroke: #ff7f0e; stroke-width: 1.5"/>
   </g>
   <g id="line2d_59">
    <path d="M 90.864604 365.14381 
L 94.398868 289.418636 
L 97.933131 294.753044 
L 101.467395 297.770513 
L 105.001658 299.44993 
L 108.535921 300.45239 
L 112.070185 301.09113 
L 115.604448 301.345572 
L 119.138712 301.350986 
L 122.672975 301.374116 
L 126.207239 300.844835 
L 129.741502 300.203246 
L 133.275766 300.032736 
L 136.810029 299.817422 
L 140.344293 299.616928 
L 143.878556 299.48952 
L 147.41282 299.34929 
L 150.947083 299.21541 
L 154.481346 299.137595 
L 158.01561 299.017424 
L 161.549873 298.880963 
L 165.084137 298.825803 
L 168.6184 298.77624 
L 172.152664 298.770867 
L 175.686927 298.761404 
L 179.221191 298.777717 
L 182.755454 298.800545 
L 186.289718 298.82418 
L 189.823981 298.8465 
L 193.358245 298.866605 
L 196.892508 298.884181 
L 200.426772 298.899218 
L 203.961035 298.911867 
L 207.495298 298.922353 
L 211.029562 298.930922 
L 214.563825 298.937807 
L 218.098089 298.942589 
L 221.632352 298.952598 
L 225.166616 298.955062 
L 228.700879 298.959042 
L 232.235143 298.96541 
L 235.769406 298.9658 
L 239.30367 298.967416 
L 242.837933 298.967831 
L 246.372197 298.972834 
L 249.90646 298.975084 
L 253.440723 298.975752 
L 256.974987 298.975901 
L 260.50925 298.975874 
L 264.043514 298.975787 
L 267.577777 315.135822 
L 271.112041 312.001716 
L 274.646304 310.229262 
L 278.180568 309.01441 
L 281.714831 308.228307 
L 285.249095 307.154402 
L 288.783358 306.193502 
L 292.317622 305.317622 
L 295.851885 304.625744 
L 299.386149 303.946627 
L 302.920412 303.431653 
L 306.454675 302.915307 
L 309.988939 302.752133 
L 313.523202 302.701938 
L 317.057466 302.671703 
L 320.591729 302.638471 
L 324.125993 302.632617 
L 327.660256 302.559773 
L 331.19452 302.508269 
L 334.728783 302.465325 
L 338.263047 302.431416 
L 341.79731 302.404974 
L 345.331574 302.274348 
L 348.865837 302.347047 
L 352.4001 302.280583 
L 355.934364 302.270927 
L 359.468627 302.27311 
L 363.002891 302.317803 
L 366.537154 302.26964 
L 370.071418 302.31479 
L 373.605681 302.334161 
L 377.139945 302.292707 
L 380.674208 302.341446 
L 384.208472 302.358378 
L 387.742735 302.361427 
L 391.276999 302.38279 
L 394.811262 302.382993 
L 398.345525 302.382118 
L 401.879789 302.380333 
L 405.414052 302.379749 
L 408.948316 302.378189 
L 412.482579 302.377811 
L 416.016843 302.377216 
L 419.551106 302.375766 
L 423.08537 302.37466 
L 426.619633 302.374606 
L 430.153897 302.373403 
L 433.68816 302.373359 
L 437.222424 302.372217 
L 440.756687 302.371363 
" clip-path="url(#p3d17228227)" style="fill: none; stroke: #2ca02c; stroke-width: 1.5; stroke-linecap: square"/>
   </g>
   <g id="line2d_60">
    <path d="M 90.864604 298.952563 
L 94.398868 298.952563 
L 97.933131 298.952563 
L 101.467395 298.952563 
L 105.001658 298.952563 
L 108.535921 298.952563 
L 112.070185 298.952563 
L 115.604448 298.952563 
L 119.138712 298.952563 
L 122.672975 298.952563 
L 126.207239 298.952563 
L 129.741502 298.952563 
L 133.275766 298.952563 
L 136.810029 298.952563 
L 140.344293 298.952563 
L 143.878556 298.952563 
L 147.41282 298.952563 
L 150.947083 298.952563 
L 154.481346 298.952563 
L 158.01561 298.952563 
L 161.549873 298.952563 
L 165.084137 298.952563 
L 168.6184 298.952563 
L 172.152664 298.952563 
L 175.686927 298.952563 
L 179.221191 298.952563 
L 182.755454 298.952563 
L 186.289718 298.952563 
L 189.823981 298.952563 
L 193.358245 298.952563 
L 196.892508 298.952563 
L 200.426772 298.952563 
L 203.961035 298.952563 
L 207.495298 298.952563 
L 211.029562 298.952563 
L 214.563825 298.952563 
L 218.098089 298.952563 
L 221.632352 298.952563 
L 225.166616 298.952563 
L 228.700879 298.952563 
L 232.235143 298.952563 
L 235.769406 298.952563 
L 239.30367 298.952563 
L 242.837933 298.952563 
L 246.372197 298.952563 
L 249.90646 298.952563 
L 253.440723 298.952563 
L 256.974987 298.952563 
L 260.50925 298.952563 
L 264.043514 298.952563 
L 267.577777 302.379191 
L 271.112041 302.379191 
L 274.646304 302.379191 
L 278.180568 302.379191 
L 281.714831 302.379191 
L 285.249095 302.379191 
L 288.783358 302.379191 
L 292.317622 302.379191 
L 295.851885 302.379191 
L 299.386149 302.379191 
L 302.920412 302.379191 
L 306.454675 302.379191 
L 309.988939 302.379191 
L 313.523202 302.379191 
L 317.057466 302.379191 
L 320.591729 302.379191 
L 324.125993 302.379191 
L 327.660256 302.379191 
L 331.19452 302.379191 
L 334.728783 302.379191 
L 338.263047 302.379191 
L 341.79731 302.379191 
L 345.331574 302.379191 
L 348.865837 302.379191 
L 352.4001 302.379191 
L 355.934364 302.379191 
L 359.468627 302.379191 
L 363.002891 302.379191 
L 366.537154 302.379191 
L 370.071418 302.379191 
L 373.605681 302.379191 
L 377.139945 302.379191 
L 380.674208 302.379191 
L 384.208472 302.379191 
L 387.742735 302.379191 
L 391.276999 302.379191 
L 394.811262 302.379191 
L 398.345525 302.379191 
L 401.879789 302.379191 
L 405.414052 302.379191 
L 408.948316 302.379191 
L 412.482579 302.379191 
L 416.016843 302.379191 
L 419.551106 302.379191 
L 423.08537 302.379191 
L 426.619633 302.379191 
L 430.153897 302.379191 
L 433.68816 302.379191 
L 437.222424 302.379191 
L 440.756687 302.379191 
" clip-path="url(#p3d17228227)" style="fill: none; stroke-dasharray: 5.55,2.4; stroke-dashoffset: 0; stroke: #2ca02c; stroke-width: 1.5"/>
   </g>
   <g id="patch_8">
    <path d="M 73.37 518.92 
L 73.37 278.49 
" style="fill: none; stroke: #000000; stroke-width: 0.8; stroke-linejoin: miter; stroke-linecap: square"/>
   </g>
   <g id="patch_9">
    <path d="M 458.251291 518.92 
L 458.251291 278.49 
" style="fill: none; stroke: #000000; stroke-width: 0.8; stroke-linejoin: miter; stroke-linecap: square"/>
   </g>
   <g id="patch_10">
    <path d="M 73.37 518.92 
L 458.251291 518.92 
" style="fill: none; stroke: #000000; stroke-width: 0.8; stroke-linejoin: miter; stroke-linecap: square"/>
   </g>
   <g id="patch_11">
    <path d="M 73.37 278.49 
L 458.251291 278.49 
" style="fill: none; stroke: #000000; stroke-width: 0.8; stroke-linejoin: miter; stroke-linecap: square"/>
   </g>
   <g id="legend_2">
    <g id="line2d_61">
     <path d="M 472.651291 338.4525 
L 488.651291 338.4525 
L 504.651291 338.4525 
" style="fill: none; stroke: #1f77b4; stroke-width: 1.5; stroke-linecap: square"/>
    </g>
    <g id="text_25">
     <!-- Pureza do H$_2$ -->
     <g transform="translate(517.451291 344.0525) scale(0.16 -0.16)">
      <defs>
       <path id="DejaVuSans-7a" d="M 353 3500 
L 3084 3500 
L 3084 2975 
L 922 459 
L 3084 459 
L 3084 0 
L 275 0 
L 275 525 
L 2438 3041 
L 353 3041 
L 353 3500 
z
" transform="scale(0.015625)"/>
       <path id="DejaVuSans-48" d="M 628 4666 
L 1259 4666 
L 1259 2753 
L 3553 2753 
L 3553 4666 
L 4184 4666 
L 4184 0 
L 3553 0 
L 3553 2222 
L 1259 2222 
L 1259 0 
L 628 0 
L 628 4666 
z
" transform="scale(0.015625)"/>
      </defs>
      <use xlink:href="#DejaVuSans-50" transform="translate(0 0.015625)"/>
      <use xlink:href="#DejaVuSans-75" transform="translate(60.302734 0.015625)"/>
      <use xlink:href="#DejaVuSans-72" transform="translate(123.681641 0.015625)"/>
      <use xlink:href="#DejaVuSans-65" transform="translate(164.794922 0.015625)"/>
      <use xlink:href="#DejaVuSans-7a" transform="translate(226.318359 0.015625)"/>
      <use xlink:href="#DejaVuSans-61" transform="translate(278.808594 0.015625)"/>
      <use xlink:href="#DejaVuSans-20" transform="translate(340.087891 0.015625)"/>
      <use xlink:href="#DejaVuSans-64" transform="translate(371.875 0.015625)"/>
      <use xlink:href="#DejaVuSans-6f" transform="translate(435.351562 0.015625)"/>
      <use xlink:href="#DejaVuSans-20" transform="translate(496.533203 0.015625)"/>
      <use xlink:href="#DejaVuSans-48" transform="translate(528.320312 0.015625)"/>
      <use xlink:href="#DejaVuSans-32" transform="translate(604.472656 -16.390625) scale(0.7)"/>
     </g>
    </g>
    <g id="line2d_62">
     <path d="M 472.651291 361.9375 
L 488.651291 361.9375 
L 504.651291 361.9375 
" style="fill: none; stroke-dasharray: 5.55,2.4; stroke-dashoffset: 0; stroke: #1f77b4; stroke-width: 1.5"/>
    </g>
    <g id="text_26">
     <!-- Pureza do H$_2$ (SP) -->
     <g transform="translate(517.451291 367.5375) scale(0.16 -0.16)">
      <defs>
       <path id="DejaVuSans-53" d="M 3425 4513 
L 3425 3897 
Q 3066 4069 2747 4153 
Q 2428 4238 2131 4238 
Q 1616 4238 1336 4038 
Q 1056 3838 1056 3469 
Q 1056 3159 1242 3001 
Q 1428 2844 1947 2747 
L 2328 2669 
Q 3034 2534 3370 2195 
Q 3706 1856 3706 1288 
Q 3706 609 3251 259 
Q 2797 -91 1919 -91 
Q 1588 -91 1214 -16 
Q 841 59 441 206 
L 441 856 
Q 825 641 1194 531 
Q 1563 422 1919 422 
Q 2459 422 2753 634 
Q 3047 847 3047 1241 
Q 3047 1584 2836 1778 
Q 2625 1972 2144 2069 
L 1759 2144 
Q 1053 2284 737 2584 
Q 422 2884 422 3419 
Q 422 4038 858 4394 
Q 1294 4750 2059 4750 
Q 2388 4750 2728 4690 
Q 3069 4631 3425 4513 
z
" transform="scale(0.015625)"/>
      </defs>
      <use xlink:href="#DejaVuSans-50" transform="translate(0 0.015625)"/>
      <use xlink:href="#DejaVuSans-75" transform="translate(60.302734 0.015625)"/>
      <use xlink:href="#DejaVuSans-72" transform="translate(123.681641 0.015625)"/>
      <use xlink:href="#DejaVuSans-65" transform="translate(164.794922 0.015625)"/>
      <use xlink:href="#DejaVuSans-7a" transform="translate(226.318359 0.015625)"/>
      <use xlink:href="#DejaVuSans-61" transform="translate(278.808594 0.015625)"/>
      <use xlink:href="#DejaVuSans-20" transform="translate(340.087891 0.015625)"/>
      <use xlink:href="#DejaVuSans-64" transform="translate(371.875 0.015625)"/>
      <use xlink:href="#DejaVuSans-6f" transform="translate(435.351562 0.015625)"/>
      <use xlink:href="#DejaVuSans-20" transform="translate(496.533203 0.015625)"/>
      <use xlink:href="#DejaVuSans-48" transform="translate(528.320312 0.015625)"/>
      <use xlink:href="#DejaVuSans-32" transform="translate(604.472656 -16.390625) scale(0.7)"/>
      <use xlink:href="#DejaVuSans-20" transform="translate(651.743164 0.015625)"/>
      <use xlink:href="#DejaVuSans-28" transform="translate(683.530273 0.015625)"/>
      <use xlink:href="#DejaVuSans-53" transform="translate(722.543945 0.015625)"/>
      <use xlink:href="#DejaVuSans-50" transform="translate(786.020508 0.015625)"/>
      <use xlink:href="#DejaVuSans-29" transform="translate(846.323242 0.015625)"/>
     </g>
    </g>
    <g id="line2d_63">
     <path d="M 472.651291 385.4225 
L 488.651291 385.4225 
L 504.651291 385.4225 
" style="fill: none; stroke: #ff7f0e; stroke-width: 1.5; stroke-linecap: square"/>
    </g>
    <g id="text_27">
     <!-- Pureza do CO$_2$ -->
     <g transform="translate(517.451291 391.0225) scale(0.16 -0.16)">
      <defs>
       <path id="DejaVuSans-4f" d="M 2522 4238 
Q 1834 4238 1429 3725 
Q 1025 3213 1025 2328 
Q 1025 1447 1429 934 
Q 1834 422 2522 422 
Q 3209 422 3611 934 
Q 4013 1447 4013 2328 
Q 4013 3213 3611 3725 
Q 3209 4238 2522 4238 
z
M 2522 4750 
Q 3503 4750 4090 4092 
Q 4678 3434 4678 2328 
Q 4678 1225 4090 567 
Q 3503 -91 2522 -91 
Q 1538 -91 948 565 
Q 359 1222 359 2328 
Q 359 3434 948 4092 
Q 1538 4750 2522 4750 
z
" transform="scale(0.015625)"/>
      </defs>
      <use xlink:href="#DejaVuSans-50" transform="translate(0 0.015625)"/>
      <use xlink:href="#DejaVuSans-75" transform="translate(60.302734 0.015625)"/>
      <use xlink:href="#DejaVuSans-72" transform="translate(123.681641 0.015625)"/>
      <use xlink:href="#DejaVuSans-65" transform="translate(164.794922 0.015625)"/>
      <use xlink:href="#DejaVuSans-7a" transform="translate(226.318359 0.015625)"/>
      <use xlink:href="#DejaVuSans-61" transform="translate(278.808594 0.015625)"/>
      <use xlink:href="#DejaVuSans-20" transform="translate(340.087891 0.015625)"/>
      <use xlink:href="#DejaVuSans-64" transform="translate(371.875 0.015625)"/>
      <use xlink:href="#DejaVuSans-6f" transform="translate(435.351562 0.015625)"/>
      <use xlink:href="#DejaVuSans-20" transform="translate(496.533203 0.015625)"/>
      <use xlink:href="#DejaVuSans-43" transform="translate(528.320312 0.015625)"/>
      <use xlink:href="#DejaVuSans-4f" transform="translate(598.144531 0.015625)"/>
      <use xlink:href="#DejaVuSans-32" transform="translate(677.8125 -16.390625) scale(0.7)"/>
     </g>
    </g>
    <g id="line2d_64">
     <path d="M 472.651291 408.9075 
L 488.651291 408.9075 
L 504.651291 408.9075 
" style="fill: none; stroke-dasharray: 5.55,2.4; stroke-dashoffset: 0; stroke: #ff7f0e; stroke-width: 1.5"/>
    </g>
    <g id="text_28">
     <!-- Pureza do CO$_2$ (SP) -->
     <g transform="translate(517.451291 414.5075) scale(0.16 -0.16)">
      <use xlink:href="#DejaVuSans-50" transform="translate(0 0.015625)"/>
      <use xlink:href="#DejaVuSans-75" transform="translate(60.302734 0.015625)"/>
      <use xlink:href="#DejaVuSans-72" transform="translate(123.681641 0.015625)"/>
      <use xlink:href="#DejaVuSans-65" transform="translate(164.794922 0.015625)"/>
      <use xlink:href="#DejaVuSans-7a" transform="translate(226.318359 0.015625)"/>
      <use xlink:href="#DejaVuSans-61" transform="translate(278.808594 0.015625)"/>
      <use xlink:href="#DejaVuSans-20" transform="translate(340.087891 0.015625)"/>
      <use xlink:href="#DejaVuSans-64" transform="translate(371.875 0.015625)"/>
      <use xlink:href="#DejaVuSans-6f" transform="translate(435.351562 0.015625)"/>
      <use xlink:href="#DejaVuSans-20" transform="translate(496.533203 0.015625)"/>
      <use xlink:href="#DejaVuSans-43" transform="translate(528.320312 0.015625)"/>
      <use xlink:href="#DejaVuSans-4f" transform="translate(598.144531 0.015625)"/>
      <use xlink:href="#DejaVuSans-32" transform="translate(677.8125 -16.390625) scale(0.7)"/>
      <use xlink:href="#DejaVuSans-20" transform="translate(725.083008 0.015625)"/>
      <use xlink:href="#DejaVuSans-28" transform="translate(756.870117 0.015625)"/>
      <use xlink:href="#DejaVuSans-53" transform="translate(795.883789 0.015625)"/>
      <use xlink:href="#DejaVuSans-50" transform="translate(859.360352 0.015625)"/>
      <use xlink:href="#DejaVuSans-29" transform="translate(919.663086 0.015625)"/>
     </g>
    </g>
    <g id="line2d_65">
     <path d="M 472.651291 432.715 
L 488.651291 432.715 
L 504.651291 432.715 
" style="fill: none; stroke: #2ca02c; stroke-width: 1.5; stroke-linecap: square"/>
    </g>
    <g id="text_29">
     <!-- Recuperação CO$_2$ -->
     <g transform="translate(517.451291 438.315) scale(0.16 -0.16)">
      <defs>
       <path id="DejaVuSans-52" d="M 2841 2188 
Q 3044 2119 3236 1894 
Q 3428 1669 3622 1275 
L 4263 0 
L 3584 0 
L 2988 1197 
Q 2756 1666 2539 1819 
Q 2322 1972 1947 1972 
L 1259 1972 
L 1259 0 
L 628 0 
L 628 4666 
L 2053 4666 
Q 2853 4666 3247 4331 
Q 3641 3997 3641 3322 
Q 3641 2881 3436 2590 
Q 3231 2300 2841 2188 
z
M 1259 4147 
L 1259 2491 
L 2053 2491 
Q 2509 2491 2742 2702 
Q 2975 2913 2975 3322 
Q 2975 3731 2742 3939 
Q 2509 4147 2053 4147 
L 1259 4147 
z
" transform="scale(0.015625)"/>
      </defs>
      <use xlink:href="#DejaVuSans-52" transform="translate(0 0.3125)"/>
      <use xlink:href="#DejaVuSans-65" transform="translate(69.482422 0.3125)"/>
      <use xlink:href="#DejaVuSans-63" transform="translate(131.005859 0.3125)"/>
      <use xlink:href="#DejaVuSans-75" transform="translate(185.986328 0.3125)"/>
      <use xlink:href="#DejaVuSans-70" transform="translate(249.365234 0.3125)"/>
      <use xlink:href="#DejaVuSans-65" transform="translate(312.841797 0.3125)"/>
      <use xlink:href="#DejaVuSans-72" transform="translate(374.365234 0.3125)"/>
      <use xlink:href="#DejaVuSans-61" transform="translate(415.478516 0.3125)"/>
      <use xlink:href="#DejaVuSans-e7" transform="translate(476.757812 0.3125)"/>
      <use xlink:href="#DejaVuSans-e3" transform="translate(531.738281 0.3125)"/>
      <use xlink:href="#DejaVuSans-6f" transform="translate(593.017578 0.3125)"/>
      <use xlink:href="#DejaVuSans-20" transform="translate(654.199219 0.3125)"/>
      <use xlink:href="#DejaVuSans-43" transform="translate(685.986328 0.3125)"/>
      <use xlink:href="#DejaVuSans-4f" transform="translate(755.810547 0.3125)"/>
      <use xlink:href="#DejaVuSans-32" transform="translate(835.478516 -16.09375) scale(0.7)"/>
     </g>
    </g>
    <g id="line2d_66">
     <path d="M 472.651291 456.555 
L 488.651291 456.555 
L 504.651291 456.555 
" style="fill: none; stroke-dasharray: 5.55,2.4; stroke-dashoffset: 0; stroke: #2ca02c; stroke-width: 1.5"/>
    </g>
    <g id="text_30">
     <!-- Recuperação CO$_2$ (SP) -->
     <g transform="translate(517.451291 462.155) scale(0.16 -0.16)">
      <use xlink:href="#DejaVuSans-52" transform="translate(0 0.3125)"/>
      <use xlink:href="#DejaVuSans-65" transform="translate(69.482422 0.3125)"/>
      <use xlink:href="#DejaVuSans-63" transform="translate(131.005859 0.3125)"/>
      <use xlink:href="#DejaVuSans-75" transform="translate(185.986328 0.3125)"/>
      <use xlink:href="#DejaVuSans-70" transform="translate(249.365234 0.3125)"/>
      <use xlink:href="#DejaVuSans-65" transform="translate(312.841797 0.3125)"/>
      <use xlink:href="#DejaVuSans-72" transform="translate(374.365234 0.3125)"/>
      <use xlink:href="#DejaVuSans-61" transform="translate(415.478516 0.3125)"/>
      <use xlink:href="#DejaVuSans-e7" transform="translate(476.757812 0.3125)"/>
      <use xlink:href="#DejaVuSans-e3" transform="translate(531.738281 0.3125)"/>
      <use xlink:href="#DejaVuSans-6f" transform="translate(593.017578 0.3125)"/>
      <use xlink:href="#DejaVuSans-20" transform="translate(654.199219 0.3125)"/>
      <use xlink:href="#DejaVuSans-43" transform="translate(685.986328 0.3125)"/>
      <use xlink:href="#DejaVuSans-4f" transform="translate(755.810547 0.3125)"/>
      <use xlink:href="#DejaVuSans-32" transform="translate(835.478516 -16.09375) scale(0.7)"/>
      <use xlink:href="#DejaVuSans-20" transform="translate(882.749023 0.3125)"/>
      <use xlink:href="#DejaVuSans-28" transform="translate(914.536133 0.3125)"/>
      <use xlink:href="#DejaVuSans-53" transform="translate(953.549805 0.3125)"/>
      <use xlink:href="#DejaVuSans-50" transform="translate(1017.026367 0.3125)"/>
      <use xlink:href="#DejaVuSans-29" transform="translate(1077.329102 0.3125)"/>
     </g>
    </g>
   </g>
  </g>
 </g>
 <defs>
  <clipPath id="p4aadb6bb50">
   <rect x="73.37" y="17.28" width="384.881291" height="240.43"/>
  </clipPath>
  <clipPath id="p3d17228227">
   <rect x="73.37" y="278.49" width="384.881291" height="240.43"/>
  </clipPath>
 </defs>
</svg>
