<?xml version="1.0" encoding="utf-8" standalone="no"?>
<!DOCTYPE svg PUBLIC "-//W3C//DTD SVG 1.1//EN"
  "http://www.w3.org/Graphics/SVG/1.1/DTD/svg11.dtd">
<svg xmlns:xlink="http://www.w3.org/1999/xlink" width="720pt" height="720pt" viewBox="0 0 720 720" xmlns="http://www.w3.org/2000/svg" version="1.1">
 <metadata>
  <rdf:RDF xmlns:dc="http://purl.org/dc/elements/1.1/" xmlns:cc="http://creativecommons.org/ns#" xmlns:rdf="http://www.w3.org/1999/02/22-rdf-syntax-ns#">
   <cc:Work>
    <dc:type rdf:resource="http://purl.org/dc/dcmitype/StillImage"/>
    <dc:date>2025-12-05T03:04:29.210661</dc:date>
    <dc:format>image/svg+xml</dc:format>
    <dc:creator>
     <cc:Agent>
      <dc:title>Matplotlib v3.10.7, https://matplotlib.org/</dc:title>
     </cc:Agent>
    </dc:creator>
   </cc:Work>
  </rdf:RDF>
 </metadata>
 <defs>
  <style type="text/css">*{stroke-linejoin: round; stroke-linecap: butt}</style>
 </defs>
 <g id="figure_1">
  <g id="patch_1">
   <path d="M 0 720 
L 720 720 
L 720 0 
L 0 0 
z
" style="fill: #ffffff"/>
  </g>
  <g id="axes_1">
   <g id="patch_2">
    <path d="M 73.46 330.564745 
L 458.251291 330.564745 
L 458.251291 18.989491 
L 73.46 18.989491 
z
" style="fill: #ffffff"/>
   </g>
   <g id="matplotlib.axis_1">
    <g id="xtick_1">
     <g id="line2d_1">
      <path d="M 90.950513 330.564745 
L 90.950513 18.989491 
" clip-path="url(#p665ceadd32)" style="fill: none; stroke: #b0b0b0; stroke-width: 0.8; stroke-linecap: square"/>
     </g>
     <g id="line2d_2">
      <defs>
       <path id="mcb13b4f9ec" d="M 0 0 
L 0 3.5 
" style="stroke: #000000; stroke-width: 0.8"/>
      </defs>
      <g>
       <use xlink:href="#mcb13b4f9ec" x="90.950513" y="330.564745" style="stroke: #000000; stroke-width: 0.8"/>
      </g>
     </g>
    </g>
    <g id="xtick_2">
     <g id="line2d_3">
      <path d="M 161.619254 330.564745 
L 161.619254 18.989491 
" clip-path="url(#p665ceadd32)" style="fill: none; stroke: #b0b0b0; stroke-width: 0.8; stroke-linecap: square"/>
     </g>
     <g id="line2d_4">
      <g>
       <use xlink:href="#mcb13b4f9ec" x="161.619254" y="330.564745" style="stroke: #000000; stroke-width: 0.8"/>
      </g>
     </g>
    </g>
    <g id="xtick_3">
     <g id="line2d_5">
      <path d="M 232.287994 330.564745 
L 232.287994 18.989491 
" clip-path="url(#p665ceadd32)" style="fill: none; stroke: #b0b0b0; stroke-width: 0.8; stroke-linecap: square"/>
     </g>
     <g id="line2d_6">
      <g>
       <use xlink:href="#mcb13b4f9ec" x="232.287994" y="330.564745" style="stroke: #000000; stroke-width: 0.8"/>
      </g>
     </g>
    </g>
    <g id="xtick_4">
     <g id="line2d_7">
      <path d="M 302.956734 330.564745 
L 302.956734 18.989491 
" clip-path="url(#p665ceadd32)" style="fill: none; stroke: #b0b0b0; stroke-width: 0.8; stroke-linecap: square"/>
     </g>
     <g id="line2d_8">
      <g>
       <use xlink:href="#mcb13b4f9ec" x="302.956734" y="330.564745" style="stroke: #000000; stroke-width: 0.8"/>
      </g>
     </g>
    </g>
    <g id="xtick_5">
     <g id="line2d_9">
      <path d="M 373.625475 330.564745 
L 373.625475 18.989491 
" clip-path="url(#p665ceadd32)" style="fill: none; stroke: #b0b0b0; stroke-width: 0.8; stroke-linecap: square"/>
     </g>
     <g id="line2d_10">
      <g>
       <use xlink:href="#mcb13b4f9ec" x="373.625475" y="330.564745" style="stroke: #000000; stroke-width: 0.8"/>
      </g>
     </g>
    </g>
    <g id="xtick_6">
     <g id="line2d_11">
      <path d="M 444.294215 330.564745 
L 444.294215 18.989491 
" clip-path="url(#p665ceadd32)" style="fill: none; stroke: #b0b0b0; stroke-width: 0.8; stroke-linecap: square"/>
     </g>
     <g id="line2d_12">
      <g>
       <use xlink:href="#mcb13b4f9ec" x="444.294215" y="330.564745" style="stroke: #000000; stroke-width: 0.8"/>
      </g>
     </g>
    </g>
   </g>
   <g id="matplotlib.axis_2">
    <g id="ytick_1">
     <g id="line2d_13">
      <path d="M 73.46 306.969826 
L 458.251291 306.969826 
" clip-path="url(#p665ceadd32)" style="fill: none; stroke: #b0b0b0; stroke-width: 0.8; stroke-linecap: square"/>
     </g>
     <g id="line2d_14">
      <defs>
       <path id="m572970275b" d="M 0 0 
L -3.5 0 
" style="stroke: #000000; stroke-width: 0.8"/>
      </defs>
      <g>
       <use xlink:href="#m572970275b" x="73.46" y="306.969826" style="stroke: #000000; stroke-width: 0.8"/>
      </g>
     </g>
     <g id="text_1">
      <!-- 100 -->
      <g transform="translate(35.92 313.048576) scale(0.16 -0.16)">
       <defs>
        <path id="DejaVuSans-31" d="M 794 531 
L 1825 531 
L 1825 4091 
L 703 3866 
L 703 4441 
L 1819 4666 
L 2450 4666 
L 2450 531 
L 3481 531 
L 3481 0 
L 794 0 
L 794 531 
z
" transform="scale(0.015625)"/>
        <path id="DejaVuSans-30" d="M 2034 4250 
Q 1547 4250 1301 3770 
Q 1056 3291 1056 2328 
Q 1056 1369 1301 889 
Q 1547 409 2034 409 
Q 2525 409 2770 889 
Q 3016 1369 3016 2328 
Q 3016 3291 2770 3770 
Q 2525 4250 2034 4250 
z
M 2034 4750 
Q 2819 4750 3233 4129 
Q 3647 3509 3647 2328 
Q 3647 1150 3233 529 
Q 2819 -91 2034 -91 
Q 1250 -91 836 529 
Q 422 1150 422 2328 
Q 422 3509 836 4129 
Q 1250 4750 2034 4750 
z
" transform="scale(0.015625)"/>
       </defs>
       <use xlink:href="#DejaVuSans-31"/>
       <use xlink:href="#DejaVuSans-30" transform="translate(63.623047 0)"/>
       <use xlink:href="#DejaVuSans-30" transform="translate(127.246094 0)"/>
      </g>
     </g>
    </g>
    <g id="ytick_2">
     <g id="line2d_15">
      <path d="M 73.46 259.807785 
L 458.251291 259.807785 
" clip-path="url(#p665ceadd32)" style="fill: none; stroke: #b0b0b0; stroke-width: 0.8; stroke-linecap: square"/>
     </g>
     <g id="line2d_16">
      <g>
       <use xlink:href="#m572970275b" x="73.46" y="259.807785" style="stroke: #000000; stroke-width: 0.8"/>
      </g>
     </g>
     <g id="text_2">
      <!-- 200 -->
      <g transform="translate(35.92 265.886535) scale(0.16 -0.16)">
       <defs>
        <path id="DejaVuSans-32" d="M 1228 531 
L 3431 531 
L 3431 0 
L 469 0 
L 469 531 
Q 828 903 1448 1529 
Q 2069 2156 2228 2338 
Q 2531 2678 2651 2914 
Q 2772 3150 2772 3378 
Q 2772 3750 2511 3984 
Q 2250 4219 1831 4219 
Q 1534 4219 1204 4116 
Q 875 4013 500 3803 
L 500 4441 
Q 881 4594 1212 4672 
Q 1544 4750 1819 4750 
Q 2544 4750 2975 4387 
Q 3406 4025 3406 3419 
Q 3406 3131 3298 2873 
Q 3191 2616 2906 2266 
Q 2828 2175 2409 1742 
Q 1991 1309 1228 531 
z
" transform="scale(0.015625)"/>
       </defs>
       <use xlink:href="#DejaVuSans-32"/>
       <use xlink:href="#DejaVuSans-30" transform="translate(63.623047 0)"/>
       <use xlink:href="#DejaVuSans-30" transform="translate(127.246094 0)"/>
      </g>
     </g>
    </g>
    <g id="ytick_3">
     <g id="line2d_17">
      <path d="M 73.46 212.645744 
L 458.251291 212.645744 
" clip-path="url(#p665ceadd32)" style="fill: none; stroke: #b0b0b0; stroke-width: 0.8; stroke-linecap: square"/>
     </g>
     <g id="line2d_18">
      <g>
       <use xlink:href="#m572970275b" x="73.46" y="212.645744" style="stroke: #000000; stroke-width: 0.8"/>
      </g>
     </g>
     <g id="text_3">
      <!-- 300 -->
      <g transform="translate(35.92 218.724494) scale(0.16 -0.16)">
       <defs>
        <path id="DejaVuSans-33" d="M 2597 2516 
Q 3050 2419 3304 2112 
Q 3559 1806 3559 1356 
Q 3559 666 3084 287 
Q 2609 -91 1734 -91 
Q 1441 -91 1130 -33 
Q 819 25 488 141 
L 488 750 
Q 750 597 1062 519 
Q 1375 441 1716 441 
Q 2309 441 2620 675 
Q 2931 909 2931 1356 
Q 2931 1769 2642 2001 
Q 2353 2234 1838 2234 
L 1294 2234 
L 1294 2753 
L 1863 2753 
Q 2328 2753 2575 2939 
Q 2822 3125 2822 3475 
Q 2822 3834 2567 4026 
Q 2313 4219 1838 4219 
Q 1578 4219 1281 4162 
Q 984 4106 628 3988 
L 628 4550 
Q 988 4650 1302 4700 
Q 1616 4750 1894 4750 
Q 2613 4750 3031 4423 
Q 3450 4097 3450 3541 
Q 3450 3153 3228 2886 
Q 3006 2619 2597 2516 
z
" transform="scale(0.015625)"/>
       </defs>
       <use xlink:href="#DejaVuSans-33"/>
       <use xlink:href="#DejaVuSans-30" transform="translate(63.623047 0)"/>
       <use xlink:href="#DejaVuSans-30" transform="translate(127.246094 0)"/>
      </g>
     </g>
    </g>
    <g id="ytick_4">
     <g id="line2d_19">
      <path d="M 73.46 165.483703 
L 458.251291 165.483703 
" clip-path="url(#p665ceadd32)" style="fill: none; stroke: #b0b0b0; stroke-width: 0.8; stroke-linecap: square"/>
     </g>
     <g id="line2d_20">
      <g>
       <use xlink:href="#m572970275b" x="73.46" y="165.483703" style="stroke: #000000; stroke-width: 0.8"/>
      </g>
     </g>
     <g id="text_4">
      <!-- 400 -->
      <g transform="translate(35.92 171.562453) scale(0.16 -0.16)">
       <defs>
        <path id="DejaVuSans-34" d="M 2419 4116 
L 825 1625 
L 2419 1625 
L 2419 4116 
z
M 2253 4666 
L 3047 4666 
L 3047 1625 
L 3713 1625 
L 3713 1100 
L 3047 1100 
L 3047 0 
L 2419 0 
L 2419 1100 
L 313 1100 
L 313 1709 
L 2253 4666 
z
" transform="scale(0.015625)"/>
       </defs>
       <use xlink:href="#DejaVuSans-34"/>
       <use xlink:href="#DejaVuSans-30" transform="translate(63.623047 0)"/>
       <use xlink:href="#DejaVuSans-30" transform="translate(127.246094 0)"/>
      </g>
     </g>
    </g>
    <g id="ytick_5">
     <g id="line2d_21">
      <path d="M 73.46 118.321662 
L 458.251291 118.321662 
" clip-path="url(#p665ceadd32)" style="fill: none; stroke: #b0b0b0; stroke-width: 0.8; stroke-linecap: square"/>
     </g>
     <g id="line2d_22">
      <g>
       <use xlink:href="#m572970275b" x="73.46" y="118.321662" style="stroke: #000000; stroke-width: 0.8"/>
      </g>
     </g>
     <g id="text_5">
      <!-- 500 -->
      <g transform="translate(35.92 124.400412) scale(0.16 -0.16)">
       <defs>
        <path id="DejaVuSans-35" d="M 691 4666 
L 3169 4666 
L 3169 4134 
L 1269 4134 
L 1269 2991 
Q 1406 3038 1543 3061 
Q 1681 3084 1819 3084 
Q 2600 3084 3056 2656 
Q 3513 2228 3513 1497 
Q 3513 744 3044 326 
Q 2575 -91 1722 -91 
Q 1428 -91 1123 -41 
Q 819 9 494 109 
L 494 744 
Q 775 591 1075 516 
Q 1375 441 1709 441 
Q 2250 441 2565 725 
Q 2881 1009 2881 1497 
Q 2881 1984 2565 2268 
Q 2250 2553 1709 2553 
Q 1456 2553 1204 2497 
Q 953 2441 691 2322 
L 691 4666 
z
" transform="scale(0.015625)"/>
       </defs>
       <use xlink:href="#DejaVuSans-35"/>
       <use xlink:href="#DejaVuSans-30" transform="translate(63.623047 0)"/>
       <use xlink:href="#DejaVuSans-30" transform="translate(127.246094 0)"/>
      </g>
     </g>
    </g>
    <g id="ytick_6">
     <g id="line2d_23">
      <path d="M 73.46 71.159621 
L 458.251291 71.159621 
" clip-path="url(#p665ceadd32)" style="fill: none; stroke: #b0b0b0; stroke-width: 0.8; stroke-linecap: square"/>
     </g>
     <g id="line2d_24">
      <g>
       <use xlink:href="#m572970275b" x="73.46" y="71.159621" style="stroke: #000000; stroke-width: 0.8"/>
      </g>
     </g>
     <g id="text_6">
      <!-- 600 -->
      <g transform="translate(35.92 77.238371) scale(0.16 -0.16)">
       <defs>
        <path id="DejaVuSans-36" d="M 2113 2584 
Q 1688 2584 1439 2293 
Q 1191 2003 1191 1497 
Q 1191 994 1439 701 
Q 1688 409 2113 409 
Q 2538 409 2786 701 
Q 3034 994 3034 1497 
Q 3034 2003 2786 2293 
Q 2538 2584 2113 2584 
z
M 3366 4563 
L 3366 3988 
Q 3128 4100 2886 4159 
Q 2644 4219 2406 4219 
Q 1781 4219 1451 3797 
Q 1122 3375 1075 2522 
Q 1259 2794 1537 2939 
Q 1816 3084 2150 3084 
Q 2853 3084 3261 2657 
Q 3669 2231 3669 1497 
Q 3669 778 3244 343 
Q 2819 -91 2113 -91 
Q 1303 -91 875 529 
Q 447 1150 447 2328 
Q 447 3434 972 4092 
Q 1497 4750 2381 4750 
Q 2619 4750 2861 4703 
Q 3103 4656 3366 4563 
z
" transform="scale(0.015625)"/>
       </defs>
       <use xlink:href="#DejaVuSans-36"/>
       <use xlink:href="#DejaVuSans-30" transform="translate(63.623047 0)"/>
       <use xlink:href="#DejaVuSans-30" transform="translate(127.246094 0)"/>
      </g>
     </g>
    </g>
    <g id="ytick_7">
     <g id="line2d_25">
      <path d="M 73.46 23.99758 
L 458.251291 23.99758 
" clip-path="url(#p665ceadd32)" style="fill: none; stroke: #b0b0b0; stroke-width: 0.8; stroke-linecap: square"/>
     </g>
     <g id="line2d_26">
      <g>
       <use xlink:href="#m572970275b" x="73.46" y="23.99758" style="stroke: #000000; stroke-width: 0.8"/>
      </g>
     </g>
     <g id="text_7">
      <!-- 700 -->
      <g transform="translate(35.92 30.07633) scale(0.16 -0.16)">
       <defs>
        <path id="DejaVuSans-37" d="M 525 4666 
L 3525 4666 
L 3525 4397 
L 1831 0 
L 1172 0 
L 2766 4134 
L 525 4134 
L 525 4666 
z
" transform="scale(0.015625)"/>
       </defs>
       <use xlink:href="#DejaVuSans-37"/>
       <use xlink:href="#DejaVuSans-30" transform="translate(63.623047 0)"/>
       <use xlink:href="#DejaVuSans-30" transform="translate(127.246094 0)"/>
      </g>
     </g>
    </g>
    <g id="text_8">
     <!-- Duração da etapa / s -->
     <g transform="translate(28.5925 258.350868) rotate(-90) scale(0.16 -0.16)">
      <defs>
       <path id="DejaVuSans-44" d="M 1259 4147 
L 1259 519 
L 2022 519 
Q 2988 519 3436 956 
Q 3884 1394 3884 2338 
Q 3884 3275 3436 3711 
Q 2988 4147 2022 4147 
L 1259 4147 
z
M 628 4666 
L 1925 4666 
Q 3281 4666 3915 4102 
Q 4550 3538 4550 2338 
Q 4550 1131 3912 565 
Q 3275 0 1925 0 
L 628 0 
L 628 4666 
z
" transform="scale(0.015625)"/>
       <path id="DejaVuSans-75" d="M 544 1381 
L 544 3500 
L 1119 3500 
L 1119 1403 
Q 1119 906 1312 657 
Q 1506 409 1894 409 
Q 2359 409 2629 706 
Q 2900 1003 2900 1516 
L 2900 3500 
L 3475 3500 
L 3475 0 
L 2900 0 
L 2900 538 
Q 2691 219 2414 64 
Q 2138 -91 1772 -91 
Q 1169 -91 856 284 
Q 544 659 544 1381 
z
M 1991 3584 
L 1991 3584 
z
" transform="scale(0.015625)"/>
       <path id="DejaVuSans-72" d="M 2631 2963 
Q 2534 3019 2420 3045 
Q 2306 3072 2169 3072 
Q 1681 3072 1420 2755 
Q 1159 2438 1159 1844 
L 1159 0 
L 581 0 
L 581 3500 
L 1159 3500 
L 1159 2956 
Q 1341 3275 1631 3429 
Q 1922 3584 2338 3584 
Q 2397 3584 2469 3576 
Q 2541 3569 2628 3553 
L 2631 2963 
z
" transform="scale(0.015625)"/>
       <path id="DejaVuSans-61" d="M 2194 1759 
Q 1497 1759 1228 1600 
Q 959 1441 959 1056 
Q 959 750 1161 570 
Q 1363 391 1709 391 
Q 2188 391 2477 730 
Q 2766 1069 2766 1631 
L 2766 1759 
L 2194 1759 
z
M 3341 1997 
L 3341 0 
L 2766 0 
L 2766 531 
Q 2569 213 2275 61 
Q 1981 -91 1556 -91 
Q 1019 -91 701 211 
Q 384 513 384 1019 
Q 384 1609 779 1909 
Q 1175 2209 1959 2209 
L 2766 2209 
L 2766 2266 
Q 2766 2663 2505 2880 
Q 2244 3097 1772 3097 
Q 1472 3097 1187 3025 
Q 903 2953 641 2809 
L 641 3341 
Q 956 3463 1253 3523 
Q 1550 3584 1831 3584 
Q 2591 3584 2966 3190 
Q 3341 2797 3341 1997 
z
" transform="scale(0.015625)"/>
       <path id="DejaVuSans-e7" d="M 3122 3366 
L 3122 2828 
Q 2878 2963 2633 3030 
Q 2388 3097 2138 3097 
Q 1578 3097 1268 2742 
Q 959 2388 959 1747 
Q 959 1106 1268 751 
Q 1578 397 2138 397 
Q 2388 397 2633 464 
Q 2878 531 3122 666 
L 3122 134 
Q 2881 22 2623 -34 
Q 2366 -91 2075 -91 
Q 1284 -91 818 406 
Q 353 903 353 1747 
Q 353 2603 823 3093 
Q 1294 3584 2113 3584 
Q 2378 3584 2631 3529 
Q 2884 3475 3122 3366 
z
M 2311 0 
Q 2482 -194 2566 -358 
Q 2651 -522 2651 -672 
Q 2651 -950 2463 -1092 
Q 2276 -1234 1907 -1234 
Q 1764 -1234 1628 -1215 
Q 1492 -1197 1357 -1159 
L 1357 -750 
Q 1464 -803 1579 -826 
Q 1695 -850 1842 -850 
Q 2026 -850 2120 -775 
Q 2214 -700 2214 -556 
Q 2214 -463 2146 -327 
Q 2079 -191 1939 0 
L 2311 0 
z
" transform="scale(0.015625)"/>
       <path id="DejaVuSans-e3" d="M 2194 1759 
Q 1497 1759 1228 1600 
Q 959 1441 959 1056 
Q 959 750 1161 570 
Q 1363 391 1709 391 
Q 2188 391 2477 730 
Q 2766 1069 2766 1631 
L 2766 1759 
L 2194 1759 
z
M 3341 1997 
L 3341 0 
L 2766 0 
L 2766 531 
Q 2569 213 2275 61 
Q 1981 -91 1556 -91 
Q 1019 -91 701 211 
Q 384 513 384 1019 
Q 384 1609 779 1909 
Q 1175 2209 1959 2209 
L 2766 2209 
L 2766 2266 
Q 2766 2663 2505 2880 
Q 2244 3097 1772 3097 
Q 1472 3097 1187 3025 
Q 903 2953 641 2809 
L 641 3341 
Q 956 3463 1253 3523 
Q 1550 3584 1831 3584 
Q 2591 3584 2966 3190 
Q 3341 2797 3341 1997 
z
M 1844 4281 
L 1665 4453 
Q 1597 4516 1545 4545 
Q 1494 4575 1453 4575 
Q 1334 4575 1278 4461 
Q 1222 4347 1215 4091 
L 825 4091 
Q 831 4513 990 4742 
Q 1150 4972 1434 4972 
Q 1553 4972 1653 4928 
Q 1753 4884 1869 4781 
L 2047 4609 
Q 2115 4547 2167 4517 
Q 2219 4488 2259 4488 
Q 2378 4488 2434 4602 
Q 2490 4716 2497 4972 
L 2887 4972 
Q 2881 4550 2721 4320 
Q 2562 4091 2278 4091 
Q 2159 4091 2059 4134 
Q 1959 4178 1844 4281 
z
" transform="scale(0.015625)"/>
       <path id="DejaVuSans-6f" d="M 1959 3097 
Q 1497 3097 1228 2736 
Q 959 2375 959 1747 
Q 959 1119 1226 758 
Q 1494 397 1959 397 
Q 2419 397 2687 759 
Q 2956 1122 2956 1747 
Q 2956 2369 2687 2733 
Q 2419 3097 1959 3097 
z
M 1959 3584 
Q 2709 3584 3137 3096 
Q 3566 2609 3566 1747 
Q 3566 888 3137 398 
Q 2709 -91 1959 -91 
Q 1206 -91 779 398 
Q 353 888 353 1747 
Q 353 2609 779 3096 
Q 1206 3584 1959 3584 
z
" transform="scale(0.015625)"/>
       <path id="DejaVuSans-20" transform="scale(0.015625)"/>
       <path id="DejaVuSans-64" d="M 2906 2969 
L 2906 4863 
L 3481 4863 
L 3481 0 
L 2906 0 
L 2906 525 
Q 2725 213 2448 61 
Q 2172 -91 1784 -91 
Q 1150 -91 751 415 
Q 353 922 353 1747 
Q 353 2572 751 3078 
Q 1150 3584 1784 3584 
Q 2172 3584 2448 3432 
Q 2725 3281 2906 2969 
z
M 947 1747 
Q 947 1113 1208 752 
Q 1469 391 1925 391 
Q 2381 391 2643 752 
Q 2906 1113 2906 1747 
Q 2906 2381 2643 2742 
Q 2381 3103 1925 3103 
Q 1469 3103 1208 2742 
Q 947 2381 947 1747 
z
" transform="scale(0.015625)"/>
       <path id="DejaVuSans-65" d="M 3597 1894 
L 3597 1613 
L 953 1613 
Q 991 1019 1311 708 
Q 1631 397 2203 397 
Q 2534 397 2845 478 
Q 3156 559 3463 722 
L 3463 178 
Q 3153 47 2828 -22 
Q 2503 -91 2169 -91 
Q 1331 -91 842 396 
Q 353 884 353 1716 
Q 353 2575 817 3079 
Q 1281 3584 2069 3584 
Q 2775 3584 3186 3129 
Q 3597 2675 3597 1894 
z
M 3022 2063 
Q 3016 2534 2758 2815 
Q 2500 3097 2075 3097 
Q 1594 3097 1305 2825 
Q 1016 2553 972 2059 
L 3022 2063 
z
" transform="scale(0.015625)"/>
       <path id="DejaVuSans-74" d="M 1172 4494 
L 1172 3500 
L 2356 3500 
L 2356 3053 
L 1172 3053 
L 1172 1153 
Q 1172 725 1289 603 
Q 1406 481 1766 481 
L 2356 481 
L 2356 0 
L 1766 0 
Q 1100 0 847 248 
Q 594 497 594 1153 
L 594 3053 
L 172 3053 
L 172 3500 
L 594 3500 
L 594 4494 
L 1172 4494 
z
" transform="scale(0.015625)"/>
       <path id="DejaVuSans-70" d="M 1159 525 
L 1159 -1331 
L 581 -1331 
L 581 3500 
L 1159 3500 
L 1159 2969 
Q 1341 3281 1617 3432 
Q 1894 3584 2278 3584 
Q 2916 3584 3314 3078 
Q 3713 2572 3713 1747 
Q 3713 922 3314 415 
Q 2916 -91 2278 -91 
Q 1894 -91 1617 61 
Q 1341 213 1159 525 
z
M 3116 1747 
Q 3116 2381 2855 2742 
Q 2594 3103 2138 3103 
Q 1681 3103 1420 2742 
Q 1159 2381 1159 1747 
Q 1159 1113 1420 752 
Q 1681 391 2138 391 
Q 2594 391 2855 752 
Q 3116 1113 3116 1747 
z
" transform="scale(0.015625)"/>
       <path id="DejaVuSans-2f" d="M 1625 4666 
L 2156 4666 
L 531 -594 
L 0 -594 
L 1625 4666 
z
" transform="scale(0.015625)"/>
       <path id="DejaVuSans-73" d="M 2834 3397 
L 2834 2853 
Q 2591 2978 2328 3040 
Q 2066 3103 1784 3103 
Q 1356 3103 1142 2972 
Q 928 2841 928 2578 
Q 928 2378 1081 2264 
Q 1234 2150 1697 2047 
L 1894 2003 
Q 2506 1872 2764 1633 
Q 3022 1394 3022 966 
Q 3022 478 2636 193 
Q 2250 -91 1575 -91 
Q 1294 -91 989 -36 
Q 684 19 347 128 
L 347 722 
Q 666 556 975 473 
Q 1284 391 1588 391 
Q 1994 391 2212 530 
Q 2431 669 2431 922 
Q 2431 1156 2273 1281 
Q 2116 1406 1581 1522 
L 1381 1569 
Q 847 1681 609 1914 
Q 372 2147 372 2553 
Q 372 3047 722 3315 
Q 1072 3584 1716 3584 
Q 2034 3584 2315 3537 
Q 2597 3491 2834 3397 
z
" transform="scale(0.015625)"/>
      </defs>
      <use xlink:href="#DejaVuSans-44"/>
      <use xlink:href="#DejaVuSans-75" transform="translate(77.001953 0)"/>
      <use xlink:href="#DejaVuSans-72" transform="translate(140.380859 0)"/>
      <use xlink:href="#DejaVuSans-61" transform="translate(181.494141 0)"/>
      <use xlink:href="#DejaVuSans-e7" transform="translate(242.773438 0)"/>
      <use xlink:href="#DejaVuSans-e3" transform="translate(297.753906 0)"/>
      <use xlink:href="#DejaVuSans-6f" transform="translate(359.033203 0)"/>
      <use xlink:href="#DejaVuSans-20" transform="translate(420.214844 0)"/>
      <use xlink:href="#DejaVuSans-64" transform="translate(452.001953 0)"/>
      <use xlink:href="#DejaVuSans-61" transform="translate(515.478516 0)"/>
      <use xlink:href="#DejaVuSans-20" transform="translate(576.757812 0)"/>
      <use xlink:href="#DejaVuSans-65" transform="translate(608.544922 0)"/>
      <use xlink:href="#DejaVuSans-74" transform="translate(670.068359 0)"/>
      <use xlink:href="#DejaVuSans-61" transform="translate(709.277344 0)"/>
      <use xlink:href="#DejaVuSans-70" transform="translate(770.556641 0)"/>
      <use xlink:href="#DejaVuSans-61" transform="translate(834.033203 0)"/>
      <use xlink:href="#DejaVuSans-20" transform="translate(895.3125 0)"/>
      <use xlink:href="#DejaVuSans-2f" transform="translate(927.099609 0)"/>
      <use xlink:href="#DejaVuSans-20" transform="translate(960.791016 0)"/>
      <use xlink:href="#DejaVuSans-73" transform="translate(992.578125 0)"/>
     </g>
    </g>
   </g>
   <g id="line2d_27">
    <path d="M 90.950513 33.429988 
L 94.48395 36.90609 
L 98.017387 39.876408 
L 101.550824 45.089843 
L 105.084261 51.35819 
L 108.617698 57.613059 
L 112.151135 62.576926 
L 115.684572 65.741649 
L 119.218009 67.830593 
L 122.751446 69.359742 
L 126.284883 70.519791 
L 129.81832 70.821954 
L 133.351757 71.118486 
L 136.885194 70.723528 
L 140.418631 70.926514 
L 143.952069 70.995863 
L 147.485506 71.059028 
L 151.018943 71.098295 
L 154.55238 71.12337 
L 158.085817 71.139286 
L 161.619254 71.128305 
L 165.152691 71.098179 
L 168.686128 71.047392 
L 172.219565 71.033047 
L 175.753002 71.022881 
L 179.286439 71.013518 
L 182.819876 71.004764 
L 186.353313 70.996577 
L 189.88675 70.988925 
L 193.420187 70.981772 
L 196.953624 70.97507 
L 200.487061 70.968764 
L 204.020498 70.962792 
L 207.553935 70.957082 
L 211.087372 70.95155 
L 214.620809 70.946085 
L 218.154246 70.946393 
L 221.687683 70.940614 
L 225.22112 70.940713 
L 228.754557 70.940644 
L 232.287994 70.9342 
L 235.821431 70.934096 
L 239.354868 70.933863 
L 242.888305 70.926138 
L 246.421742 70.926111 
L 249.955179 70.926111 
L 253.488616 70.926111 
L 257.022053 70.926111 
L 260.55549 70.926111 
L 264.088927 70.926111 
L 267.622364 58.155874 
L 271.155801 50.375945 
L 274.689238 45.275583 
L 278.222675 41.829809 
L 281.756112 39.765561 
L 285.289549 38.546972 
L 288.822986 37.562192 
L 292.356423 37.288247 
L 295.88986 36.93898 
L 299.423297 36.439639 
L 302.956734 36.275573 
L 306.490171 36.085847 
L 310.023608 36.066627 
L 313.557045 36.104251 
L 317.090482 36.129928 
L 320.623919 36.137532 
L 324.157356 36.135729 
L 327.690793 35.624104 
L 331.22423 35.592368 
L 334.757667 35.548469 
L 338.291104 35.48964 
L 341.824541 35.409457 
L 345.357979 35.4071 
L 348.891416 34.616007 
L 352.424853 34.614206 
L 355.95829 34.611995 
L 359.491727 34.611995 
L 363.025164 33.919602 
L 366.558601 33.79571 
L 370.092038 33.795127 
L 373.625475 33.79448 
L 377.158912 33.68406 
L 380.692349 33.683403 
L 384.225786 33.682648 
L 387.759223 33.154612 
L 391.29266 33.153312 
L 394.826097 33.153125 
L 398.359534 33.152938 
L 401.892971 33.152938 
L 405.426408 33.152751 
L 408.959845 33.152751 
L 412.493282 33.152563 
L 416.026719 33.152377 
L 419.560156 33.152377 
L 423.093593 33.152377 
L 426.62703 33.152189 
L 430.160467 33.152189 
L 433.693904 33.152003 
L 437.227341 33.152003 
L 440.760778 33.152003 
" clip-path="url(#p665ceadd32)" style="fill: none; stroke: #1f77b4; stroke-width: 1.5; stroke-linecap: square"/>
   </g>
   <g id="line2d_28">
    <path d="M 90.950513 229.152458 
L 94.48395 261.047698 
L 98.017387 261.64694 
L 101.550824 256.675764 
L 105.084261 251.715076 
L 108.617698 247.74838 
L 112.151135 244.986881 
L 115.684572 242.973209 
L 119.218009 241.945099 
L 122.751446 241.41733 
L 126.284883 240.923781 
L 129.81832 241.043993 
L 133.351757 241.93644 
L 136.885194 243.286831 
L 140.418631 244.305454 
L 143.952069 245.245167 
L 147.485506 246.040105 
L 151.018943 246.675695 
L 154.55238 247.160815 
L 158.085817 247.52091 
L 161.619254 247.788443 
L 165.152691 247.959821 
L 168.686128 248.062233 
L 172.219565 248.058349 
L 175.753002 248.051653 
L 179.286439 248.041554 
L 182.819876 248.029434 
L 186.353313 248.016303 
L 189.88675 248.002893 
L 193.420187 247.989713 
L 196.953624 247.977077 
L 200.487061 247.965156 
L 204.020498 247.954008 
L 207.553935 247.943612 
L 211.087372 247.933884 
L 214.620809 247.924677 
L 218.154246 247.926077 
L 221.687683 247.914915 
L 225.22112 247.915668 
L 228.754557 247.915898 
L 232.287994 247.902633 
L 235.821431 247.9028 
L 239.354868 247.902596 
L 242.888305 247.888117 
L 246.421742 247.88813 
L 249.955179 247.88813 
L 253.488616 247.88813 
L 257.022053 247.88813 
L 260.55549 247.88813 
L 264.088927 247.88813 
L 267.622364 229.152458 
L 271.155801 229.152458 
L 274.689238 229.152458 
L 278.222675 229.152458 
L 281.756112 229.152458 
L 285.289549 229.152458 
L 288.822986 229.152458 
L 292.356423 229.152458 
L 295.88986 229.152458 
L 299.423297 229.152458 
L 302.956734 229.152458 
L 306.490171 229.152458 
L 310.023608 229.3786 
L 313.557045 229.700916 
L 317.090482 230.159799 
L 320.623919 230.577012 
L 324.157356 230.930072 
L 327.690793 231.404244 
L 331.22423 231.620147 
L 334.757667 231.817473 
L 338.291104 231.989995 
L 341.824541 232.138611 
L 345.357979 232.135702 
L 348.891416 232.431263 
L 352.424853 232.429275 
L 355.95829 232.427841 
L 359.491727 232.427841 
L 363.025164 232.57011 
L 366.558601 232.494843 
L 370.092038 232.495669 
L 373.625475 232.496222 
L 377.158912 232.42722 
L 380.692349 232.427764 
L 384.225786 232.428076 
L 387.759223 232.53279 
L 391.29266 232.531149 
L 394.826097 232.530949 
L 398.359534 232.530755 
L 401.892971 232.530755 
L 405.426408 232.530564 
L 408.959845 232.530564 
L 412.493282 232.530375 
L 416.026719 232.530194 
L 419.560156 232.530194 
L 423.093593 232.530194 
L 426.62703 232.530014 
L 430.160467 232.530014 
L 433.693904 232.52984 
L 437.227341 232.52984 
L 440.760778 232.52984 
" clip-path="url(#p665ceadd32)" style="fill: none; stroke: #ff7f0e; stroke-width: 1.5; stroke-linecap: square"/>
   </g>
   <g id="line2d_29">
    <path d="M 90.950513 292.821213 
L 94.48395 292.821213 
L 98.017387 289.701146 
L 101.550824 288.105009 
L 105.084261 288.105009 
L 108.617698 288.105009 
L 112.151135 288.105009 
L 115.684572 288.105009 
L 119.218009 288.105009 
L 122.751446 288.105009 
L 126.284883 288.105009 
L 129.81832 288.105009 
L 133.351757 288.105009 
L 136.885194 288.579554 
L 140.418631 290.219352 
L 143.952069 291.334403 
L 147.485506 292.069513 
L 151.018943 292.537572 
L 154.55238 292.771682 
L 158.085817 292.809783 
L 161.619254 292.821213 
L 165.152691 292.821213 
L 168.686128 292.821213 
L 172.219565 292.821213 
L 175.753002 292.796706 
L 179.286439 292.756404 
L 182.819876 292.708161 
L 186.353313 292.657569 
L 189.88675 292.608308 
L 193.420187 292.562605 
L 196.953624 292.521646 
L 200.487061 292.485905 
L 204.020498 292.455391 
L 207.553935 292.429825 
L 211.087372 292.408771 
L 214.620809 292.391721 
L 218.154246 292.390006 
L 221.687683 292.373822 
L 225.22112 292.372485 
L 228.754557 292.370992 
L 232.287994 292.356058 
L 235.821431 292.35518 
L 239.354868 292.354271 
L 242.888305 292.343733 
L 246.421742 292.343682 
L 249.955179 292.343682 
L 253.488616 292.343682 
L 257.022053 292.343682 
L 260.55549 292.343682 
L 264.088927 292.343682 
L 267.622364 288.105009 
L 271.155801 288.105009 
L 274.689238 288.105009 
L 278.222675 288.105009 
L 281.756112 288.105009 
L 285.289549 288.105009 
L 288.822986 288.105009 
L 292.356423 288.105009 
L 295.88986 288.105009 
L 299.423297 288.105009 
L 302.956734 288.105009 
L 306.490171 288.585328 
L 310.023608 289.952421 
L 313.557045 291.001203 
L 317.090482 291.740993 
L 320.623919 292.242273 
L 324.157356 292.571941 
L 327.690793 292.821213 
L 331.22423 292.821213 
L 334.757667 292.821213 
L 338.291104 292.821213 
L 341.824541 292.821213 
L 345.357979 292.821213 
L 348.891416 292.821213 
L 352.424853 292.821213 
L 355.95829 292.821213 
L 359.491727 292.821213 
L 363.025164 292.821213 
L 366.558601 292.821213 
L 370.092038 292.821213 
L 373.625475 292.821213 
L 377.158912 292.821213 
L 380.692349 292.821213 
L 384.225786 292.821213 
L 387.759223 292.821213 
L 391.29266 292.821213 
L 394.826097 292.821213 
L 398.359534 292.821213 
L 401.892971 292.821213 
L 405.426408 292.821213 
L 408.959845 292.821213 
L 412.493282 292.821213 
L 416.026719 292.821213 
L 419.560156 292.821213 
L 423.093593 292.821213 
L 426.62703 292.821213 
L 430.160467 292.821213 
L 433.693904 292.821213 
L 437.227341 292.821213 
L 440.760778 292.821213 
" clip-path="url(#p665ceadd32)" style="fill: none; stroke: #2ca02c; stroke-width: 1.5; stroke-linecap: square"/>
   </g>
   <g id="line2d_30">
    <path d="M 90.950513 316.402234 
L 94.48395 309.437447 
L 98.017387 307.541157 
L 101.550824 305.095467 
L 105.084261 303.100712 
L 108.617698 301.724648 
L 112.151135 300.850254 
L 115.684572 300.199374 
L 119.218009 299.89552 
L 122.751446 299.89552 
L 126.284883 299.89552 
L 129.81832 300.01098 
L 133.351757 300.557742 
L 136.885194 301.222252 
L 140.418631 301.822912 
L 143.952069 302.370314 
L 147.485506 302.839248 
L 151.018943 303.220688 
L 154.55238 303.534137 
L 158.085817 303.771583 
L 161.619254 303.935705 
L 165.152691 304.051518 
L 168.686128 304.116409 
L 172.219565 304.139364 
L 175.753002 304.142236 
L 179.286439 304.138046 
L 182.819876 304.129204 
L 186.353313 304.117795 
L 189.88675 304.105283 
L 193.420187 304.092612 
L 196.953624 304.080352 
L 200.487061 304.068817 
L 204.020498 304.058151 
L 207.553935 304.04838 
L 211.087372 304.039454 
L 214.620809 304.031263 
L 218.154246 304.026394 
L 221.687683 304.020202 
L 225.22112 304.016668 
L 228.754557 304.013816 
L 232.287994 304.008338 
L 235.821431 304.00605 
L 239.354868 304.00429 
L 242.888305 303.997976 
L 246.421742 303.997683 
L 249.955179 303.997683 
L 253.488616 303.997683 
L 257.022053 303.997683 
L 260.55549 303.997683 
L 264.088927 303.997683 
L 267.622364 301.27685 
L 271.155801 300.518801 
L 274.689238 300.117869 
L 278.222675 299.90225 
L 281.756112 299.89552 
L 285.289549 299.89552 
L 288.822986 299.89552 
L 292.356423 299.974211 
L 295.88986 300.065544 
L 299.423297 300.128189 
L 302.956734 300.267042 
L 306.490171 300.360242 
L 310.023608 300.52216 
L 313.557045 300.723664 
L 317.090482 300.963424 
L 320.623919 301.188292 
L 324.157356 301.395965 
L 327.690793 301.541876 
L 331.22423 301.682229 
L 334.757667 301.805717 
L 338.291104 301.910633 
L 341.824541 301.995629 
L 345.357979 302.004371 
L 348.891416 302.019911 
L 352.424853 302.024378 
L 355.95829 302.027254 
L 359.491727 302.027254 
L 363.025164 301.980594 
L 366.558601 301.923627 
L 370.092038 301.920711 
L 373.625475 301.917741 
L 377.158912 301.86313 
L 380.692349 301.860857 
L 384.225786 301.858644 
L 387.759223 301.812849 
L 391.29266 301.814506 
L 394.826097 301.814645 
L 398.359534 301.81478 
L 401.892971 301.81478 
L 405.426408 301.814928 
L 408.959845 301.814928 
L 412.493282 301.815085 
L 416.026719 301.815234 
L 419.560156 301.815234 
L 423.093593 301.815234 
L 426.62703 301.815399 
L 430.160467 301.815399 
L 433.693904 301.815564 
L 437.227341 301.815564 
L 440.760778 301.815564 
" clip-path="url(#p665ceadd32)" style="fill: none; stroke: #d62728; stroke-width: 1.5; stroke-linecap: square"/>
   </g>
   <g id="patch_3">
    <path d="M 73.46 330.564745 
L 73.46 18.989491 
" style="fill: none; stroke: #000000; stroke-width: 0.8; stroke-linejoin: miter; stroke-linecap: square"/>
   </g>
   <g id="patch_4">
    <path d="M 458.251291 330.564745 
L 458.251291 18.989491 
" style="fill: none; stroke: #000000; stroke-width: 0.8; stroke-linejoin: miter; stroke-linecap: square"/>
   </g>
   <g id="patch_5">
    <path d="M 73.46 330.564745 
L 458.251291 330.564745 
" style="fill: none; stroke: #000000; stroke-width: 0.8; stroke-linejoin: miter; stroke-linecap: square"/>
   </g>
   <g id="patch_6">
    <path d="M 73.46 18.989491 
L 458.251291 18.989491 
" style="fill: none; stroke: #000000; stroke-width: 0.8; stroke-linejoin: miter; stroke-linecap: square"/>
   </g>
   <g id="legend_1">
    <g id="line2d_31">
     <path d="M 472.651291 137.548368 
L 488.651291 137.548368 
L 504.651291 137.548368 
" style="fill: none; stroke: #1f77b4; stroke-width: 1.5; stroke-linecap: square"/>
    </g>
    <g id="text_9">
     <!-- $t_{feed}$ -->
     <g transform="translate(517.451291 143.148368) scale(0.16 -0.16)">
      <defs>
       <path id="DejaVuSans-Oblique-74" d="M 2706 3500 
L 2619 3053 
L 1472 3053 
L 1100 1153 
Q 1081 1047 1072 975 
Q 1063 903 1063 863 
Q 1063 663 1183 572 
Q 1303 481 1569 481 
L 2150 481 
L 2053 0 
L 1503 0 
Q 991 0 739 200 
Q 488 400 488 806 
Q 488 878 497 964 
Q 506 1050 525 1153 
L 897 3053 
L 409 3053 
L 500 3500 
L 978 3500 
L 1172 4494 
L 1747 4494 
L 1556 3500 
L 2706 3500 
z
" transform="scale(0.015625)"/>
       <path id="DejaVuSans-Oblique-66" d="M 3059 4863 
L 2969 4384 
L 2419 4384 
Q 2106 4384 1964 4261 
Q 1822 4138 1753 3809 
L 1691 3500 
L 2638 3500 
L 2553 3053 
L 1606 3053 
L 1013 0 
L 434 0 
L 1031 3053 
L 481 3053 
L 563 3500 
L 1113 3500 
L 1159 3744 
Q 1278 4363 1576 4613 
Q 1875 4863 2516 4863 
L 3059 4863 
z
" transform="scale(0.015625)"/>
       <path id="DejaVuSans-Oblique-65" d="M 3078 2063 
Q 3088 2113 3092 2166 
Q 3097 2219 3097 2272 
Q 3097 2653 2873 2875 
Q 2650 3097 2266 3097 
Q 1838 3097 1509 2826 
Q 1181 2556 1013 2059 
L 3078 2063 
z
M 3578 1613 
L 903 1613 
Q 884 1494 878 1425 
Q 872 1356 872 1306 
Q 872 872 1139 634 
Q 1406 397 1894 397 
Q 2269 397 2603 481 
Q 2938 566 3225 728 
L 3116 159 
Q 2806 34 2476 -28 
Q 2147 -91 1806 -91 
Q 1078 -91 686 257 
Q 294 606 294 1247 
Q 294 1794 489 2264 
Q 684 2734 1063 3103 
Q 1306 3334 1642 3459 
Q 1978 3584 2356 3584 
Q 2950 3584 3301 3228 
Q 3653 2872 3653 2272 
Q 3653 2128 3634 1964 
Q 3616 1800 3578 1613 
z
" transform="scale(0.015625)"/>
       <path id="DejaVuSans-Oblique-64" d="M 2675 525 
Q 2444 222 2128 65 
Q 1813 -91 1428 -91 
Q 903 -91 598 267 
Q 294 625 294 1247 
Q 294 1766 478 2236 
Q 663 2706 1013 3078 
Q 1244 3325 1534 3454 
Q 1825 3584 2144 3584 
Q 2481 3584 2739 3421 
Q 2997 3259 3138 2956 
L 3513 4863 
L 4091 4863 
L 3144 0 
L 2566 0 
L 2675 525 
z
M 891 1350 
Q 891 897 1095 644 
Q 1300 391 1663 391 
Q 1931 391 2161 520 
Q 2391 650 2566 903 
Q 2750 1166 2856 1509 
Q 2963 1853 2963 2188 
Q 2963 2622 2758 2865 
Q 2553 3109 2194 3109 
Q 1922 3109 1687 2981 
Q 1453 2853 1288 2613 
Q 1106 2353 998 2009 
Q 891 1666 891 1350 
z
" transform="scale(0.015625)"/>
      </defs>
      <use xlink:href="#DejaVuSans-Oblique-74" transform="translate(0 0.78125)"/>
      <use xlink:href="#DejaVuSans-Oblique-66" transform="translate(39.208984 -15.625) scale(0.7)"/>
      <use xlink:href="#DejaVuSans-Oblique-65" transform="translate(63.852539 -15.625) scale(0.7)"/>
      <use xlink:href="#DejaVuSans-Oblique-65" transform="translate(106.918945 -15.625) scale(0.7)"/>
      <use xlink:href="#DejaVuSans-Oblique-64" transform="translate(149.985352 -15.625) scale(0.7)"/>
     </g>
    </g>
    <g id="line2d_32">
     <path d="M 472.651291 161.033368 
L 488.651291 161.033368 
L 504.651291 161.033368 
" style="fill: none; stroke: #ff7f0e; stroke-width: 1.5; stroke-linecap: square"/>
    </g>
    <g id="text_10">
     <!-- $t_{rinse}$ -->
     <g transform="translate(517.451291 166.633368) scale(0.16 -0.16)">
      <defs>
       <path id="DejaVuSans-Oblique-72" d="M 2853 2969 
Q 2766 3016 2653 3041 
Q 2541 3066 2413 3066 
Q 1953 3066 1609 2717 
Q 1266 2369 1153 1784 
L 800 0 
L 225 0 
L 909 3500 
L 1484 3500 
L 1375 2956 
Q 1603 3259 1920 3421 
Q 2238 3584 2597 3584 
Q 2691 3584 2781 3573 
Q 2872 3563 2963 3538 
L 2853 2969 
z
" transform="scale(0.015625)"/>
       <path id="DejaVuSans-Oblique-69" d="M 1172 4863 
L 1747 4863 
L 1606 4134 
L 1031 4134 
L 1172 4863 
z
M 909 3500 
L 1484 3500 
L 800 0 
L 225 0 
L 909 3500 
z
" transform="scale(0.015625)"/>
       <path id="DejaVuSans-Oblique-6e" d="M 3566 2113 
L 3156 0 
L 2578 0 
L 2988 2091 
Q 3016 2238 3031 2350 
Q 3047 2463 3047 2528 
Q 3047 2791 2881 2937 
Q 2716 3084 2419 3084 
Q 1956 3084 1622 2776 
Q 1288 2469 1184 1941 
L 800 0 
L 225 0 
L 903 3500 
L 1478 3500 
L 1363 2950 
Q 1603 3253 1940 3418 
Q 2278 3584 2650 3584 
Q 3113 3584 3367 3334 
Q 3622 3084 3622 2631 
Q 3622 2519 3608 2391 
Q 3594 2263 3566 2113 
z
" transform="scale(0.015625)"/>
       <path id="DejaVuSans-Oblique-73" d="M 3200 3397 
L 3091 2853 
Q 2863 2978 2609 3040 
Q 2356 3103 2088 3103 
Q 1634 3103 1373 2948 
Q 1113 2794 1113 2528 
Q 1113 2219 1719 2053 
Q 1766 2041 1788 2034 
L 1972 1978 
Q 2547 1819 2739 1644 
Q 2931 1469 2931 1166 
Q 2931 609 2489 259 
Q 2047 -91 1331 -91 
Q 1053 -91 747 -37 
Q 441 16 72 128 
L 184 722 
Q 500 559 806 475 
Q 1113 391 1394 391 
Q 1816 391 2080 572 
Q 2344 753 2344 1031 
Q 2344 1331 1650 1516 
L 1591 1531 
L 1394 1581 
Q 956 1697 753 1886 
Q 550 2075 550 2369 
Q 550 2928 970 3256 
Q 1391 3584 2113 3584 
Q 2397 3584 2667 3537 
Q 2938 3491 3200 3397 
z
" transform="scale(0.015625)"/>
      </defs>
      <use xlink:href="#DejaVuSans-Oblique-74" transform="translate(0 0.78125)"/>
      <use xlink:href="#DejaVuSans-Oblique-72" transform="translate(39.208984 -15.625) scale(0.7)"/>
      <use xlink:href="#DejaVuSans-Oblique-69" transform="translate(67.988281 -15.625) scale(0.7)"/>
      <use xlink:href="#DejaVuSans-Oblique-6e" transform="translate(87.436523 -15.625) scale(0.7)"/>
      <use xlink:href="#DejaVuSans-Oblique-73" transform="translate(131.801758 -15.625) scale(0.7)"/>
      <use xlink:href="#DejaVuSans-Oblique-65" transform="translate(168.271484 -15.625) scale(0.7)"/>
     </g>
    </g>
    <g id="line2d_33">
     <path d="M 472.651291 184.518368 
L 488.651291 184.518368 
L 504.651291 184.518368 
" style="fill: none; stroke: #2ca02c; stroke-width: 1.5; stroke-linecap: square"/>
    </g>
    <g id="text_11">
     <!-- $t_{blow}$ -->
     <g transform="translate(517.451291 190.118368) scale(0.16 -0.16)">
      <defs>
       <path id="DejaVuSans-Oblique-62" d="M 3169 2138 
Q 3169 2591 2961 2847 
Q 2753 3103 2388 3103 
Q 2122 3103 1889 2973 
Q 1656 2844 1484 2597 
Q 1303 2338 1198 1995 
Q 1094 1653 1094 1313 
Q 1094 881 1298 636 
Q 1503 391 1863 391 
Q 2134 391 2365 517 
Q 2597 644 2772 891 
Q 2950 1147 3059 1487 
Q 3169 1828 3169 2138 
z
M 1381 2969 
Q 1594 3256 1914 3420 
Q 2234 3584 2584 3584 
Q 3122 3584 3439 3221 
Q 3756 2859 3756 2241 
Q 3756 1734 3570 1259 
Q 3384 784 3041 416 
Q 2816 172 2522 40 
Q 2228 -91 1906 -91 
Q 1566 -91 1316 65 
Q 1066 222 909 531 
L 806 0 
L 231 0 
L 1178 4863 
L 1753 4863 
L 1381 2969 
z
" transform="scale(0.015625)"/>
       <path id="DejaVuSans-Oblique-6c" d="M 1172 4863 
L 1747 4863 
L 800 0 
L 225 0 
L 1172 4863 
z
" transform="scale(0.015625)"/>
       <path id="DejaVuSans-Oblique-6f" d="M 1625 -91 
Q 1009 -91 651 289 
Q 294 669 294 1325 
Q 294 1706 417 2101 
Q 541 2497 738 2766 
Q 1047 3184 1428 3384 
Q 1809 3584 2291 3584 
Q 2888 3584 3255 3212 
Q 3622 2841 3622 2241 
Q 3622 1825 3500 1412 
Q 3378 1000 3181 728 
Q 2875 309 2494 109 
Q 2113 -91 1625 -91 
z
M 891 1344 
Q 891 869 1089 633 
Q 1288 397 1691 397 
Q 2269 397 2648 901 
Q 3028 1406 3028 2181 
Q 3028 2634 2825 2865 
Q 2622 3097 2228 3097 
Q 1903 3097 1650 2945 
Q 1397 2794 1197 2484 
Q 1050 2253 970 1956 
Q 891 1659 891 1344 
z
" transform="scale(0.015625)"/>
       <path id="DejaVuSans-Oblique-77" d="M 544 3500 
L 1113 3500 
L 1259 684 
L 2566 3500 
L 3231 3500 
L 3425 684 
L 4666 3500 
L 5241 3500 
L 3641 0 
L 2969 0 
L 2797 2900 
L 1459 0 
L 781 0 
L 544 3500 
z
" transform="scale(0.015625)"/>
      </defs>
      <use xlink:href="#DejaVuSans-Oblique-74" transform="translate(0 0.78125)"/>
      <use xlink:href="#DejaVuSans-Oblique-62" transform="translate(39.208984 -15.625) scale(0.7)"/>
      <use xlink:href="#DejaVuSans-Oblique-6c" transform="translate(83.642578 -15.625) scale(0.7)"/>
      <use xlink:href="#DejaVuSans-Oblique-6f" transform="translate(103.09082 -15.625) scale(0.7)"/>
      <use xlink:href="#DejaVuSans-Oblique-77" transform="translate(145.917969 -15.625) scale(0.7)"/>
     </g>
    </g>
    <g id="line2d_34">
     <path d="M 472.651291 208.003368 
L 488.651291 208.003368 
L 504.651291 208.003368 
" style="fill: none; stroke: #d62728; stroke-width: 1.5; stroke-linecap: square"/>
    </g>
    <g id="text_12">
     <!-- $t_{purge}$ -->
     <g transform="translate(517.451291 213.603368) scale(0.16 -0.16)">
      <defs>
       <path id="DejaVuSans-Oblique-70" d="M 3175 2156 
Q 3175 2616 2975 2859 
Q 2775 3103 2400 3103 
Q 2144 3103 1911 2972 
Q 1678 2841 1497 2591 
Q 1319 2344 1212 1994 
Q 1106 1644 1106 1300 
Q 1106 863 1306 627 
Q 1506 391 1875 391 
Q 2147 391 2380 519 
Q 2613 647 2778 891 
Q 2956 1147 3065 1494 
Q 3175 1841 3175 2156 
z
M 1394 2969 
Q 1625 3272 1939 3428 
Q 2253 3584 2638 3584 
Q 3175 3584 3472 3232 
Q 3769 2881 3769 2247 
Q 3769 1728 3584 1258 
Q 3400 788 3053 416 
Q 2822 169 2531 39 
Q 2241 -91 1919 -91 
Q 1547 -91 1294 64 
Q 1041 219 916 525 
L 556 -1331 
L -19 -1331 
L 922 3500 
L 1497 3500 
L 1394 2969 
z
" transform="scale(0.015625)"/>
       <path id="DejaVuSans-Oblique-75" d="M 428 1388 
L 838 3500 
L 1416 3500 
L 1006 1409 
Q 975 1256 961 1147 
Q 947 1038 947 966 
Q 947 700 1109 554 
Q 1272 409 1569 409 
Q 2031 409 2368 721 
Q 2706 1034 2809 1563 
L 3194 3500 
L 3769 3500 
L 3091 0 
L 2516 0 
L 2631 550 
Q 2388 244 2052 76 
Q 1716 -91 1338 -91 
Q 878 -91 622 161 
Q 366 413 366 863 
Q 366 956 381 1097 
Q 397 1238 428 1388 
z
" transform="scale(0.015625)"/>
       <path id="DejaVuSans-Oblique-67" d="M 3816 3500 
L 3219 434 
Q 3047 -456 2561 -893 
Q 2075 -1331 1253 -1331 
Q 950 -1331 690 -1286 
Q 431 -1241 206 -1147 
L 313 -588 
Q 525 -725 762 -790 
Q 1000 -856 1269 -856 
Q 1816 -856 2167 -557 
Q 2519 -259 2631 300 
L 2681 563 
Q 2441 288 2122 144 
Q 1803 0 1434 0 
Q 903 0 598 351 
Q 294 703 294 1319 
Q 294 1803 478 2267 
Q 663 2731 997 3091 
Q 1219 3328 1514 3456 
Q 1809 3584 2131 3584 
Q 2484 3584 2746 3420 
Q 3009 3256 3138 2956 
L 3238 3500 
L 3816 3500 
z
M 2950 2216 
Q 2950 2641 2750 2872 
Q 2550 3103 2181 3103 
Q 1953 3103 1747 3012 
Q 1541 2922 1394 2759 
Q 1156 2491 1023 2127 
Q 891 1763 891 1375 
Q 891 944 1092 712 
Q 1294 481 1672 481 
Q 2219 481 2584 976 
Q 2950 1472 2950 2216 
z
" transform="scale(0.015625)"/>
      </defs>
      <use xlink:href="#DejaVuSans-Oblique-74" transform="translate(0 0.78125)"/>
      <use xlink:href="#DejaVuSans-Oblique-70" transform="translate(39.208984 -15.625) scale(0.7)"/>
      <use xlink:href="#DejaVuSans-Oblique-75" transform="translate(83.642578 -15.625) scale(0.7)"/>
      <use xlink:href="#DejaVuSans-Oblique-72" transform="translate(128.007812 -15.625) scale(0.7)"/>
      <use xlink:href="#DejaVuSans-Oblique-67" transform="translate(156.787109 -15.625) scale(0.7)"/>
      <use xlink:href="#DejaVuSans-Oblique-65" transform="translate(201.220703 -15.625) scale(0.7)"/>
     </g>
    </g>
   </g>
  </g>
  <g id="axes_2">
   <g id="patch_7">
    <path d="M 73.46 662.92 
L 458.251291 662.92 
L 458.251291 351.344745 
L 73.46 351.344745 
z
" style="fill: #ffffff"/>
   </g>
   <g id="matplotlib.axis_3">
    <g id="xtick_7">
     <g id="line2d_35">
      <path d="M 90.950513 662.92 
L 90.950513 351.344745 
" clip-path="url(#pafebf1dbb8)" style="fill: none; stroke: #b0b0b0; stroke-width: 0.8; stroke-linecap: square"/>
     </g>
     <g id="line2d_36">
      <g>
       <use xlink:href="#mcb13b4f9ec" x="90.950513" y="662.92" style="stroke: #000000; stroke-width: 0.8"/>
      </g>
     </g>
     <g id="text_13">
      <!-- 0 -->
      <g transform="translate(85.860513 682.0775) scale(0.16 -0.16)">
       <use xlink:href="#DejaVuSans-30"/>
      </g>
     </g>
    </g>
    <g id="xtick_8">
     <g id="line2d_37">
      <path d="M 161.619254 662.92 
L 161.619254 351.344745 
" clip-path="url(#pafebf1dbb8)" style="fill: none; stroke: #b0b0b0; stroke-width: 0.8; stroke-linecap: square"/>
     </g>
     <g id="line2d_38">
      <g>
       <use xlink:href="#mcb13b4f9ec" x="161.619254" y="662.92" style="stroke: #000000; stroke-width: 0.8"/>
      </g>
     </g>
     <g id="text_14">
      <!-- 20 -->
      <g transform="translate(151.439254 682.0775) scale(0.16 -0.16)">
       <use xlink:href="#DejaVuSans-32"/>
       <use xlink:href="#DejaVuSans-30" transform="translate(63.623047 0)"/>
      </g>
     </g>
    </g>
    <g id="xtick_9">
     <g id="line2d_39">
      <path d="M 232.287994 662.92 
L 232.287994 351.344745 
" clip-path="url(#pafebf1dbb8)" style="fill: none; stroke: #b0b0b0; stroke-width: 0.8; stroke-linecap: square"/>
     </g>
     <g id="line2d_40">
      <g>
       <use xlink:href="#mcb13b4f9ec" x="232.287994" y="662.92" style="stroke: #000000; stroke-width: 0.8"/>
      </g>
     </g>
     <g id="text_15">
      <!-- 40 -->
      <g transform="translate(222.107994 682.0775) scale(0.16 -0.16)">
       <use xlink:href="#DejaVuSans-34"/>
       <use xlink:href="#DejaVuSans-30" transform="translate(63.623047 0)"/>
      </g>
     </g>
    </g>
    <g id="xtick_10">
     <g id="line2d_41">
      <path d="M 302.956734 662.92 
L 302.956734 351.344745 
" clip-path="url(#pafebf1dbb8)" style="fill: none; stroke: #b0b0b0; stroke-width: 0.8; stroke-linecap: square"/>
     </g>
     <g id="line2d_42">
      <g>
       <use xlink:href="#mcb13b4f9ec" x="302.956734" y="662.92" style="stroke: #000000; stroke-width: 0.8"/>
      </g>
     </g>
     <g id="text_16">
      <!-- 60 -->
      <g transform="translate(292.776734 682.0775) scale(0.16 -0.16)">
       <use xlink:href="#DejaVuSans-36"/>
       <use xlink:href="#DejaVuSans-30" transform="translate(63.623047 0)"/>
      </g>
     </g>
    </g>
    <g id="xtick_11">
     <g id="line2d_43">
      <path d="M 373.625475 662.92 
L 373.625475 351.344745 
" clip-path="url(#pafebf1dbb8)" style="fill: none; stroke: #b0b0b0; stroke-width: 0.8; stroke-linecap: square"/>
     </g>
     <g id="line2d_44">
      <g>
       <use xlink:href="#mcb13b4f9ec" x="373.625475" y="662.92" style="stroke: #000000; stroke-width: 0.8"/>
      </g>
     </g>
     <g id="text_17">
      <!-- 80 -->
      <g transform="translate(363.445475 682.0775) scale(0.16 -0.16)">
       <defs>
        <path id="DejaVuSans-38" d="M 2034 2216 
Q 1584 2216 1326 1975 
Q 1069 1734 1069 1313 
Q 1069 891 1326 650 
Q 1584 409 2034 409 
Q 2484 409 2743 651 
Q 3003 894 3003 1313 
Q 3003 1734 2745 1975 
Q 2488 2216 2034 2216 
z
M 1403 2484 
Q 997 2584 770 2862 
Q 544 3141 544 3541 
Q 544 4100 942 4425 
Q 1341 4750 2034 4750 
Q 2731 4750 3128 4425 
Q 3525 4100 3525 3541 
Q 3525 3141 3298 2862 
Q 3072 2584 2669 2484 
Q 3125 2378 3379 2068 
Q 3634 1759 3634 1313 
Q 3634 634 3220 271 
Q 2806 -91 2034 -91 
Q 1263 -91 848 271 
Q 434 634 434 1313 
Q 434 1759 690 2068 
Q 947 2378 1403 2484 
z
M 1172 3481 
Q 1172 3119 1398 2916 
Q 1625 2713 2034 2713 
Q 2441 2713 2670 2916 
Q 2900 3119 2900 3481 
Q 2900 3844 2670 4047 
Q 2441 4250 2034 4250 
Q 1625 4250 1398 4047 
Q 1172 3844 1172 3481 
z
" transform="scale(0.015625)"/>
       </defs>
       <use xlink:href="#DejaVuSans-38"/>
       <use xlink:href="#DejaVuSans-30" transform="translate(63.623047 0)"/>
      </g>
     </g>
    </g>
    <g id="xtick_12">
     <g id="line2d_45">
      <path d="M 444.294215 662.92 
L 444.294215 351.344745 
" clip-path="url(#pafebf1dbb8)" style="fill: none; stroke: #b0b0b0; stroke-width: 0.8; stroke-linecap: square"/>
     </g>
     <g id="line2d_46">
      <g>
       <use xlink:href="#mcb13b4f9ec" x="444.294215" y="662.92" style="stroke: #000000; stroke-width: 0.8"/>
      </g>
     </g>
     <g id="text_18">
      <!-- 100 -->
      <g transform="translate(429.024215 682.0775) scale(0.16 -0.16)">
       <use xlink:href="#DejaVuSans-31"/>
       <use xlink:href="#DejaVuSans-30" transform="translate(63.623047 0)"/>
       <use xlink:href="#DejaVuSans-30" transform="translate(127.246094 0)"/>
      </g>
     </g>
    </g>
    <g id="text_19">
     <!-- Ciclo -->
     <g transform="translate(246.530646 701.5625) scale(0.16 -0.16)">
      <defs>
       <path id="DejaVuSans-43" d="M 4122 4306 
L 4122 3641 
Q 3803 3938 3442 4084 
Q 3081 4231 2675 4231 
Q 1875 4231 1450 3742 
Q 1025 3253 1025 2328 
Q 1025 1406 1450 917 
Q 1875 428 2675 428 
Q 3081 428 3442 575 
Q 3803 722 4122 1019 
L 4122 359 
Q 3791 134 3420 21 
Q 3050 -91 2638 -91 
Q 1578 -91 968 557 
Q 359 1206 359 2328 
Q 359 3453 968 4101 
Q 1578 4750 2638 4750 
Q 3056 4750 3426 4639 
Q 3797 4528 4122 4306 
z
" transform="scale(0.015625)"/>
       <path id="DejaVuSans-69" d="M 603 3500 
L 1178 3500 
L 1178 0 
L 603 0 
L 603 3500 
z
M 603 4863 
L 1178 4863 
L 1178 4134 
L 603 4134 
L 603 4863 
z
" transform="scale(0.015625)"/>
       <path id="DejaVuSans-63" d="M 3122 3366 
L 3122 2828 
Q 2878 2963 2633 3030 
Q 2388 3097 2138 3097 
Q 1578 3097 1268 2742 
Q 959 2388 959 1747 
Q 959 1106 1268 751 
Q 1578 397 2138 397 
Q 2388 397 2633 464 
Q 2878 531 3122 666 
L 3122 134 
Q 2881 22 2623 -34 
Q 2366 -91 2075 -91 
Q 1284 -91 818 406 
Q 353 903 353 1747 
Q 353 2603 823 3093 
Q 1294 3584 2113 3584 
Q 2378 3584 2631 3529 
Q 2884 3475 3122 3366 
z
" transform="scale(0.015625)"/>
       <path id="DejaVuSans-6c" d="M 603 4863 
L 1178 4863 
L 1178 0 
L 603 0 
L 603 4863 
z
" transform="scale(0.015625)"/>
      </defs>
      <use xlink:href="#DejaVuSans-43"/>
      <use xlink:href="#DejaVuSans-69" transform="translate(69.824219 0)"/>
      <use xlink:href="#DejaVuSans-63" transform="translate(97.607422 0)"/>
      <use xlink:href="#DejaVuSans-6c" transform="translate(152.587891 0)"/>
      <use xlink:href="#DejaVuSans-6f" transform="translate(180.371094 0)"/>
     </g>
    </g>
   </g>
   <g id="matplotlib.axis_4">
    <g id="ytick_8">
     <g id="line2d_47">
      <path d="M 73.46 625.274771 
L 458.251291 625.274771 
" clip-path="url(#pafebf1dbb8)" style="fill: none; stroke: #b0b0b0; stroke-width: 0.8; stroke-linecap: square"/>
     </g>
     <g id="line2d_48">
      <g>
       <use xlink:href="#m572970275b" x="73.46" y="625.274771" style="stroke: #000000; stroke-width: 0.8"/>
      </g>
     </g>
     <g id="text_20">
      <!-- 70 -->
      <g transform="translate(46.1 631.353521) scale(0.16 -0.16)">
       <use xlink:href="#DejaVuSans-37"/>
       <use xlink:href="#DejaVuSans-30" transform="translate(63.623047 0)"/>
      </g>
     </g>
    </g>
    <g id="ytick_9">
     <g id="line2d_49">
      <path d="M 73.46 585.767866 
L 458.251291 585.767866 
" clip-path="url(#pafebf1dbb8)" style="fill: none; stroke: #b0b0b0; stroke-width: 0.8; stroke-linecap: square"/>
     </g>
     <g id="line2d_50">
      <g>
       <use xlink:href="#m572970275b" x="73.46" y="585.767866" style="stroke: #000000; stroke-width: 0.8"/>
      </g>
     </g>
     <g id="text_21">
      <!-- 75 -->
      <g transform="translate(46.1 591.846616) scale(0.16 -0.16)">
       <use xlink:href="#DejaVuSans-37"/>
       <use xlink:href="#DejaVuSans-35" transform="translate(63.623047 0)"/>
      </g>
     </g>
    </g>
    <g id="ytick_10">
     <g id="line2d_51">
      <path d="M 73.46 546.260961 
L 458.251291 546.260961 
" clip-path="url(#pafebf1dbb8)" style="fill: none; stroke: #b0b0b0; stroke-width: 0.8; stroke-linecap: square"/>
     </g>
     <g id="line2d_52">
      <g>
       <use xlink:href="#m572970275b" x="73.46" y="546.260961" style="stroke: #000000; stroke-width: 0.8"/>
      </g>
     </g>
     <g id="text_22">
      <!-- 80 -->
      <g transform="translate(46.1 552.339711) scale(0.16 -0.16)">
       <use xlink:href="#DejaVuSans-38"/>
       <use xlink:href="#DejaVuSans-30" transform="translate(63.623047 0)"/>
      </g>
     </g>
    </g>
    <g id="ytick_11">
     <g id="line2d_53">
      <path d="M 73.46 506.754056 
L 458.251291 506.754056 
" clip-path="url(#pafebf1dbb8)" style="fill: none; stroke: #b0b0b0; stroke-width: 0.8; stroke-linecap: square"/>
     </g>
     <g id="line2d_54">
      <g>
       <use xlink:href="#m572970275b" x="73.46" y="506.754056" style="stroke: #000000; stroke-width: 0.8"/>
      </g>
     </g>
     <g id="text_23">
      <!-- 85 -->
      <g transform="translate(46.1 512.832806) scale(0.16 -0.16)">
       <use xlink:href="#DejaVuSans-38"/>
       <use xlink:href="#DejaVuSans-35" transform="translate(63.623047 0)"/>
      </g>
     </g>
    </g>
    <g id="ytick_12">
     <g id="line2d_55">
      <path d="M 73.46 467.247151 
L 458.251291 467.247151 
" clip-path="url(#pafebf1dbb8)" style="fill: none; stroke: #b0b0b0; stroke-width: 0.8; stroke-linecap: square"/>
     </g>
     <g id="line2d_56">
      <g>
       <use xlink:href="#m572970275b" x="73.46" y="467.247151" style="stroke: #000000; stroke-width: 0.8"/>
      </g>
     </g>
     <g id="text_24">
      <!-- 90 -->
      <g transform="translate(46.1 473.325901) scale(0.16 -0.16)">
       <defs>
        <path id="DejaVuSans-39" d="M 703 97 
L 703 672 
Q 941 559 1184 500 
Q 1428 441 1663 441 
Q 2288 441 2617 861 
Q 2947 1281 2994 2138 
Q 2813 1869 2534 1725 
Q 2256 1581 1919 1581 
Q 1219 1581 811 2004 
Q 403 2428 403 3163 
Q 403 3881 828 4315 
Q 1253 4750 1959 4750 
Q 2769 4750 3195 4129 
Q 3622 3509 3622 2328 
Q 3622 1225 3098 567 
Q 2575 -91 1691 -91 
Q 1453 -91 1209 -44 
Q 966 3 703 97 
z
M 1959 2075 
Q 2384 2075 2632 2365 
Q 2881 2656 2881 3163 
Q 2881 3666 2632 3958 
Q 2384 4250 1959 4250 
Q 1534 4250 1286 3958 
Q 1038 3666 1038 3163 
Q 1038 2656 1286 2365 
Q 1534 2075 1959 2075 
z
" transform="scale(0.015625)"/>
       </defs>
       <use xlink:href="#DejaVuSans-39"/>
       <use xlink:href="#DejaVuSans-30" transform="translate(63.623047 0)"/>
      </g>
     </g>
    </g>
    <g id="ytick_13">
     <g id="line2d_57">
      <path d="M 73.46 427.740246 
L 458.251291 427.740246 
" clip-path="url(#pafebf1dbb8)" style="fill: none; stroke: #b0b0b0; stroke-width: 0.8; stroke-linecap: square"/>
     </g>
     <g id="line2d_58">
      <g>
       <use xlink:href="#m572970275b" x="73.46" y="427.740246" style="stroke: #000000; stroke-width: 0.8"/>
      </g>
     </g>
     <g id="text_25">
      <!-- 95 -->
      <g transform="translate(46.1 433.818996) scale(0.16 -0.16)">
       <use xlink:href="#DejaVuSans-39"/>
       <use xlink:href="#DejaVuSans-35" transform="translate(63.623047 0)"/>
      </g>
     </g>
    </g>
    <g id="ytick_14">
     <g id="line2d_59">
      <path d="M 73.46 388.233342 
L 458.251291 388.233342 
" clip-path="url(#pafebf1dbb8)" style="fill: none; stroke: #b0b0b0; stroke-width: 0.8; stroke-linecap: square"/>
     </g>
     <g id="line2d_60">
      <g>
       <use xlink:href="#m572970275b" x="73.46" y="388.233342" style="stroke: #000000; stroke-width: 0.8"/>
      </g>
     </g>
     <g id="text_26">
      <!-- 100 -->
      <g transform="translate(35.92 394.312092) scale(0.16 -0.16)">
       <use xlink:href="#DejaVuSans-31"/>
       <use xlink:href="#DejaVuSans-30" transform="translate(63.623047 0)"/>
       <use xlink:href="#DejaVuSans-30" transform="translate(127.246094 0)"/>
      </g>
     </g>
    </g>
    <g id="text_27">
     <!-- KPIs / % -->
     <g transform="translate(28.5925 539.111123) rotate(-90) scale(0.16 -0.16)">
      <defs>
       <path id="DejaVuSans-4b" d="M 628 4666 
L 1259 4666 
L 1259 2694 
L 3353 4666 
L 4166 4666 
L 1850 2491 
L 4331 0 
L 3500 0 
L 1259 2247 
L 1259 0 
L 628 0 
L 628 4666 
z
" transform="scale(0.015625)"/>
       <path id="DejaVuSans-50" d="M 1259 4147 
L 1259 2394 
L 2053 2394 
Q 2494 2394 2734 2622 
Q 2975 2850 2975 3272 
Q 2975 3691 2734 3919 
Q 2494 4147 2053 4147 
L 1259 4147 
z
M 628 4666 
L 2053 4666 
Q 2838 4666 3239 4311 
Q 3641 3956 3641 3272 
Q 3641 2581 3239 2228 
Q 2838 1875 2053 1875 
L 1259 1875 
L 1259 0 
L 628 0 
L 628 4666 
z
" transform="scale(0.015625)"/>
       <path id="DejaVuSans-49" d="M 628 4666 
L 1259 4666 
L 1259 0 
L 628 0 
L 628 4666 
z
" transform="scale(0.015625)"/>
       <path id="DejaVuSans-25" d="M 4653 2053 
Q 4381 2053 4226 1822 
Q 4072 1591 4072 1178 
Q 4072 772 4226 539 
Q 4381 306 4653 306 
Q 4919 306 5073 539 
Q 5228 772 5228 1178 
Q 5228 1588 5073 1820 
Q 4919 2053 4653 2053 
z
M 4653 2450 
Q 5147 2450 5437 2106 
Q 5728 1763 5728 1178 
Q 5728 594 5436 251 
Q 5144 -91 4653 -91 
Q 4153 -91 3862 251 
Q 3572 594 3572 1178 
Q 3572 1766 3864 2108 
Q 4156 2450 4653 2450 
z
M 1428 4353 
Q 1159 4353 1004 4120 
Q 850 3888 850 3481 
Q 850 3069 1003 2837 
Q 1156 2606 1428 2606 
Q 1700 2606 1854 2837 
Q 2009 3069 2009 3481 
Q 2009 3884 1853 4118 
Q 1697 4353 1428 4353 
z
M 4250 4750 
L 4750 4750 
L 1831 -91 
L 1331 -91 
L 4250 4750 
z
M 1428 4750 
Q 1922 4750 2215 4408 
Q 2509 4066 2509 3481 
Q 2509 2891 2217 2550 
Q 1925 2209 1428 2209 
Q 931 2209 642 2551 
Q 353 2894 353 3481 
Q 353 4063 643 4406 
Q 934 4750 1428 4750 
z
" transform="scale(0.015625)"/>
      </defs>
      <use xlink:href="#DejaVuSans-4b"/>
      <use xlink:href="#DejaVuSans-50" transform="translate(65.576172 0)"/>
      <use xlink:href="#DejaVuSans-49" transform="translate(125.878906 0)"/>
      <use xlink:href="#DejaVuSans-73" transform="translate(155.371094 0)"/>
      <use xlink:href="#DejaVuSans-20" transform="translate(207.470703 0)"/>
      <use xlink:href="#DejaVuSans-2f" transform="translate(239.257812 0)"/>
      <use xlink:href="#DejaVuSans-20" transform="translate(272.949219 0)"/>
      <use xlink:href="#DejaVuSans-25" transform="translate(304.736328 0)"/>
     </g>
    </g>
   </g>
   <g id="line2d_61">
    <path d="M 90.950513 648.757488 
L 94.48395 639.587738 
L 98.017387 636.778001 
L 101.550824 636.101566 
L 105.084261 635.506752 
L 108.617698 634.819838 
L 112.151135 634.141363 
L 115.684572 633.668338 
L 119.218009 633.176694 
L 122.751446 632.757449 
L 126.284883 632.523623 
L 129.81832 632.26142 
L 133.351757 631.822919 
L 136.885194 631.473495 
L 140.418631 631.282326 
L 143.952069 631.164509 
L 147.485506 631.095907 
L 151.018943 631.067167 
L 154.55238 631.065505 
L 158.085817 631.082964 
L 161.619254 631.108913 
L 165.152691 631.142768 
L 168.686128 631.182303 
L 172.219565 631.232409 
L 175.753002 631.265447 
L 179.286439 631.28694 
L 182.819876 631.301872 
L 186.353313 631.31249 
L 189.88675 631.320123 
L 193.420187 631.325654 
L 196.953624 631.329699 
L 200.487061 631.332694 
L 204.020498 631.334953 
L 207.553935 631.336706 
L 211.087372 631.338125 
L 214.620809 631.339353 
L 218.154246 631.336754 
L 221.687683 631.339266 
L 225.22112 631.337357 
L 228.754557 631.336137 
L 232.287994 631.339965 
L 235.821431 631.338453 
L 239.354868 631.33761 
L 242.888305 631.342249 
L 246.421742 631.340502 
L 249.955179 631.339914 
L 253.488616 631.339723 
L 257.022053 631.33965 
L 260.55549 631.339615 
L 264.088927 631.339593 
L 267.622364 638.681388 
L 271.155801 639.416481 
L 274.689238 639.977969 
L 278.222675 640.345249 
L 281.756112 640.536616 
L 285.289549 640.646362 
L 288.822986 640.714401 
L 292.356423 640.687222 
L 295.88986 640.674592 
L 299.423297 640.689524 
L 302.956734 640.66542 
L 306.490171 640.671985 
L 310.023608 640.605774 
L 313.557045 640.531228 
L 317.090482 640.432397 
L 320.623919 640.365647 
L 324.157356 640.325407 
L 327.690793 640.309962 
L 331.22423 640.310325 
L 334.757667 640.309304 
L 338.291104 640.313343 
L 341.824541 640.32281 
L 345.357979 640.365645 
L 348.891416 640.385099 
L 352.424853 640.411006 
L 355.95829 640.424043 
L 359.491727 640.431518 
L 363.025164 640.473893 
L 366.558601 640.51472 
L 370.092038 640.504263 
L 373.625475 640.501367 
L 377.158912 640.535596 
L 380.692349 640.523188 
L 384.225786 640.518969 
L 387.759223 640.547108 
L 391.29266 640.543077 
L 394.826097 640.54237 
L 398.359534 640.542224 
L 401.892971 640.542125 
L 405.426408 640.542088 
L 408.959845 640.542015 
L 412.493282 640.541989 
L 416.026719 640.542009 
L 419.560156 640.541971 
L 423.093593 640.54189 
L 426.62703 640.541872 
L 430.160467 640.541836 
L 433.693904 640.54184 
L 437.227341 640.541819 
L 440.760778 640.54176 
" clip-path="url(#pafebf1dbb8)" style="fill: none; stroke: #1f77b4; stroke-width: 1.5; stroke-linecap: square"/>
   </g>
   <g id="line2d_62">
    <path d="M 90.950513 631.459272 
L 94.48395 631.459272 
L 98.017387 631.459272 
L 101.550824 631.459272 
L 105.084261 631.459272 
L 108.617698 631.459272 
L 112.151135 631.459272 
L 115.684572 631.459272 
L 119.218009 631.459272 
L 122.751446 631.459272 
L 126.284883 631.459272 
L 129.81832 631.459272 
L 133.351757 631.459272 
L 136.885194 631.459272 
L 140.418631 631.459272 
L 143.952069 631.459272 
L 147.485506 631.459272 
L 151.018943 631.459272 
L 154.55238 631.459272 
L 158.085817 631.459272 
L 161.619254 631.459272 
L 165.152691 631.459272 
L 168.686128 631.459272 
L 172.219565 631.459272 
L 175.753002 631.459272 
L 179.286439 631.459272 
L 182.819876 631.459272 
L 186.353313 631.459272 
L 189.88675 631.459272 
L 193.420187 631.459272 
L 196.953624 631.459272 
L 200.487061 631.459272 
L 204.020498 631.459272 
L 207.553935 631.459272 
L 211.087372 631.459272 
L 214.620809 631.459272 
L 218.154246 631.459272 
L 221.687683 631.459272 
L 225.22112 631.459272 
L 228.754557 631.459272 
L 232.287994 631.459272 
L 235.821431 631.459272 
L 239.354868 631.459272 
L 242.888305 631.459272 
L 246.421742 631.459272 
L 249.955179 631.459272 
L 253.488616 631.459272 
L 257.022053 631.459272 
L 260.55549 631.459272 
L 264.088927 631.459272 
L 267.622364 640.871632 
L 271.155801 640.871632 
L 274.689238 640.871632 
L 278.222675 640.871632 
L 281.756112 640.871632 
L 285.289549 640.871632 
L 288.822986 640.871632 
L 292.356423 640.871632 
L 295.88986 640.871632 
L 299.423297 640.871632 
L 302.956734 640.871632 
L 306.490171 640.871632 
L 310.023608 640.871632 
L 313.557045 640.871632 
L 317.090482 640.871632 
L 320.623919 640.871632 
L 324.157356 640.871632 
L 327.690793 640.871632 
L 331.22423 640.871632 
L 334.757667 640.871632 
L 338.291104 640.871632 
L 341.824541 640.871632 
L 345.357979 640.871632 
L 348.891416 640.871632 
L 352.424853 640.871632 
L 355.95829 640.871632 
L 359.491727 640.871632 
L 363.025164 640.871632 
L 366.558601 640.871632 
L 370.092038 640.871632 
L 373.625475 640.871632 
L 377.158912 640.871632 
L 380.692349 640.871632 
L 384.225786 640.871632 
L 387.759223 640.871632 
L 391.29266 640.871632 
L 394.826097 640.871632 
L 398.359534 640.871632 
L 401.892971 640.871632 
L 405.426408 640.871632 
L 408.959845 640.871632 
L 412.493282 640.871632 
L 416.026719 640.871632 
L 419.560156 640.871632 
L 423.093593 640.871632 
L 426.62703 640.871632 
L 430.160467 640.871632 
L 433.693904 640.871632 
L 437.227341 640.871632 
L 440.760778 640.871632 
" clip-path="url(#pafebf1dbb8)" style="fill: none; stroke-dasharray: 5.55,2.4; stroke-dashoffset: 0; stroke: #1f77b4; stroke-width: 1.5"/>
   </g>
   <g id="line2d_63">
    <path d="M 90.950513 491.309541 
L 94.48395 514.901392 
L 98.017387 528.757557 
L 101.550824 534.123766 
L 105.084261 536.331188 
L 108.617698 537.571852 
L 112.151135 538.372206 
L 115.684572 538.742666 
L 119.218009 538.914209 
L 122.751446 538.752684 
L 126.284883 538.305959 
L 129.81832 537.934444 
L 133.351757 537.610405 
L 136.885194 537.321447 
L 140.418631 536.929538 
L 143.952069 536.772003 
L 147.485506 536.670039 
L 151.018943 536.579744 
L 154.55238 536.474902 
L 158.085817 536.370941 
L 161.619254 536.286131 
L 165.152691 536.208577 
L 168.686128 536.154923 
L 172.219565 536.095384 
L 175.753002 536.075794 
L 179.286439 536.080779 
L 182.819876 536.098786 
L 186.353313 536.122757 
L 189.88675 536.148497 
L 193.420187 536.173612 
L 196.953624 536.19682 
L 200.487061 536.217519 
L 204.020498 536.235513 
L 207.553935 536.250842 
L 211.087372 536.26367 
L 214.620809 536.27421 
L 218.154246 536.288808 
L 221.687683 536.296196 
L 225.22112 536.305463 
L 228.754557 536.315661 
L 232.287994 536.316447 
L 235.821431 536.319756 
L 239.354868 536.324573 
L 242.888305 536.321896 
L 246.421742 536.320916 
L 249.955179 536.32101 
L 253.488616 536.321129 
L 257.022053 536.321166 
L 260.55549 536.32115 
L 264.088927 536.32111 
L 267.622364 521.019919 
L 271.155801 513.983896 
L 274.689238 510.469063 
L 278.222675 508.278631 
L 281.756112 506.60158 
L 285.289549 505.320857 
L 288.822986 504.289167 
L 292.356423 503.410023 
L 295.88986 502.601216 
L 299.423297 501.832108 
L 302.956734 501.048345 
L 306.490171 500.321088 
L 310.023608 499.819208 
L 313.557045 499.620857 
L 317.090482 499.593108 
L 320.623919 499.592976 
L 324.157356 499.566131 
L 327.690793 499.622083 
L 331.22423 499.573489 
L 334.757667 499.500657 
L 338.291104 499.43088 
L 341.824541 499.372717 
L 345.357979 499.311029 
L 348.891416 499.370269 
L 352.424853 499.33042 
L 355.95829 499.313893 
L 359.491727 499.313787 
L 363.025164 499.3726 
L 366.558601 499.347838 
L 370.092038 499.352032 
L 373.625475 499.364863 
L 377.158912 499.365249 
L 380.692349 499.374708 
L 384.225786 499.385343 
L 387.759223 499.441251 
L 391.29266 499.43048 
L 394.826097 499.426573 
L 398.359534 499.424553 
L 401.892971 499.423451 
L 405.426408 499.422286 
L 408.959845 499.421484 
L 412.493282 499.420446 
L 416.026719 499.419322 
L 419.560156 499.418579 
L 423.093593 499.418028 
L 426.62703 499.417144 
L 430.160467 499.416535 
L 433.693904 499.415659 
L 437.227341 499.415078 
L 440.760778 499.414651 
" clip-path="url(#pafebf1dbb8)" style="fill: none; stroke: #ff7f0e; stroke-width: 1.5; stroke-linecap: square"/>
   </g>
   <g id="line2d_64">
    <path d="M 90.950513 536.347557 
L 94.48395 536.347557 
L 98.017387 536.347557 
L 101.550824 536.347557 
L 105.084261 536.347557 
L 108.617698 536.347557 
L 112.151135 536.347557 
L 115.684572 536.347557 
L 119.218009 536.347557 
L 122.751446 536.347557 
L 126.284883 536.347557 
L 129.81832 536.347557 
L 133.351757 536.347557 
L 136.885194 536.347557 
L 140.418631 536.347557 
L 143.952069 536.347557 
L 147.485506 536.347557 
L 151.018943 536.347557 
L 154.55238 536.347557 
L 158.085817 536.347557 
L 161.619254 536.347557 
L 165.152691 536.347557 
L 168.686128 536.347557 
L 172.219565 536.347557 
L 175.753002 536.347557 
L 179.286439 536.347557 
L 182.819876 536.347557 
L 186.353313 536.347557 
L 189.88675 536.347557 
L 193.420187 536.347557 
L 196.953624 536.347557 
L 200.487061 536.347557 
L 204.020498 536.347557 
L 207.553935 536.347557 
L 211.087372 536.347557 
L 214.620809 536.347557 
L 218.154246 536.347557 
L 221.687683 536.347557 
L 225.22112 536.347557 
L 228.754557 536.347557 
L 232.287994 536.347557 
L 235.821431 536.347557 
L 239.354868 536.347557 
L 242.888305 536.347557 
L 246.421742 536.347557 
L 249.955179 536.347557 
L 253.488616 536.347557 
L 257.022053 536.347557 
L 260.55549 536.347557 
L 264.088927 536.347557 
L 267.622364 499.493974 
L 271.155801 499.493974 
L 274.689238 499.493974 
L 278.222675 499.493974 
L 281.756112 499.493974 
L 285.289549 499.493974 
L 288.822986 499.493974 
L 292.356423 499.493974 
L 295.88986 499.493974 
L 299.423297 499.493974 
L 302.956734 499.493974 
L 306.490171 499.493974 
L 310.023608 499.493974 
L 313.557045 499.493974 
L 317.090482 499.493974 
L 320.623919 499.493974 
L 324.157356 499.493974 
L 327.690793 499.493974 
L 331.22423 499.493974 
L 334.757667 499.493974 
L 338.291104 499.493974 
L 341.824541 499.493974 
L 345.357979 499.493974 
L 348.891416 499.493974 
L 352.424853 499.493974 
L 355.95829 499.493974 
L 359.491727 499.493974 
L 363.025164 499.493974 
L 366.558601 499.493974 
L 370.092038 499.493974 
L 373.625475 499.493974 
L 377.158912 499.493974 
L 380.692349 499.493974 
L 384.225786 499.493974 
L 387.759223 499.493974 
L 391.29266 499.493974 
L 394.826097 499.493974 
L 398.359534 499.493974 
L 401.892971 499.493974 
L 405.426408 499.493974 
L 408.959845 499.493974 
L 412.493282 499.493974 
L 416.026719 499.493974 
L 419.560156 499.493974 
L 423.093593 499.493974 
L 426.62703 499.493974 
L 430.160467 499.493974 
L 433.693904 499.493974 
L 437.227341 499.493974 
L 440.760778 499.493974 
" clip-path="url(#pafebf1dbb8)" style="fill: none; stroke-dasharray: 5.55,2.4; stroke-dashoffset: 0; stroke: #ff7f0e; stroke-width: 1.5"/>
   </g>
   <g id="line2d_65">
    <path d="M 90.950513 463.640145 
L 94.48395 365.507257 
L 98.017387 372.420161 
L 101.550824 376.330524 
L 105.084261 378.506894 
L 108.617698 379.805992 
L 112.151135 380.63374 
L 115.684572 380.963473 
L 119.218009 380.970489 
L 122.751446 381.000464 
L 126.284883 380.314563 
L 129.81832 379.483123 
L 133.351757 379.262157 
L 136.885194 378.98313 
L 140.418631 378.723309 
L 143.952069 378.558199 
L 147.485506 378.376475 
L 151.018943 378.202978 
L 154.55238 378.102137 
L 158.085817 377.946407 
L 161.619254 377.769565 
L 165.152691 377.698083 
L 168.686128 377.633854 
L 172.219565 377.626892 
L 175.753002 377.614628 
L 179.286439 377.635768 
L 182.819876 377.665351 
L 186.353313 377.69598 
L 189.88675 377.724904 
L 193.420187 377.750959 
L 196.953624 377.773736 
L 200.487061 377.793222 
L 204.020498 377.809614 
L 207.553935 377.823203 
L 211.087372 377.834308 
L 214.620809 377.843231 
L 218.154246 377.849427 
L 221.687683 377.862398 
L 225.22112 377.865591 
L 228.754557 377.870748 
L 232.287994 377.879001 
L 235.821431 377.879506 
L 239.354868 377.8816 
L 242.888305 377.882138 
L 246.421742 377.888623 
L 249.955179 377.891538 
L 253.488616 377.892403 
L 257.022053 377.892596 
L 260.55549 377.892561 
L 264.088927 377.892448 
L 267.622364 398.834373 
L 271.155801 394.77286 
L 274.689238 392.475922 
L 278.222675 390.901584 
L 281.756112 389.882867 
L 285.289549 388.491184 
L 288.822986 387.245946 
L 292.356423 386.110886 
L 295.88986 385.214276 
L 299.423297 384.334202 
L 302.956734 383.666843 
L 306.490171 382.997706 
L 310.023608 382.786248 
L 313.557045 382.721199 
L 317.090482 382.682017 
L 320.623919 382.638952 
L 324.157356 382.631365 
L 327.690793 382.536966 
L 331.22423 382.470221 
L 334.757667 382.414571 
L 338.291104 382.370627 
L 341.824541 382.336361 
L 345.357979 382.167082 
L 348.891416 382.261292 
L 352.424853 382.175162 
L 355.95829 382.162648 
L 359.491727 382.165478 
L 363.025164 382.223396 
L 366.558601 382.160981 
L 370.092038 382.219491 
L 373.625475 382.244594 
L 377.158912 382.190873 
L 380.692349 382.254035 
L 384.225786 382.275977 
L 387.759223 382.279928 
L 391.29266 382.307612 
L 394.826097 382.307876 
L 398.359534 382.306742 
L 401.892971 382.304428 
L 405.426408 382.303672 
L 408.959845 382.301651 
L 412.493282 382.30116 
L 416.026719 382.300389 
L 419.560156 382.29851 
L 423.093593 382.297077 
L 426.62703 382.297006 
L 430.160467 382.295448 
L 433.693904 382.29539 
L 437.227341 382.293911 
L 440.760778 382.292804 
" clip-path="url(#pafebf1dbb8)" style="fill: none; stroke: #2ca02c; stroke-width: 1.5; stroke-linecap: square"/>
   </g>
   <g id="line2d_66">
    <path d="M 90.950513 377.862352 
L 94.48395 377.862352 
L 98.017387 377.862352 
L 101.550824 377.862352 
L 105.084261 377.862352 
L 108.617698 377.862352 
L 112.151135 377.862352 
L 115.684572 377.862352 
L 119.218009 377.862352 
L 122.751446 377.862352 
L 126.284883 377.862352 
L 129.81832 377.862352 
L 133.351757 377.862352 
L 136.885194 377.862352 
L 140.418631 377.862352 
L 143.952069 377.862352 
L 147.485506 377.862352 
L 151.018943 377.862352 
L 154.55238 377.862352 
L 158.085817 377.862352 
L 161.619254 377.862352 
L 165.152691 377.862352 
L 168.686128 377.862352 
L 172.219565 377.862352 
L 175.753002 377.862352 
L 179.286439 377.862352 
L 182.819876 377.862352 
L 186.353313 377.862352 
L 189.88675 377.862352 
L 193.420187 377.862352 
L 196.953624 377.862352 
L 200.487061 377.862352 
L 204.020498 377.862352 
L 207.553935 377.862352 
L 211.087372 377.862352 
L 214.620809 377.862352 
L 218.154246 377.862352 
L 221.687683 377.862352 
L 225.22112 377.862352 
L 228.754557 377.862352 
L 232.287994 377.862352 
L 235.821431 377.862352 
L 239.354868 377.862352 
L 242.888305 377.862352 
L 246.421742 377.862352 
L 249.955179 377.862352 
L 253.488616 377.862352 
L 257.022053 377.862352 
L 260.55549 377.862352 
L 264.088927 377.862352 
L 267.622364 382.302949 
L 271.155801 382.302949 
L 274.689238 382.302949 
L 278.222675 382.302949 
L 281.756112 382.302949 
L 285.289549 382.302949 
L 288.822986 382.302949 
L 292.356423 382.302949 
L 295.88986 382.302949 
L 299.423297 382.302949 
L 302.956734 382.302949 
L 306.490171 382.302949 
L 310.023608 382.302949 
L 313.557045 382.302949 
L 317.090482 382.302949 
L 320.623919 382.302949 
L 324.157356 382.302949 
L 327.690793 382.302949 
L 331.22423 382.302949 
L 334.757667 382.302949 
L 338.291104 382.302949 
L 341.824541 382.302949 
L 345.357979 382.302949 
L 348.891416 382.302949 
L 352.424853 382.302949 
L 355.95829 382.302949 
L 359.491727 382.302949 
L 363.025164 382.302949 
L 366.558601 382.302949 
L 370.092038 382.302949 
L 373.625475 382.302949 
L 377.158912 382.302949 
L 380.692349 382.302949 
L 384.225786 382.302949 
L 387.759223 382.302949 
L 391.29266 382.302949 
L 394.826097 382.302949 
L 398.359534 382.302949 
L 401.892971 382.302949 
L 405.426408 382.302949 
L 408.959845 382.302949 
L 412.493282 382.302949 
L 416.026719 382.302949 
L 419.560156 382.302949 
L 423.093593 382.302949 
L 426.62703 382.302949 
L 430.160467 382.302949 
L 433.693904 382.302949 
L 437.227341 382.302949 
L 440.760778 382.302949 
" clip-path="url(#pafebf1dbb8)" style="fill: none; stroke-dasharray: 5.55,2.4; stroke-dashoffset: 0; stroke: #2ca02c; stroke-width: 1.5"/>
   </g>
   <g id="patch_8">
    <path d="M 73.46 662.92 
L 73.46 351.344745 
" style="fill: none; stroke: #000000; stroke-width: 0.8; stroke-linejoin: miter; stroke-linecap: square"/>
   </g>
   <g id="patch_9">
    <path d="M 458.251291 662.92 
L 458.251291 351.344745 
" style="fill: none; stroke: #000000; stroke-width: 0.8; stroke-linejoin: miter; stroke-linecap: square"/>
   </g>
   <g id="patch_10">
    <path d="M 73.46 662.92 
L 458.251291 662.92 
" style="fill: none; stroke: #000000; stroke-width: 0.8; stroke-linejoin: miter; stroke-linecap: square"/>
   </g>
   <g id="patch_11">
    <path d="M 73.46 351.344745 
L 458.251291 351.344745 
" style="fill: none; stroke: #000000; stroke-width: 0.8; stroke-linejoin: miter; stroke-linecap: square"/>
   </g>
   <g id="legend_2">
    <g id="line2d_67">
     <path d="M 472.651291 446.879873 
L 488.651291 446.879873 
L 504.651291 446.879873 
" style="fill: none; stroke: #1f77b4; stroke-width: 1.5; stroke-linecap: square"/>
    </g>
    <g id="text_28">
     <!-- Pureza do H$_2$ -->
     <g transform="translate(517.451291 452.479873) scale(0.16 -0.16)">
      <defs>
       <path id="DejaVuSans-7a" d="M 353 3500 
L 3084 3500 
L 3084 2975 
L 922 459 
L 3084 459 
L 3084 0 
L 275 0 
L 275 525 
L 2438 3041 
L 353 3041 
L 353 3500 
z
" transform="scale(0.015625)"/>
       <path id="DejaVuSans-48" d="M 628 4666 
L 1259 4666 
L 1259 2753 
L 3553 2753 
L 3553 4666 
L 4184 4666 
L 4184 0 
L 3553 0 
L 3553 2222 
L 1259 2222 
L 1259 0 
L 628 0 
L 628 4666 
z
" transform="scale(0.015625)"/>
      </defs>
      <use xlink:href="#DejaVuSans-50" transform="translate(0 0.015625)"/>
      <use xlink:href="#DejaVuSans-75" transform="translate(60.302734 0.015625)"/>
      <use xlink:href="#DejaVuSans-72" transform="translate(123.681641 0.015625)"/>
      <use xlink:href="#DejaVuSans-65" transform="translate(164.794922 0.015625)"/>
      <use xlink:href="#DejaVuSans-7a" transform="translate(226.318359 0.015625)"/>
      <use xlink:href="#DejaVuSans-61" transform="translate(278.808594 0.015625)"/>
      <use xlink:href="#DejaVuSans-20" transform="translate(340.087891 0.015625)"/>
      <use xlink:href="#DejaVuSans-64" transform="translate(371.875 0.015625)"/>
      <use xlink:href="#DejaVuSans-6f" transform="translate(435.351562 0.015625)"/>
      <use xlink:href="#DejaVuSans-20" transform="translate(496.533203 0.015625)"/>
      <use xlink:href="#DejaVuSans-48" transform="translate(528.320312 0.015625)"/>
      <use xlink:href="#DejaVuSans-32" transform="translate(604.472656 -16.390625) scale(0.7)"/>
     </g>
    </g>
    <g id="line2d_68">
     <path d="M 472.651291 470.364873 
L 488.651291 470.364873 
L 504.651291 470.364873 
" style="fill: none; stroke-dasharray: 5.55,2.4; stroke-dashoffset: 0; stroke: #1f77b4; stroke-width: 1.5"/>
    </g>
    <g id="text_29">
     <!-- Pureza do H$_2$ (SP) -->
     <g transform="translate(517.451291 475.964873) scale(0.16 -0.16)">
      <defs>
       <path id="DejaVuSans-28" d="M 1984 4856 
Q 1566 4138 1362 3434 
Q 1159 2731 1159 2009 
Q 1159 1288 1364 580 
Q 1569 -128 1984 -844 
L 1484 -844 
Q 1016 -109 783 600 
Q 550 1309 550 2009 
Q 550 2706 781 3412 
Q 1013 4119 1484 4856 
L 1984 4856 
z
" transform="scale(0.015625)"/>
       <path id="DejaVuSans-53" d="M 3425 4513 
L 3425 3897 
Q 3066 4069 2747 4153 
Q 2428 4238 2131 4238 
Q 1616 4238 1336 4038 
Q 1056 3838 1056 3469 
Q 1056 3159 1242 3001 
Q 1428 2844 1947 2747 
L 2328 2669 
Q 3034 2534 3370 2195 
Q 3706 1856 3706 1288 
Q 3706 609 3251 259 
Q 2797 -91 1919 -91 
Q 1588 -91 1214 -16 
Q 841 59 441 206 
L 441 856 
Q 825 641 1194 531 
Q 1563 422 1919 422 
Q 2459 422 2753 634 
Q 3047 847 3047 1241 
Q 3047 1584 2836 1778 
Q 2625 1972 2144 2069 
L 1759 2144 
Q 1053 2284 737 2584 
Q 422 2884 422 3419 
Q 422 4038 858 4394 
Q 1294 4750 2059 4750 
Q 2388 4750 2728 4690 
Q 3069 4631 3425 4513 
z
" transform="scale(0.015625)"/>
       <path id="DejaVuSans-29" d="M 513 4856 
L 1013 4856 
Q 1481 4119 1714 3412 
Q 1947 2706 1947 2009 
Q 1947 1309 1714 600 
Q 1481 -109 1013 -844 
L 513 -844 
Q 928 -128 1133 580 
Q 1338 1288 1338 2009 
Q 1338 2731 1133 3434 
Q 928 4138 513 4856 
z
" transform="scale(0.015625)"/>
      </defs>
      <use xlink:href="#DejaVuSans-50" transform="translate(0 0.015625)"/>
      <use xlink:href="#DejaVuSans-75" transform="translate(60.302734 0.015625)"/>
      <use xlink:href="#DejaVuSans-72" transform="translate(123.681641 0.015625)"/>
      <use xlink:href="#DejaVuSans-65" transform="translate(164.794922 0.015625)"/>
      <use xlink:href="#DejaVuSans-7a" transform="translate(226.318359 0.015625)"/>
      <use xlink:href="#DejaVuSans-61" transform="translate(278.808594 0.015625)"/>
      <use xlink:href="#DejaVuSans-20" transform="translate(340.087891 0.015625)"/>
      <use xlink:href="#DejaVuSans-64" transform="translate(371.875 0.015625)"/>
      <use xlink:href="#DejaVuSans-6f" transform="translate(435.351562 0.015625)"/>
      <use xlink:href="#DejaVuSans-20" transform="translate(496.533203 0.015625)"/>
      <use xlink:href="#DejaVuSans-48" transform="translate(528.320312 0.015625)"/>
      <use xlink:href="#DejaVuSans-32" transform="translate(604.472656 -16.390625) scale(0.7)"/>
      <use xlink:href="#DejaVuSans-20" transform="translate(651.743164 0.015625)"/>
      <use xlink:href="#DejaVuSans-28" transform="translate(683.530273 0.015625)"/>
      <use xlink:href="#DejaVuSans-53" transform="translate(722.543945 0.015625)"/>
      <use xlink:href="#DejaVuSans-50" transform="translate(786.020508 0.015625)"/>
      <use xlink:href="#DejaVuSans-29" transform="translate(846.323242 0.015625)"/>
     </g>
    </g>
    <g id="line2d_69">
     <path d="M 472.651291 493.849873 
L 488.651291 493.849873 
L 504.651291 493.849873 
" style="fill: none; stroke: #ff7f0e; stroke-width: 1.5; stroke-linecap: square"/>
    </g>
    <g id="text_30">
     <!-- Pureza do CO$_2$ -->
     <g transform="translate(517.451291 499.449873) scale(0.16 -0.16)">
      <defs>
       <path id="DejaVuSans-4f" d="M 2522 4238 
Q 1834 4238 1429 3725 
Q 1025 3213 1025 2328 
Q 1025 1447 1429 934 
Q 1834 422 2522 422 
Q 3209 422 3611 934 
Q 4013 1447 4013 2328 
Q 4013 3213 3611 3725 
Q 3209 4238 2522 4238 
z
M 2522 4750 
Q 3503 4750 4090 4092 
Q 4678 3434 4678 2328 
Q 4678 1225 4090 567 
Q 3503 -91 2522 -91 
Q 1538 -91 948 565 
Q 359 1222 359 2328 
Q 359 3434 948 4092 
Q 1538 4750 2522 4750 
z
" transform="scale(0.015625)"/>
      </defs>
      <use xlink:href="#DejaVuSans-50" transform="translate(0 0.015625)"/>
      <use xlink:href="#DejaVuSans-75" transform="translate(60.302734 0.015625)"/>
      <use xlink:href="#DejaVuSans-72" transform="translate(123.681641 0.015625)"/>
      <use xlink:href="#DejaVuSans-65" transform="translate(164.794922 0.015625)"/>
      <use xlink:href="#DejaVuSans-7a" transform="translate(226.318359 0.015625)"/>
      <use xlink:href="#DejaVuSans-61" transform="translate(278.808594 0.015625)"/>
      <use xlink:href="#DejaVuSans-20" transform="translate(340.087891 0.015625)"/>
      <use xlink:href="#DejaVuSans-64" transform="translate(371.875 0.015625)"/>
      <use xlink:href="#DejaVuSans-6f" transform="translate(435.351562 0.015625)"/>
      <use xlink:href="#DejaVuSans-20" transform="translate(496.533203 0.015625)"/>
      <use xlink:href="#DejaVuSans-43" transform="translate(528.320312 0.015625)"/>
      <use xlink:href="#DejaVuSans-4f" transform="translate(598.144531 0.015625)"/>
      <use xlink:href="#DejaVuSans-32" transform="translate(677.8125 -16.390625) scale(0.7)"/>
     </g>
    </g>
    <g id="line2d_70">
     <path d="M 472.651291 517.334873 
L 488.651291 517.334873 
L 504.651291 517.334873 
" style="fill: none; stroke-dasharray: 5.55,2.4; stroke-dashoffset: 0; stroke: #ff7f0e; stroke-width: 1.5"/>
    </g>
    <g id="text_31">
     <!-- Pureza do CO$_2$ (SP) -->
     <g transform="translate(517.451291 522.934873) scale(0.16 -0.16)">
      <use xlink:href="#DejaVuSans-50" transform="translate(0 0.015625)"/>
      <use xlink:href="#DejaVuSans-75" transform="translate(60.302734 0.015625)"/>
      <use xlink:href="#DejaVuSans-72" transform="translate(123.681641 0.015625)"/>
      <use xlink:href="#DejaVuSans-65" transform="translate(164.794922 0.015625)"/>
      <use xlink:href="#DejaVuSans-7a" transform="translate(226.318359 0.015625)"/>
      <use xlink:href="#DejaVuSans-61" transform="translate(278.808594 0.015625)"/>
      <use xlink:href="#DejaVuSans-20" transform="translate(340.087891 0.015625)"/>
      <use xlink:href="#DejaVuSans-64" transform="translate(371.875 0.015625)"/>
      <use xlink:href="#DejaVuSans-6f" transform="translate(435.351562 0.015625)"/>
      <use xlink:href="#DejaVuSans-20" transform="translate(496.533203 0.015625)"/>
      <use xlink:href="#DejaVuSans-43" transform="translate(528.320312 0.015625)"/>
      <use xlink:href="#DejaVuSans-4f" transform="translate(598.144531 0.015625)"/>
      <use xlink:href="#DejaVuSans-32" transform="translate(677.8125 -16.390625) scale(0.7)"/>
      <use xlink:href="#DejaVuSans-20" transform="translate(725.083008 0.015625)"/>
      <use xlink:href="#DejaVuSans-28" transform="translate(756.870117 0.015625)"/>
      <use xlink:href="#DejaVuSans-53" transform="translate(795.883789 0.015625)"/>
      <use xlink:href="#DejaVuSans-50" transform="translate(859.360352 0.015625)"/>
      <use xlink:href="#DejaVuSans-29" transform="translate(919.663086 0.015625)"/>
     </g>
    </g>
    <g id="line2d_71">
     <path d="M 472.651291 541.142373 
L 488.651291 541.142373 
L 504.651291 541.142373 
" style="fill: none; stroke: #2ca02c; stroke-width: 1.5; stroke-linecap: square"/>
    </g>
    <g id="text_32">
     <!-- Recuperação CO$_2$ -->
     <g transform="translate(517.451291 546.742373) scale(0.16 -0.16)">
      <defs>
       <path id="DejaVuSans-52" d="M 2841 2188 
Q 3044 2119 3236 1894 
Q 3428 1669 3622 1275 
L 4263 0 
L 3584 0 
L 2988 1197 
Q 2756 1666 2539 1819 
Q 2322 1972 1947 1972 
L 1259 1972 
L 1259 0 
L 628 0 
L 628 4666 
L 2053 4666 
Q 2853 4666 3247 4331 
Q 3641 3997 3641 3322 
Q 3641 2881 3436 2590 
Q 3231 2300 2841 2188 
z
M 1259 4147 
L 1259 2491 
L 2053 2491 
Q 2509 2491 2742 2702 
Q 2975 2913 2975 3322 
Q 2975 3731 2742 3939 
Q 2509 4147 2053 4147 
L 1259 4147 
z
" transform="scale(0.015625)"/>
      </defs>
      <use xlink:href="#DejaVuSans-52" transform="translate(0 0.3125)"/>
      <use xlink:href="#DejaVuSans-65" transform="translate(69.482422 0.3125)"/>
      <use xlink:href="#DejaVuSans-63" transform="translate(131.005859 0.3125)"/>
      <use xlink:href="#DejaVuSans-75" transform="translate(185.986328 0.3125)"/>
      <use xlink:href="#DejaVuSans-70" transform="translate(249.365234 0.3125)"/>
      <use xlink:href="#DejaVuSans-65" transform="translate(312.841797 0.3125)"/>
      <use xlink:href="#DejaVuSans-72" transform="translate(374.365234 0.3125)"/>
      <use xlink:href="#DejaVuSans-61" transform="translate(415.478516 0.3125)"/>
      <use xlink:href="#DejaVuSans-e7" transform="translate(476.757812 0.3125)"/>
      <use xlink:href="#DejaVuSans-e3" transform="translate(531.738281 0.3125)"/>
      <use xlink:href="#DejaVuSans-6f" transform="translate(593.017578 0.3125)"/>
      <use xlink:href="#DejaVuSans-20" transform="translate(654.199219 0.3125)"/>
      <use xlink:href="#DejaVuSans-43" transform="translate(685.986328 0.3125)"/>
      <use xlink:href="#DejaVuSans-4f" transform="translate(755.810547 0.3125)"/>
      <use xlink:href="#DejaVuSans-32" transform="translate(835.478516 -16.09375) scale(0.7)"/>
     </g>
    </g>
    <g id="line2d_72">
     <path d="M 472.651291 564.982373 
L 488.651291 564.982373 
L 504.651291 564.982373 
" style="fill: none; stroke-dasharray: 5.55,2.4; stroke-dashoffset: 0; stroke: #2ca02c; stroke-width: 1.5"/>
    </g>
    <g id="text_33">
     <!-- Recuperação CO$_2$ (SP) -->
     <g transform="translate(517.451291 570.582373) scale(0.16 -0.16)">
      <use xlink:href="#DejaVuSans-52" transform="translate(0 0.3125)"/>
      <use xlink:href="#DejaVuSans-65" transform="translate(69.482422 0.3125)"/>
      <use xlink:href="#DejaVuSans-63" transform="translate(131.005859 0.3125)"/>
      <use xlink:href="#DejaVuSans-75" transform="translate(185.986328 0.3125)"/>
      <use xlink:href="#DejaVuSans-70" transform="translate(249.365234 0.3125)"/>
      <use xlink:href="#DejaVuSans-65" transform="translate(312.841797 0.3125)"/>
      <use xlink:href="#DejaVuSans-72" transform="translate(374.365234 0.3125)"/>
      <use xlink:href="#DejaVuSans-61" transform="translate(415.478516 0.3125)"/>
      <use xlink:href="#DejaVuSans-e7" transform="translate(476.757812 0.3125)"/>
      <use xlink:href="#DejaVuSans-e3" transform="translate(531.738281 0.3125)"/>
      <use xlink:href="#DejaVuSans-6f" transform="translate(593.017578 0.3125)"/>
      <use xlink:href="#DejaVuSans-20" transform="translate(654.199219 0.3125)"/>
      <use xlink:href="#DejaVuSans-43" transform="translate(685.986328 0.3125)"/>
      <use xlink:href="#DejaVuSans-4f" transform="translate(755.810547 0.3125)"/>
      <use xlink:href="#DejaVuSans-32" transform="translate(835.478516 -16.09375) scale(0.7)"/>
      <use xlink:href="#DejaVuSans-20" transform="translate(882.749023 0.3125)"/>
      <use xlink:href="#DejaVuSans-28" transform="translate(914.536133 0.3125)"/>
      <use xlink:href="#DejaVuSans-53" transform="translate(953.549805 0.3125)"/>
      <use xlink:href="#DejaVuSans-50" transform="translate(1017.026367 0.3125)"/>
      <use xlink:href="#DejaVuSans-29" transform="translate(1077.329102 0.3125)"/>
     </g>
    </g>
   </g>
  </g>
 </g>
 <defs>
  <clipPath id="p665ceadd32">
   <rect x="73.46" y="18.989491" width="384.791291" height="311.575255"/>
  </clipPath>
  <clipPath id="pafebf1dbb8">
   <rect x="73.46" y="351.344745" width="384.791291" height="311.575255"/>
  </clipPath>
 </defs>
</svg>
