<?xml version="1.0" encoding="utf-8" standalone="no"?>
<!DOCTYPE svg PUBLIC "-//W3C//DTD SVG 1.1//EN"
  "http://www.w3.org/Graphics/SVG/1.1/DTD/svg11.dtd">
<svg xmlns:xlink="http://www.w3.org/1999/xlink" width="720pt" height="504pt" viewBox="0 0 720 504" xmlns="http://www.w3.org/2000/svg" version="1.1">
 <metadata>
  <rdf:RDF xmlns:dc="http://purl.org/dc/elements/1.1/" xmlns:cc="http://creativecommons.org/ns#" xmlns:rdf="http://www.w3.org/1999/02/22-rdf-syntax-ns#">
   <cc:Work>
    <dc:type rdf:resource="http://purl.org/dc/dcmitype/StillImage"/>
    <dc:date>2025-12-05T03:30:57.610898</dc:date>
    <dc:format>image/svg+xml</dc:format>
    <dc:creator>
     <cc:Agent>
      <dc:title>Matplotlib v3.10.7, https://matplotlib.org/</dc:title>
     </cc:Agent>
    </dc:creator>
   </cc:Work>
  </rdf:RDF>
 </metadata>
 <defs>
  <style type="text/css">*{stroke-linejoin: round; stroke-linecap: butt}</style>
 </defs>
 <g id="figure_1">
  <g id="patch_1">
   <path d="M 0 504 
L 720 504 
L 720 0 
L 0 0 
z
" style="fill: #ffffff"/>
  </g>
  <g id="axes_1">
   <g id="patch_2">
    <path d="M 73.37 221.71 
L 458.251291 221.71 
L 458.251291 17.28 
L 73.37 17.28 
z
" style="fill: #ffffff"/>
   </g>
   <g id="matplotlib.axis_1">
    <g id="xtick_1">
     <g id="line2d_1">
      <path d="M 90.864604 221.71 
L 90.864604 17.28 
" clip-path="url(#pc5be071f0b)" style="fill: none; stroke: #b0b0b0; stroke-width: 0.8; stroke-linecap: square"/>
     </g>
     <g id="line2d_2">
      <defs>
       <path id="mfef5b1150d" d="M 0 0 
L 0 3.5 
" style="stroke: #000000; stroke-width: 0.8"/>
      </defs>
      <g>
       <use xlink:href="#mfef5b1150d" x="90.864604" y="221.71" style="stroke: #000000; stroke-width: 0.8"/>
      </g>
     </g>
    </g>
    <g id="xtick_2">
     <g id="line2d_3">
      <path d="M 161.549873 221.71 
L 161.549873 17.28 
" clip-path="url(#pc5be071f0b)" style="fill: none; stroke: #b0b0b0; stroke-width: 0.8; stroke-linecap: square"/>
     </g>
     <g id="line2d_4">
      <g>
       <use xlink:href="#mfef5b1150d" x="161.549873" y="221.71" style="stroke: #000000; stroke-width: 0.8"/>
      </g>
     </g>
    </g>
    <g id="xtick_3">
     <g id="line2d_5">
      <path d="M 232.235143 221.71 
L 232.235143 17.28 
" clip-path="url(#pc5be071f0b)" style="fill: none; stroke: #b0b0b0; stroke-width: 0.8; stroke-linecap: square"/>
     </g>
     <g id="line2d_6">
      <g>
       <use xlink:href="#mfef5b1150d" x="232.235143" y="221.71" style="stroke: #000000; stroke-width: 0.8"/>
      </g>
     </g>
    </g>
    <g id="xtick_4">
     <g id="line2d_7">
      <path d="M 302.920412 221.71 
L 302.920412 17.28 
" clip-path="url(#pc5be071f0b)" style="fill: none; stroke: #b0b0b0; stroke-width: 0.8; stroke-linecap: square"/>
     </g>
     <g id="line2d_8">
      <g>
       <use xlink:href="#mfef5b1150d" x="302.920412" y="221.71" style="stroke: #000000; stroke-width: 0.8"/>
      </g>
     </g>
    </g>
    <g id="xtick_5">
     <g id="line2d_9">
      <path d="M 373.605681 221.71 
L 373.605681 17.28 
" clip-path="url(#pc5be071f0b)" style="fill: none; stroke: #b0b0b0; stroke-width: 0.8; stroke-linecap: square"/>
     </g>
     <g id="line2d_10">
      <g>
       <use xlink:href="#mfef5b1150d" x="373.605681" y="221.71" style="stroke: #000000; stroke-width: 0.8"/>
      </g>
     </g>
    </g>
    <g id="xtick_6">
     <g id="line2d_11">
      <path d="M 444.290951 221.71 
L 444.290951 17.28 
" clip-path="url(#pc5be071f0b)" style="fill: none; stroke: #b0b0b0; stroke-width: 0.8; stroke-linecap: square"/>
     </g>
     <g id="line2d_12">
      <g>
       <use xlink:href="#mfef5b1150d" x="444.290951" y="221.71" style="stroke: #000000; stroke-width: 0.8"/>
      </g>
     </g>
    </g>
   </g>
   <g id="matplotlib.axis_2">
    <g id="ytick_1">
     <g id="line2d_13">
      <path d="M 73.37 175.285115 
L 458.251291 175.285115 
" clip-path="url(#pc5be071f0b)" style="fill: none; stroke: #b0b0b0; stroke-width: 0.8; stroke-linecap: square"/>
     </g>
     <g id="line2d_14">
      <defs>
       <path id="mb8f4a1bc79" d="M 0 0 
L -3.5 0 
" style="stroke: #000000; stroke-width: 0.8"/>
      </defs>
      <g>
       <use xlink:href="#mb8f4a1bc79" x="73.37" y="175.285115" style="stroke: #000000; stroke-width: 0.8"/>
      </g>
     </g>
     <g id="text_1">
      <!-- 200 -->
      <g transform="translate(35.83 181.363865) scale(0.16 -0.16)">
       <defs>
        <path id="DejaVuSans-32" d="M 1228 531 
L 3431 531 
L 3431 0 
L 469 0 
L 469 531 
Q 828 903 1448 1529 
Q 2069 2156 2228 2338 
Q 2531 2678 2651 2914 
Q 2772 3150 2772 3378 
Q 2772 3750 2511 3984 
Q 2250 4219 1831 4219 
Q 1534 4219 1204 4116 
Q 875 4013 500 3803 
L 500 4441 
Q 881 4594 1212 4672 
Q 1544 4750 1819 4750 
Q 2544 4750 2975 4387 
Q 3406 4025 3406 3419 
Q 3406 3131 3298 2873 
Q 3191 2616 2906 2266 
Q 2828 2175 2409 1742 
Q 1991 1309 1228 531 
z
" transform="scale(0.015625)"/>
        <path id="DejaVuSans-30" d="M 2034 4250 
Q 1547 4250 1301 3770 
Q 1056 3291 1056 2328 
Q 1056 1369 1301 889 
Q 1547 409 2034 409 
Q 2525 409 2770 889 
Q 3016 1369 3016 2328 
Q 3016 3291 2770 3770 
Q 2525 4250 2034 4250 
z
M 2034 4750 
Q 2819 4750 3233 4129 
Q 3647 3509 3647 2328 
Q 3647 1150 3233 529 
Q 2819 -91 2034 -91 
Q 1250 -91 836 529 
Q 422 1150 422 2328 
Q 422 3509 836 4129 
Q 1250 4750 2034 4750 
z
" transform="scale(0.015625)"/>
       </defs>
       <use xlink:href="#DejaVuSans-32"/>
       <use xlink:href="#DejaVuSans-30" transform="translate(63.623047 0)"/>
       <use xlink:href="#DejaVuSans-30" transform="translate(127.246094 0)"/>
      </g>
     </g>
    </g>
    <g id="ytick_2">
     <g id="line2d_15">
      <path d="M 73.37 113.397427 
L 458.251291 113.397427 
" clip-path="url(#pc5be071f0b)" style="fill: none; stroke: #b0b0b0; stroke-width: 0.8; stroke-linecap: square"/>
     </g>
     <g id="line2d_16">
      <g>
       <use xlink:href="#mb8f4a1bc79" x="73.37" y="113.397427" style="stroke: #000000; stroke-width: 0.8"/>
      </g>
     </g>
     <g id="text_2">
      <!-- 400 -->
      <g transform="translate(35.83 119.476177) scale(0.16 -0.16)">
       <defs>
        <path id="DejaVuSans-34" d="M 2419 4116 
L 825 1625 
L 2419 1625 
L 2419 4116 
z
M 2253 4666 
L 3047 4666 
L 3047 1625 
L 3713 1625 
L 3713 1100 
L 3047 1100 
L 3047 0 
L 2419 0 
L 2419 1100 
L 313 1100 
L 313 1709 
L 2253 4666 
z
" transform="scale(0.015625)"/>
       </defs>
       <use xlink:href="#DejaVuSans-34"/>
       <use xlink:href="#DejaVuSans-30" transform="translate(63.623047 0)"/>
       <use xlink:href="#DejaVuSans-30" transform="translate(127.246094 0)"/>
      </g>
     </g>
    </g>
    <g id="ytick_3">
     <g id="line2d_17">
      <path d="M 73.37 51.509739 
L 458.251291 51.509739 
" clip-path="url(#pc5be071f0b)" style="fill: none; stroke: #b0b0b0; stroke-width: 0.8; stroke-linecap: square"/>
     </g>
     <g id="line2d_18">
      <g>
       <use xlink:href="#mb8f4a1bc79" x="73.37" y="51.509739" style="stroke: #000000; stroke-width: 0.8"/>
      </g>
     </g>
     <g id="text_3">
      <!-- 600 -->
      <g transform="translate(35.83 57.588489) scale(0.16 -0.16)">
       <defs>
        <path id="DejaVuSans-36" d="M 2113 2584 
Q 1688 2584 1439 2293 
Q 1191 2003 1191 1497 
Q 1191 994 1439 701 
Q 1688 409 2113 409 
Q 2538 409 2786 701 
Q 3034 994 3034 1497 
Q 3034 2003 2786 2293 
Q 2538 2584 2113 2584 
z
M 3366 4563 
L 3366 3988 
Q 3128 4100 2886 4159 
Q 2644 4219 2406 4219 
Q 1781 4219 1451 3797 
Q 1122 3375 1075 2522 
Q 1259 2794 1537 2939 
Q 1816 3084 2150 3084 
Q 2853 3084 3261 2657 
Q 3669 2231 3669 1497 
Q 3669 778 3244 343 
Q 2819 -91 2113 -91 
Q 1303 -91 875 529 
Q 447 1150 447 2328 
Q 447 3434 972 4092 
Q 1497 4750 2381 4750 
Q 2619 4750 2861 4703 
Q 3103 4656 3366 4563 
z
" transform="scale(0.015625)"/>
       </defs>
       <use xlink:href="#DejaVuSans-36"/>
       <use xlink:href="#DejaVuSans-30" transform="translate(63.623047 0)"/>
       <use xlink:href="#DejaVuSans-30" transform="translate(127.246094 0)"/>
      </g>
     </g>
    </g>
    <g id="text_4">
     <!-- Duração da etapa / s -->
     <g transform="translate(28.5025 203.06875) rotate(-90) scale(0.16 -0.16)">
      <defs>
       <path id="DejaVuSans-44" d="M 1259 4147 
L 1259 519 
L 2022 519 
Q 2988 519 3436 956 
Q 3884 1394 3884 2338 
Q 3884 3275 3436 3711 
Q 2988 4147 2022 4147 
L 1259 4147 
z
M 628 4666 
L 1925 4666 
Q 3281 4666 3915 4102 
Q 4550 3538 4550 2338 
Q 4550 1131 3912 565 
Q 3275 0 1925 0 
L 628 0 
L 628 4666 
z
" transform="scale(0.015625)"/>
       <path id="DejaVuSans-75" d="M 544 1381 
L 544 3500 
L 1119 3500 
L 1119 1403 
Q 1119 906 1312 657 
Q 1506 409 1894 409 
Q 2359 409 2629 706 
Q 2900 1003 2900 1516 
L 2900 3500 
L 3475 3500 
L 3475 0 
L 2900 0 
L 2900 538 
Q 2691 219 2414 64 
Q 2138 -91 1772 -91 
Q 1169 -91 856 284 
Q 544 659 544 1381 
z
M 1991 3584 
L 1991 3584 
z
" transform="scale(0.015625)"/>
       <path id="DejaVuSans-72" d="M 2631 2963 
Q 2534 3019 2420 3045 
Q 2306 3072 2169 3072 
Q 1681 3072 1420 2755 
Q 1159 2438 1159 1844 
L 1159 0 
L 581 0 
L 581 3500 
L 1159 3500 
L 1159 2956 
Q 1341 3275 1631 3429 
Q 1922 3584 2338 3584 
Q 2397 3584 2469 3576 
Q 2541 3569 2628 3553 
L 2631 2963 
z
" transform="scale(0.015625)"/>
       <path id="DejaVuSans-61" d="M 2194 1759 
Q 1497 1759 1228 1600 
Q 959 1441 959 1056 
Q 959 750 1161 570 
Q 1363 391 1709 391 
Q 2188 391 2477 730 
Q 2766 1069 2766 1631 
L 2766 1759 
L 2194 1759 
z
M 3341 1997 
L 3341 0 
L 2766 0 
L 2766 531 
Q 2569 213 2275 61 
Q 1981 -91 1556 -91 
Q 1019 -91 701 211 
Q 384 513 384 1019 
Q 384 1609 779 1909 
Q 1175 2209 1959 2209 
L 2766 2209 
L 2766 2266 
Q 2766 2663 2505 2880 
Q 2244 3097 1772 3097 
Q 1472 3097 1187 3025 
Q 903 2953 641 2809 
L 641 3341 
Q 956 3463 1253 3523 
Q 1550 3584 1831 3584 
Q 2591 3584 2966 3190 
Q 3341 2797 3341 1997 
z
" transform="scale(0.015625)"/>
       <path id="DejaVuSans-e7" d="M 3122 3366 
L 3122 2828 
Q 2878 2963 2633 3030 
Q 2388 3097 2138 3097 
Q 1578 3097 1268 2742 
Q 959 2388 959 1747 
Q 959 1106 1268 751 
Q 1578 397 2138 397 
Q 2388 397 2633 464 
Q 2878 531 3122 666 
L 3122 134 
Q 2881 22 2623 -34 
Q 2366 -91 2075 -91 
Q 1284 -91 818 406 
Q 353 903 353 1747 
Q 353 2603 823 3093 
Q 1294 3584 2113 3584 
Q 2378 3584 2631 3529 
Q 2884 3475 3122 3366 
z
M 2311 0 
Q 2482 -194 2566 -358 
Q 2651 -522 2651 -672 
Q 2651 -950 2463 -1092 
Q 2276 -1234 1907 -1234 
Q 1764 -1234 1628 -1215 
Q 1492 -1197 1357 -1159 
L 1357 -750 
Q 1464 -803 1579 -826 
Q 1695 -850 1842 -850 
Q 2026 -850 2120 -775 
Q 2214 -700 2214 -556 
Q 2214 -463 2146 -327 
Q 2079 -191 1939 0 
L 2311 0 
z
" transform="scale(0.015625)"/>
       <path id="DejaVuSans-e3" d="M 2194 1759 
Q 1497 1759 1228 1600 
Q 959 1441 959 1056 
Q 959 750 1161 570 
Q 1363 391 1709 391 
Q 2188 391 2477 730 
Q 2766 1069 2766 1631 
L 2766 1759 
L 2194 1759 
z
M 3341 1997 
L 3341 0 
L 2766 0 
L 2766 531 
Q 2569 213 2275 61 
Q 1981 -91 1556 -91 
Q 1019 -91 701 211 
Q 384 513 384 1019 
Q 384 1609 779 1909 
Q 1175 2209 1959 2209 
L 2766 2209 
L 2766 2266 
Q 2766 2663 2505 2880 
Q 2244 3097 1772 3097 
Q 1472 3097 1187 3025 
Q 903 2953 641 2809 
L 641 3341 
Q 956 3463 1253 3523 
Q 1550 3584 1831 3584 
Q 2591 3584 2966 3190 
Q 3341 2797 3341 1997 
z
M 1844 4281 
L 1665 4453 
Q 1597 4516 1545 4545 
Q 1494 4575 1453 4575 
Q 1334 4575 1278 4461 
Q 1222 4347 1215 4091 
L 825 4091 
Q 831 4513 990 4742 
Q 1150 4972 1434 4972 
Q 1553 4972 1653 4928 
Q 1753 4884 1869 4781 
L 2047 4609 
Q 2115 4547 2167 4517 
Q 2219 4488 2259 4488 
Q 2378 4488 2434 4602 
Q 2490 4716 2497 4972 
L 2887 4972 
Q 2881 4550 2721 4320 
Q 2562 4091 2278 4091 
Q 2159 4091 2059 4134 
Q 1959 4178 1844 4281 
z
" transform="scale(0.015625)"/>
       <path id="DejaVuSans-6f" d="M 1959 3097 
Q 1497 3097 1228 2736 
Q 959 2375 959 1747 
Q 959 1119 1226 758 
Q 1494 397 1959 397 
Q 2419 397 2687 759 
Q 2956 1122 2956 1747 
Q 2956 2369 2687 2733 
Q 2419 3097 1959 3097 
z
M 1959 3584 
Q 2709 3584 3137 3096 
Q 3566 2609 3566 1747 
Q 3566 888 3137 398 
Q 2709 -91 1959 -91 
Q 1206 -91 779 398 
Q 353 888 353 1747 
Q 353 2609 779 3096 
Q 1206 3584 1959 3584 
z
" transform="scale(0.015625)"/>
       <path id="DejaVuSans-20" transform="scale(0.015625)"/>
       <path id="DejaVuSans-64" d="M 2906 2969 
L 2906 4863 
L 3481 4863 
L 3481 0 
L 2906 0 
L 2906 525 
Q 2725 213 2448 61 
Q 2172 -91 1784 -91 
Q 1150 -91 751 415 
Q 353 922 353 1747 
Q 353 2572 751 3078 
Q 1150 3584 1784 3584 
Q 2172 3584 2448 3432 
Q 2725 3281 2906 2969 
z
M 947 1747 
Q 947 1113 1208 752 
Q 1469 391 1925 391 
Q 2381 391 2643 752 
Q 2906 1113 2906 1747 
Q 2906 2381 2643 2742 
Q 2381 3103 1925 3103 
Q 1469 3103 1208 2742 
Q 947 2381 947 1747 
z
" transform="scale(0.015625)"/>
       <path id="DejaVuSans-65" d="M 3597 1894 
L 3597 1613 
L 953 1613 
Q 991 1019 1311 708 
Q 1631 397 2203 397 
Q 2534 397 2845 478 
Q 3156 559 3463 722 
L 3463 178 
Q 3153 47 2828 -22 
Q 2503 -91 2169 -91 
Q 1331 -91 842 396 
Q 353 884 353 1716 
Q 353 2575 817 3079 
Q 1281 3584 2069 3584 
Q 2775 3584 3186 3129 
Q 3597 2675 3597 1894 
z
M 3022 2063 
Q 3016 2534 2758 2815 
Q 2500 3097 2075 3097 
Q 1594 3097 1305 2825 
Q 1016 2553 972 2059 
L 3022 2063 
z
" transform="scale(0.015625)"/>
       <path id="DejaVuSans-74" d="M 1172 4494 
L 1172 3500 
L 2356 3500 
L 2356 3053 
L 1172 3053 
L 1172 1153 
Q 1172 725 1289 603 
Q 1406 481 1766 481 
L 2356 481 
L 2356 0 
L 1766 0 
Q 1100 0 847 248 
Q 594 497 594 1153 
L 594 3053 
L 172 3053 
L 172 3500 
L 594 3500 
L 594 4494 
L 1172 4494 
z
" transform="scale(0.015625)"/>
       <path id="DejaVuSans-70" d="M 1159 525 
L 1159 -1331 
L 581 -1331 
L 581 3500 
L 1159 3500 
L 1159 2969 
Q 1341 3281 1617 3432 
Q 1894 3584 2278 3584 
Q 2916 3584 3314 3078 
Q 3713 2572 3713 1747 
Q 3713 922 3314 415 
Q 2916 -91 2278 -91 
Q 1894 -91 1617 61 
Q 1341 213 1159 525 
z
M 3116 1747 
Q 3116 2381 2855 2742 
Q 2594 3103 2138 3103 
Q 1681 3103 1420 2742 
Q 1159 2381 1159 1747 
Q 1159 1113 1420 752 
Q 1681 391 2138 391 
Q 2594 391 2855 752 
Q 3116 1113 3116 1747 
z
" transform="scale(0.015625)"/>
       <path id="DejaVuSans-2f" d="M 1625 4666 
L 2156 4666 
L 531 -594 
L 0 -594 
L 1625 4666 
z
" transform="scale(0.015625)"/>
       <path id="DejaVuSans-73" d="M 2834 3397 
L 2834 2853 
Q 2591 2978 2328 3040 
Q 2066 3103 1784 3103 
Q 1356 3103 1142 2972 
Q 928 2841 928 2578 
Q 928 2378 1081 2264 
Q 1234 2150 1697 2047 
L 1894 2003 
Q 2506 1872 2764 1633 
Q 3022 1394 3022 966 
Q 3022 478 2636 193 
Q 2250 -91 1575 -91 
Q 1294 -91 989 -36 
Q 684 19 347 128 
L 347 722 
Q 666 556 975 473 
Q 1284 391 1588 391 
Q 1994 391 2212 530 
Q 2431 669 2431 922 
Q 2431 1156 2273 1281 
Q 2116 1406 1581 1522 
L 1381 1569 
Q 847 1681 609 1914 
Q 372 2147 372 2553 
Q 372 3047 722 3315 
Q 1072 3584 1716 3584 
Q 2034 3584 2315 3537 
Q 2597 3491 2834 3397 
z
" transform="scale(0.015625)"/>
      </defs>
      <use xlink:href="#DejaVuSans-44"/>
      <use xlink:href="#DejaVuSans-75" transform="translate(77.001953 0)"/>
      <use xlink:href="#DejaVuSans-72" transform="translate(140.380859 0)"/>
      <use xlink:href="#DejaVuSans-61" transform="translate(181.494141 0)"/>
      <use xlink:href="#DejaVuSans-e7" transform="translate(242.773438 0)"/>
      <use xlink:href="#DejaVuSans-e3" transform="translate(297.753906 0)"/>
      <use xlink:href="#DejaVuSans-6f" transform="translate(359.033203 0)"/>
      <use xlink:href="#DejaVuSans-20" transform="translate(420.214844 0)"/>
      <use xlink:href="#DejaVuSans-64" transform="translate(452.001953 0)"/>
      <use xlink:href="#DejaVuSans-61" transform="translate(515.478516 0)"/>
      <use xlink:href="#DejaVuSans-20" transform="translate(576.757812 0)"/>
      <use xlink:href="#DejaVuSans-65" transform="translate(608.544922 0)"/>
      <use xlink:href="#DejaVuSans-74" transform="translate(670.068359 0)"/>
      <use xlink:href="#DejaVuSans-61" transform="translate(709.277344 0)"/>
      <use xlink:href="#DejaVuSans-70" transform="translate(770.556641 0)"/>
      <use xlink:href="#DejaVuSans-61" transform="translate(834.033203 0)"/>
      <use xlink:href="#DejaVuSans-20" transform="translate(895.3125 0)"/>
      <use xlink:href="#DejaVuSans-2f" transform="translate(927.099609 0)"/>
      <use xlink:href="#DejaVuSans-20" transform="translate(960.791016 0)"/>
      <use xlink:href="#DejaVuSans-73" transform="translate(992.578125 0)"/>
     </g>
    </g>
   </g>
   <g id="line2d_19">
    <path d="M 90.864604 26.754664 
L 94.398868 29.035395 
L 97.933131 30.984273 
L 101.467395 34.4049 
L 105.001658 38.517672 
L 108.535921 42.621602 
L 112.070185 45.878482 
L 115.604448 47.954912 
L 119.138712 49.325505 
L 122.672975 50.328807 
L 126.207239 51.089935 
L 129.741502 51.28819 
L 133.275766 51.48275 
L 136.810029 51.223611 
L 140.344293 51.356794 
L 143.878556 51.402295 
L 147.41282 51.443738 
L 150.947083 51.469502 
L 154.481346 51.485954 
L 158.01561 51.496397 
L 161.549873 51.489192 
L 165.084137 51.469426 
L 168.6184 51.436104 
L 172.152664 51.426692 
L 175.686927 51.420022 
L 179.221191 51.413879 
L 182.755454 51.408135 
L 186.289718 51.402763 
L 189.823981 51.397743 
L 193.358245 51.393049 
L 196.892508 51.388652 
L 200.426772 51.384514 
L 203.961035 51.380596 
L 207.495298 51.37685 
L 211.029562 51.37322 
L 214.563825 51.369635 
L 218.098089 51.369837 
L 221.632352 51.366045 
L 225.166616 51.36611 
L 228.700879 51.366065 
L 232.235143 51.361836 
L 235.769406 51.361768 
L 239.30367 51.361616 
L 242.837933 51.356547 
L 246.372197 51.356529 
L 249.90646 51.356529 
L 253.440723 51.356529 
L 256.974987 51.356529 
L 260.50925 51.356529 
L 264.043514 51.356529 
L 267.577777 42.977752 
L 271.112041 37.873204 
L 274.646304 34.526767 
L 278.180568 32.265934 
L 281.714831 30.911545 
L 285.249095 30.112007 
L 288.783358 29.465875 
L 292.317622 29.286136 
L 295.851885 29.056975 
L 299.386149 28.729349 
L 302.920412 28.621702 
L 306.454675 28.49722 
L 309.988939 28.484609 
L 313.523202 28.509295 
L 317.057466 28.526142 
L 320.591729 28.531131 
L 324.125993 28.529948 
L 327.660256 28.194262 
L 331.19452 28.173439 
L 334.728783 28.144636 
L 338.263047 28.106038 
L 341.79731 28.053428 
L 345.331574 28.051882 
L 348.865837 27.532832 
L 352.4001 27.53165 
L 355.934364 27.5302 
L 359.468627 27.5302 
L 363.002891 27.075908 
L 366.537154 26.99462 
L 370.071418 26.994238 
L 373.605681 26.993814 
L 377.139945 26.921365 
L 380.674208 26.920934 
L 384.208472 26.920439 
L 387.742735 26.573985 
L 391.276999 26.573132 
L 394.811262 26.573009 
L 398.345525 26.572887 
L 401.879789 26.572887 
L 405.414052 26.572764 
L 408.948316 26.572764 
L 412.482579 26.57264 
L 416.016843 26.572518 
L 419.551106 26.572518 
L 423.08537 26.572518 
L 426.619633 26.572395 
L 430.153897 26.572395 
L 433.68816 26.572273 
L 437.222424 26.572273 
L 440.756687 26.572273 
" clip-path="url(#pc5be071f0b)" style="fill: none; stroke: #1f77b4; stroke-width: 1.5; stroke-linecap: square"/>
   </g>
   <g id="line2d_20">
    <path d="M 90.864604 155.171616 
L 94.398868 176.098644 
L 97.933131 176.491817 
L 101.467395 173.230141 
L 105.001658 169.975346 
L 108.535921 167.372727 
L 112.070185 165.560859 
L 115.604448 164.239653 
L 119.138712 163.565093 
L 122.672975 163.218814 
L 126.207239 162.894988 
L 129.741502 162.973861 
L 133.275766 163.559411 
L 136.810029 164.445427 
L 140.344293 165.113763 
L 143.878556 165.730325 
L 147.41282 166.251898 
L 150.947083 166.668919 
L 154.481346 166.987215 
L 158.01561 167.22348 
L 161.549873 167.399013 
L 165.084137 167.511457 
L 168.6184 167.578652 
L 172.152664 167.576104 
L 175.686927 167.57171 
L 179.221191 167.565084 
L 182.755454 167.557132 
L 186.289718 167.548516 
L 189.823981 167.539718 
L 193.358245 167.53107 
L 196.892508 167.522779 
L 200.426772 167.514957 
L 203.961035 167.507643 
L 207.495298 167.500822 
L 211.029562 167.49444 
L 214.563825 167.488399 
L 218.098089 167.489317 
L 221.632352 167.481994 
L 225.166616 167.482488 
L 228.700879 167.482639 
L 232.235143 167.473935 
L 235.769406 167.474045 
L 239.30367 167.473911 
L 242.837933 167.464411 
L 246.372197 167.46442 
L 249.90646 167.46442 
L 253.440723 167.46442 
L 256.974987 167.46442 
L 260.50925 167.46442 
L 264.043514 167.46442 
L 267.577777 155.171616 
L 271.112041 155.171616 
L 274.646304 155.171616 
L 278.180568 155.171616 
L 281.714831 155.171616 
L 285.249095 155.171616 
L 288.783358 155.171616 
L 292.317622 155.171616 
L 295.851885 155.171616 
L 299.386149 155.171616 
L 302.920412 155.171616 
L 306.454675 155.171616 
L 309.988939 155.319992 
L 313.523202 155.531469 
L 317.057466 155.83255 
L 320.591729 156.106291 
L 324.125993 156.33794 
L 327.660256 156.649052 
L 331.19452 156.79071 
L 334.728783 156.920179 
L 338.263047 157.033374 
L 341.79731 157.130884 
L 345.331574 157.128975 
L 348.865837 157.322897 
L 352.4001 157.321593 
L 355.934364 157.320652 
L 359.468627 157.320652 
L 363.002891 157.413998 
L 366.537154 157.364613 
L 370.071418 157.365156 
L 373.605681 157.365518 
L 377.139945 157.320245 
L 380.674208 157.320602 
L 384.208472 157.320807 
L 387.742735 157.389512 
L 391.276999 157.388434 
L 394.811262 157.388303 
L 398.345525 157.388176 
L 401.879789 157.388176 
L 405.414052 157.38805 
L 408.948316 157.38805 
L 412.482579 157.387927 
L 416.016843 157.387808 
L 419.551106 157.387808 
L 423.08537 157.387808 
L 426.619633 157.38769 
L 430.153897 157.38769 
L 433.68816 157.387576 
L 437.222424 157.387576 
L 440.756687 157.387576 
" clip-path="url(#pc5be071f0b)" style="fill: none; stroke: #ff7f0e; stroke-width: 1.5; stroke-linecap: square"/>
   </g>
   <g id="line2d_21">
    <path d="M 90.864604 196.945805 
L 94.398868 196.945805 
L 97.933131 194.898674 
L 101.467395 193.851421 
L 105.001658 193.851421 
L 108.535921 193.851421 
L 112.070185 193.851421 
L 115.604448 193.851421 
L 119.138712 193.851421 
L 122.672975 193.851421 
L 126.207239 193.851421 
L 129.741502 193.851421 
L 133.275766 193.851421 
L 136.810029 194.162778 
L 140.344293 195.238679 
L 143.878556 195.970283 
L 147.41282 196.452601 
L 150.947083 196.759703 
L 154.481346 196.913307 
L 158.01561 196.938305 
L 161.549873 196.945805 
L 165.084137 196.945805 
L 168.6184 196.945805 
L 172.152664 196.945805 
L 175.686927 196.929726 
L 179.221191 196.903283 
L 182.755454 196.871629 
L 186.289718 196.838435 
L 189.823981 196.806114 
L 193.358245 196.776128 
L 196.892508 196.749254 
L 200.426772 196.725804 
L 203.961035 196.705783 
L 207.495298 196.689008 
L 211.029562 196.675195 
L 214.563825 196.664008 
L 218.098089 196.662883 
L 221.632352 196.652264 
L 225.166616 196.651387 
L 228.700879 196.650407 
L 232.235143 196.640609 
L 235.769406 196.640032 
L 239.30367 196.639436 
L 242.837933 196.632522 
L 246.372197 196.632489 
L 249.90646 196.632489 
L 253.440723 196.632489 
L 256.974987 196.632489 
L 260.50925 196.632489 
L 264.043514 196.632489 
L 267.577777 193.851421 
L 271.112041 193.851421 
L 274.646304 193.851421 
L 278.180568 193.851421 
L 281.714831 193.851421 
L 285.249095 193.851421 
L 288.783358 193.851421 
L 292.317622 193.851421 
L 295.851885 193.851421 
L 299.386149 193.851421 
L 302.920412 193.851421 
L 306.454675 194.166566 
L 309.988939 195.06354 
L 313.523202 195.751665 
L 317.057466 196.237054 
L 320.591729 196.565952 
L 324.125993 196.782254 
L 327.660256 196.945805 
L 331.19452 196.945805 
L 334.728783 196.945805 
L 338.263047 196.945805 
L 341.79731 196.945805 
L 345.331574 196.945805 
L 348.865837 196.945805 
L 352.4001 196.945805 
L 355.934364 196.945805 
L 359.468627 196.945805 
L 363.002891 196.945805 
L 366.537154 196.945805 
L 370.071418 196.945805 
L 373.605681 196.945805 
L 377.139945 196.945805 
L 380.674208 196.945805 
L 384.208472 196.945805 
L 387.742735 196.945805 
L 391.276999 196.945805 
L 394.811262 196.945805 
L 398.345525 196.945805 
L 401.879789 196.945805 
L 405.414052 196.945805 
L 408.948316 196.945805 
L 412.482579 196.945805 
L 416.016843 196.945805 
L 419.551106 196.945805 
L 423.08537 196.945805 
L 426.619633 196.945805 
L 430.153897 196.945805 
L 433.68816 196.945805 
L 437.222424 196.945805 
L 440.756687 196.945805 
" clip-path="url(#pc5be071f0b)" style="fill: none; stroke: #2ca02c; stroke-width: 1.5; stroke-linecap: square"/>
   </g>
   <g id="line2d_22">
    <path d="M 90.864604 212.417727 
L 94.398868 207.848008 
L 97.933131 206.603819 
L 101.467395 204.999159 
L 105.001658 203.690365 
L 108.535921 202.787505 
L 112.070185 202.2138 
L 115.604448 201.786746 
L 119.138712 201.587382 
L 122.672975 201.587382 
L 126.207239 201.587382 
L 129.741502 201.663138 
L 133.275766 202.021877 
L 136.810029 202.457875 
L 140.344293 202.851978 
L 143.878556 203.211138 
L 147.41282 203.518814 
L 150.947083 203.769083 
L 154.481346 203.974743 
L 158.01561 204.130535 
L 161.549873 204.238218 
L 165.084137 204.314205 
L 168.6184 204.356782 
L 172.152664 204.371843 
L 175.686927 204.373728 
L 179.221191 204.370978 
L 182.755454 204.365176 
L 186.289718 204.357691 
L 189.823981 204.349482 
L 193.358245 204.341168 
L 196.892508 204.333124 
L 200.426772 204.325556 
L 203.961035 204.318557 
L 207.495298 204.312147 
L 211.029562 204.30629 
L 214.563825 204.300916 
L 218.098089 204.297721 
L 221.632352 204.293658 
L 225.166616 204.29134 
L 228.700879 204.289469 
L 232.235143 204.285875 
L 235.769406 204.284373 
L 239.30367 204.283218 
L 242.837933 204.279076 
L 246.372197 204.278883 
L 249.90646 204.278883 
L 253.440723 204.278883 
L 256.974987 204.278883 
L 260.50925 204.278883 
L 264.043514 204.278883 
L 267.577777 202.493697 
L 271.112041 201.996327 
L 274.646304 201.733269 
L 278.180568 201.591798 
L 281.714831 201.587382 
L 285.249095 201.587382 
L 288.783358 201.587382 
L 292.317622 201.639013 
L 295.851885 201.698938 
L 299.386149 201.740041 
L 302.920412 201.831144 
L 306.454675 201.892295 
L 309.988939 201.998532 
L 313.523202 202.130742 
L 317.057466 202.288053 
L 320.591729 202.435593 
L 324.125993 202.57185 
L 327.660256 202.667585 
L 331.19452 202.759673 
L 334.728783 202.840696 
L 338.263047 202.909533 
L 341.79731 202.9653 
L 345.331574 202.971037 
L 348.865837 202.981232 
L 352.4001 202.984163 
L 355.934364 202.98605 
L 359.468627 202.98605 
L 363.002891 202.955436 
L 366.537154 202.918059 
L 370.071418 202.916146 
L 373.605681 202.914197 
L 377.139945 202.878366 
L 380.674208 202.876874 
L 384.208472 202.875422 
L 387.742735 202.845376 
L 391.276999 202.846462 
L 394.811262 202.846554 
L 398.345525 202.846643 
L 401.879789 202.846643 
L 405.414052 202.84674 
L 408.948316 202.84674 
L 412.482579 202.846843 
L 416.016843 202.84694 
L 419.551106 202.84694 
L 423.08537 202.84694 
L 426.619633 202.847049 
L 430.153897 202.847049 
L 433.68816 202.847157 
L 437.222424 202.847157 
L 440.756687 202.847157 
" clip-path="url(#pc5be071f0b)" style="fill: none; stroke: #d62728; stroke-width: 1.5; stroke-linecap: square"/>
   </g>
   <g id="patch_3">
    <path d="M 73.37 221.71 
L 73.37 17.28 
" style="fill: none; stroke: #000000; stroke-width: 0.8; stroke-linejoin: miter; stroke-linecap: square"/>
   </g>
   <g id="patch_4">
    <path d="M 458.251291 221.71 
L 458.251291 17.28 
" style="fill: none; stroke: #000000; stroke-width: 0.8; stroke-linejoin: miter; stroke-linecap: square"/>
   </g>
   <g id="patch_5">
    <path d="M 73.37 221.71 
L 458.251291 221.71 
" style="fill: none; stroke: #000000; stroke-width: 0.8; stroke-linejoin: miter; stroke-linecap: square"/>
   </g>
   <g id="patch_6">
    <path d="M 73.37 17.28 
L 458.251291 17.28 
" style="fill: none; stroke: #000000; stroke-width: 0.8; stroke-linejoin: miter; stroke-linecap: square"/>
   </g>
   <g id="legend_1">
    <g id="line2d_23">
     <path d="M 472.651291 82.26625 
L 488.651291 82.26625 
L 504.651291 82.26625 
" style="fill: none; stroke: #1f77b4; stroke-width: 1.5; stroke-linecap: square"/>
    </g>
    <g id="text_5">
     <!-- $t_{feed}$ -->
     <g transform="translate(517.451291 87.86625) scale(0.16 -0.16)">
      <defs>
       <path id="DejaVuSans-Oblique-74" d="M 2706 3500 
L 2619 3053 
L 1472 3053 
L 1100 1153 
Q 1081 1047 1072 975 
Q 1063 903 1063 863 
Q 1063 663 1183 572 
Q 1303 481 1569 481 
L 2150 481 
L 2053 0 
L 1503 0 
Q 991 0 739 200 
Q 488 400 488 806 
Q 488 878 497 964 
Q 506 1050 525 1153 
L 897 3053 
L 409 3053 
L 500 3500 
L 978 3500 
L 1172 4494 
L 1747 4494 
L 1556 3500 
L 2706 3500 
z
" transform="scale(0.015625)"/>
       <path id="DejaVuSans-Oblique-66" d="M 3059 4863 
L 2969 4384 
L 2419 4384 
Q 2106 4384 1964 4261 
Q 1822 4138 1753 3809 
L 1691 3500 
L 2638 3500 
L 2553 3053 
L 1606 3053 
L 1013 0 
L 434 0 
L 1031 3053 
L 481 3053 
L 563 3500 
L 1113 3500 
L 1159 3744 
Q 1278 4363 1576 4613 
Q 1875 4863 2516 4863 
L 3059 4863 
z
" transform="scale(0.015625)"/>
       <path id="DejaVuSans-Oblique-65" d="M 3078 2063 
Q 3088 2113 3092 2166 
Q 3097 2219 3097 2272 
Q 3097 2653 2873 2875 
Q 2650 3097 2266 3097 
Q 1838 3097 1509 2826 
Q 1181 2556 1013 2059 
L 3078 2063 
z
M 3578 1613 
L 903 1613 
Q 884 1494 878 1425 
Q 872 1356 872 1306 
Q 872 872 1139 634 
Q 1406 397 1894 397 
Q 2269 397 2603 481 
Q 2938 566 3225 728 
L 3116 159 
Q 2806 34 2476 -28 
Q 2147 -91 1806 -91 
Q 1078 -91 686 257 
Q 294 606 294 1247 
Q 294 1794 489 2264 
Q 684 2734 1063 3103 
Q 1306 3334 1642 3459 
Q 1978 3584 2356 3584 
Q 2950 3584 3301 3228 
Q 3653 2872 3653 2272 
Q 3653 2128 3634 1964 
Q 3616 1800 3578 1613 
z
" transform="scale(0.015625)"/>
       <path id="DejaVuSans-Oblique-64" d="M 2675 525 
Q 2444 222 2128 65 
Q 1813 -91 1428 -91 
Q 903 -91 598 267 
Q 294 625 294 1247 
Q 294 1766 478 2236 
Q 663 2706 1013 3078 
Q 1244 3325 1534 3454 
Q 1825 3584 2144 3584 
Q 2481 3584 2739 3421 
Q 2997 3259 3138 2956 
L 3513 4863 
L 4091 4863 
L 3144 0 
L 2566 0 
L 2675 525 
z
M 891 1350 
Q 891 897 1095 644 
Q 1300 391 1663 391 
Q 1931 391 2161 520 
Q 2391 650 2566 903 
Q 2750 1166 2856 1509 
Q 2963 1853 2963 2188 
Q 2963 2622 2758 2865 
Q 2553 3109 2194 3109 
Q 1922 3109 1687 2981 
Q 1453 2853 1288 2613 
Q 1106 2353 998 2009 
Q 891 1666 891 1350 
z
" transform="scale(0.015625)"/>
      </defs>
      <use xlink:href="#DejaVuSans-Oblique-74" transform="translate(0 0.78125)"/>
      <use xlink:href="#DejaVuSans-Oblique-66" transform="translate(39.208984 -15.625) scale(0.7)"/>
      <use xlink:href="#DejaVuSans-Oblique-65" transform="translate(63.852539 -15.625) scale(0.7)"/>
      <use xlink:href="#DejaVuSans-Oblique-65" transform="translate(106.918945 -15.625) scale(0.7)"/>
      <use xlink:href="#DejaVuSans-Oblique-64" transform="translate(149.985352 -15.625) scale(0.7)"/>
     </g>
    </g>
    <g id="line2d_24">
     <path d="M 472.651291 105.75125 
L 488.651291 105.75125 
L 504.651291 105.75125 
" style="fill: none; stroke: #ff7f0e; stroke-width: 1.5; stroke-linecap: square"/>
    </g>
    <g id="text_6">
     <!-- $t_{rinse}$ -->
     <g transform="translate(517.451291 111.35125) scale(0.16 -0.16)">
      <defs>
       <path id="DejaVuSans-Oblique-72" d="M 2853 2969 
Q 2766 3016 2653 3041 
Q 2541 3066 2413 3066 
Q 1953 3066 1609 2717 
Q 1266 2369 1153 1784 
L 800 0 
L 225 0 
L 909 3500 
L 1484 3500 
L 1375 2956 
Q 1603 3259 1920 3421 
Q 2238 3584 2597 3584 
Q 2691 3584 2781 3573 
Q 2872 3563 2963 3538 
L 2853 2969 
z
" transform="scale(0.015625)"/>
       <path id="DejaVuSans-Oblique-69" d="M 1172 4863 
L 1747 4863 
L 1606 4134 
L 1031 4134 
L 1172 4863 
z
M 909 3500 
L 1484 3500 
L 800 0 
L 225 0 
L 909 3500 
z
" transform="scale(0.015625)"/>
       <path id="DejaVuSans-Oblique-6e" d="M 3566 2113 
L 3156 0 
L 2578 0 
L 2988 2091 
Q 3016 2238 3031 2350 
Q 3047 2463 3047 2528 
Q 3047 2791 2881 2937 
Q 2716 3084 2419 3084 
Q 1956 3084 1622 2776 
Q 1288 2469 1184 1941 
L 800 0 
L 225 0 
L 903 3500 
L 1478 3500 
L 1363 2950 
Q 1603 3253 1940 3418 
Q 2278 3584 2650 3584 
Q 3113 3584 3367 3334 
Q 3622 3084 3622 2631 
Q 3622 2519 3608 2391 
Q 3594 2263 3566 2113 
z
" transform="scale(0.015625)"/>
       <path id="DejaVuSans-Oblique-73" d="M 3200 3397 
L 3091 2853 
Q 2863 2978 2609 3040 
Q 2356 3103 2088 3103 
Q 1634 3103 1373 2948 
Q 1113 2794 1113 2528 
Q 1113 2219 1719 2053 
Q 1766 2041 1788 2034 
L 1972 1978 
Q 2547 1819 2739 1644 
Q 2931 1469 2931 1166 
Q 2931 609 2489 259 
Q 2047 -91 1331 -91 
Q 1053 -91 747 -37 
Q 441 16 72 128 
L 184 722 
Q 500 559 806 475 
Q 1113 391 1394 391 
Q 1816 391 2080 572 
Q 2344 753 2344 1031 
Q 2344 1331 1650 1516 
L 1591 1531 
L 1394 1581 
Q 956 1697 753 1886 
Q 550 2075 550 2369 
Q 550 2928 970 3256 
Q 1391 3584 2113 3584 
Q 2397 3584 2667 3537 
Q 2938 3491 3200 3397 
z
" transform="scale(0.015625)"/>
      </defs>
      <use xlink:href="#DejaVuSans-Oblique-74" transform="translate(0 0.78125)"/>
      <use xlink:href="#DejaVuSans-Oblique-72" transform="translate(39.208984 -15.625) scale(0.7)"/>
      <use xlink:href="#DejaVuSans-Oblique-69" transform="translate(67.988281 -15.625) scale(0.7)"/>
      <use xlink:href="#DejaVuSans-Oblique-6e" transform="translate(87.436523 -15.625) scale(0.7)"/>
      <use xlink:href="#DejaVuSans-Oblique-73" transform="translate(131.801758 -15.625) scale(0.7)"/>
      <use xlink:href="#DejaVuSans-Oblique-65" transform="translate(168.271484 -15.625) scale(0.7)"/>
     </g>
    </g>
    <g id="line2d_25">
     <path d="M 472.651291 129.23625 
L 488.651291 129.23625 
L 504.651291 129.23625 
" style="fill: none; stroke: #2ca02c; stroke-width: 1.5; stroke-linecap: square"/>
    </g>
    <g id="text_7">
     <!-- $t_{blow}$ -->
     <g transform="translate(517.451291 134.83625) scale(0.16 -0.16)">
      <defs>
       <path id="DejaVuSans-Oblique-62" d="M 3169 2138 
Q 3169 2591 2961 2847 
Q 2753 3103 2388 3103 
Q 2122 3103 1889 2973 
Q 1656 2844 1484 2597 
Q 1303 2338 1198 1995 
Q 1094 1653 1094 1313 
Q 1094 881 1298 636 
Q 1503 391 1863 391 
Q 2134 391 2365 517 
Q 2597 644 2772 891 
Q 2950 1147 3059 1487 
Q 3169 1828 3169 2138 
z
M 1381 2969 
Q 1594 3256 1914 3420 
Q 2234 3584 2584 3584 
Q 3122 3584 3439 3221 
Q 3756 2859 3756 2241 
Q 3756 1734 3570 1259 
Q 3384 784 3041 416 
Q 2816 172 2522 40 
Q 2228 -91 1906 -91 
Q 1566 -91 1316 65 
Q 1066 222 909 531 
L 806 0 
L 231 0 
L 1178 4863 
L 1753 4863 
L 1381 2969 
z
" transform="scale(0.015625)"/>
       <path id="DejaVuSans-Oblique-6c" d="M 1172 4863 
L 1747 4863 
L 800 0 
L 225 0 
L 1172 4863 
z
" transform="scale(0.015625)"/>
       <path id="DejaVuSans-Oblique-6f" d="M 1625 -91 
Q 1009 -91 651 289 
Q 294 669 294 1325 
Q 294 1706 417 2101 
Q 541 2497 738 2766 
Q 1047 3184 1428 3384 
Q 1809 3584 2291 3584 
Q 2888 3584 3255 3212 
Q 3622 2841 3622 2241 
Q 3622 1825 3500 1412 
Q 3378 1000 3181 728 
Q 2875 309 2494 109 
Q 2113 -91 1625 -91 
z
M 891 1344 
Q 891 869 1089 633 
Q 1288 397 1691 397 
Q 2269 397 2648 901 
Q 3028 1406 3028 2181 
Q 3028 2634 2825 2865 
Q 2622 3097 2228 3097 
Q 1903 3097 1650 2945 
Q 1397 2794 1197 2484 
Q 1050 2253 970 1956 
Q 891 1659 891 1344 
z
" transform="scale(0.015625)"/>
       <path id="DejaVuSans-Oblique-77" d="M 544 3500 
L 1113 3500 
L 1259 684 
L 2566 3500 
L 3231 3500 
L 3425 684 
L 4666 3500 
L 5241 3500 
L 3641 0 
L 2969 0 
L 2797 2900 
L 1459 0 
L 781 0 
L 544 3500 
z
" transform="scale(0.015625)"/>
      </defs>
      <use xlink:href="#DejaVuSans-Oblique-74" transform="translate(0 0.78125)"/>
      <use xlink:href="#DejaVuSans-Oblique-62" transform="translate(39.208984 -15.625) scale(0.7)"/>
      <use xlink:href="#DejaVuSans-Oblique-6c" transform="translate(83.642578 -15.625) scale(0.7)"/>
      <use xlink:href="#DejaVuSans-Oblique-6f" transform="translate(103.09082 -15.625) scale(0.7)"/>
      <use xlink:href="#DejaVuSans-Oblique-77" transform="translate(145.917969 -15.625) scale(0.7)"/>
     </g>
    </g>
    <g id="line2d_26">
     <path d="M 472.651291 152.72125 
L 488.651291 152.72125 
L 504.651291 152.72125 
" style="fill: none; stroke: #d62728; stroke-width: 1.5; stroke-linecap: square"/>
    </g>
    <g id="text_8">
     <!-- $t_{purge}$ -->
     <g transform="translate(517.451291 158.32125) scale(0.16 -0.16)">
      <defs>
       <path id="DejaVuSans-Oblique-70" d="M 3175 2156 
Q 3175 2616 2975 2859 
Q 2775 3103 2400 3103 
Q 2144 3103 1911 2972 
Q 1678 2841 1497 2591 
Q 1319 2344 1212 1994 
Q 1106 1644 1106 1300 
Q 1106 863 1306 627 
Q 1506 391 1875 391 
Q 2147 391 2380 519 
Q 2613 647 2778 891 
Q 2956 1147 3065 1494 
Q 3175 1841 3175 2156 
z
M 1394 2969 
Q 1625 3272 1939 3428 
Q 2253 3584 2638 3584 
Q 3175 3584 3472 3232 
Q 3769 2881 3769 2247 
Q 3769 1728 3584 1258 
Q 3400 788 3053 416 
Q 2822 169 2531 39 
Q 2241 -91 1919 -91 
Q 1547 -91 1294 64 
Q 1041 219 916 525 
L 556 -1331 
L -19 -1331 
L 922 3500 
L 1497 3500 
L 1394 2969 
z
" transform="scale(0.015625)"/>
       <path id="DejaVuSans-Oblique-75" d="M 428 1388 
L 838 3500 
L 1416 3500 
L 1006 1409 
Q 975 1256 961 1147 
Q 947 1038 947 966 
Q 947 700 1109 554 
Q 1272 409 1569 409 
Q 2031 409 2368 721 
Q 2706 1034 2809 1563 
L 3194 3500 
L 3769 3500 
L 3091 0 
L 2516 0 
L 2631 550 
Q 2388 244 2052 76 
Q 1716 -91 1338 -91 
Q 878 -91 622 161 
Q 366 413 366 863 
Q 366 956 381 1097 
Q 397 1238 428 1388 
z
" transform="scale(0.015625)"/>
       <path id="DejaVuSans-Oblique-67" d="M 3816 3500 
L 3219 434 
Q 3047 -456 2561 -893 
Q 2075 -1331 1253 -1331 
Q 950 -1331 690 -1286 
Q 431 -1241 206 -1147 
L 313 -588 
Q 525 -725 762 -790 
Q 1000 -856 1269 -856 
Q 1816 -856 2167 -557 
Q 2519 -259 2631 300 
L 2681 563 
Q 2441 288 2122 144 
Q 1803 0 1434 0 
Q 903 0 598 351 
Q 294 703 294 1319 
Q 294 1803 478 2267 
Q 663 2731 997 3091 
Q 1219 3328 1514 3456 
Q 1809 3584 2131 3584 
Q 2484 3584 2746 3420 
Q 3009 3256 3138 2956 
L 3238 3500 
L 3816 3500 
z
M 2950 2216 
Q 2950 2641 2750 2872 
Q 2550 3103 2181 3103 
Q 1953 3103 1747 3012 
Q 1541 2922 1394 2759 
Q 1156 2491 1023 2127 
Q 891 1763 891 1375 
Q 891 944 1092 712 
Q 1294 481 1672 481 
Q 2219 481 2584 976 
Q 2950 1472 2950 2216 
z
" transform="scale(0.015625)"/>
      </defs>
      <use xlink:href="#DejaVuSans-Oblique-74" transform="translate(0 0.78125)"/>
      <use xlink:href="#DejaVuSans-Oblique-70" transform="translate(39.208984 -15.625) scale(0.7)"/>
      <use xlink:href="#DejaVuSans-Oblique-75" transform="translate(83.642578 -15.625) scale(0.7)"/>
      <use xlink:href="#DejaVuSans-Oblique-72" transform="translate(128.007812 -15.625) scale(0.7)"/>
      <use xlink:href="#DejaVuSans-Oblique-67" transform="translate(156.787109 -15.625) scale(0.7)"/>
      <use xlink:href="#DejaVuSans-Oblique-65" transform="translate(201.220703 -15.625) scale(0.7)"/>
     </g>
    </g>
   </g>
  </g>
  <g id="axes_2">
   <g id="patch_7">
    <path d="M 73.37 446.92 
L 458.251291 446.92 
L 458.251291 242.49 
L 73.37 242.49 
z
" style="fill: #ffffff"/>
   </g>
   <g id="matplotlib.axis_3">
    <g id="xtick_7">
     <g id="line2d_27">
      <path d="M 90.864604 446.92 
L 90.864604 242.49 
" clip-path="url(#pe56a66fde4)" style="fill: none; stroke: #b0b0b0; stroke-width: 0.8; stroke-linecap: square"/>
     </g>
     <g id="line2d_28">
      <g>
       <use xlink:href="#mfef5b1150d" x="90.864604" y="446.92" style="stroke: #000000; stroke-width: 0.8"/>
      </g>
     </g>
     <g id="text_9">
      <!-- 0 -->
      <g transform="translate(85.774604 466.0775) scale(0.16 -0.16)">
       <use xlink:href="#DejaVuSans-30"/>
      </g>
     </g>
    </g>
    <g id="xtick_8">
     <g id="line2d_29">
      <path d="M 161.549873 446.92 
L 161.549873 242.49 
" clip-path="url(#pe56a66fde4)" style="fill: none; stroke: #b0b0b0; stroke-width: 0.8; stroke-linecap: square"/>
     </g>
     <g id="line2d_30">
      <g>
       <use xlink:href="#mfef5b1150d" x="161.549873" y="446.92" style="stroke: #000000; stroke-width: 0.8"/>
      </g>
     </g>
     <g id="text_10">
      <!-- 20 -->
      <g transform="translate(151.369873 466.0775) scale(0.16 -0.16)">
       <use xlink:href="#DejaVuSans-32"/>
       <use xlink:href="#DejaVuSans-30" transform="translate(63.623047 0)"/>
      </g>
     </g>
    </g>
    <g id="xtick_9">
     <g id="line2d_31">
      <path d="M 232.235143 446.92 
L 232.235143 242.49 
" clip-path="url(#pe56a66fde4)" style="fill: none; stroke: #b0b0b0; stroke-width: 0.8; stroke-linecap: square"/>
     </g>
     <g id="line2d_32">
      <g>
       <use xlink:href="#mfef5b1150d" x="232.235143" y="446.92" style="stroke: #000000; stroke-width: 0.8"/>
      </g>
     </g>
     <g id="text_11">
      <!-- 40 -->
      <g transform="translate(222.055143 466.0775) scale(0.16 -0.16)">
       <use xlink:href="#DejaVuSans-34"/>
       <use xlink:href="#DejaVuSans-30" transform="translate(63.623047 0)"/>
      </g>
     </g>
    </g>
    <g id="xtick_10">
     <g id="line2d_33">
      <path d="M 302.920412 446.92 
L 302.920412 242.49 
" clip-path="url(#pe56a66fde4)" style="fill: none; stroke: #b0b0b0; stroke-width: 0.8; stroke-linecap: square"/>
     </g>
     <g id="line2d_34">
      <g>
       <use xlink:href="#mfef5b1150d" x="302.920412" y="446.92" style="stroke: #000000; stroke-width: 0.8"/>
      </g>
     </g>
     <g id="text_12">
      <!-- 60 -->
      <g transform="translate(292.740412 466.0775) scale(0.16 -0.16)">
       <use xlink:href="#DejaVuSans-36"/>
       <use xlink:href="#DejaVuSans-30" transform="translate(63.623047 0)"/>
      </g>
     </g>
    </g>
    <g id="xtick_11">
     <g id="line2d_35">
      <path d="M 373.605681 446.92 
L 373.605681 242.49 
" clip-path="url(#pe56a66fde4)" style="fill: none; stroke: #b0b0b0; stroke-width: 0.8; stroke-linecap: square"/>
     </g>
     <g id="line2d_36">
      <g>
       <use xlink:href="#mfef5b1150d" x="373.605681" y="446.92" style="stroke: #000000; stroke-width: 0.8"/>
      </g>
     </g>
     <g id="text_13">
      <!-- 80 -->
      <g transform="translate(363.425681 466.0775) scale(0.16 -0.16)">
       <defs>
        <path id="DejaVuSans-38" d="M 2034 2216 
Q 1584 2216 1326 1975 
Q 1069 1734 1069 1313 
Q 1069 891 1326 650 
Q 1584 409 2034 409 
Q 2484 409 2743 651 
Q 3003 894 3003 1313 
Q 3003 1734 2745 1975 
Q 2488 2216 2034 2216 
z
M 1403 2484 
Q 997 2584 770 2862 
Q 544 3141 544 3541 
Q 544 4100 942 4425 
Q 1341 4750 2034 4750 
Q 2731 4750 3128 4425 
Q 3525 4100 3525 3541 
Q 3525 3141 3298 2862 
Q 3072 2584 2669 2484 
Q 3125 2378 3379 2068 
Q 3634 1759 3634 1313 
Q 3634 634 3220 271 
Q 2806 -91 2034 -91 
Q 1263 -91 848 271 
Q 434 634 434 1313 
Q 434 1759 690 2068 
Q 947 2378 1403 2484 
z
M 1172 3481 
Q 1172 3119 1398 2916 
Q 1625 2713 2034 2713 
Q 2441 2713 2670 2916 
Q 2900 3119 2900 3481 
Q 2900 3844 2670 4047 
Q 2441 4250 2034 4250 
Q 1625 4250 1398 4047 
Q 1172 3844 1172 3481 
z
" transform="scale(0.015625)"/>
       </defs>
       <use xlink:href="#DejaVuSans-38"/>
       <use xlink:href="#DejaVuSans-30" transform="translate(63.623047 0)"/>
      </g>
     </g>
    </g>
    <g id="xtick_12">
     <g id="line2d_37">
      <path d="M 444.290951 446.92 
L 444.290951 242.49 
" clip-path="url(#pe56a66fde4)" style="fill: none; stroke: #b0b0b0; stroke-width: 0.8; stroke-linecap: square"/>
     </g>
     <g id="line2d_38">
      <g>
       <use xlink:href="#mfef5b1150d" x="444.290951" y="446.92" style="stroke: #000000; stroke-width: 0.8"/>
      </g>
     </g>
     <g id="text_14">
      <!-- 100 -->
      <g transform="translate(429.020951 466.0775) scale(0.16 -0.16)">
       <defs>
        <path id="DejaVuSans-31" d="M 794 531 
L 1825 531 
L 1825 4091 
L 703 3866 
L 703 4441 
L 1819 4666 
L 2450 4666 
L 2450 531 
L 3481 531 
L 3481 0 
L 794 0 
L 794 531 
z
" transform="scale(0.015625)"/>
       </defs>
       <use xlink:href="#DejaVuSans-31"/>
       <use xlink:href="#DejaVuSans-30" transform="translate(63.623047 0)"/>
       <use xlink:href="#DejaVuSans-30" transform="translate(127.246094 0)"/>
      </g>
     </g>
    </g>
    <g id="text_15">
     <!-- Ciclo -->
     <g transform="translate(246.485646 485.5625) scale(0.16 -0.16)">
      <defs>
       <path id="DejaVuSans-43" d="M 4122 4306 
L 4122 3641 
Q 3803 3938 3442 4084 
Q 3081 4231 2675 4231 
Q 1875 4231 1450 3742 
Q 1025 3253 1025 2328 
Q 1025 1406 1450 917 
Q 1875 428 2675 428 
Q 3081 428 3442 575 
Q 3803 722 4122 1019 
L 4122 359 
Q 3791 134 3420 21 
Q 3050 -91 2638 -91 
Q 1578 -91 968 557 
Q 359 1206 359 2328 
Q 359 3453 968 4101 
Q 1578 4750 2638 4750 
Q 3056 4750 3426 4639 
Q 3797 4528 4122 4306 
z
" transform="scale(0.015625)"/>
       <path id="DejaVuSans-69" d="M 603 3500 
L 1178 3500 
L 1178 0 
L 603 0 
L 603 3500 
z
M 603 4863 
L 1178 4863 
L 1178 4134 
L 603 4134 
L 603 4863 
z
" transform="scale(0.015625)"/>
       <path id="DejaVuSans-63" d="M 3122 3366 
L 3122 2828 
Q 2878 2963 2633 3030 
Q 2388 3097 2138 3097 
Q 1578 3097 1268 2742 
Q 959 2388 959 1747 
Q 959 1106 1268 751 
Q 1578 397 2138 397 
Q 2388 397 2633 464 
Q 2878 531 3122 666 
L 3122 134 
Q 2881 22 2623 -34 
Q 2366 -91 2075 -91 
Q 1284 -91 818 406 
Q 353 903 353 1747 
Q 353 2603 823 3093 
Q 1294 3584 2113 3584 
Q 2378 3584 2631 3529 
Q 2884 3475 3122 3366 
z
" transform="scale(0.015625)"/>
       <path id="DejaVuSans-6c" d="M 603 4863 
L 1178 4863 
L 1178 0 
L 603 0 
L 603 4863 
z
" transform="scale(0.015625)"/>
      </defs>
      <use xlink:href="#DejaVuSans-43"/>
      <use xlink:href="#DejaVuSans-69" transform="translate(69.824219 0)"/>
      <use xlink:href="#DejaVuSans-63" transform="translate(97.607422 0)"/>
      <use xlink:href="#DejaVuSans-6c" transform="translate(152.587891 0)"/>
      <use xlink:href="#DejaVuSans-6f" transform="translate(180.371094 0)"/>
     </g>
    </g>
   </g>
   <g id="matplotlib.axis_4">
    <g id="ytick_4">
     <g id="line2d_39">
      <path d="M 73.37 422.220303 
L 458.251291 422.220303 
" clip-path="url(#pe56a66fde4)" style="fill: none; stroke: #b0b0b0; stroke-width: 0.8; stroke-linecap: square"/>
     </g>
     <g id="line2d_40">
      <g>
       <use xlink:href="#mb8f4a1bc79" x="73.37" y="422.220303" style="stroke: #000000; stroke-width: 0.8"/>
      </g>
     </g>
     <g id="text_16">
      <!-- 70 -->
      <g transform="translate(46.01 428.299053) scale(0.16 -0.16)">
       <defs>
        <path id="DejaVuSans-37" d="M 525 4666 
L 3525 4666 
L 3525 4397 
L 1831 0 
L 1172 0 
L 2766 4134 
L 525 4134 
L 525 4666 
z
" transform="scale(0.015625)"/>
       </defs>
       <use xlink:href="#DejaVuSans-37"/>
       <use xlink:href="#DejaVuSans-30" transform="translate(63.623047 0)"/>
      </g>
     </g>
    </g>
    <g id="ytick_5">
     <g id="line2d_41">
      <path d="M 73.37 370.377954 
L 458.251291 370.377954 
" clip-path="url(#pe56a66fde4)" style="fill: none; stroke: #b0b0b0; stroke-width: 0.8; stroke-linecap: square"/>
     </g>
     <g id="line2d_42">
      <g>
       <use xlink:href="#mb8f4a1bc79" x="73.37" y="370.377954" style="stroke: #000000; stroke-width: 0.8"/>
      </g>
     </g>
     <g id="text_17">
      <!-- 80 -->
      <g transform="translate(46.01 376.456704) scale(0.16 -0.16)">
       <use xlink:href="#DejaVuSans-38"/>
       <use xlink:href="#DejaVuSans-30" transform="translate(63.623047 0)"/>
      </g>
     </g>
    </g>
    <g id="ytick_6">
     <g id="line2d_43">
      <path d="M 73.37 318.535605 
L 458.251291 318.535605 
" clip-path="url(#pe56a66fde4)" style="fill: none; stroke: #b0b0b0; stroke-width: 0.8; stroke-linecap: square"/>
     </g>
     <g id="line2d_44">
      <g>
       <use xlink:href="#mb8f4a1bc79" x="73.37" y="318.535605" style="stroke: #000000; stroke-width: 0.8"/>
      </g>
     </g>
     <g id="text_18">
      <!-- 90 -->
      <g transform="translate(46.01 324.614355) scale(0.16 -0.16)">
       <defs>
        <path id="DejaVuSans-39" d="M 703 97 
L 703 672 
Q 941 559 1184 500 
Q 1428 441 1663 441 
Q 2288 441 2617 861 
Q 2947 1281 2994 2138 
Q 2813 1869 2534 1725 
Q 2256 1581 1919 1581 
Q 1219 1581 811 2004 
Q 403 2428 403 3163 
Q 403 3881 828 4315 
Q 1253 4750 1959 4750 
Q 2769 4750 3195 4129 
Q 3622 3509 3622 2328 
Q 3622 1225 3098 567 
Q 2575 -91 1691 -91 
Q 1453 -91 1209 -44 
Q 966 3 703 97 
z
M 1959 2075 
Q 2384 2075 2632 2365 
Q 2881 2656 2881 3163 
Q 2881 3666 2632 3958 
Q 2384 4250 1959 4250 
Q 1534 4250 1286 3958 
Q 1038 3666 1038 3163 
Q 1038 2656 1286 2365 
Q 1534 2075 1959 2075 
z
" transform="scale(0.015625)"/>
       </defs>
       <use xlink:href="#DejaVuSans-39"/>
       <use xlink:href="#DejaVuSans-30" transform="translate(63.623047 0)"/>
      </g>
     </g>
    </g>
    <g id="ytick_7">
     <g id="line2d_45">
      <path d="M 73.37 266.693256 
L 458.251291 266.693256 
" clip-path="url(#pe56a66fde4)" style="fill: none; stroke: #b0b0b0; stroke-width: 0.8; stroke-linecap: square"/>
     </g>
     <g id="line2d_46">
      <g>
       <use xlink:href="#mb8f4a1bc79" x="73.37" y="266.693256" style="stroke: #000000; stroke-width: 0.8"/>
      </g>
     </g>
     <g id="text_19">
      <!-- 100 -->
      <g transform="translate(35.83 272.772006) scale(0.16 -0.16)">
       <use xlink:href="#DejaVuSans-31"/>
       <use xlink:href="#DejaVuSans-30" transform="translate(63.623047 0)"/>
       <use xlink:href="#DejaVuSans-30" transform="translate(127.246094 0)"/>
      </g>
     </g>
    </g>
    <g id="text_20">
     <!-- KPIs / % -->
     <g transform="translate(28.5025 376.68375) rotate(-90) scale(0.16 -0.16)">
      <defs>
       <path id="DejaVuSans-4b" d="M 628 4666 
L 1259 4666 
L 1259 2694 
L 3353 4666 
L 4166 4666 
L 1850 2491 
L 4331 0 
L 3500 0 
L 1259 2247 
L 1259 0 
L 628 0 
L 628 4666 
z
" transform="scale(0.015625)"/>
       <path id="DejaVuSans-50" d="M 1259 4147 
L 1259 2394 
L 2053 2394 
Q 2494 2394 2734 2622 
Q 2975 2850 2975 3272 
Q 2975 3691 2734 3919 
Q 2494 4147 2053 4147 
L 1259 4147 
z
M 628 4666 
L 2053 4666 
Q 2838 4666 3239 4311 
Q 3641 3956 3641 3272 
Q 3641 2581 3239 2228 
Q 2838 1875 2053 1875 
L 1259 1875 
L 1259 0 
L 628 0 
L 628 4666 
z
" transform="scale(0.015625)"/>
       <path id="DejaVuSans-49" d="M 628 4666 
L 1259 4666 
L 1259 0 
L 628 0 
L 628 4666 
z
" transform="scale(0.015625)"/>
       <path id="DejaVuSans-25" d="M 4653 2053 
Q 4381 2053 4226 1822 
Q 4072 1591 4072 1178 
Q 4072 772 4226 539 
Q 4381 306 4653 306 
Q 4919 306 5073 539 
Q 5228 772 5228 1178 
Q 5228 1588 5073 1820 
Q 4919 2053 4653 2053 
z
M 4653 2450 
Q 5147 2450 5437 2106 
Q 5728 1763 5728 1178 
Q 5728 594 5436 251 
Q 5144 -91 4653 -91 
Q 4153 -91 3862 251 
Q 3572 594 3572 1178 
Q 3572 1766 3864 2108 
Q 4156 2450 4653 2450 
z
M 1428 4353 
Q 1159 4353 1004 4120 
Q 850 3888 850 3481 
Q 850 3069 1003 2837 
Q 1156 2606 1428 2606 
Q 1700 2606 1854 2837 
Q 2009 3069 2009 3481 
Q 2009 3884 1853 4118 
Q 1697 4353 1428 4353 
z
M 4250 4750 
L 4750 4750 
L 1831 -91 
L 1331 -91 
L 4250 4750 
z
M 1428 4750 
Q 1922 4750 2215 4408 
Q 2509 4066 2509 3481 
Q 2509 2891 2217 2550 
Q 1925 2209 1428 2209 
Q 931 2209 642 2551 
Q 353 2894 353 3481 
Q 353 4063 643 4406 
Q 934 4750 1428 4750 
z
" transform="scale(0.015625)"/>
      </defs>
      <use xlink:href="#DejaVuSans-4b"/>
      <use xlink:href="#DejaVuSans-50" transform="translate(65.576172 0)"/>
      <use xlink:href="#DejaVuSans-49" transform="translate(125.878906 0)"/>
      <use xlink:href="#DejaVuSans-73" transform="translate(155.371094 0)"/>
      <use xlink:href="#DejaVuSans-20" transform="translate(207.470703 0)"/>
      <use xlink:href="#DejaVuSans-2f" transform="translate(239.257812 0)"/>
      <use xlink:href="#DejaVuSans-20" transform="translate(272.949219 0)"/>
      <use xlink:href="#DejaVuSans-25" transform="translate(304.736328 0)"/>
     </g>
    </g>
   </g>
   <g id="line2d_47">
    <path d="M 90.864604 437.627727 
L 94.398868 431.611293 
L 97.933131 429.767775 
L 101.467395 429.323954 
L 105.001658 428.933686 
L 108.535921 428.48299 
L 112.070185 428.03783 
L 115.604448 427.72747 
L 119.138712 427.404895 
L 122.672975 427.12982 
L 126.207239 426.976403 
L 129.741502 426.804367 
L 133.275766 426.516659 
L 136.810029 426.287396 
L 140.344293 426.161966 
L 143.878556 426.084664 
L 147.41282 426.039654 
L 150.947083 426.020797 
L 154.481346 426.019706 
L 158.01561 426.031161 
L 161.549873 426.048186 
L 165.084137 426.070399 
L 168.6184 426.096339 
L 172.152664 426.129215 
L 175.686927 426.150892 
L 179.221191 426.164994 
L 182.755454 426.17479 
L 186.289718 426.181757 
L 189.823981 426.186765 
L 193.358245 426.190395 
L 196.892508 426.193049 
L 200.426772 426.195014 
L 203.961035 426.196496 
L 207.495298 426.197646 
L 211.029562 426.198577 
L 214.563825 426.199382 
L 218.098089 426.197677 
L 221.632352 426.199325 
L 225.166616 426.198073 
L 228.700879 426.197272 
L 232.235143 426.199784 
L 235.769406 426.198792 
L 239.30367 426.198239 
L 242.837933 426.201283 
L 246.372197 426.200137 
L 249.90646 426.199751 
L 253.440723 426.199625 
L 256.974987 426.199578 
L 260.50925 426.199554 
L 264.043514 426.19954 
L 267.577777 431.01662 
L 271.112041 431.498928 
L 274.646304 431.86733 
L 278.180568 432.108309 
L 281.714831 432.233868 
L 285.249095 432.305875 
L 288.783358 432.350516 
L 292.317622 432.332684 
L 295.851885 432.324397 
L 299.386149 432.334194 
L 302.920412 432.318379 
L 306.454675 432.322687 
L 309.988939 432.279244 
L 313.523202 432.230333 
L 317.057466 432.165488 
L 320.591729 432.121693 
L 324.125993 432.09529 
L 327.660256 432.085157 
L 331.19452 432.085395 
L 334.728783 432.084725 
L 338.263047 432.087375 
L 341.79731 432.093586 
L 345.331574 432.121692 
L 348.865837 432.134456 
L 352.4001 432.151454 
L 355.934364 432.160008 
L 359.468627 432.164912 
L 363.002891 432.192715 
L 366.537154 432.219502 
L 370.071418 432.212641 
L 373.605681 432.210741 
L 377.139945 432.233199 
L 380.674208 432.225058 
L 384.208472 432.22229 
L 387.742735 432.240753 
L 391.276999 432.238107 
L 394.811262 432.237643 
L 398.345525 432.237548 
L 401.879789 432.237483 
L 405.414052 432.237458 
L 408.948316 432.237411 
L 412.482579 432.237394 
L 416.016843 432.237407 
L 419.551106 432.237382 
L 423.08537 432.237329 
L 426.619633 432.237317 
L 430.153897 432.237293 
L 433.68816 432.237296 
L 437.222424 432.237282 
L 440.756687 432.237243 
" clip-path="url(#pe56a66fde4)" style="fill: none; stroke: #1f77b4; stroke-width: 1.5; stroke-linecap: square"/>
   </g>
   <g id="line2d_48">
    <path d="M 90.864604 426.278063 
L 94.398868 426.278063 
L 97.933131 426.278063 
L 101.467395 426.278063 
L 105.001658 426.278063 
L 108.535921 426.278063 
L 112.070185 426.278063 
L 115.604448 426.278063 
L 119.138712 426.278063 
L 122.672975 426.278063 
L 126.207239 426.278063 
L 129.741502 426.278063 
L 133.275766 426.278063 
L 136.810029 426.278063 
L 140.344293 426.278063 
L 143.878556 426.278063 
L 147.41282 426.278063 
L 150.947083 426.278063 
L 154.481346 426.278063 
L 158.01561 426.278063 
L 161.549873 426.278063 
L 165.084137 426.278063 
L 168.6184 426.278063 
L 172.152664 426.278063 
L 175.686927 426.278063 
L 179.221191 426.278063 
L 182.755454 426.278063 
L 186.289718 426.278063 
L 189.823981 426.278063 
L 193.358245 426.278063 
L 196.892508 426.278063 
L 200.426772 426.278063 
L 203.961035 426.278063 
L 207.495298 426.278063 
L 211.029562 426.278063 
L 214.563825 426.278063 
L 218.098089 426.278063 
L 221.632352 426.278063 
L 225.166616 426.278063 
L 228.700879 426.278063 
L 232.235143 426.278063 
L 235.769406 426.278063 
L 239.30367 426.278063 
L 242.837933 426.278063 
L 246.372197 426.278063 
L 249.90646 426.278063 
L 253.440723 426.278063 
L 256.974987 426.278063 
L 260.50925 426.278063 
L 264.043514 426.278063 
L 267.577777 432.453678 
L 271.112041 432.453678 
L 274.646304 432.453678 
L 278.180568 432.453678 
L 281.714831 432.453678 
L 285.249095 432.453678 
L 288.783358 432.453678 
L 292.317622 432.453678 
L 295.851885 432.453678 
L 299.386149 432.453678 
L 302.920412 432.453678 
L 306.454675 432.453678 
L 309.988939 432.453678 
L 313.523202 432.453678 
L 317.057466 432.453678 
L 320.591729 432.453678 
L 324.125993 432.453678 
L 327.660256 432.453678 
L 331.19452 432.453678 
L 334.728783 432.453678 
L 338.263047 432.453678 
L 341.79731 432.453678 
L 345.331574 432.453678 
L 348.865837 432.453678 
L 352.4001 432.453678 
L 355.934364 432.453678 
L 359.468627 432.453678 
L 363.002891 432.453678 
L 366.537154 432.453678 
L 370.071418 432.453678 
L 373.605681 432.453678 
L 377.139945 432.453678 
L 380.674208 432.453678 
L 384.208472 432.453678 
L 387.742735 432.453678 
L 391.276999 432.453678 
L 394.811262 432.453678 
L 398.345525 432.453678 
L 401.879789 432.453678 
L 405.414052 432.453678 
L 408.948316 432.453678 
L 412.482579 432.453678 
L 416.016843 432.453678 
L 419.551106 432.453678 
L 423.08537 432.453678 
L 426.619633 432.453678 
L 430.153897 432.453678 
L 433.68816 432.453678 
L 437.222424 432.453678 
L 440.756687 432.453678 
" clip-path="url(#pe56a66fde4)" style="fill: none; stroke-dasharray: 5.55,2.4; stroke-dashoffset: 0; stroke: #1f77b4; stroke-width: 1.5"/>
   </g>
   <g id="line2d_49">
    <path d="M 90.864604 334.323362 
L 94.398868 349.80239 
L 97.933131 358.893663 
L 101.467395 362.414528 
L 105.001658 363.862856 
L 108.535921 364.676877 
L 112.070185 365.202003 
L 115.604448 365.445069 
L 119.138712 365.557621 
L 122.672975 365.451642 
L 126.207239 365.158538 
L 129.741502 364.914781 
L 133.275766 364.702172 
L 136.810029 364.512582 
L 140.344293 364.255444 
L 143.878556 364.152082 
L 147.41282 364.085182 
L 150.947083 364.025938 
L 154.481346 363.957149 
L 158.01561 363.888938 
L 161.549873 363.833293 
L 165.084137 363.782409 
L 168.6184 363.747205 
L 172.152664 363.70814 
L 175.686927 363.695287 
L 179.221191 363.698558 
L 182.755454 363.710373 
L 186.289718 363.7261 
L 189.823981 363.742989 
L 193.358245 363.759468 
L 196.892508 363.774695 
L 200.426772 363.788276 
L 203.961035 363.800082 
L 207.495298 363.81014 
L 211.029562 363.818556 
L 214.563825 363.825472 
L 218.098089 363.83505 
L 221.632352 363.839897 
L 225.166616 363.845977 
L 228.700879 363.852668 
L 232.235143 363.853184 
L 235.769406 363.855355 
L 239.30367 363.858516 
L 242.837933 363.856759 
L 246.372197 363.856116 
L 249.90646 363.856178 
L 253.440723 363.856256 
L 256.974987 363.85628 
L 260.50925 363.85627 
L 264.043514 363.856244 
L 267.577777 353.816863 
L 271.112041 349.200405 
L 274.646304 346.894261 
L 278.180568 345.45708 
L 281.714831 344.356738 
L 285.249095 343.516433 
L 288.783358 342.839522 
L 292.317622 342.262701 
L 295.851885 341.732028 
L 299.386149 341.227403 
L 302.920412 340.713162 
L 306.454675 340.235997 
L 309.988939 339.906704 
L 313.523202 339.776563 
L 317.057466 339.758356 
L 320.591729 339.75827 
L 324.125993 339.740656 
L 327.660256 339.777367 
L 331.19452 339.745484 
L 334.728783 339.697697 
L 338.263047 339.651915 
L 341.79731 339.613754 
L 345.331574 339.573279 
L 348.865837 339.612148 
L 352.4001 339.586002 
L 355.934364 339.575158 
L 359.468627 339.575089 
L 363.002891 339.613677 
L 366.537154 339.59743 
L 370.071418 339.600182 
L 373.605681 339.6086 
L 377.139945 339.608853 
L 380.674208 339.61506 
L 384.208472 339.622038 
L 387.742735 339.65872 
L 391.276999 339.651653 
L 394.811262 339.64909 
L 398.345525 339.647764 
L 401.879789 339.647041 
L 405.414052 339.646277 
L 408.948316 339.645751 
L 412.482579 339.64507 
L 416.016843 339.644332 
L 419.551106 339.643844 
L 423.08537 339.643483 
L 426.619633 339.642903 
L 430.153897 339.642503 
L 433.68816 339.641928 
L 437.222424 339.641547 
L 440.756687 339.641267 
" clip-path="url(#pe56a66fde4)" style="fill: none; stroke: #ff7f0e; stroke-width: 1.5; stroke-linecap: square"/>
   </g>
   <g id="line2d_50">
    <path d="M 90.864604 363.873596 
L 94.398868 363.873596 
L 97.933131 363.873596 
L 101.467395 363.873596 
L 105.001658 363.873596 
L 108.535921 363.873596 
L 112.070185 363.873596 
L 115.604448 363.873596 
L 119.138712 363.873596 
L 122.672975 363.873596 
L 126.207239 363.873596 
L 129.741502 363.873596 
L 133.275766 363.873596 
L 136.810029 363.873596 
L 140.344293 363.873596 
L 143.878556 363.873596 
L 147.41282 363.873596 
L 150.947083 363.873596 
L 154.481346 363.873596 
L 158.01561 363.873596 
L 161.549873 363.873596 
L 165.084137 363.873596 
L 168.6184 363.873596 
L 172.152664 363.873596 
L 175.686927 363.873596 
L 179.221191 363.873596 
L 182.755454 363.873596 
L 186.289718 363.873596 
L 189.823981 363.873596 
L 193.358245 363.873596 
L 196.892508 363.873596 
L 200.426772 363.873596 
L 203.961035 363.873596 
L 207.495298 363.873596 
L 211.029562 363.873596 
L 214.563825 363.873596 
L 218.098089 363.873596 
L 221.632352 363.873596 
L 225.166616 363.873596 
L 228.700879 363.873596 
L 232.235143 363.873596 
L 235.769406 363.873596 
L 239.30367 363.873596 
L 242.837933 363.873596 
L 246.372197 363.873596 
L 249.90646 363.873596 
L 253.440723 363.873596 
L 256.974987 363.873596 
L 260.50925 363.873596 
L 264.043514 363.873596 
L 267.577777 339.693312 
L 271.112041 339.693312 
L 274.646304 339.693312 
L 278.180568 339.693312 
L 281.714831 339.693312 
L 285.249095 339.693312 
L 288.783358 339.693312 
L 292.317622 339.693312 
L 295.851885 339.693312 
L 299.386149 339.693312 
L 302.920412 339.693312 
L 306.454675 339.693312 
L 309.988939 339.693312 
L 313.523202 339.693312 
L 317.057466 339.693312 
L 320.591729 339.693312 
L 324.125993 339.693312 
L 327.660256 339.693312 
L 331.19452 339.693312 
L 334.728783 339.693312 
L 338.263047 339.693312 
L 341.79731 339.693312 
L 345.331574 339.693312 
L 348.865837 339.693312 
L 352.4001 339.693312 
L 355.934364 339.693312 
L 359.468627 339.693312 
L 363.002891 339.693312 
L 366.537154 339.693312 
L 370.071418 339.693312 
L 373.605681 339.693312 
L 377.139945 339.693312 
L 380.674208 339.693312 
L 384.208472 339.693312 
L 387.742735 339.693312 
L 391.276999 339.693312 
L 394.811262 339.693312 
L 398.345525 339.693312 
L 401.879789 339.693312 
L 405.414052 339.693312 
L 408.948316 339.693312 
L 412.482579 339.693312 
L 416.016843 339.693312 
L 419.551106 339.693312 
L 423.08537 339.693312 
L 426.619633 339.693312 
L 430.153897 339.693312 
L 433.68816 339.693312 
L 437.222424 339.693312 
L 440.756687 339.693312 
" clip-path="url(#pe56a66fde4)" style="fill: none; stroke-dasharray: 5.55,2.4; stroke-dashoffset: 0; stroke: #ff7f0e; stroke-width: 1.5"/>
   </g>
   <g id="line2d_51">
    <path d="M 90.864604 316.168985 
L 94.398868 251.782273 
L 97.933131 256.31795 
L 101.467395 258.883609 
L 105.001658 260.311563 
L 108.535921 261.163924 
L 112.070185 261.707024 
L 115.604448 261.923368 
L 119.138712 261.927971 
L 122.672975 261.947638 
L 126.207239 261.497607 
L 129.741502 260.952084 
L 133.275766 260.807104 
L 136.810029 260.62403 
L 140.344293 260.453557 
L 143.878556 260.345225 
L 147.41282 260.225993 
L 150.947083 260.112159 
L 154.481346 260.045995 
L 158.01561 259.943818 
L 161.549873 259.827788 
L 165.084137 259.780888 
L 168.6184 259.738746 
L 172.152664 259.734178 
L 175.686927 259.726132 
L 179.221191 259.740002 
L 182.755454 259.759412 
L 186.289718 259.779508 
L 189.823981 259.798486 
L 193.358245 259.815581 
L 196.892508 259.830525 
L 200.426772 259.84331 
L 203.961035 259.854065 
L 207.495298 259.862982 
L 211.029562 259.870268 
L 214.563825 259.876122 
L 218.098089 259.880188 
L 221.632352 259.888698 
L 225.166616 259.890793 
L 228.700879 259.894177 
L 232.235143 259.899591 
L 235.769406 259.899923 
L 239.30367 259.901297 
L 242.837933 259.90165 
L 246.372197 259.905904 
L 249.90646 259.907817 
L 253.440723 259.908385 
L 256.974987 259.908511 
L 260.50925 259.908488 
L 264.043514 259.908414 
L 267.577777 273.648779 
L 271.112041 270.983949 
L 274.646304 269.476888 
L 278.180568 268.443937 
L 281.714831 267.775539 
L 285.249095 266.862431 
L 288.783358 266.045409 
L 292.317622 265.300676 
L 295.851885 264.712394 
L 299.386149 264.134962 
L 302.920412 263.697096 
L 306.454675 263.258064 
L 309.988939 263.119322 
L 313.523202 263.076642 
L 317.057466 263.050935 
L 320.591729 263.022679 
L 324.125993 263.017701 
L 327.660256 262.955764 
L 331.19452 262.911972 
L 334.728783 262.875458 
L 338.263047 262.846626 
L 341.79731 262.824144 
L 345.331574 262.713077 
L 348.865837 262.77489 
L 352.4001 262.718378 
L 355.934364 262.710167 
L 359.468627 262.712024 
L 363.002891 262.750025 
L 366.537154 262.709074 
L 370.071418 262.747463 
L 373.605681 262.763934 
L 377.139945 262.728686 
L 380.674208 262.770128 
L 384.208472 262.784524 
L 387.742735 262.787117 
L 391.276999 262.805281 
L 394.811262 262.805454 
L 398.345525 262.80471 
L 401.879789 262.803192 
L 405.414052 262.802696 
L 408.948316 262.801369 
L 412.482579 262.801048 
L 416.016843 262.800541 
L 419.551106 262.799309 
L 423.08537 262.798369 
L 426.619633 262.798322 
L 430.153897 262.7973 
L 433.68816 262.797262 
L 437.222424 262.796292 
L 440.756687 262.795565 
" clip-path="url(#pe56a66fde4)" style="fill: none; stroke: #2ca02c; stroke-width: 1.5; stroke-linecap: square"/>
   </g>
   <g id="line2d_52">
    <path d="M 90.864604 259.888668 
L 94.398868 259.888668 
L 97.933131 259.888668 
L 101.467395 259.888668 
L 105.001658 259.888668 
L 108.535921 259.888668 
L 112.070185 259.888668 
L 115.604448 259.888668 
L 119.138712 259.888668 
L 122.672975 259.888668 
L 126.207239 259.888668 
L 129.741502 259.888668 
L 133.275766 259.888668 
L 136.810029 259.888668 
L 140.344293 259.888668 
L 143.878556 259.888668 
L 147.41282 259.888668 
L 150.947083 259.888668 
L 154.481346 259.888668 
L 158.01561 259.888668 
L 161.549873 259.888668 
L 165.084137 259.888668 
L 168.6184 259.888668 
L 172.152664 259.888668 
L 175.686927 259.888668 
L 179.221191 259.888668 
L 182.755454 259.888668 
L 186.289718 259.888668 
L 189.823981 259.888668 
L 193.358245 259.888668 
L 196.892508 259.888668 
L 200.426772 259.888668 
L 203.961035 259.888668 
L 207.495298 259.888668 
L 211.029562 259.888668 
L 214.563825 259.888668 
L 218.098089 259.888668 
L 221.632352 259.888668 
L 225.166616 259.888668 
L 228.700879 259.888668 
L 232.235143 259.888668 
L 235.769406 259.888668 
L 239.30367 259.888668 
L 242.837933 259.888668 
L 246.372197 259.888668 
L 249.90646 259.888668 
L 253.440723 259.888668 
L 256.974987 259.888668 
L 260.50925 259.888668 
L 264.043514 259.888668 
L 267.577777 262.802221 
L 271.112041 262.802221 
L 274.646304 262.802221 
L 278.180568 262.802221 
L 281.714831 262.802221 
L 285.249095 262.802221 
L 288.783358 262.802221 
L 292.317622 262.802221 
L 295.851885 262.802221 
L 299.386149 262.802221 
L 302.920412 262.802221 
L 306.454675 262.802221 
L 309.988939 262.802221 
L 313.523202 262.802221 
L 317.057466 262.802221 
L 320.591729 262.802221 
L 324.125993 262.802221 
L 327.660256 262.802221 
L 331.19452 262.802221 
L 334.728783 262.802221 
L 338.263047 262.802221 
L 341.79731 262.802221 
L 345.331574 262.802221 
L 348.865837 262.802221 
L 352.4001 262.802221 
L 355.934364 262.802221 
L 359.468627 262.802221 
L 363.002891 262.802221 
L 366.537154 262.802221 
L 370.071418 262.802221 
L 373.605681 262.802221 
L 377.139945 262.802221 
L 380.674208 262.802221 
L 384.208472 262.802221 
L 387.742735 262.802221 
L 391.276999 262.802221 
L 394.811262 262.802221 
L 398.345525 262.802221 
L 401.879789 262.802221 
L 405.414052 262.802221 
L 408.948316 262.802221 
L 412.482579 262.802221 
L 416.016843 262.802221 
L 419.551106 262.802221 
L 423.08537 262.802221 
L 426.619633 262.802221 
L 430.153897 262.802221 
L 433.68816 262.802221 
L 437.222424 262.802221 
L 440.756687 262.802221 
" clip-path="url(#pe56a66fde4)" style="fill: none; stroke-dasharray: 5.55,2.4; stroke-dashoffset: 0; stroke: #2ca02c; stroke-width: 1.5"/>
   </g>
   <g id="patch_8">
    <path d="M 73.37 446.92 
L 73.37 242.49 
" style="fill: none; stroke: #000000; stroke-width: 0.8; stroke-linejoin: miter; stroke-linecap: square"/>
   </g>
   <g id="patch_9">
    <path d="M 458.251291 446.92 
L 458.251291 242.49 
" style="fill: none; stroke: #000000; stroke-width: 0.8; stroke-linejoin: miter; stroke-linecap: square"/>
   </g>
   <g id="patch_10">
    <path d="M 73.37 446.92 
L 458.251291 446.92 
" style="fill: none; stroke: #000000; stroke-width: 0.8; stroke-linejoin: miter; stroke-linecap: square"/>
   </g>
   <g id="patch_11">
    <path d="M 73.37 242.49 
L 458.251291 242.49 
" style="fill: none; stroke: #000000; stroke-width: 0.8; stroke-linejoin: miter; stroke-linecap: square"/>
   </g>
   <g id="legend_2">
    <g id="line2d_53">
     <path d="M 472.651291 284.4525 
L 488.651291 284.4525 
L 504.651291 284.4525 
" style="fill: none; stroke: #1f77b4; stroke-width: 1.5; stroke-linecap: square"/>
    </g>
    <g id="text_21">
     <!-- Pureza do H$_2$ -->
     <g transform="translate(517.451291 290.0525) scale(0.16 -0.16)">
      <defs>
       <path id="DejaVuSans-7a" d="M 353 3500 
L 3084 3500 
L 3084 2975 
L 922 459 
L 3084 459 
L 3084 0 
L 275 0 
L 275 525 
L 2438 3041 
L 353 3041 
L 353 3500 
z
" transform="scale(0.015625)"/>
       <path id="DejaVuSans-48" d="M 628 4666 
L 1259 4666 
L 1259 2753 
L 3553 2753 
L 3553 4666 
L 4184 4666 
L 4184 0 
L 3553 0 
L 3553 2222 
L 1259 2222 
L 1259 0 
L 628 0 
L 628 4666 
z
" transform="scale(0.015625)"/>
      </defs>
      <use xlink:href="#DejaVuSans-50" transform="translate(0 0.015625)"/>
      <use xlink:href="#DejaVuSans-75" transform="translate(60.302734 0.015625)"/>
      <use xlink:href="#DejaVuSans-72" transform="translate(123.681641 0.015625)"/>
      <use xlink:href="#DejaVuSans-65" transform="translate(164.794922 0.015625)"/>
      <use xlink:href="#DejaVuSans-7a" transform="translate(226.318359 0.015625)"/>
      <use xlink:href="#DejaVuSans-61" transform="translate(278.808594 0.015625)"/>
      <use xlink:href="#DejaVuSans-20" transform="translate(340.087891 0.015625)"/>
      <use xlink:href="#DejaVuSans-64" transform="translate(371.875 0.015625)"/>
      <use xlink:href="#DejaVuSans-6f" transform="translate(435.351562 0.015625)"/>
      <use xlink:href="#DejaVuSans-20" transform="translate(496.533203 0.015625)"/>
      <use xlink:href="#DejaVuSans-48" transform="translate(528.320312 0.015625)"/>
      <use xlink:href="#DejaVuSans-32" transform="translate(604.472656 -16.390625) scale(0.7)"/>
     </g>
    </g>
    <g id="line2d_54">
     <path d="M 472.651291 307.9375 
L 488.651291 307.9375 
L 504.651291 307.9375 
" style="fill: none; stroke-dasharray: 5.55,2.4; stroke-dashoffset: 0; stroke: #1f77b4; stroke-width: 1.5"/>
    </g>
    <g id="text_22">
     <!-- Pureza do H$_2$ (SP) -->
     <g transform="translate(517.451291 313.5375) scale(0.16 -0.16)">
      <defs>
       <path id="DejaVuSans-28" d="M 1984 4856 
Q 1566 4138 1362 3434 
Q 1159 2731 1159 2009 
Q 1159 1288 1364 580 
Q 1569 -128 1984 -844 
L 1484 -844 
Q 1016 -109 783 600 
Q 550 1309 550 2009 
Q 550 2706 781 3412 
Q 1013 4119 1484 4856 
L 1984 4856 
z
" transform="scale(0.015625)"/>
       <path id="DejaVuSans-53" d="M 3425 4513 
L 3425 3897 
Q 3066 4069 2747 4153 
Q 2428 4238 2131 4238 
Q 1616 4238 1336 4038 
Q 1056 3838 1056 3469 
Q 1056 3159 1242 3001 
Q 1428 2844 1947 2747 
L 2328 2669 
Q 3034 2534 3370 2195 
Q 3706 1856 3706 1288 
Q 3706 609 3251 259 
Q 2797 -91 1919 -91 
Q 1588 -91 1214 -16 
Q 841 59 441 206 
L 441 856 
Q 825 641 1194 531 
Q 1563 422 1919 422 
Q 2459 422 2753 634 
Q 3047 847 3047 1241 
Q 3047 1584 2836 1778 
Q 2625 1972 2144 2069 
L 1759 2144 
Q 1053 2284 737 2584 
Q 422 2884 422 3419 
Q 422 4038 858 4394 
Q 1294 4750 2059 4750 
Q 2388 4750 2728 4690 
Q 3069 4631 3425 4513 
z
" transform="scale(0.015625)"/>
       <path id="DejaVuSans-29" d="M 513 4856 
L 1013 4856 
Q 1481 4119 1714 3412 
Q 1947 2706 1947 2009 
Q 1947 1309 1714 600 
Q 1481 -109 1013 -844 
L 513 -844 
Q 928 -128 1133 580 
Q 1338 1288 1338 2009 
Q 1338 2731 1133 3434 
Q 928 4138 513 4856 
z
" transform="scale(0.015625)"/>
      </defs>
      <use xlink:href="#DejaVuSans-50" transform="translate(0 0.015625)"/>
      <use xlink:href="#DejaVuSans-75" transform="translate(60.302734 0.015625)"/>
      <use xlink:href="#DejaVuSans-72" transform="translate(123.681641 0.015625)"/>
      <use xlink:href="#DejaVuSans-65" transform="translate(164.794922 0.015625)"/>
      <use xlink:href="#DejaVuSans-7a" transform="translate(226.318359 0.015625)"/>
      <use xlink:href="#DejaVuSans-61" transform="translate(278.808594 0.015625)"/>
      <use xlink:href="#DejaVuSans-20" transform="translate(340.087891 0.015625)"/>
      <use xlink:href="#DejaVuSans-64" transform="translate(371.875 0.015625)"/>
      <use xlink:href="#DejaVuSans-6f" transform="translate(435.351562 0.015625)"/>
      <use xlink:href="#DejaVuSans-20" transform="translate(496.533203 0.015625)"/>
      <use xlink:href="#DejaVuSans-48" transform="translate(528.320312 0.015625)"/>
      <use xlink:href="#DejaVuSans-32" transform="translate(604.472656 -16.390625) scale(0.7)"/>
      <use xlink:href="#DejaVuSans-20" transform="translate(651.743164 0.015625)"/>
      <use xlink:href="#DejaVuSans-28" transform="translate(683.530273 0.015625)"/>
      <use xlink:href="#DejaVuSans-53" transform="translate(722.543945 0.015625)"/>
      <use xlink:href="#DejaVuSans-50" transform="translate(786.020508 0.015625)"/>
      <use xlink:href="#DejaVuSans-29" transform="translate(846.323242 0.015625)"/>
     </g>
    </g>
    <g id="line2d_55">
     <path d="M 472.651291 331.4225 
L 488.651291 331.4225 
L 504.651291 331.4225 
" style="fill: none; stroke: #ff7f0e; stroke-width: 1.5; stroke-linecap: square"/>
    </g>
    <g id="text_23">
     <!-- Pureza do CO$_2$ -->
     <g transform="translate(517.451291 337.0225) scale(0.16 -0.16)">
      <defs>
       <path id="DejaVuSans-4f" d="M 2522 4238 
Q 1834 4238 1429 3725 
Q 1025 3213 1025 2328 
Q 1025 1447 1429 934 
Q 1834 422 2522 422 
Q 3209 422 3611 934 
Q 4013 1447 4013 2328 
Q 4013 3213 3611 3725 
Q 3209 4238 2522 4238 
z
M 2522 4750 
Q 3503 4750 4090 4092 
Q 4678 3434 4678 2328 
Q 4678 1225 4090 567 
Q 3503 -91 2522 -91 
Q 1538 -91 948 565 
Q 359 1222 359 2328 
Q 359 3434 948 4092 
Q 1538 4750 2522 4750 
z
" transform="scale(0.015625)"/>
      </defs>
      <use xlink:href="#DejaVuSans-50" transform="translate(0 0.015625)"/>
      <use xlink:href="#DejaVuSans-75" transform="translate(60.302734 0.015625)"/>
      <use xlink:href="#DejaVuSans-72" transform="translate(123.681641 0.015625)"/>
      <use xlink:href="#DejaVuSans-65" transform="translate(164.794922 0.015625)"/>
      <use xlink:href="#DejaVuSans-7a" transform="translate(226.318359 0.015625)"/>
      <use xlink:href="#DejaVuSans-61" transform="translate(278.808594 0.015625)"/>
      <use xlink:href="#DejaVuSans-20" transform="translate(340.087891 0.015625)"/>
      <use xlink:href="#DejaVuSans-64" transform="translate(371.875 0.015625)"/>
      <use xlink:href="#DejaVuSans-6f" transform="translate(435.351562 0.015625)"/>
      <use xlink:href="#DejaVuSans-20" transform="translate(496.533203 0.015625)"/>
      <use xlink:href="#DejaVuSans-43" transform="translate(528.320312 0.015625)"/>
      <use xlink:href="#DejaVuSans-4f" transform="translate(598.144531 0.015625)"/>
      <use xlink:href="#DejaVuSans-32" transform="translate(677.8125 -16.390625) scale(0.7)"/>
     </g>
    </g>
    <g id="line2d_56">
     <path d="M 472.651291 354.9075 
L 488.651291 354.9075 
L 504.651291 354.9075 
" style="fill: none; stroke-dasharray: 5.55,2.4; stroke-dashoffset: 0; stroke: #ff7f0e; stroke-width: 1.5"/>
    </g>
    <g id="text_24">
     <!-- Pureza do CO$_2$ (SP) -->
     <g transform="translate(517.451291 360.5075) scale(0.16 -0.16)">
      <use xlink:href="#DejaVuSans-50" transform="translate(0 0.015625)"/>
      <use xlink:href="#DejaVuSans-75" transform="translate(60.302734 0.015625)"/>
      <use xlink:href="#DejaVuSans-72" transform="translate(123.681641 0.015625)"/>
      <use xlink:href="#DejaVuSans-65" transform="translate(164.794922 0.015625)"/>
      <use xlink:href="#DejaVuSans-7a" transform="translate(226.318359 0.015625)"/>
      <use xlink:href="#DejaVuSans-61" transform="translate(278.808594 0.015625)"/>
      <use xlink:href="#DejaVuSans-20" transform="translate(340.087891 0.015625)"/>
      <use xlink:href="#DejaVuSans-64" transform="translate(371.875 0.015625)"/>
      <use xlink:href="#DejaVuSans-6f" transform="translate(435.351562 0.015625)"/>
      <use xlink:href="#DejaVuSans-20" transform="translate(496.533203 0.015625)"/>
      <use xlink:href="#DejaVuSans-43" transform="translate(528.320312 0.015625)"/>
      <use xlink:href="#DejaVuSans-4f" transform="translate(598.144531 0.015625)"/>
      <use xlink:href="#DejaVuSans-32" transform="translate(677.8125 -16.390625) scale(0.7)"/>
      <use xlink:href="#DejaVuSans-20" transform="translate(725.083008 0.015625)"/>
      <use xlink:href="#DejaVuSans-28" transform="translate(756.870117 0.015625)"/>
      <use xlink:href="#DejaVuSans-53" transform="translate(795.883789 0.015625)"/>
      <use xlink:href="#DejaVuSans-50" transform="translate(859.360352 0.015625)"/>
      <use xlink:href="#DejaVuSans-29" transform="translate(919.663086 0.015625)"/>
     </g>
    </g>
    <g id="line2d_57">
     <path d="M 472.651291 378.715 
L 488.651291 378.715 
L 504.651291 378.715 
" style="fill: none; stroke: #2ca02c; stroke-width: 1.5; stroke-linecap: square"/>
    </g>
    <g id="text_25">
     <!-- Recuperação CO$_2$ -->
     <g transform="translate(517.451291 384.315) scale(0.16 -0.16)">
      <defs>
       <path id="DejaVuSans-52" d="M 2841 2188 
Q 3044 2119 3236 1894 
Q 3428 1669 3622 1275 
L 4263 0 
L 3584 0 
L 2988 1197 
Q 2756 1666 2539 1819 
Q 2322 1972 1947 1972 
L 1259 1972 
L 1259 0 
L 628 0 
L 628 4666 
L 2053 4666 
Q 2853 4666 3247 4331 
Q 3641 3997 3641 3322 
Q 3641 2881 3436 2590 
Q 3231 2300 2841 2188 
z
M 1259 4147 
L 1259 2491 
L 2053 2491 
Q 2509 2491 2742 2702 
Q 2975 2913 2975 3322 
Q 2975 3731 2742 3939 
Q 2509 4147 2053 4147 
L 1259 4147 
z
" transform="scale(0.015625)"/>
      </defs>
      <use xlink:href="#DejaVuSans-52" transform="translate(0 0.3125)"/>
      <use xlink:href="#DejaVuSans-65" transform="translate(69.482422 0.3125)"/>
      <use xlink:href="#DejaVuSans-63" transform="translate(131.005859 0.3125)"/>
      <use xlink:href="#DejaVuSans-75" transform="translate(185.986328 0.3125)"/>
      <use xlink:href="#DejaVuSans-70" transform="translate(249.365234 0.3125)"/>
      <use xlink:href="#DejaVuSans-65" transform="translate(312.841797 0.3125)"/>
      <use xlink:href="#DejaVuSans-72" transform="translate(374.365234 0.3125)"/>
      <use xlink:href="#DejaVuSans-61" transform="translate(415.478516 0.3125)"/>
      <use xlink:href="#DejaVuSans-e7" transform="translate(476.757812 0.3125)"/>
      <use xlink:href="#DejaVuSans-e3" transform="translate(531.738281 0.3125)"/>
      <use xlink:href="#DejaVuSans-6f" transform="translate(593.017578 0.3125)"/>
      <use xlink:href="#DejaVuSans-20" transform="translate(654.199219 0.3125)"/>
      <use xlink:href="#DejaVuSans-43" transform="translate(685.986328 0.3125)"/>
      <use xlink:href="#DejaVuSans-4f" transform="translate(755.810547 0.3125)"/>
      <use xlink:href="#DejaVuSans-32" transform="translate(835.478516 -16.09375) scale(0.7)"/>
     </g>
    </g>
    <g id="line2d_58">
     <path d="M 472.651291 402.555 
L 488.651291 402.555 
L 504.651291 402.555 
" style="fill: none; stroke-dasharray: 5.55,2.4; stroke-dashoffset: 0; stroke: #2ca02c; stroke-width: 1.5"/>
    </g>
    <g id="text_26">
     <!-- Recuperação CO$_2$ (SP) -->
     <g transform="translate(517.451291 408.155) scale(0.16 -0.16)">
      <use xlink:href="#DejaVuSans-52" transform="translate(0 0.3125)"/>
      <use xlink:href="#DejaVuSans-65" transform="translate(69.482422 0.3125)"/>
      <use xlink:href="#DejaVuSans-63" transform="translate(131.005859 0.3125)"/>
      <use xlink:href="#DejaVuSans-75" transform="translate(185.986328 0.3125)"/>
      <use xlink:href="#DejaVuSans-70" transform="translate(249.365234 0.3125)"/>
      <use xlink:href="#DejaVuSans-65" transform="translate(312.841797 0.3125)"/>
      <use xlink:href="#DejaVuSans-72" transform="translate(374.365234 0.3125)"/>
      <use xlink:href="#DejaVuSans-61" transform="translate(415.478516 0.3125)"/>
      <use xlink:href="#DejaVuSans-e7" transform="translate(476.757812 0.3125)"/>
      <use xlink:href="#DejaVuSans-e3" transform="translate(531.738281 0.3125)"/>
      <use xlink:href="#DejaVuSans-6f" transform="translate(593.017578 0.3125)"/>
      <use xlink:href="#DejaVuSans-20" transform="translate(654.199219 0.3125)"/>
      <use xlink:href="#DejaVuSans-43" transform="translate(685.986328 0.3125)"/>
      <use xlink:href="#DejaVuSans-4f" transform="translate(755.810547 0.3125)"/>
      <use xlink:href="#DejaVuSans-32" transform="translate(835.478516 -16.09375) scale(0.7)"/>
      <use xlink:href="#DejaVuSans-20" transform="translate(882.749023 0.3125)"/>
      <use xlink:href="#DejaVuSans-28" transform="translate(914.536133 0.3125)"/>
      <use xlink:href="#DejaVuSans-53" transform="translate(953.549805 0.3125)"/>
      <use xlink:href="#DejaVuSans-50" transform="translate(1017.026367 0.3125)"/>
      <use xlink:href="#DejaVuSans-29" transform="translate(1077.329102 0.3125)"/>
     </g>
    </g>
   </g>
  </g>
 </g>
 <defs>
  <clipPath id="pc5be071f0b">
   <rect x="73.37" y="17.28" width="384.881291" height="204.43"/>
  </clipPath>
  <clipPath id="pe56a66fde4">
   <rect x="73.37" y="242.49" width="384.881291" height="204.43"/>
  </clipPath>
 </defs>
</svg>
